<?xml version="1.0" standalone="no"?>
<!DOCTYPE svg PUBLIC "-//W3C//DTD SVG 1.1//EN" "http://www.w3.org/Graphics/SVG/1.1/DTD/svg11.dtd" >
<svg xmlns="http://www.w3.org/2000/svg" xmlns:xlink="http://www.w3.org/1999/xlink" version="1.1">
<metadata>
Created by FontForge 20161003 at Thu Feb  1 06:46:38 2018
 By www-data
Copyright 1990-1993 FontBank, Inc.
</metadata>
<defs>
<font id="DicotMedium_Regular" horiz-adv-x="572" >
  <font-face 
    font-family="DicotMedium_Regular"
    font-weight="5"
    font-stretch="normal"
    units-per-em="1000"
    panose-1="0 0 0 0 0 0 0 0 0 0"
    ascent="800"
    descent="-200"
    x-height="540"
    cap-height="720"
    bbox="-48 -176 938 922"
    underline-thickness="20"
    underline-position="-160"
    unicode-range="U+0020-25CA"
  />
<missing-glyph horiz-adv-x="804" 
d="M50 0v804h704v-804h-704zM704 50v704h-604v-704h604z" />
    <glyph glyph-name=".notdef" horiz-adv-x="804" 
d="M50 0v804h704v-804h-704zM704 50v704h-604v-704h604z" />
    <glyph glyph-name=".null" unicode="&#xd7;" horiz-adv-x="0" 
 />
    <glyph glyph-name="nonmarkingreturn" horiz-adv-x="290" 
 />
    <glyph glyph-name="space" unicode=" " horiz-adv-x="290" 
 />
    <glyph glyph-name="exclam" unicode="!" horiz-adv-x="249" 
d="M71 159h105v561h-105v-561zM63 63q0 25 18 43.5t43 18.5t43.5 -18t18.5 -45q0 -26 -18 -44t-43 -18q-26 0 -44 18t-18 45z" />
    <glyph glyph-name="quotedbl" unicode="&#x22;" horiz-adv-x="311" 
d="M67 720h77l-21 -230h-76zM192 720h77l-21 -230h-76z" />
    <glyph glyph-name="dollar" unicode="$" horiz-adv-x="551" 
d="M42 0v103h215v210h-41q-77 0 -124.5 42.5t-47.5 105.5v90q0 58 21.5 94.5t68.5 59.5q33 15 82 15h41v41h43v-41h209v-105h-209v-208h43q20 0 30 -2q108 -15 129 -107l2 -24v-116l-3 -32q-18 -102 -124 -123l-34 -3h-43v-100h-43v100h-215zM331 103l10 1q25 3 37.5 13.5
t18.5 34.5l2 12v92q0 14 -7.5 27t-20.5 19.5t-36 9.5l-11 1h-24v-210h31zM150 471q9 -63 65 -63h42v207h-45l-12 -1q-23 -3 -33.5 -13.5t-16.5 -35.5l-1 -9v-73z" />
    <glyph glyph-name="percent" unicode="%" horiz-adv-x="735" 
d="M35 514v108q0 41 21.5 65.5t66.5 31.5l20 1h91l20 -1q44 -7 66 -31.5t22 -65.5v-108q0 -45 -28 -71.5t-80 -26.5h-91q-70 0 -96 49q-8 16 -12 49zM115 0h104l405 720h-106zM394 96v108q0 84 87 97l20 1h91l21 -1q87 -13 87 -97v-108q0 -45 -28 -71.5t-80 -26.5h-91
q-64 0 -92 49q-9 16 -15 49zM128 528q0 -23 36 -23h43q16 0 26 7t10 16v80q0 10 -12.5 16.5t-29.5 6.5h-37q-36 0 -36 -23v-80zM487 111q0 -24 36 -24h43q35 0 35 24v79q0 23 -35 23h-43q-16 0 -26 -7t-10 -16v-79z" />
    <glyph glyph-name="ampersand" unicode="&#x26;" horiz-adv-x="726" 
d="M42 236q0 11 5.5 28t17.5 38q8 14 15.5 22.5t20.5 15.5l72 42l-49 56l-9 11q-20 28 -24 66l-1 14v59q0 17 7.5 35.5t25.5 42.5q23 29 53 41.5t82 12.5h83q91 0 134 -67q23 -35 23 -66v-71q0 -46 -47 -89q-11 -11 -21 -16l-87 -52l155 -154l3 38v122h104v-145
q0 -59 -20 -102l114 -118h-146l-33 39q-54 -39 -127 -39h-184q-41 0 -88 28q-36 21 -57.5 56.5t-21.5 71.5v80zM143 167q0 -15 13.5 -36t52.5 -21h175q35 0 45 3q2 5 5 10l-184 185l-78 -47q-5 -3 -10 -8q-1 -1 -7 -10q-12 -17 -12 -32v-44zM196 527l10 -23q2 -5 31 -37
q9 -10 29 -31l112 71q8 4 11 13.5t3 19.5v25q0 11 -11 31t-44 20l-86 1l-10 -1q-23 -5 -34 -19q-14 -19 -14 -34v-20z" />
    <glyph glyph-name="quotesingle" unicode="'" horiz-adv-x="191" 
d="M47 490l20 230h77l-21 -230h-76z" />
    <glyph glyph-name="parenleft" unicode="(" horiz-adv-x="267" 
d="M63 57v575q0 39 7 67q15 58 45 96h117q-39 -41 -56 -104q-9 -32 -9 -70v-553q0 -38 9 -71t21.5 -56.5t34.5 -46.5h-117q-30 38 -45 96q-7 28 -7 67z" />
    <glyph glyph-name="parenright" unicode=")" horiz-adv-x="267" 
d="M35 -106q20 22 33.5 46t22 55t8.5 73v553q0 42 -8 70q-17 63 -56 104h116q31 -38 45 -96q4 -16 6 -30t2 -37v-575q0 -20 -2 -35t-6 -32q-14 -58 -45 -96h-116z" />
    <glyph glyph-name="asterisk" unicode="*" horiz-adv-x="396" 
d="M38 601l41 77l118 -118l-43 160h90l-38 -157l111 113l41 -77l-152 -42l152 -44l-41 -77l-116 116l42 -155h-89l42 154l-117 -114l-40 78l153 41z" />
    <glyph glyph-name="comma" unicode="," horiz-adv-x="182" 
d="M142 15l-48 -115h-61l45 101q-22 4 -36.5 20.5t-14.5 39.5q0 29 18.5 47.5t44.5 18.5q28 0 46.5 -20t18.5 -42q0 -21 -13 -50z" />
    <glyph glyph-name="hyphen" unicode="-" horiz-adv-x="327" 
d="M35 334h257v-104l-257 -1v105z" />
    <glyph glyph-name="period" unicode="." horiz-adv-x="177" 
d="M27 63q0 25 18 43.5t43 18.5t43.5 -18t18.5 -45q0 -26 -18 -44t-43 -18q-26 0 -44 18t-18 45z" />
    <glyph glyph-name="slash" unicode="/" horiz-adv-x="579" 
d="M35 0l403 720h106l-406 -720h-103z" />
    <glyph glyph-name="zero" unicode="0" horiz-adv-x="649" 
d="M66 202v316q0 54 11 86.5t39.5 63t62.5 41.5t106 11h79q73 0 106 -10.5t64 -43.5q49 -52 49 -148v-316q0 -53 -11 -86.5t-38 -61.5q-31 -32 -64.5 -43t-105.5 -11h-79q-101 0 -157 52q-41 37 -55 97q-4 26 -7 53zM257 105l12 -1h112l13 1q49 0 66.5 19.5t17.5 72.5v326
q0 53 -17.5 72.5t-66.5 19.5l-13 1h-112l-12 -1q-50 0 -68.5 -19.5t-18.5 -72.5v-326q0 -52 18 -72t69 -20z" />
    <glyph glyph-name="one" unicode="1" horiz-adv-x="648" 
d="M272 0v720h104v-720h-104z" />
    <glyph glyph-name="two" unicode="2" horiz-adv-x="648" 
d="M93 0v223l2 29q10 73 56.5 110t98.5 37h150q15 0 27.5 9.5t17.5 24.5q5 10 5 19v102l-1 13q-6 40 -40 47l-12 2h-304v104h297q72 0 117 -42l19 -22q28 -40 28 -84v-121q0 -83 -66 -128q-43 -29 -88 -29h-138l-11 -1q-30 -6 -41 -19t-11 -42v-128l356 1v-105h-462z" />
    <glyph glyph-name="three" unicode="3" horiz-adv-x="649" 
d="M82 0v104h300l11 1q33 7 43 37l4 19v78l-1 12q-2 25 -13 37t-37 19l-13 2h-141v104h141l12 2q28 6 38 17t14 41v11v77q0 8 -4 19q-10 31 -43 37l-11 1h-300v102h290q46 0 74.5 -10t53.5 -33q45 -45 45 -104v-103q0 -84 -69 -109q54 -17 67 -88l2 -20v-104q0 -63 -48 -106
t-125 -43h-290z" />
    <glyph glyph-name="four" unicode="4" horiz-adv-x="648" 
d="M69 345l230 375h120l-247 -408l257 -1v409h105v-720h-105v209h-264q-51 0 -80 24.5t-29 62.5q0 11 2.5 22t10.5 27z" />
    <glyph glyph-name="five" unicode="5" horiz-adv-x="648" 
d="M90 0v104h288q39 0 58 22q14 17 14 35v133q0 56 -56 64l-12 1h-291v361h463v-104h-359v-152h191l35 -3q113 -21 131 -132l2 -29v-134q0 -66 -41 -112q-26 -29 -55.5 -41.5t-73.5 -12.5h-294z" />
    <glyph glyph-name="six" unicode="6" horiz-adv-x="647" 
d="M63 162v392q0 73 34.5 114.5t101.5 49.5q8 2 25 2h360v-104h-349q-57 0 -66 -51l-2 -12v-90h244q67 0 110.5 -31.5t57.5 -90.5q4 -16 4 -35v-144q0 -77 -61 -126q-45 -36 -92 -36h-202q-52 0 -90 26q-75 50 -75 136zM182 133q10 -14 36 -23q18 -6 25 -6h177l22 5
q28 11 36 45l1 9v134q0 30 -11.5 42.5t-44.5 18.5l-12 1h-174l-11 -1q-59 -7 -59 -57v-129q0 -21 15 -39z" />
    <glyph glyph-name="seven" unicode="7" horiz-adv-x="648" 
d="M79 616v104h401q46 0 68 -34l9 -17q3 -7 4 -17.5t1 -11.5q0 -17 -5 -27l-260 -613h-115l263 616h-366z" />
    <glyph glyph-name="eight" unicode="8" horiz-adv-x="648" 
d="M65 152v80l2 27q6 42 21 65t42 36q-26 12 -41.5 36.5t-21.5 65.5l-2 27v80q0 31 17 66t47.5 55.5t82.5 27.5q8 2 17.5 2h14.5h160q22 0 32 -2q96 -13 131 -86q16 -32 16 -63v-80l-2 -27q-11 -78 -63 -102q27 -12 42 -36t21 -65l2 -27v-80q0 -82 -87 -131q-38 -21 -92 -21
h-160q-54 0 -94 21.5t-60 52.5t-25 78zM174 148q16 -44 74 -44h146q24 0 38.5 5t26.5 16l9 11q11 16 11 35v77l-2 11q-9 43 -62 50l-14 1h-160l-13 -1q-48 -7 -57 -50l-2 -11v-77q-2 -5 1 -12t4 -11zM171 469q7 -42 51 -53l13 -2h171l16 2q57 13 57 68v65l-2 16
q-9 50 -59 50l-14 1h-166q-69 0 -69 -67v-65z" />
    <glyph glyph-name="nine" unicode="9" horiz-adv-x="647" 
d="M63 0v104h349q56 0 67 51l1 12v90h-243q-67 0 -111 32t-58 91q-2 8 -3 15.5t-1 18.5v144q0 77 61 126q45 36 92 36h202q53 0 91 -26q74 -51 74 -136v-392q0 -73 -34.5 -114.5t-100.5 -49.5l-26 -2h-360zM224 362l12 -1h174l11 1q59 7 59 57v130q0 19 -14 38q-6 8 -14 13
t-23 10l-24 6h-178l-21 -5q-30 -11 -36 -45l-1 -8v-135q0 -29 11 -42t44 -19z" />
    <glyph glyph-name="colon" unicode=":" horiz-adv-x="207" 
d="M42 63q0 -27 18 -45t44 -18q25 0 43 18t18 45q0 26 -18.5 44t-43.5 18q-24 0 -42.5 -18.5t-18.5 -43.5zM42 370q0 26 18 44t43 18t43.5 -18t18.5 -45q0 -26 -18 -44t-43 -18q-26 0 -44 18t-18 45z" />
    <glyph glyph-name="semicolon" unicode=";" horiz-adv-x="212" 
d="M42 370q0 -27 18 -45t44 -18q25 0 43 18t18 45q0 26 -18.5 44t-43.5 18q-24 0 -42.5 -18t-18.5 -44zM157 15l-48 -115h-61l45 101q-22 4 -36.5 20.5t-14.5 39.5q0 29 18.5 47.5t44.5 18.5q28 0 46.5 -20t18.5 -42q0 -21 -13 -50z" />
    <glyph glyph-name="question" unicode="?" horiz-adv-x="524" 
d="M20 618h300l11 -1q23 -5 33 -18t14 -42l1 -10v-80q0 -18 -15 -33.5t-46 -15.5h-105q-74 0 -89 -75l-1 -20v-166h103v161h101q62 0 104 35l20 21q31 40 31 81v123q0 38 -27 78q-20 27 -44 41q-37 23 -79 23h-312v-102zM113 63q0 25 18 43.5t43 18.5t43.5 -18t18.5 -45
q0 -26 -18 -44t-43 -18q-26 0 -44 18t-18 45z" />
    <glyph glyph-name="A" unicode="A" horiz-adv-x="627" 
d="M-9 0l239 653q27 75 81 75q17 0 34.5 -6.5t28.5 -20.5t24 -48l238 -653h-111l-55 150h-313l-55 -150h-111zM432 254l-120 328l-117 -328h237z" />
    <glyph glyph-name="B" unicode="B" horiz-adv-x="637" 
d="M63 0v720h365q103 0 143 -101q10 -26 10 -51v-87q0 -14 -2 -22q-5 -33 -20.5 -57t-39.5 -39q48 -22 60 -87q2 -8 2 -23v-67q0 -90 -34 -134q-40 -52 -131 -52h-353zM165 104h236q42 0 63 39q11 19 11 37v68q0 30 -39 50q-19 8 -33 8h-238v-202zM406 410q23 0 40 11
q31 21 31 59v69q0 53 -60 65l-13 2h-237v-206h239z" />
    <glyph glyph-name="C" unicode="C" horiz-adv-x="574" 
d="M63 173v370q0 82 47.5 129.5t118.5 47.5h303v-104h-289q-76 0 -76 -76v-359l2 -15q14 -62 74 -62h287v-104h-309q-45 0 -90 31q-53 36 -66 112z" />
    <glyph glyph-name="D" unicode="D" horiz-adv-x="644" 
d="M63 0v720h367q65 0 108 -46t43 -121v-370l-2 -29q-14 -97 -97 -136q-20 -10 -37.5 -14t-34.5 -4h-347zM405 104q72 0 72 87v343l-1 15q-4 38 -19.5 52.5t-54.5 14.5h-235v-512h238z" />
    <glyph glyph-name="E" unicode="E" horiz-adv-x="585" 
d="M63 193v347q0 92 50 136t160 44h263v-104h-261h-43q-17 0 -36.5 -13t-26.5 -47l-2 -19v-122h368v-105h-368v-96v-45q0 -9 5 -21q14 -28 34 -36t76 -8h251v-104h-279q-93 0 -142 49t-49 144z" />
    <glyph glyph-name="F" unicode="F" horiz-adv-x="559" 
d="M63 0v530q0 101 48.5 145.5t157.5 44.5h270v-104h-280h-30l-19 -4q-43 -16 -43 -70v-132h370v-104h-370v-306h-104z" />
    <glyph glyph-name="G" unicode="G" horiz-adv-x="641" 
d="M63 186v345q0 189 192 189h276v-104h-285l-13 -1q-38 -5 -52 -21t-14 -56v-358l2 -15q8 -52 55 -61h28h145q67 0 76 63l1 11v232h104v-221q0 -60 -16 -92q-26 -53 -63.5 -75t-101.5 -22h-144q-30 0 -50.5 4t-40.5 13q-53 26 -76 65.5t-23 103.5z" />
    <glyph glyph-name="H" unicode="H" horiz-adv-x="648" 
d="M63 0v720h104v-310h313v310h105v-720h-105v306h-313v-306h-104z" />
    <glyph glyph-name="I" unicode="I" horiz-adv-x="230" 
d="M63 0v720h104v-720h-104z" />
    <glyph glyph-name="J" unicode="J" horiz-adv-x="273" 
d="M6 0v104h29l15 2q31 6 43.5 25.5t12.5 63.5v525h104v-522q0 -95 -45.5 -146.5t-127.5 -51.5h-31z" />
    <glyph glyph-name="K" unicode="K" horiz-adv-x="580" 
d="M63 0h104v720h-104v-720zM222 455l217 265h134l-286 -350l302 -371l-136 1l-236 291l-10 13q-33 47 -33 71q0 11 5 21.5t15 23.5z" />
    <glyph glyph-name="L" unicode="L" horiz-adv-x="530" 
d="M63 181v539h104v-538q0 -41 19.5 -59.5t64.5 -18.5h273v-104h-271l-30 2q-160 18 -160 179z" />
    <glyph glyph-name="M" unicode="M" horiz-adv-x="847" 
d="M63 0v615q0 82 49 104q33 15 61 15q68 0 95 -90l153 -530l158 530q26 90 96 90q27 0 60 -15q25 -12 37 -35.5t12 -68.5v-615h-104v616l-161 -537q-14 -49 -35.5 -68.5t-59.5 -19.5q-39 0 -60.5 19t-35.5 69l-161 537v-616h-104z" />
    <glyph glyph-name="N" unicode="N" horiz-adv-x="632" 
d="M63 0v619q0 107 86 107h15q3 0 21.5 -4.5t33.5 -20t28 -47.5l217 -528v594h105v-634q0 -38 -23 -64.5t-59 -30.5q-4 -1 -7 -1h-7q-58 0 -89 73l-217 519v-582h-104z" />
    <glyph glyph-name="O" unicode="O" horiz-adv-x="643" 
d="M63 202v316q0 106 52 154t167 48h79q115 0 167 -48t52 -154v-316q0 -106 -52 -154t-167 -48h-79q-102 0 -158 52q-41 38 -55 97q-3 26 -6 53zM251 105l15 -1h112l14 1q47 0 65 20t18 70v328q0 51 -17.5 71.5t-64.5 20.5l-15 1h-112l-15 -1q-48 0 -66 -20t-18 -72v-326
q0 -51 18.5 -71.5t65.5 -20.5z" />
    <glyph glyph-name="P" unicode="P" horiz-adv-x="605" 
d="M63 0v720h312q203 0 203 -172v-103q0 -84 -50.5 -132.5t-141.5 -48.5h-219v-264h-104zM385 368q45 0 64 15t24 54v13v92l-1 13q-4 31 -17.5 43t-51.5 17l-16 1h-220v-248h218z" />
    <glyph glyph-name="Q" unicode="Q" horiz-adv-x="642" 
d="M63 178v370q0 142 131 169l28 3h197l29 -3q131 -27 131 -169v-370q0 -69 -22.5 -105t-75.5 -56l-11 -4l108 -112h-143l-102 99h-111q-29 0 -61 13q-45 19 -72 59t-27 89q0 11 1 17zM169 171q9 -67 74 -67h157q63 0 73 65l1 15v355l-1 14q-9 63 -73 63h-157q-34 0 -55 -21
t-21 -56v-352z" />
    <glyph glyph-name="R" unicode="R" horiz-adv-x="622" 
d="M63 0v720h364q52 0 89 -27.5t50 -53.5t13 -69v-124q0 -39 -23 -74q-44 -66 -114 -66h-123l265 -306h-138l-265 307q-9 9 -9 31q0 10 3 22q10 40 57 49l18 1h157l10 1q57 10 57 58v80l-1 13q-7 46 -52 53l-11 1h-243v-616h-104z" />
    <glyph glyph-name="S" unicode="S" horiz-adv-x="550" 
d="M42 0v104h287l11 1q30 3 44.5 21.5t14.5 37.5v91q0 16 -8 28q-8 15 -19.5 21.5t-37.5 9.5l-11 1h-108l-30 2q-65 10 -103.5 50.5t-38.5 93.5v91q0 113 89 155q16 7 33.5 10t50.5 3h292v-104h-297l-10 -1q-28 -4 -38.5 -13t-14.5 -33l-1 -13v-71l1 -14q7 -61 67 -61h126
q49 0 89 -23q74 -42 74 -115v-114q0 -82 -67 -128q-43 -30 -96 -30h-299z" />
    <glyph glyph-name="T" unicode="T" horiz-adv-x="428" 
d="M6 616v104h416v-104h-156v-616h-105v616h-155z" />
    <glyph glyph-name="U" unicode="U" horiz-adv-x="639" 
d="M63 177v543h104v-530q0 -46 18 -66t61 -20h147q42 0 60 18t18 62v536h105v-543q0 -59 -27 -101t-78 -63q-11 -5 -26.5 -9t-35.5 -4h-179q-31 0 -63 13q-104 43 -104 164z" />
    <glyph glyph-name="V" unicode="V" horiz-adv-x="620" 
d="M-9 720h111l207 -578l209 578h111l-242 -668q-12 -33 -29.5 -47t-47.5 -14t-47.5 13.5t-29.5 47.5z" />
    <glyph glyph-name="W" unicode="W" horiz-adv-x="850" 
d="M9 720h107l127 -566l98 491q7 34 22 56q23 31 62 31t62 -31q6 -9 12.5 -24t9.5 -32l98 -491l127 566h107l-146 -652q-11 -53 -54 -70q-18 -7 -38 -7q-31 0 -52 20t-29 57l-97 484l-97 -484q-7 -35 -29 -56t-53 -21q-12 0 -18 1t-19 6q-43 17 -54 70z" />
    <glyph glyph-name="X" unicode="X" horiz-adv-x="656" 
d="M-9 -3l272 380l-247 343h130l181 -253l182 253h130l-248 -343l274 -377h-129l-209 287l-206 -287z" />
    <glyph glyph-name="Y" unicode="Y" horiz-adv-x="590" 
d="M-16 720h123l185 -299l190 299h124l-261 -411v-309h-105l-1 308z" />
    <glyph glyph-name="Z" unicode="Z" horiz-adv-x="534" 
d="M50 145l334 471h-344v104h379q37 0 61 -24t24 -60q0 -15 -5.5 -31t-13.5 -26l-336 -475h346v-104h-369q-41 0 -68 27t-27 63q0 29 19 55z" />
    <glyph glyph-name="bracketleft" unicode="[" horiz-adv-x="278" 
d="M63 -108v900h180v-86h-79v-728h79v-86h-180z" />
    <glyph glyph-name="backslash" unicode="\" horiz-adv-x="297" 
d="M47 720h76l127 -720h-77z" />
    <glyph glyph-name="bracketright" unicode="]" horiz-adv-x="278" 
d="M35 -108v86h79v728h-79v86h180v-900h-180z" />
    <glyph glyph-name="asciicircum" unicode="^" horiz-adv-x="569" 
d="M47 170l237 421l238 -421h-87l-151 277l-150 -277h-87z" />
    <glyph glyph-name="underscore" unicode="_" horiz-adv-x="454" 
d="M47 -30v30h360v-30h-360z" />
    <glyph glyph-name="grave" unicode="`" horiz-adv-x="157" 
d="M-16 706h99l41 -115h-61z" />
    <glyph glyph-name="a" unicode="a" horiz-adv-x="576" 
d="M63 145v65q0 81 36.5 124.5t101.5 43.5h222v35q0 11 -6 20q-11 16 -28 16l-326 1v90h320q54 0 85 -23.5t43 -76.5l2 -24v-278q0 -38 -19 -69q-43 -69 -112 -69h-180q-36 0 -74 25q-32 21 -48.5 50t-16.5 70zM154 134q7 -27 21.5 -35.5t51.5 -8.5h122q38 0 51.5 8.5
t21.5 35.5l1 9v87l-1 10q-7 26 -19.5 35.5t-42.5 12.5h-9h-125h-9q-51 -5 -63 -48l-1 -10v-87z" />
    <glyph glyph-name="b" unicode="b" 
d="M63 152v568h90v-180h209q126 0 144 -111l3 -25v-263q0 -91 -81 -128q-30 -13 -54 -13h-177q-27 0 -50 11t-45 36t-30.5 49t-8.5 56zM176 103q16 -13 36 -13h157l10 1q31 7 39 50l1 6v243q0 32 -14 46t-46 14h-148l-9 -1q-49 0 -49 -57v-238q0 -34 23 -51z" />
    <glyph glyph-name="c" unicode="c" horiz-adv-x="458" 
d="M63 137v267q0 60 29.5 93t95.5 41l24 2h207v-90h-207q-9 0 -21 -4q-38 -13 -38 -54v-235l1 -12q6 -29 24 -42t37 -13h205v-90h-206q-46 0 -78 19q-73 40 -73 118z" />
    <glyph glyph-name="d" unicode="d" 
d="M63 141v263l2 25q19 111 144 111h210v180h90v-568q0 -35 -8 -57t-30 -47q-44 -48 -97 -48h-177q-23 0 -53 13q-41 18 -61 50.5t-20 77.5zM154 141q4 -24 12 -35t26 -15l10 -1h158q21 0 35 13q24 17 24 51v238q0 57 -49 57l-10 1h-148q-32 0 -45.5 -13.5t-13.5 -46.5v-243
z" />
    <glyph glyph-name="e" unicode="e" horiz-adv-x="557" 
d="M63 142v242q0 156 167 156h134q67 0 104.5 -36.5t37.5 -101.5v-64l-353 -164v-18v-6q6 -37 17.5 -48.5t44.5 -11.5h297v-90h-302q-76 0 -117 52q-30 39 -30 90zM153 273l263 122v8q0 26 -12.5 36.5t-42.5 10.5h-147q-61 0 -61 -68v-109z" />
    <glyph glyph-name="f" unicode="f" horiz-adv-x="252" 
d="M63 0v582q0 19 4 34q13 51 48.5 77.5t92.5 26.5h38v-90h-37l-10 -1q-46 -11 -46 -63v-26h92v-90h-92v-450h-90z" />
    <glyph glyph-name="g" unicode="g" horiz-adv-x="575" 
d="M63 -176v90h291q59 0 67 51l1 12v23h-215q-57 0 -100 43q-21 22 -30.5 47t-9.5 57v255q0 95 81 128q24 10 46 10h191q109 0 125 -107l2 -24v-452l-2 -24q-11 -55 -48 -82t-104 -27h-295zM155 146q10 -56 58 -56h158l11 1q21 6 29.5 17t8.5 37v10v234q0 17 -2 26t-8 16
q-14 19 -39 19h-152l-12 -1q-52 -9 -52 -59v-236v-8z" />
    <glyph glyph-name="h" unicode="h" horiz-adv-x="573" 
d="M63 0v720h90v-180h224q43 0 68 -13t45 -45.5t20 -69.5v-412h-90v387l-1 12q-4 41 -42 50l-12 1h-150q-62 0 -62 -60v-390h-90z" />
    <glyph glyph-name="i" unicode="i" horiz-adv-x="216" 
d="M62 0h90v540h-90v-540zM45 658q0 26 18 44t43 18t43.5 -18t18.5 -45q0 -26 -18 -44t-43 -18q-26 0 -44 18t-18 45z" />
    <glyph glyph-name="j" unicode="j" horiz-adv-x="216" 
d="M-27 -176h64q41 0 76 33q20 19 29.5 46.5t9.5 68.5v568h-90v-568l-1 -11q-2 -23 -11.5 -32.5t-35.5 -14.5h-7h-34v-90zM46 658q0 26 18 44t43 18t43.5 -18t18.5 -45q0 -26 -18 -44t-43 -18q-26 0 -44 18t-18 45z" />
    <glyph glyph-name="k" unicode="k" horiz-adv-x="540" 
d="M63 0h90v720h-90v-720zM179 328l210 212h126l-257 -260l269 -280h-124l-224 233q-22 22 -22 45q0 4 3.5 19.5t18.5 30.5z" />
    <glyph glyph-name="l" unicode="l" horiz-adv-x="216" 
d="M63 0v720h90v-720h-90z" />
    <glyph glyph-name="m" unicode="m" horiz-adv-x="745" 
d="M63 0v403q0 118 99 135l25 2h81l23 -2q33 -5 51 -15t30 -30q13 19 31.5 30t50.5 15l22 2h82l25 -2q99 -17 99 -135v-403h-90v396q0 51 -54 51h-70h-9q-36 -7 -36 -56v-391h-90v391l-1 11q-9 46 -55 46h-71l-11 -1q-23 -3 -31 -11t-11 -32v-8v-396h-90z" />
    <glyph glyph-name="n" unicode="n" 
d="M63 0v401q0 67 39 103t113 36h142q152 0 152 -139v-401h-90v390v22q-7 36 -61 36h-143q-35 0 -48.5 -12.5t-13.5 -45.5v-390h-90z" />
    <glyph glyph-name="o" unicode="o" horiz-adv-x="579" 
d="M63 133v281q0 111 120 125l24 1h165l22 -2q122 -17 122 -124v-281q0 -40 -17 -67t-57 -50q-29 -16 -70 -16h-168q-83 0 -121 66q-10 33 -20 67zM218 90h145q63 0 63 68v227q0 65 -63 65h-145q-65 0 -65 -65v-223q0 -72 65 -72z" />
    <glyph glyph-name="p" unicode="p" horiz-adv-x="578" 
d="M63 -176v579q0 68 43 106q35 31 98 31h169q57 0 89 -23q53 -39 53 -108v-259q0 -35 -7 -56t-27 -44q-44 -50 -104 -50h-224v-176h-90zM154 143q3 -28 16 -38q18 -15 33 -15h171l7 1q20 4 29.5 13t13.5 29l1 10v257v7q-2 23 -9 30.5t-30 11.5l-8 1h-161q-64 0 -64 -55
v-242z" />
    <glyph glyph-name="q" unicode="q" horiz-adv-x="578" 
d="M63 150v259q0 69 53 108q32 23 89 23h169q63 0 98 -31q43 -38 43 -106v-579h-90v176h-224q-60 0 -104 50q-18 21 -26 46t-8 54zM152 133q4 -20 13 -29t30 -13l7 -1h171q15 0 33 15q13 10 17 38v10v242q0 55 -64 55h-161l-8 -1q-21 -4 -29 -12t-10 -30v-7v-257z" />
    <glyph glyph-name="r" unicode="r" horiz-adv-x="260" 
d="M63 0v397l2 31q6 52 30 77t78 33l23 2h51v-91h-44q-18 0 -34 -11.5t-16 -42.5v-395h-90z" />
    <glyph glyph-name="s" unicode="s" horiz-adv-x="494" 
d="M45 0v90h254h22q12 0 24.5 11t12.5 43v41q0 51 -53 51h-122q-87 0 -121 58q-15 27 -15 54v69q0 57 32 90t88 33h282v-90h-257h-17q-8 0 -23 -7.5t-15 -32.5v-39q0 -11 8 -24q13 -20 41 -20h134l25 -2q47 -10 75 -43.5t28 -78.5v-85q0 -33 -19 -62q-5 -9 -11.5 -16.5
t-16.5 -15.5q-37 -24 -68 -24h-288z" />
    <glyph glyph-name="t" unicode="t" horiz-adv-x="237" 
d="M63 0v720h90v-180h93v-90h-93v-450h-90z" />
    <glyph glyph-name="u" unicode="u" 
d="M63 139v401h90v-390v-22l1 -3q7 -33 61 -33h143q35 0 48 12t13 46v390h90v-401q0 -67 -39 -103t-113 -36h-142q-152 0 -152 139z" />
    <glyph glyph-name="v" unicode="v" horiz-adv-x="518" 
d="M-1 540h97l163 -440l163 440h97l-184 -495q-11 -30 -28.5 -42.5t-47.5 -12.5t-47.5 12.5t-28.5 42.5z" />
    <glyph glyph-name="w" unicode="w" horiz-adv-x="745" 
d="M9 540h89l103 -429l104 394q8 31 46 42q11 3 22 3q25 0 44 -13t24 -32l103 -394l103 429h89l-120 -500q-5 -21 -24 -35t-45 -14q-13 0 -30 5q-36 12 -46 54l-97 381l-99 -381q-11 -42 -47 -54q-18 -5 -30 -5q-26 0 -45 13.5t-24 35.5z" />
    <glyph glyph-name="x" unicode="x" horiz-adv-x="507" 
d="M6 0l193 279l-181 261h111l124 -182l125 182h111l-181 -261l193 -279h-109l-140 201l-136 -201h-110z" />
    <glyph glyph-name="y" unicode="y" 
d="M63 -176v90h300h11q45 7 45 57v29h-226q-54 0 -92 38t-38 94v408h90v-384l1 -14q9 -52 63 -52h140q62 0 62 57v393h90v-564q0 -65 -30 -103q-40 -49 -112 -49h-304z" />
    <glyph glyph-name="z" unicode="z" horiz-adv-x="543" 
d="M52 115l335 335h-337v90h388q61 0 69 -55q1 -6 1 -17q0 -15 -2.5 -23t-9.5 -15l-341 -340h343v-90h-400q-31 0 -47 14.5t-16 49.5q0 16 3.5 28.5t13.5 22.5z" />
    <glyph glyph-name="braceleft" unicode="{" horiz-adv-x="316" 
d="M47 360q27 0 45 20t18 52v330q0 71 81 71h78v-45h-12q-35 0 -46.5 -11.5t-11.5 -46.5v-290q0 -31 -20 -54t-51 -26q31 -3 51 -26t20 -54v-290q0 -35 11.5 -46.5t46.5 -11.5h12v-45h-78q-81 0 -81 71v330q0 31 -17.5 51.5t-45.5 20.5z" />
    <glyph glyph-name="braceright" unicode="}" horiz-adv-x="316" 
d="M47 -113v45h12q35 0 46.5 11.5t11.5 46.5v290q0 31 20 54t51 26q-31 3 -51 26t-20 54v290q0 35 -11.5 46.5t-46.5 11.5h-12v45h78q81 0 81 -71v-330q0 -31 17.5 -51.5t45.5 -20.5q-27 0 -45 -20t-18 -52v-330q0 -71 -81 -71h-78z" />
    <glyph glyph-name="asciitilde" unicode="~" horiz-adv-x="470" 
d="M47 288v18q0 58 26.5 88.5t70.5 30.5q29 0 61 -13l77 -31l12 -5q21 -6 33 -6q20 0 30 26q2 5 6 21l1 9h59v-18q0 -58 -26.5 -88.5t-70.5 -30.5q-29 0 -61 13l-78 31l-9 3q-26 8 -37 8q-18 0 -28 -26q-2 -5 -6 -21l-1 -9h-59z" />
    <glyph glyph-name="nonbreakingspace" unicode="&#xa0;" horiz-adv-x="500" 
 />
    <glyph glyph-name="exclamdown" unicode="&#xa1;" horiz-adv-x="249" 
d="M73 0v561h105v-561h-105zM63 658q0 24 18 43t44 19q25 0 43 -19t18 -43q0 -26 -18 -44.5t-43 -18.5t-43.5 18.5t-18.5 44.5z" />
    <glyph glyph-name="cent" unicode="&#xa2;" horiz-adv-x="458" 
d="M63 134v268q0 50 16.5 76.5t60.5 46.5q32 15 74 15h47v48h43v-48h115v-89h-115v-361h116v-90h-116v-78h-43v78h-47q-25 0 -42.5 4t-34.5 13q-74 42 -74 117zM206 92l11 -1h44v359h-46h-7q-27 -5 -38.5 -15t-15.5 -33l-1 -12v-236q0 -50 53 -62z" />
    <glyph glyph-name="sterling" unicode="&#xa3;" horiz-adv-x="618" 
d="M27 417h122v156q0 17 2 26q20 121 144 121h61q77 0 118 -69q20 -34 20 -72v-68h-108v48l-1 8q-3 18 -6 24t-10 12q-16 13 -29 13h-39q-41 0 -49 -45l-1 -11v-144h191v-102h-191v-71l-1 -21q-4 -41 -13.5 -67.5t-27.5 -51.5h221q19 0 41 19q15 14 21 47l1 9v33h105v-41
q0 -51 -18 -86q-46 -84 -140 -84l-412 -2v104q38 6 71 31q50 43 50 105v75h-122v104z" />
    <glyph glyph-name="yen" unicode="&#xa5;" horiz-adv-x="634" 
d="M6 720h123l185 -299l190 299h124l-183 -296h165v-71h-208l-35 -44l1 -45h241v-72l-241 -1l-1 -191h-105v192h-233v73h233l-1 43l-25 45h-206v72h162z" />
    <glyph glyph-name="dieresis" unicode="&#xa8;" horiz-adv-x="277" 
d="M-9 658q0 26 18 44t43 18t43.5 -18t18.5 -45q0 -26 -18 -44t-43 -18q-26 0 -44 18t-18 45zM163 658q0 25 18 43.5t43 18.5q26 0 44 -18t18 -44q0 -27 -18 -45t-43 -18q-26 0 -44 18.5t-18 44.5z" />
    <glyph glyph-name="ordfeminine" unicode="&#xaa;" horiz-adv-x="446" 
d="M57 340h342v-61h-342v61zM332 652v68h66l1 -331h-67v73l-3 -8q-15 -33 -48 -53t-74 -20q-15 0 -29.5 3t-31.5 10q-79 32 -96 124q-3 20 -3 38q0 73 47.5 124t112.5 51q15 0 30 -3q60 -13 87 -61l5 -8zM118 533q9 -48 46 -74q28 -19 61 -19q32 0 61 20q36 26 45 72
q2 8 2 24t-2 24q-12 60 -62 83q-20 10 -45 10q-22 0 -42 -9q-53 -24 -65 -87l-2 -21z" />
    <glyph glyph-name="guillemotleft" unicode="&#xab;" horiz-adv-x="423" 
d="M183 303l136 200l67 1l-162 -231l164 -228h-69l-135 193l-4 8q-8 16 -6 31q5 20 9 26zM44 303l136 200l67 1l-162 -231l164 -228h-69l-134 193l-5 8q-8 19 -5 31q3 19 8 26z" />
    <glyph glyph-name="macron" unicode="&#xaf;" horiz-adv-x="269" 
d="M6 679h257v-72h-257v72z" />
    <glyph glyph-name="acute" unicode="&#xb4;" horiz-adv-x="170" 
d="M45 591l42 115h98l-79 -115h-61z" />
    <glyph glyph-name="paragraph" unicode="&#xb6;" horiz-adv-x="596" 
d="M240 720h309v-52h-309q-58 0 -99 -42t-41 -103q0 -59 41 -100t99 -41h69v242h55v-624h-55v330h-69q-79 0 -136 57t-57 138t56 138t137 57zM430 0v624h55v-624h-55z" />
    <glyph glyph-name="periodcentered" unicode="&#xb7;" horiz-adv-x="207" 
d="M42 247q0 26 18.5 44.5t43.5 18.5q24 0 42.5 -18.5t18.5 -45.5q0 -25 -18 -43t-43 -18q-26 0 -44 18t-18 44z" />
    <glyph glyph-name="periodcentered" unicode="&#x2219;" horiz-adv-x="207" 
d="M42 247q0 26 18.5 44.5t43.5 18.5q24 0 42.5 -18.5t18.5 -45.5q0 -25 -18 -43t-43 -18q-26 0 -44 18t-18 44z" />
    <glyph glyph-name="cedilla" unicode="&#xb8;" horiz-adv-x="128" 
d="M6 -123l49 107h67l-51 -107h-65z" />
    <glyph glyph-name="ordmasculine" unicode="&#xba;" horiz-adv-x="446" 
d="M53 279v61h341v-61h-341zM47 557q0 20 4 36q13 64 60.5 103.5t109.5 39.5q36 0 72 -15q49 -20 78 -64t29 -99q0 -9 -1.5 -20t-2.5 -17q-10 -53 -47 -90.5t-90 -48.5q-18 -3 -36 -3q-17 0 -35 3q-53 11 -90 48t-48 91zM115 536q11 -61 63 -85q21 -10 46 -10
q39 0 69.5 25.5t37.5 68.5q2 16 2 23q0 61 -47 95q-29 21 -64 21q-21 0 -44 -10q-52 -25 -63 -85l-1 -22z" />
    <glyph glyph-name="guillemotright" unicode="&#xbb;" horiz-adv-x="423" 
d="M35 504h69l134 -193l5 -8q8 -19 5 -31q-3 -19 -8 -26l-136 -200l-68 -1l163 231zM174 504h68l135 -193l5 -8q8 -19 5 -31q-1 -7 -3.5 -14.5t-4.5 -11.5l-136 -200l-68 -1l162 231z" />
    <glyph glyph-name="questiondown" unicode="&#xbf;" horiz-adv-x="524" 
d="M42 142v123q0 21 7.5 41t23.5 40l20 21q42 35 104 35h100v161h104v-166l-2 -20q-14 -75 -88 -75h-105q-31 0 -46.5 -16t-15.5 -33v-80l1 -10q5 -30 14.5 -42t32.5 -18l12 -1h300v-102h-312q-42 0 -80 23q-25 15 -43 41q-27 38 -27 78zM288 658q0 26 18 44t44 18
q25 0 43 -19t18 -44t-18 -43.5t-44 -18.5q-25 0 -43 18t-18 45z" />
    <glyph glyph-name="Agrave" unicode="&#xc0;" horiz-adv-x="627" 
d="M-9 0l239 653q27 75 81 75q17 0 34.5 -6.5t28.5 -20.5t24 -48l238 -653h-111l-55 150h-313l-55 -150h-111zM219 879h99l41 -115h-61zM432 254l-120 328l-117 -328h237z" />
    <glyph glyph-name="Aacute" unicode="&#xc1;" horiz-adv-x="627" 
d="M-9 0l239 653q27 75 81 75q17 0 34.5 -6.5t28.5 -20.5t24 -48l238 -653h-111l-55 150h-313l-55 -150h-111zM273 764l42 115h98l-79 -115h-61zM432 254l-120 328l-117 -328h237z" />
    <glyph glyph-name="Acircumflex" unicode="&#xc2;" horiz-adv-x="627" 
d="M-9 0l239 653q27 75 81 75q17 0 34.5 -6.5t28.5 -20.5t24 -48l238 -653h-111l-55 150h-313l-55 -150h-111zM179 764l78 115h106l85 -114h-78l-58 85l-55 -86h-78zM432 254l-120 328l-117 -328h237z" />
    <glyph glyph-name="Atilde" unicode="&#xc3;" horiz-adv-x="627" 
d="M-9 0l239 653q27 75 81 75q17 0 34.5 -6.5t28.5 -20.5t24 -48l238 -653h-111l-55 150h-313l-55 -150h-111zM152 777v64l13 8l16 9q31 14 59 14q29 0 63 -17l34 -17l22 -11q5 -4 23 -4q12 0 25 5l8 3l10 5l50 28v-62l-33 -20q-28 -17 -61 -17q-9 1 -14 1q-18 3 -27 5.5
t-18 8.5l-35 21l-17 12q-12 7 -27 7q-18 0 -38 -10l-9 -5zM432 254l-120 328l-117 -328h237z" />
    <glyph glyph-name="Adieresis" unicode="&#xc4;" horiz-adv-x="627" 
d="M-9 0l239 653q27 75 81 75q17 0 34.5 -6.5t28.5 -20.5t24 -48l238 -653h-111l-55 150h-313l-55 -150h-111zM166 823q0 12 5 23.5t13 20.5q19 19 45 19q24 0 42 -19t18 -45q0 -25 -18 -43t-43 -18q-26 0 -44 19t-18 43zM339 823q0 25 18 44t44 19q24 0 42.5 -18.5
t18.5 -44.5t-18.5 -44t-43.5 -18t-43 18t-18 44zM432 254l-120 328l-117 -328h237z" />
    <glyph glyph-name="Aring" unicode="&#xc5;" horiz-adv-x="627" 
d="M-9 0l239 653q27 75 81 75q17 0 34.5 -6.5t28.5 -20.5t24 -48l238 -653h-111l-55 150h-313l-55 -150h-111zM225 830q0 38 27 65t65 27t65 -27t27 -65t-27 -65t-65 -27t-65 27t-27 65zM317 799q12 0 21 9t9 22t-8.5 21.5t-21.5 8.5t-22 -8t-9 -22q0 -13 9 -22t22 -9z
M432 254l-120 328l-117 -328h237z" />
    <glyph glyph-name="AE" unicode="&#xc6;" horiz-adv-x="957" 
d="M-9 0l386 657q12 20 45 41.5t88 21.5h398v-100h-307q-13 0 -29 -8q-31 -16 -31 -54v-145h366v-102h-366v-143q0 -31 27 -51q17 -12 37 -12h302v-105h-280q-27 0 -57 9q-56 17 -91.5 57.5t-35.5 78.5v16h-237l-89 -161h-126zM443 259l3 340l-187 -341z" />
    <glyph glyph-name="Ccedilla" unicode="&#xc7;" horiz-adv-x="574" 
d="M63 173v370q0 82 47.5 129.5t118.5 47.5h303v-104h-289q-76 0 -76 -76v-359l2 -15q14 -62 74 -62h287v-104h-309q-45 0 -90 31q-53 36 -66 112zM242 -123l50 107h66l-51 -107h-65z" />
    <glyph glyph-name="Egrave" unicode="&#xc8;" horiz-adv-x="585" 
d="M63 193v347q0 92 50 136t160 44h263v-104h-261h-43q-17 0 -36.5 -13t-26.5 -47l-2 -19v-122h368v-105h-368v-96v-45q0 -9 5 -21q14 -28 34 -36t76 -8h251v-104h-279q-93 0 -142 49t-49 144zM198 879h99l41 -115h-61z" />
    <glyph glyph-name="Eacute" unicode="&#xc9;" horiz-adv-x="585" 
d="M63 193v347q0 92 50 136t160 44h263v-104h-261h-43q-17 0 -36.5 -13t-26.5 -47l-2 -19v-122h368v-105h-368v-96v-45q0 -9 5 -21q14 -28 34 -36t76 -8h251v-104h-279q-93 0 -142 49t-49 144zM252 764l42 115h98l-79 -115h-61z" />
    <glyph glyph-name="Ecircumflex" unicode="&#xca;" horiz-adv-x="585" 
d="M63 193v347q0 92 50 136t160 44h263v-104h-261h-43q-17 0 -36.5 -13t-26.5 -47l-2 -19v-122h368v-105h-368v-96v-45q0 -9 5 -21q14 -28 34 -36t76 -8h251v-104h-279q-93 0 -142 49t-49 144zM158 764l78 115h106l85 -114h-78l-58 85l-55 -86h-78z" />
    <glyph glyph-name="Edieresis" unicode="&#xcb;" horiz-adv-x="585" 
d="M63 193v347q0 92 50 136t160 44h263v-104h-261h-43q-17 0 -36.5 -13t-26.5 -47l-2 -19v-122h368v-105h-368v-96v-45q0 -9 5 -21q14 -28 34 -36t76 -8h251v-104h-279q-93 0 -142 49t-49 144zM145 831q0 26 18 44t43 18t43.5 -18t18.5 -45q0 -26 -18 -44t-43 -18
q-26 0 -44 18t-18 45zM317 831q0 25 18 43.5t43 18.5q26 0 44 -18t18 -44q0 -27 -18 -45t-43 -18q-26 0 -44 18.5t-18 44.5z" />
    <glyph glyph-name="Igrave" unicode="&#xcc;" horiz-adv-x="230" 
d="M63 0v720h104v-720h-104zM21 879h99l41 -115h-61z" />
    <glyph glyph-name="Iacute" unicode="&#xcd;" horiz-adv-x="230" 
d="M63 0v720h104v-720h-104zM75 764l42 115h98l-79 -115h-61z" />
    <glyph glyph-name="Icircumflex" unicode="&#xce;" horiz-adv-x="230" 
d="M63 0v720h104v-720h-104zM-19 764l78 115h106l85 -114h-78l-58 85l-55 -86h-78z" />
    <glyph glyph-name="Idieresis" unicode="&#xcf;" horiz-adv-x="230" 
d="M63 0v720h104v-720h-104zM-32 831q0 26 18 44t43 18t43.5 -18t18.5 -45q0 -26 -18 -44t-43 -18q-26 0 -44 18t-18 45zM140 831q0 25 18 43.5t43 18.5q26 0 44 -18t18 -44q0 -27 -18 -45t-43 -18q-26 0 -44 18.5t-18 44.5z" />
    <glyph glyph-name="Eth" unicode="&#xd0;" horiz-adv-x="644" 
d="M167 410h64v-107h-64v-199h238q72 0 72 87v343l-1 15q-4 38 -19.5 52.5t-54.5 14.5h-235v-206zM63 303h-65v107h65v310h367q65 0 108 -46t43 -121v-370l-2 -29q-14 -97 -97 -136q-20 -10 -37.5 -14t-34.5 -4h-347v303z" />
    <glyph glyph-name="Ntilde" unicode="&#xd1;" horiz-adv-x="632" 
d="M63 0v619q0 107 86 107h15q3 0 21.5 -4.5t33.5 -20t28 -47.5l217 -528v594h105v-634q0 -38 -23 -64.5t-59 -30.5q-4 -1 -7 -1h-7q-58 0 -89 73l-217 519v-582h-104zM155 777v64l13 8l16 9q31 14 59 14q29 0 63 -17l34 -17l22 -11q5 -4 23 -4q12 0 25 5l8 3l10 5l50 28
v-62l-33 -20q-28 -17 -61 -17q-9 1 -14 1q-18 3 -27 5.5t-18 8.5l-35 21l-17 12q-12 7 -27 7q-18 0 -38 -10l-9 -5z" />
    <glyph glyph-name="Ograve" unicode="&#xd2;" horiz-adv-x="643" 
d="M63 202v316q0 106 52 154t167 48h79q115 0 167 -48t52 -154v-316q0 -106 -52 -154t-167 -48h-79q-115 0 -167 48t-52 154zM227 879h99l41 -115h-61zM251 105l15 -1h112l14 1q47 0 65 20t18 70v328q0 51 -17.5 71.5t-64.5 20.5l-15 1h-112l-15 -1q-48 0 -66 -20t-18 -72
v-326q0 -51 18.5 -71.5t65.5 -20.5z" />
    <glyph glyph-name="Oacute" unicode="&#xd3;" horiz-adv-x="643" 
d="M63 202v316q0 106 52 154t167 48h79q115 0 167 -48t52 -154v-316q0 -106 -52 -154t-167 -48h-79q-115 0 -167 48t-52 154zM281 764l42 115h98l-79 -115h-61zM251 105l15 -1h112l14 1q47 0 65 20t18 70v328q0 51 -17.5 71.5t-64.5 20.5l-15 1h-112l-15 -1q-48 0 -66 -20
t-18 -72v-326q0 -51 18.5 -71.5t65.5 -20.5z" />
    <glyph glyph-name="Ocircumflex" unicode="&#xd4;" horiz-adv-x="643" 
d="M63 202v316q0 106 52 154t167 48h79q115 0 167 -48t52 -154v-316q0 -106 -52 -154t-167 -48h-79q-115 0 -167 48t-52 154zM187 764l78 115h106l85 -114h-78l-58 85l-55 -86h-78zM251 105l15 -1h112l14 1q47 0 65 20t18 70v328q0 51 -17.5 71.5t-64.5 20.5l-15 1h-112
l-15 -1q-48 0 -66 -20t-18 -72v-326q0 -51 18.5 -71.5t65.5 -20.5z" />
    <glyph glyph-name="Otilde" unicode="&#xd5;" horiz-adv-x="643" 
d="M63 202v316q0 106 52 154t167 48h79q115 0 167 -48t52 -154v-316q0 -106 -52 -154t-167 -48h-79q-115 0 -167 48t-52 154zM160 777v64l13 8l16 9q31 14 59 14q29 0 63 -17l34 -17l22 -11q5 -4 23 -4q12 0 25 5l8 3l10 5l50 28v-62l-33 -20q-28 -17 -61 -17q-9 1 -14 1
q-18 3 -27 5.5t-18 8.5l-35 21l-17 12q-12 7 -27 7q-18 0 -38 -10l-9 -5zM251 105l15 -1h112l14 1q47 0 65 20t18 70v328q0 51 -17.5 71.5t-64.5 20.5l-15 1h-112l-15 -1q-48 0 -66 -20t-18 -72v-326q0 -51 18.5 -71.5t65.5 -20.5z" />
    <glyph glyph-name="Odieresis" unicode="&#xd6;" horiz-adv-x="643" 
d="M63 202v316q0 106 52 154t167 48h79q115 0 167 -48t52 -154v-316q0 -106 -52 -154t-167 -48h-79q-115 0 -167 48t-52 154zM174 823q0 26 18.5 44.5t43.5 18.5q24 0 42.5 -18.5t18.5 -44.5t-18 -44t-44 -18q-25 0 -43 18t-18 44zM346 823q0 26 18.5 44.5t43.5 18.5
q24 0 42.5 -18.5t18.5 -45.5q0 -25 -18 -43t-43 -18q-26 0 -44 19t-18 43zM251 105l15 -1h112l14 1q47 0 65 20t18 70v328q0 51 -17.5 71.5t-64.5 20.5l-15 1h-112l-15 -1q-48 0 -66 -20t-18 -72v-326q0 -51 18.5 -71.5t65.5 -20.5z" />
    <glyph glyph-name="Oslash" unicode="&#xd8;" horiz-adv-x="645" 
d="M63 204v312q0 106 53 155t169 49h77q65 0 86.5 -4.5t53.5 -24.5l7 -4l6 -4l25 39l42 -1l-40 -62q21 -25 30.5 -58t9.5 -84v-314q0 -108 -51.5 -155.5t-168.5 -47.5h-79q-57 0 -90.5 7.5t-56.5 24.5l-21 -32l-44 -2l38 59q-46 57 -46 147zM199 119l4 -3q8 -5 18 -7.5
t28 -2.5l18 -1h113l8 1l23 2q37 0 51.5 20.5t14.5 68.5v325l-2 24v5v5l-280 -434zM170 173v-5l1 -5l2 -8l284 438q-11 11 -24.5 16t-40.5 5h-11h-113h-17q-46 0 -64 -21t-18 -72v-321z" />
    <glyph glyph-name="Ugrave" unicode="&#xd9;" horiz-adv-x="639" 
d="M63 177v543h104v-530q0 -46 18 -66t61 -20h147q42 0 60 18t18 62v536h105v-543q0 -59 -27 -101t-78 -63q-11 -5 -26.5 -9t-35.5 -4h-179q-31 0 -63 13q-104 43 -104 164zM225 879h99l41 -115h-61z" />
    <glyph glyph-name="Uacute" unicode="&#xda;" horiz-adv-x="639" 
d="M63 177v543h104v-530q0 -46 18 -66t61 -20h147q42 0 60 18t18 62v536h105v-543q0 -59 -27 -101t-78 -63q-11 -5 -26.5 -9t-35.5 -4h-179q-31 0 -63 13q-104 43 -104 164zM279 764l42 115h98l-79 -115h-61z" />
    <glyph glyph-name="Ucircumflex" unicode="&#xdb;" horiz-adv-x="639" 
d="M63 177v543h104v-530q0 -46 18 -66t61 -20h147q42 0 60 18t18 62v536h105v-543q0 -59 -27 -101t-78 -63q-11 -5 -26.5 -9t-35.5 -4h-179q-31 0 -63 13q-104 43 -104 164zM185 764l78 115h106l85 -114h-78l-58 85l-55 -86h-78z" />
    <glyph glyph-name="Udieresis" unicode="&#xdc;" horiz-adv-x="639" 
d="M63 177v543h104v-530q0 -46 18 -66t61 -20h147q42 0 60 18t18 62v536h105v-543q0 -59 -27 -101t-78 -63q-11 -5 -26.5 -9t-35.5 -4h-179q-31 0 -63 13q-104 43 -104 164zM171 823q0 26 18.5 44.5t43.5 18.5q24 0 42.5 -18.5t18.5 -45.5q0 -25 -18 -43t-43 -18
q-26 0 -44 18t-18 44zM343 823q0 12 5 23.5t13 20.5q19 19 44 19t43 -19t18 -44q0 -26 -18 -44t-43 -18q-26 0 -44 19t-18 43z" />
    <glyph glyph-name="Yacute" unicode="&#xdd;" horiz-adv-x="590" 
d="M-16 720h123l185 -299l190 299h124l-261 -411v-309h-105l-1 308zM252 764l42 115h98l-79 -115h-61z" />
    <glyph glyph-name="germandbls" unicode="&#xdf;" horiz-adv-x="603" 
d="M63 0v548q0 76 43 124t104 48h115q38 0 79 -26q23 -15 37.5 -36.5t22 -41.5t7.5 -33v-40l-1 -14q-10 -58 -42 -82l9 -2l14 -3q98 -24 121 -130q4 -16 4 -36v-110q0 -48 -25 -86q-52 -80 -139 -80h-214v108h209q54 0 63 51l1 10v97q0 44 -27.5 69.5t-76.5 25.5h-170v102
h103q17 0 38 15l17 18q14 22 14 36v30q0 31 -26 46q-11 8 -29 8h-77q-37 0 -54 -14t-17 -45v-557h-103z" />
    <glyph glyph-name="agrave" unicode="&#xe0;" horiz-adv-x="576" 
d="M63 145v65q0 81 36.5 124.5t101.5 43.5h222v35q0 11 -6 20q-11 16 -28 16l-9 1h-12h-305v90h320q54 0 85 -23.5t43 -76.5l2 -24v-278q0 -38 -19 -69q-43 -69 -112 -69h-180q-36 0 -74 25q-31 20 -48 51.5t-17 68.5zM194 706h99l41 -115h-61zM154 134q7 -27 21.5 -35.5
t51.5 -8.5h122q38 0 51.5 8.5t21.5 35.5l1 9v87l-1 10q-7 26 -19.5 35.5t-42.5 12.5h-9h-125h-9q-51 -5 -63 -48l-1 -10v-87z" />
    <glyph glyph-name="aacute" unicode="&#xe1;" horiz-adv-x="576" 
d="M63 145v65q0 81 36.5 124.5t101.5 43.5h222v35q0 11 -6 20q-11 16 -28 16l-9 1h-12h-305v90h320q54 0 85 -23.5t43 -76.5l2 -24v-278q0 -38 -19 -69q-43 -69 -112 -69h-180q-36 0 -74 25q-31 20 -48 51.5t-17 68.5zM248 591l42 115h98l-79 -115h-61zM154 134
q7 -27 21.5 -35.5t51.5 -8.5h122q38 0 51.5 8.5t21.5 35.5l1 9v87l-1 10q-7 26 -19.5 35.5t-42.5 12.5h-9h-125h-9q-51 -5 -63 -48l-1 -10v-87z" />
    <glyph glyph-name="acircumflex" unicode="&#xe2;" horiz-adv-x="576" 
d="M63 145v65q0 81 36.5 124.5t101.5 43.5h222v35q0 11 -6 20q-11 16 -28 16l-9 1h-12h-305v90h320q54 0 85 -23.5t43 -76.5l2 -24v-278q0 -38 -19 -69q-43 -69 -112 -69h-180q-36 0 -74 25q-31 20 -48 51.5t-17 68.5zM154 591l78 115h106l85 -114h-78l-58 85l-55 -86h-78z
M154 134q7 -27 21.5 -35.5t51.5 -8.5h122q38 0 51.5 8.5t21.5 35.5l1 9v87l-1 10q-7 26 -19.5 35.5t-42.5 12.5h-9h-125h-9q-51 -5 -63 -48l-1 -10v-87z" />
    <glyph glyph-name="atilde" unicode="&#xe3;" horiz-adv-x="576" 
d="M63 145v65q0 81 36.5 124.5t101.5 43.5h222v35q0 11 -6 20q-11 16 -28 16l-9 1h-12h-305v90h320q54 0 85 -23.5t43 -76.5l2 -24v-278q0 -38 -19 -69q-43 -69 -112 -69h-180q-36 0 -74 25q-31 20 -48 51.5t-17 68.5zM127 604v64l13 8l16 9q31 14 59 14q29 0 63 -17l34 -17
l22 -11q5 -4 23 -4q12 0 25 5l8 3l10 5l50 28v-62l-33 -20q-28 -17 -61 -17q-9 1 -14 1q-18 3 -27 5.5t-18 8.5l-35 21l-17 12q-12 7 -27 7q-18 0 -38 -10l-9 -5zM154 134q7 -27 21.5 -35.5t51.5 -8.5h122q38 0 51.5 8.5t21.5 35.5l1 9v87l-1 10q-7 26 -19.5 35.5
t-42.5 12.5h-9h-125h-9q-51 -5 -63 -48l-1 -10v-87z" />
    <glyph glyph-name="adieresis" unicode="&#xe4;" horiz-adv-x="576" 
d="M63 145v65q0 81 36.5 124.5t101.5 43.5h222v35q0 11 -6 20q-11 16 -28 16l-9 1h-12h-305v90h320q54 0 85 -23.5t43 -76.5l2 -24v-278q0 -38 -19 -69q-43 -69 -112 -69h-180q-36 0 -74 25q-31 20 -48 51.5t-17 68.5zM142 658q0 25 18 43.5t43 18.5q26 0 44 -18t18 -44
q0 -27 -18 -45t-43 -18q-26 0 -44 18.5t-18 44.5zM314 658q0 25 18 43.5t44 18.5q25 0 43.5 -18t18.5 -44q0 -27 -18.5 -45t-43.5 -18q-26 0 -44 18.5t-18 44.5zM154 134q7 -27 21.5 -35.5t51.5 -8.5h122q38 0 51.5 8.5t21.5 35.5l1 9v87l-1 10q-7 26 -19.5 35.5t-42.5 12.5
h-9h-125h-9q-51 -5 -63 -48l-1 -10v-87z" />
    <glyph glyph-name="aring" unicode="&#xe5;" horiz-adv-x="576" 
d="M63 145v65q0 81 36.5 124.5t101.5 43.5h222v35q0 11 -6 20q-11 16 -28 16l-9 1h-12h-305v90h320q54 0 85 -23.5t43 -76.5l2 -24v-278q0 -38 -19 -69q-43 -69 -112 -69h-180q-36 0 -74 25q-31 20 -48 51.5t-17 68.5zM196 664q0 38 27 65t65 27t65 -27t27 -65
q0 -37 -27 -64t-65 -27t-65 26t-27 65zM288 623q17 0 29 12t12 29t-11.5 29.5t-29.5 12.5q-17 0 -29 -12t-12 -30q0 -17 12 -29t29 -12zM154 134q7 -27 21.5 -35.5t51.5 -8.5h122q38 0 51.5 8.5t21.5 35.5l1 9v87l-1 10q-7 26 -19.5 35.5t-42.5 12.5h-9h-125h-9
q-51 -5 -63 -48l-1 -10v-87z" />
    <glyph glyph-name="ae" unicode="&#xe6;" horiz-adv-x="913" 
d="M63 540h301q34 0 66 -17q9 -5 18 -11.5t19 -16.5l10 9q42 36 102 36h129q135 0 157 -104l3 -26v-75l-356 -158v-24q0 -59 78 -59h278v-94h-293q-34 0 -53.5 8t-42.5 32l-8 10l-10 -11q-25 -23 -44.5 -31t-46.5 -8h-156q-49 0 -81 19q-69 41 -69 114v97q0 7 1.5 15.5
t2.5 13.5q11 47 46.5 73.5t87.5 26.5h219v26v12q-2 23 -11 33t-33 14l-11 1h-303v95zM161 126q6 -14 16.5 -21t31.5 -11l11 -1h144q48 0 57 47l1 12v114h-206q-60 0 -60 -56v-64q0 -9 5 -20zM776 394v7l-1 9q-8 34 -46 34l-10 1h-143l-11 -1q-29 -3 -41 -16t-12 -41v-112z
" />
    <glyph glyph-name="ccedilla" unicode="&#xe7;" horiz-adv-x="458" 
d="M63 137v267q0 60 29.5 93t95.5 41l24 2h207v-90h-207q-9 0 -21 -4q-38 -13 -38 -54v-235l1 -12q6 -29 24 -42t37 -13h205v-90h-206q-46 0 -78 19q-73 40 -73 118zM192 -123l49 107h67l-51 -107h-65z" />
    <glyph glyph-name="egrave" unicode="&#xe8;" horiz-adv-x="557" 
d="M63 142v242q0 156 167 156h134q67 0 104.5 -36.5t37.5 -101.5v-64l-353 -164v-18v-6q6 -37 17.5 -48.5t44.5 -11.5h297v-90h-302q-76 0 -117 52q-30 39 -30 90zM184 706h99l41 -115h-61zM153 273l263 122v8q0 26 -12.5 36.5t-42.5 10.5h-147q-61 0 -61 -68v-109z" />
    <glyph glyph-name="eacute" unicode="&#xe9;" horiz-adv-x="557" 
d="M63 142v242q0 156 167 156h134q67 0 104.5 -36.5t37.5 -101.5v-64l-353 -164v-18v-6q6 -37 17.5 -48.5t44.5 -11.5h297v-90h-302q-76 0 -117 52q-30 39 -30 90zM238 591l42 115h98l-79 -115h-61zM153 273l263 122v8q0 26 -12.5 36.5t-42.5 10.5h-147q-61 0 -61 -68v-109z
" />
    <glyph glyph-name="ecircumflex" unicode="&#xea;" horiz-adv-x="557" 
d="M63 142v242q0 156 167 156h134q67 0 104.5 -36.5t37.5 -101.5v-64l-353 -164v-18v-6q6 -37 17.5 -48.5t44.5 -11.5h297v-90h-302q-76 0 -117 52q-30 39 -30 90zM144 591l78 115h106l85 -114h-78l-58 85l-55 -86h-78zM153 273l263 122v8q0 26 -12.5 36.5t-42.5 10.5h-147
q-61 0 -61 -68v-109z" />
    <glyph glyph-name="edieresis" unicode="&#xeb;" horiz-adv-x="557" 
d="M63 142v242q0 156 167 156h134q67 0 104.5 -36.5t37.5 -101.5v-64l-353 -164v-18v-6q6 -37 17.5 -48.5t44.5 -11.5h297v-90h-302q-76 0 -117 52q-30 39 -30 90zM131 658q0 26 18 44t43 18t43.5 -18t18.5 -45q0 -26 -18 -44t-43 -18q-26 0 -44 18t-18 45zM303 658
q0 25 18 43.5t43 18.5q26 0 44 -18t18 -44q0 -27 -18 -45t-43 -18q-26 0 -44 18.5t-18 44.5zM153 273l263 122v8q0 26 -12.5 36.5t-42.5 10.5h-147q-61 0 -61 -68v-109z" />
    <glyph glyph-name="igrave" unicode="&#xec;" horiz-adv-x="216" 
d="M6 706h99l41 -115h-61zM62 0h90v540h-90v-540z" />
    <glyph glyph-name="iacute" unicode="&#xed;" horiz-adv-x="216" 
d="M70 591l42 115h98l-79 -115h-61zM62 0h90v540h-90v-540z" />
    <glyph glyph-name="icircumflex" unicode="&#xee;" horiz-adv-x="215" 
d="M-34 591l78 115h106l85 -114h-78l-58 85l-55 -86h-78zM62 0h90v540h-90v-540z" />
    <glyph glyph-name="idieresis" unicode="&#xef;" horiz-adv-x="215" 
d="M-37 658q0 26 18 44t43 18t43.5 -18t18.5 -45q0 -26 -18 -44t-43 -18q-26 0 -44 18t-18 45zM135 658q0 25 18 43.5t43 18.5q26 0 44 -18t18 -44q0 -27 -18 -45t-43 -18q-26 0 -44 18.5t-18 44.5zM62 0h90v540h-90v-540z" />
    <glyph glyph-name="eth" unicode="&#xf0;" horiz-adv-x="556" 
d="M405 151v184q0 55 -42 55h-165q-48 0 -58 -56v-184q0 -50 52 -59l12 -1h152q25 0 39 19q6 8 8 15.5t2 26.5zM493 657l2 -10l2 -84v-432l-2 -24q-7 -51 -40 -79t-85 -28h-191q-22 0 -46 10q-81 33 -81 128v195q0 61 41.5 104t98.5 43h215v127l-113 -65l-45 78l79 46h-200
v90h215q63 0 99 -24l70 41l44 -79z" />
    <glyph glyph-name="ntilde" unicode="&#xf1;" 
d="M63 0v401q0 67 39 103t113 36h142q152 0 152 -139v-401h-90v390v22q-7 36 -61 36h-143q-35 0 -48.5 -12.5t-13.5 -45.5v-390h-90zM125 604v64l13 8l16 9q31 14 59 14q29 0 63 -17l34 -17l22 -11q5 -4 23 -4q12 0 25 5l8 3l10 5l50 28v-62l-33 -20q-28 -17 -61 -17
q-9 1 -14 1q-18 3 -27 5.5t-18 8.5l-35 21l-17 12q-12 7 -27 7q-18 0 -38 -10l-9 -5z" />
    <glyph glyph-name="ograve" unicode="&#xf2;" horiz-adv-x="579" 
d="M63 133v281q0 111 120 125l24 1h165l22 -2q122 -17 122 -124v-281q0 -40 -17 -67t-57 -50q-29 -16 -70 -16h-165q-65 0 -104.5 37.5t-39.5 95.5zM195 706h99l41 -115h-61zM218 90h145q63 0 63 68v227q0 65 -63 65h-145q-65 0 -65 -65v-223q0 -72 65 -72z" />
    <glyph glyph-name="oacute" unicode="&#xf3;" horiz-adv-x="579" 
d="M63 133v281q0 111 120 125l24 1h165l22 -2q122 -17 122 -124v-281q0 -40 -17 -67t-57 -50q-29 -16 -70 -16h-165q-65 0 -104.5 37.5t-39.5 95.5zM249 591l42 115h98l-79 -115h-61zM218 90h145q63 0 63 68v227q0 65 -63 65h-145q-65 0 -65 -65v-223q0 -72 65 -72z" />
    <glyph glyph-name="ocircumflex" unicode="&#xf4;" horiz-adv-x="579" 
d="M63 133v281q0 111 120 125l24 1h165l22 -2q122 -17 122 -124v-281q0 -40 -17 -67t-57 -50q-29 -16 -70 -16h-165q-65 0 -104.5 37.5t-39.5 95.5zM155 591l78 115h106l85 -114h-78l-58 85l-55 -86h-78zM218 90h145q63 0 63 68v227q0 65 -63 65h-145q-65 0 -65 -65v-223
q0 -72 65 -72z" />
    <glyph glyph-name="otilde" unicode="&#xf5;" horiz-adv-x="579" 
d="M63 133v281q0 111 120 125l24 1h165l22 -2q122 -17 122 -124v-281q0 -40 -17 -67t-57 -50q-29 -16 -70 -16h-165q-65 0 -104.5 37.5t-39.5 95.5zM128 604v64l13 8l16 9q31 14 59 14q29 0 63 -17l34 -17l22 -11q5 -4 23 -4q12 0 25 5l8 3l10 5l50 28v-62l-33 -20
q-28 -17 -61 -17q-9 1 -14 1q-18 3 -27 5.5t-18 8.5l-35 21l-17 12q-12 7 -27 7q-18 0 -38 -10l-9 -5zM218 90h145q63 0 63 68v227q0 65 -63 65h-145q-65 0 -65 -65v-223q0 -72 65 -72z" />
    <glyph glyph-name="odieresis" unicode="&#xf6;" horiz-adv-x="579" 
d="M63 133v281q0 111 120 125l24 1h165l22 -2q122 -17 122 -124v-281q0 -40 -17 -67t-57 -50q-29 -16 -70 -16h-165q-65 0 -104.5 37.5t-39.5 95.5zM143 658q0 26 18 44t43 18t43.5 -18t18.5 -45q0 -26 -18 -44t-43 -18q-26 0 -44 18t-18 45zM315 658q0 26 18 44t43 18
t43.5 -18t18.5 -45q0 -26 -18 -44t-43 -18q-26 0 -44 18.5t-18 44.5zM218 90h145q63 0 63 68v227q0 65 -63 65h-145q-65 0 -65 -65v-223q0 -72 65 -72z" />
    <glyph glyph-name="oslash" unicode="&#xf8;" horiz-adv-x="580" 
d="M63 132v283q0 16 4 28q12 45 39.5 67.5t76.5 28.5l25 1h166q38 0 71 -11l10 -4l8 -3l15 22l39 -4l-31 -41l4 -6l4 -6q12 -18 17 -35.5t5 -36.5v-283q0 -45 -33 -84q-37 -48 -110 -48h-166l-16 1q-43 4 -66 20l-15 -21h-41l31 41l-6 9q-19 25 -25 41t-6 41zM217 91h147
q34 0 52 25q10 14 10 43v225l-2 21l-1 5l-1 4l-237 -317q8 -4 11 -5q5 -1 21 -1zM162 121l241 321q-10 6 -20.5 8t-18.5 2h-146q-37 0 -55 -27q-9 -14 -9 -41v-220q0 -20 1 -26q1 -7 7 -17z" />
    <glyph glyph-name="ugrave" unicode="&#xf9;" 
d="M63 139v401h90v-390v-22l1 -3q7 -33 61 -33h143q35 0 48 12t13 46v390h90v-401q0 -67 -39 -103t-113 -36h-142q-152 0 -152 139zM192 706h99l41 -115h-61z" />
    <glyph glyph-name="uacute" unicode="&#xfa;" 
d="M63 139v401h90v-390v-22l1 -3q7 -33 61 -33h143q35 0 48 12t13 46v390h90v-401q0 -67 -39 -103t-113 -36h-142q-152 0 -152 139zM246 591l42 115h98l-79 -115h-61z" />
    <glyph glyph-name="ucircumflex" unicode="&#xfb;" 
d="M63 139v401h90v-390v-22l1 -3q7 -33 61 -33h143q35 0 48 12t13 46v390h90v-401q0 -67 -39 -103t-113 -36h-142q-152 0 -152 139zM152 591l78 115h106l85 -114h-78l-58 85l-55 -86h-78z" />
    <glyph glyph-name="udieresis" unicode="&#xfc;" 
d="M63 139v401h90v-390v-22l1 -3q7 -33 61 -33h143q35 0 48 12t13 46v390h90v-401q0 -67 -39 -103t-113 -36h-142q-152 0 -152 139zM139 658q0 26 17.5 44t43.5 18q25 0 43.5 -18t18.5 -44q0 -27 -18.5 -45t-43.5 -18t-43 18t-18 45zM311 658q0 26 17.5 44t43.5 18
q25 0 43.5 -18t18.5 -44q0 -27 -18 -45t-44 -18q-25 0 -43 18t-18 45z" />
    <glyph glyph-name="yacute" unicode="&#xfd;" 
d="M63 -176v90h300h11q45 7 45 57v29h-226q-54 0 -92 38t-38 94v408h90v-384l1 -14q9 -52 63 -52h140q62 0 62 57v393h90v-564q0 -65 -30 -103q-40 -49 -112 -49h-304zM249 591l42 115h98l-79 -115h-61z" />
    <glyph glyph-name="ydieresis" unicode="&#xff;" 
d="M63 -176v90h300h11q45 7 45 57v29h-226q-54 0 -92 38t-38 94v408h90v-384l1 -14q9 -52 63 -52h140q62 0 62 57v393h90v-564q0 -65 -30 -103q-40 -49 -112 -49h-304zM139 658q0 26 18 44t43 18t43.5 -18t18.5 -45q0 -26 -18 -44t-43 -18q-26 0 -44 18t-18 45zM311 658
q0 25 18 43.5t43 18.5q26 0 44 -18t18 -44q0 -27 -18 -45t-43 -18q-26 0 -44 18.5t-18 44.5z" />
    <glyph glyph-name="dotlessi" unicode="&#x131;" horiz-adv-x="741" 
d="M588 0v540h90v-540h-90z" />
    <glyph glyph-name="Lslash" unicode="&#x141;" horiz-adv-x="530" 
d="M167 321v-139q0 -41 19.5 -59.5t64.5 -18.5h273v-104h-271l-30 2q-160 18 -160 179v80l-49 -28l-52 93l101 58v336h104v-275l61 35l53 -93z" />
    <glyph glyph-name="lslash" unicode="&#x142;" horiz-adv-x="216" 
d="M153 319v-319h-90v267l-59 -34l-52 93l111 64v330h90v-278l65 38l53 -93z" />
    <glyph glyph-name="OE" unicode="&#x152;" horiz-adv-x="1001" 
d="M63 161v390q0 60 30 101t58 54.5t83 13.5h186q73 0 104 -50q31 37 83 48l26 2h305v-106h-293q-31 0 -46 -12.5t-22 -44.5l-1 -11v-134h360v-103h-360v-140q0 -49 47 -61l16 -1h293v-107h-291q-37 0 -78 24q-23 14 -42 37q-17 -23 -43 -38q-40 -23 -78 -23h-167
q-50 0 -88 24q-43 28 -62.5 60.5t-19.5 76.5zM193 117q15 -9 40 -9l180 1q34 0 53 36q6 14 6 31v377q0 50 -51 61l-13 1h-175q-68 0 -68 -65v-380q0 -33 28 -53z" />
    <glyph glyph-name="oe" unicode="&#x153;" horiz-adv-x="913" 
d="M63 137v267q0 19 4 34q27 102 156 102h135q34 0 61 -11.5t46 -34.5l11 11q42 35 99 35h153q68 0 108 -43q17 -19 24.5 -42.5t7.5 -58.5v-60l-357 -158v-19l1 -12q5 -29 20 -40.5t51 -11.5h284v-94h-300q-43 0 -86 33l-10 8l-7 7l-6 -7l-10 -10q-36 -32 -77 -32h-164
q-53 0 -77 12t-47 52l-12 25q-8 27 -8 48zM227 95h127q38 0 54.5 16.5t16.5 55.5v207q0 71 -71 71h-127q-39 0 -55.5 -16.5t-16.5 -54.5v-207q0 -39 16.5 -55.5t55.5 -16.5zM775 395v5q0 39 -49 47l-8 1h-138l-12 -1q-48 0 -55 -43l-2 -12v-114z" />
    <glyph glyph-name="Scaron" unicode="&#x160;" horiz-adv-x="550" 
d="M42 0v104h287l11 1q30 3 44.5 21.5t14.5 37.5v91q0 16 -8 28q-8 15 -19.5 21.5t-37.5 9.5l-11 1h-108l-30 2q-65 10 -103.5 50.5t-38.5 93.5v91q0 113 89 155q16 7 33.5 10t50.5 3h292v-104h-297l-10 -1q-28 -4 -38.5 -13t-14.5 -33l-1 -13v-71l1 -14q7 -61 67 -61h126
q49 0 89 -23q74 -42 74 -115v-114q0 -82 -67 -128q-43 -30 -96 -30h-299zM136 865h78l57 -85l56 86l78 -1l-78 -114h-106z" />
    <glyph glyph-name="scaron" unicode="&#x161;" horiz-adv-x="494" 
d="M45 0v90h254h22q12 0 24.5 11t12.5 43v41q0 51 -53 51h-122q-87 0 -121 58q-15 27 -15 54v69q0 57 32 90t88 33h282v-90h-257h-17q-8 0 -23 -7.5t-15 -32.5v-39q0 -11 8 -24q13 -20 41 -20h134l25 -2q47 -10 75 -43.5t28 -78.5v-85q0 -33 -19 -62q-5 -9 -11.5 -16.5
t-16.5 -15.5q-37 -24 -68 -24h-288zM106 705h78l57 -85l56 86l78 -1l-78 -114h-106z" />
    <glyph glyph-name="Ydieresis" unicode="&#x178;" horiz-adv-x="590" 
d="M-16 720h123l185 -299l190 299h124l-261 -411v-309h-105l-1 308zM148 831q0 26 18 44t43 18t43.5 -18t18.5 -45q0 -26 -18 -44t-43 -18q-26 0 -44 18t-18 45zM320 831q0 25 18 43.5t43 18.5q26 0 44 -18t18 -44q0 -27 -18 -45t-43 -18q-26 0 -44 18.5t-18 44.5z" />
    <glyph glyph-name="Zcaron" unicode="&#x17d;" horiz-adv-x="534" 
d="M50 145l334 471h-344v104h379q37 0 61 -24t24 -60q0 -15 -5.5 -31t-13.5 -26l-336 -475h346v-104h-369q-41 0 -68 27t-27 63q0 29 19 55zM136 855h78l57 -85l56 86l78 -1l-78 -114h-106z" />
    <glyph glyph-name="zcaron" unicode="&#x17e;" horiz-adv-x="543" 
d="M52 115l335 335h-337v90h388q61 0 69 -55q1 -6 1 -17q0 -15 -2.5 -23t-9.5 -15l-341 -340h343v-90h-400q-31 0 -47 14.5t-16 49.5q0 16 3.5 28.5t13.5 22.5zM126 705h78l57 -85l56 86l78 -1l-78 -114h-106z" />
    <glyph glyph-name="florin" unicode="&#x192;" horiz-adv-x="400" 
d="M6 -176l11 86h39q25 0 38 11t21 41l3 14l75 608q2 17 7 32q38 105 157 105h37l-11 -90h-36q-33 0 -47 -14t-19 -51l-3 -23h91l-11 -91h-91l-61 -493q-2 -17 -7 -30q-22 -57 -57.5 -81t-96.5 -24h-39z" />
    <glyph glyph-name="circumflex" unicode="&#x2c6;" horiz-adv-x="281" 
d="M6 591l78 115h106l85 -114h-78l-58 85l-55 -86h-78z" />
    <glyph glyph-name="caron" unicode="&#x2c7;" horiz-adv-x="281" 
d="M6 705h78l57 -85l56 86l78 -1l-78 -114h-106z" />
    <glyph glyph-name="breve" unicode="&#x2d8;" horiz-adv-x="257" 
d="M6 706h58q-3 -29 16 -50t48 -21q28 0 46.5 20.5t18.5 50.5h58q0 -48 -37 -82t-86 -34t-85.5 33.5t-36.5 82.5z" />
    <glyph glyph-name="ring" unicode="&#x2da;" horiz-adv-x="195" 
d="M6 679q0 38 27 65t65 27q37 0 64 -27t27 -65t-26.5 -64.5t-64.5 -26.5q-39 0 -65.5 26.5t-26.5 64.5zM98 638q17 0 29 12t12 29q0 18 -12 30t-29 12q-18 0 -30 -12t-12 -30q0 -17 12 -29t30 -12z" />
    <glyph glyph-name="tilde" unicode="&#x2dc;" horiz-adv-x="335" 
d="M6 604v64l13 8l16 9q31 14 59 14q29 0 63 -17l34 -17l22 -11q5 -4 23 -4q12 0 25 5l8 3l10 5l50 28v-62l-33 -20q-28 -17 -61 -17q-9 1 -14 1q-18 3 -27 5.5t-18 8.5l-35 21l-17 12q-12 7 -27 7q-18 0 -38 -10l-9 -5z" />
    <glyph glyph-name="pi" unicode="&#x3c0;" horiz-adv-x="260" 
d="M63 0v397l2 31q6 52 30 77t78 33l23 2h51v-91h-44q-18 0 -34 -11.5t-16 -42.5v-395h-90zM6 705h78l57 -85l56 86l78 -1l-78 -114h-106z" />
    <glyph glyph-name="endash" unicode="&#x2013;" horiz-adv-x="649" 
d="M58 303v107h533v-107h-533z" />
    <glyph glyph-name="emdash" unicode="&#x2014;" horiz-adv-x="524" 
d="M35 225v101h454v-101h-454z" />
    <glyph glyph-name="quoteleft" unicode="&#x2018;" horiz-adv-x="182" 
d="M40 605l48 115h61l-45 -101q22 -5 36.5 -21.5t14.5 -38.5q0 -28 -18 -47.5t-45 -19.5q-28 0 -46.5 20t-18.5 43q0 21 13 50z" />
    <glyph glyph-name="quoteright" unicode="&#x2019;" horiz-adv-x="182" 
d="M142 607l-48 -115h-61l45 101q-22 5 -36.5 21.5t-14.5 39.5q0 29 18.5 47.5t44.5 18.5q28 0 46.5 -20t18.5 -43q0 -21 -13 -50z" />
    <glyph glyph-name="quotesinglbase" unicode="&#x201a;" horiz-adv-x="182" 
d="M142 15l-48 -115h-61l45 101q-22 4 -36.5 20.5t-14.5 39.5q0 29 18.5 47.5t44.5 18.5q28 0 46.5 -20t18.5 -42q0 -21 -13 -50z" />
    <glyph glyph-name="quotedblleft" unicode="&#x201c;" horiz-adv-x="328" 
d="M185 605l48 115h61l-45 -101q22 -5 37 -21.5t15 -38.5q0 -29 -18.5 -48t-45.5 -19q-28 0 -48 21q-16 17 -16 42q0 20 12 50zM40 605l48 115h61l-45 -101q22 -5 36.5 -21.5t14.5 -38.5q0 -28 -18 -47.5t-45 -19.5q-28 0 -46.5 20t-18.5 43q0 21 13 50z" />
    <glyph glyph-name="quotedblright" unicode="&#x201d;" horiz-adv-x="328" 
d="M142 607l-48 -115h-61l45 101q-22 5 -36.5 21.5t-14.5 39.5q0 29 18.5 47.5t44.5 18.5q28 0 46.5 -20t18.5 -43q0 -21 -13 -50zM288 607l-48 -115h-61l45 101q-22 5 -36.5 21.5t-14.5 39.5q0 29 18 47.5t45 18.5q28 0 48 -21q16 -16 16 -41q0 -21 -12 -51z" />
    <glyph glyph-name="quotedblbase" unicode="&#x201e;" horiz-adv-x="328" 
d="M142 15l-48 -115h-61l45 101q-22 4 -36.5 20.5t-14.5 39.5q0 29 18.5 47.5t44.5 18.5q28 0 46.5 -20t18.5 -42q0 -21 -13 -50zM288 15l-48 -115h-61l45 101q-22 4 -36.5 20.5t-14.5 39.5q0 28 18 47t45 19q28 0 48 -21q16 -16 16 -41q0 -20 -12 -50z" />
    <glyph glyph-name="bullet" unicode="&#x2022;" horiz-adv-x="364" 
d="M47 360q0 57 39 96t96 39t96 -39t39 -96t-39 -96t-96 -39t-96 39t-39 96z" />
    <glyph glyph-name="ellipsis" unicode="&#x2026;" horiz-adv-x="620" 
d="M40 53q0 27 18 45t45 18t45 -18t18 -45t-18 -45t-45 -18t-45 18t-18 45zM247 53q0 27 18 45t45 18t45 -18t18 -45t-18 -45t-45 -18t-45 18t-18 45zM454 53q0 27 18 45t45 18t45 -18t18 -45t-18 -45t-45 -18t-45 18t-18 45z" />
    <glyph glyph-name="guilsinglleft" unicode="&#x2039;" horiz-adv-x="284" 
d="M44 303l136 200l67 1l-162 -231l164 -228h-69l-134 193l-5 8q-8 19 -5 31q3 19 8 26z" />
    <glyph glyph-name="guilsinglright" unicode="&#x203a;" horiz-adv-x="284" 
d="M35 504h69l134 -193l5 -8q8 -19 5 -31q-3 -19 -8 -26l-136 -200l-68 -1l163 231z" />
    <glyph glyph-name="product" unicode="&#x220f;" horiz-adv-x="622" 
d="M63 0v720h364q52 0 89 -27.5t50 -53.5t13 -69v-124q0 -39 -23 -74q-44 -66 -114 -66h-123l265 -306h-138l-265 307q-9 9 -9 31q0 10 3 22q10 40 57 49l18 1h157l10 1q57 10 57 58v80l-1 13q-7 46 -52 53l-11 1h-243v-616h-104zM156 855h78l57 -85l56 86l78 -1l-78 -114
h-106z" />
    <glyph glyph-name="fraction" unicode="&#x2215;" horiz-adv-x="302" 
d="M-30 0l287 720h75l-288 -720h-74z" />
    <glyph glyph-name="radical" unicode="&#x221a;" horiz-adv-x="458" 
d="M63 137v267q0 60 29.5 93t95.5 41l24 2h207v-90h-207q-9 0 -21 -4q-38 -13 -38 -54v-235l1 -12q6 -29 24 -42t37 -13h205v-90h-206q-46 0 -78 19q-73 40 -73 118zM116 705h78l57 -85l56 86l78 -1l-78 -114h-106z" />
    <glyph glyph-name="lozenge" unicode="&#x25ca;" horiz-adv-x="574" 
d="M63 173v370q0 82 47.5 129.5t118.5 47.5h303v-104h-289q-76 0 -76 -76v-359l2 -15q14 -62 74 -62h287v-104h-309q-45 0 -90 31q-53 36 -66 112zM166 855h78l57 -85l56 86l78 -1l-78 -114h-106z" />
    </font>
</defs>
</svg>
