<svg version="1.1" id="Capa_1" xmlns="http://www.w3.org/2000/svg" xmlns:xlink="http://www.w3.org/1999/xlink" x="0px" y="0px"
   viewBox="0 0 496 496" style="enable-background:new 0 0 496 496;" xml:space="preserve" width="50" height="50">
   <g>
        <g>
             <g>
                  <path d="M456,224h-40v272h40c22.056,0,40-17.944,40-40V264C496,241.944,478.056,224,456,224z M480,456c0,13.232-10.768,24-24,24
                       h-24V240h24c13.232,0,24,10.768,24,24V456z"/>
                  <rect x="304" y="224" width="96" height="16"/>
                  <path d="M64,240h96v-16H40c-22.056,0-40,17.944-40,40v192c0,22.056,17.944,40,40,40h360v-16H64V240z M48,480h-8
                       c-13.232,0-24-10.768-24-24V264c0-13.232,10.768-24,24-24h8V480z"/>
                  <rect x="448" y="328" width="16" height="64"/>
                  <path d="M176,48c-22.056,0-40,17.944-40,40v72h16v-40h48v40h16V88C216,65.944,198.056,48,176,48z M200,104h-48V88
                       c0-13.232,10.768-24,24-24s24,10.768,24,24V104z"/>
                  <path d="M288,48h-40v112h40c22.056,0,40-17.944,40-40V88C328,65.944,310.056,48,288,48z M312,120c0,13.232-10.768,24-24,24h-24
                       V64h24c13.232,0,24,10.768,24,24V120z"/>
                  <path d="M416,40c0-22.056-17.944-40-40-40H88C65.944,0,48,17.944,48,40v128c0,22.056,17.944,40,40,40h81.92l34.088,122.728
                       C207.496,343.248,219,352,232,352s24.504-8.752,27.992-21.272L294.08,208H376c22.056,0,40-17.944,40-40V40z M400,168
                       c0,13.232-10.768,24-24,24h-94.08l-37.352,134.448C243.008,332.072,237.832,336,232,336c-5.832,0-11.008-3.928-12.568-9.552
                       L182.08,192H88c-13.232,0-24-10.768-24-24V40c0-13.232,10.768-24,24-24h288c13.232,0,24,10.768,24,24V168z"/>
                  <rect x="344" y="48" width="16" height="16"/>
                  <rect x="344" y="144" width="16" height="16"/>
                  <rect x="104" y="48" width="16" height="16"/>
                  <rect x="104" y="144" width="16" height="16"/>
                  <polygon points="304,272 384,272 384,320 280,320 280,336 384,336 384,448 96,448 96,336 184,336 184,320 96,320 96,272 160,272 
                       160,256 80,256 80,464 400,464 400,256 304,256 			"/>
                  <rect x="112" y="288" width="16" height="16"/>
                  <rect x="144" y="288" width="16" height="16"/>
             </g>
        </g>
   </g>
</svg>