<svg xmlns="http://www.w3.org/2000/svg" width="40" height="40" viewBox="0 0 413.137 413.137" enable-background="new 0 0 413.137 413.137"><g fill="#AAC148"><path d="M311.36 136.4H101.78c-4.66 0-8.44 3.77-8.44 8.44V320.6c0 4.65 3.78 8.43 8.44 8.43h37.36v59.22c0 13.75 11.14 24.9 24.9 24.9 13.73 0 24.87-11.15 24.87-24.9v-59.22h34.8v59.22c0 13.75 11.15 24.9 24.9 24.9 13.74 0 24.88-11.15 24.88-24.9v-59.22h37.88c4.66 0 8.44-3.78 8.44-8.44V144.83c0-4.67-3.78-8.44-8.44-8.44zM57.86 136.35c-13.75 0-24.9 11.14-24.9 24.9V262.3c0 13.74 11.15 24.9 24.9 24.9 13.74 0 24.88-11.15 24.88-24.9V161.24c0-13.75-11.14-24.9-24.88-24.9zM355.28 136.35c-13.74 0-24.88 11.14-24.88 24.9V262.3c0 13.74 11.14 24.9 24.88 24.9 13.74 0 24.88-11.15 24.88-24.9V161.24c0-13.75-11.14-24.9-24.88-24.9zM103.47 124.07h205.7c5.36 0 9.37-4.94 8.26-10.2-6.8-32.42-27.45-59.75-55.46-75.54L279.55 6.6c1.2-2.14.42-4.85-1.73-6.04-2.15-1.2-4.86-.42-6.05 1.73l-17.7 31.96c-14.53-6.74-30.7-10.5-47.75-10.5s-33.22 3.76-47.73 10.5L140.86 2.3c-1.2-2.16-3.9-2.93-6.05-1.74-2.14 1.2-2.92 3.9-1.73 6.04l17.57 31.73c-28 15.8-48.66 43.12-55.46 75.54-1.1 5.26 2.9 10.2 8.27 10.2zM267.7 76.8c0 5.27-4.28 9.55-9.57 9.55-5.28 0-9.56-4.28-9.56-9.56 0-5.3 4.28-9.58 9.56-9.58 5.3 0 9.57 4.28 9.57 9.57zM154.5 67.2c5.3 0 9.57 4.28 9.57 9.57 0 5.27-4.28 9.55-9.56 9.55-5.27 0-9.56-4.28-9.56-9.56 0-5.3 4.28-9.58 9.57-9.58z"/></g></svg>