<svg xmlns="http://www.w3.org/2000/svg" width="35" height="35" viewBox="0 0 475.088 475.088" enable-background="new 0 0 475.088 475.088"><path d="M391.3 310.9c-13.14-18.83-19.7-40.06-19.7-63.66 0-21.5 6.2-41.2 18.55-59.1 6.66-9.7 17.5-20.93 32.55-33.7-9.9-12.16-19.8-21.68-29.7-28.54-17.9-12.37-38.16-18.55-60.8-18.55-13.52 0-30 3.23-49.4 9.7-18.65 6.48-32.26 9.72-40.83 9.72-6.47 0-19.6-2.85-39.4-8.57-19.98-5.7-36.83-8.56-50.53-8.56-32.74 0-59.77 13.7-81.08 41.1-21.5 27.8-32.27 63.4-32.27 106.8 0 46.05 13.98 93.92 41.96 143.6 28.36 49.3 57 73.95 85.94 73.95 9.7 0 22.27-3.25 37.68-9.72 15.42-6.28 28.94-9.42 40.55-9.42 12.37 0 26.74 3.04 43.1 9.13 17.33 6.08 30.65 9.12 39.98 9.12 24.37 0 48.83-18.65 73.38-55.96 16-23.8 27.7-47.58 35.12-71.37-16.94-5.16-31.98-17.15-45.1-36zM294.2 90.22c12-12 20.86-25.13 26.57-39.4 5.52-14.28 8.27-27.22 8.27-38.83 0-.77-.04-1.72-.14-2.87-.1-1.14-.14-2.1-.14-2.85-.2-.57-.43-1.62-.7-3.14-.3-1.52-.53-2.57-.73-3.14-33.5 7.8-57.3 21.9-71.37 42.26-14.28 20.56-21.7 45-22.27 73.37 12.74-1.14 22.63-2.76 29.68-4.85 10.28-3.43 20.55-10.28 30.83-20.56z"/></svg>