<svg width='80' height='80' fill="#000000" xmlns="http://www.w3.org/2000/svg" xmlns:xlink="http://www.w3.org/1999/xlink" version="1.1" x="0px" y="0px" viewBox="0 0 128 128" xml:space="preserve">
  <path d="M128.196-428.251h-9.382c-1.104,0-2,0.896-2,2v41.476c0,1.104,0.896,2,2,2h9.382c1.104,0,2-0.896,2-2v-41.476  C130.196-427.355,129.301-428.251,128.196-428.251z M126.196-386.775h-5.382v-37.476h5.382V-386.775z"></path>
  <g>
    <path d="M94.23,76.965V61.991c0-2.911-2.366-5.28-5.274-5.28h-5.69c-1.104,0-2,0.896-2,2s0.896,2,2,2h5.69   c0.703,0,1.274,0.574,1.274,1.28v14.837l-4.053,1.354c-0.819,0.273-1.371,1.042-1.367,1.906l0.031,6.947   c0.005,1.102,0.899,1.991,2,1.991c0.003,0,0.006,0,0.009,0c1.105-0.005,1.996-0.904,1.991-2.009l-0.025-5.5l2.811-0.938   C93.185,80.06,94.23,78.607,94.23,76.965z"></path>
    <path d="M68.777,78.182c-0.816,0.272-1.367,1.037-1.367,1.897v6.947c0,1.104,0.896,2,2,2s2-0.896,2-2V81.52l2.817-0.94   c1.557-0.52,2.603-1.972,2.603-3.614V61.991c0-2.911-2.366-5.28-5.274-5.28H56.651c-0.138,0-0.273,0.014-0.404,0.041   c-2.717,0.211-4.871,2.466-4.871,5.239v14.992c0,1.62,1.027,3.065,2.555,3.598L56.57,81.5v5.526c0,1.104,0.896,2,2,2s2-0.896,2-2   v-6.947c0-0.851-0.539-1.608-1.342-1.889l-3.853-1.342V61.991c0-0.706,0.572-1.28,1.275-1.28h14.905   c0.703,0,1.274,0.574,1.274,1.28v14.837L68.777,78.182z"></path>
    <path d="M39.043,60.711h5.69c1.104,0,2-0.896,2-2s-0.896-2-2-2h-5.69c-2.908,0-5.274,2.369-5.274,5.28v14.974   c0,1.642,1.046,3.094,2.602,3.613l2.818,0.941v5.507c0,1.104,0.896,2,2,2s2-0.896,2-2v-6.947c0-0.86-0.55-1.625-1.367-1.897   l-4.053-1.354V61.991C37.769,61.286,38.341,60.711,39.043,60.711z"></path>
    <path d="M79.57,100.855c1.017-0.43,1.493-1.604,1.063-2.621c-0.43-1.017-1.604-1.494-2.621-1.063C73.575,99.048,68.86,100,64,100   s-9.575-0.952-14.012-2.828c-1.018-0.431-2.191,0.045-2.621,1.063c-0.431,1.018,0.045,2.191,1.063,2.621   c4.322,1.828,8.878,2.866,13.571,3.095v5.998c-0.907-0.039-1.812-0.096-2.706-0.187c-1.529-0.155-3.066-0.39-4.567-0.697   c-1.483-0.304-2.966-0.685-4.407-1.133c-1.425-0.443-2.847-0.963-4.225-1.546c-1.367-0.579-2.72-1.23-4.021-1.937   c-1.293-0.703-2.569-1.478-3.793-2.304c-1.212-0.819-2.404-1.71-3.542-2.648c-1.13-0.933-2.23-1.932-3.268-2.97   c-1.035-1.034-2.034-2.133-2.97-3.267c-0.935-1.133-1.826-2.325-2.648-3.541c-0.825-1.222-1.6-2.499-2.304-3.793   c-0.709-1.306-1.36-2.658-1.937-4.021c-0.581-1.374-1.102-2.795-1.546-4.224c-0.448-1.443-0.83-2.926-1.133-4.408   c-0.221-1.082-1.274-1.774-2.361-1.558c-1.082,0.222-1.78,1.278-1.558,2.361c0.33,1.611,0.745,3.223,1.232,4.793   c0.484,1.555,1.05,3.101,1.682,4.594c0.626,1.481,1.335,2.952,2.106,4.372c0.765,1.408,1.607,2.794,2.504,4.123   c0.894,1.322,1.862,2.617,2.878,3.848c1.017,1.232,2.102,2.426,3.227,3.55c1.127,1.127,2.321,2.213,3.55,3.227   c1.236,1.02,2.531,1.988,3.849,2.877c1.329,0.898,2.716,1.741,4.122,2.504c1.415,0.769,2.885,1.477,4.372,2.106   c1.499,0.634,3.045,1.199,4.595,1.681c1.567,0.488,3.18,0.903,4.793,1.233c1.632,0.334,3.303,0.589,4.965,0.757   C60.575,113.913,62.294,114,64,114c1.104,0,2-0.896,2-2v-8.049C70.693,103.721,75.249,102.683,79.57,100.855z"></path>
    <path d="M48.429,27.145c-1.017,0.43-1.493,1.604-1.063,2.621c0.43,1.017,1.604,1.495,2.621,1.063C54.425,28.952,59.14,28,64,28   s9.575,0.952,14.012,2.828c0.254,0.108,0.519,0.159,0.778,0.159c0.779,0,1.521-0.458,1.843-1.221   c0.431-1.018-0.045-2.191-1.063-2.621c-4.322-1.828-8.878-2.866-13.57-3.095v-5.999c0.906,0.039,1.811,0.096,2.706,0.187   c1.532,0.156,3.068,0.39,4.567,0.697c1.483,0.304,2.966,0.685,4.407,1.133c1.425,0.443,2.847,0.963,4.225,1.546   c1.367,0.579,2.72,1.23,4.021,1.937c1.293,0.703,2.569,1.478,3.793,2.304c1.218,0.823,2.41,1.714,3.542,2.649   c1.128,0.931,2.228,1.93,3.268,2.97c1.034,1.034,2.033,2.133,2.969,3.267c0.936,1.134,1.827,2.326,2.649,3.542   c0.825,1.221,1.6,2.498,2.304,3.793c0.709,1.306,1.361,2.659,1.937,4.021c0.583,1.378,1.103,2.799,1.546,4.224   c0.45,1.447,0.831,2.93,1.133,4.407c0.194,0.947,1.027,1.6,1.958,1.6c0.133,0,0.268-0.013,0.402-0.041   c1.083-0.221,1.78-1.278,1.559-2.36c-0.329-1.607-0.743-3.219-1.232-4.793c-0.482-1.55-1.048-3.097-1.682-4.595   c-0.626-1.48-1.334-2.952-2.106-4.373c-0.766-1.408-1.608-2.795-2.504-4.122c-0.893-1.321-1.861-2.616-2.878-3.849   c-1.017-1.232-2.103-2.426-3.226-3.549c-1.129-1.13-2.324-2.215-3.549-3.226c-1.23-1.016-2.525-1.984-3.849-2.878   c-1.329-0.898-2.716-1.741-4.122-2.504c-1.415-0.769-2.885-1.477-4.372-2.106c-1.499-0.634-3.045-1.199-4.595-1.681   c-1.567-0.488-3.18-0.903-4.793-1.233c-1.629-0.333-3.3-0.588-4.965-0.758C67.422,14.087,65.703,14,64,14c-1.104,0-2,0.896-2,2   v8.049C57.307,24.279,52.751,25.317,48.429,27.145z"></path>
    <path d="M26,66c1.104,0,2-0.896,2-2s-0.896-2-2-2h-7.949c0.039-0.908,0.096-1.813,0.187-2.706c0.156-1.531,0.39-3.067,0.697-4.567   c0.303-1.482,0.685-2.965,1.133-4.407c0.445-1.43,0.965-2.851,1.547-4.225c0.575-1.361,1.227-2.714,1.936-4.02   c0.704-1.296,1.479-2.572,2.304-3.793c0.821-1.216,1.713-2.408,2.648-3.542c0.937-1.134,1.936-2.233,2.97-3.268   c1.038-1.038,2.137-2.037,3.268-2.97c1.134-0.937,2.326-1.827,3.542-2.648c1.223-0.826,2.499-1.602,3.793-2.304   c1.3-0.707,2.653-1.358,4.02-1.937c1.378-0.583,2.8-1.103,4.226-1.546c1.441-0.448,2.923-0.83,4.407-1.133   c1.083-0.222,1.78-1.278,1.559-2.36c-0.222-1.083-1.276-1.777-2.36-1.559c-1.613,0.331-3.226,0.745-4.793,1.233   c-1.55,0.482-3.096,1.047-4.596,1.682c-1.486,0.629-2.957,1.337-4.371,2.106c-1.406,0.764-2.793,1.606-4.122,2.504   c-1.321,0.892-2.617,1.86-3.849,2.878c-1.229,1.014-2.423,2.099-3.55,3.226c-1.124,1.123-2.209,2.317-3.227,3.55   c-1.017,1.233-1.985,2.527-2.877,3.849c-0.896,1.327-1.739,2.713-2.504,4.122c-0.771,1.42-1.48,2.892-2.105,4.372   c-0.632,1.494-1.198,3.04-1.682,4.595c-0.488,1.569-0.902,3.182-1.232,4.793c-0.333,1.63-0.589,3.301-0.758,4.965   C14.087,60.573,14,62.292,14,64c0,1.104,0.896,2,2,2H26z"></path>
    <path d="M112,62h-10c-1.104,0-2,0.896-2,2s0.896,2,2,2h7.949c-0.039,0.906-0.096,1.811-0.187,2.706   c-0.156,1.531-0.39,3.067-0.697,4.568c-0.302,1.477-0.683,2.959-1.133,4.407c-0.443,1.425-0.963,2.846-1.547,4.225   c-0.576,1.362-1.227,2.714-1.936,4.02c-0.704,1.295-1.479,2.572-2.304,3.793c-0.822,1.217-1.713,2.408-2.648,3.542   c-0.936,1.134-1.935,2.233-2.97,3.268c-1.04,1.04-2.139,2.039-3.268,2.97c-1.135,0.937-2.327,1.828-3.542,2.648   c-1.223,0.826-2.499,1.602-3.793,2.304c-1.3,0.707-2.653,1.358-4.02,1.937c-1.378,0.583-2.8,1.103-4.226,1.546   c-1.441,0.448-2.923,0.83-4.407,1.133c-1.083,0.222-1.78,1.278-1.559,2.36c0.194,0.947,1.027,1.6,1.958,1.6   c0.133,0,0.268-0.014,0.403-0.041c1.613-0.331,3.226-0.745,4.793-1.233c1.55-0.482,3.096-1.047,4.596-1.682   c1.486-0.629,2.957-1.337,4.371-2.106c1.406-0.764,2.793-1.606,4.122-2.504c1.321-0.892,2.616-1.86,3.849-2.877   c1.226-1.012,2.42-2.097,3.55-3.227c1.125-1.124,2.21-2.318,3.227-3.55c1.016-1.231,1.984-2.526,2.878-3.849   c0.897-1.328,1.739-2.714,2.504-4.123c0.771-1.419,1.479-2.89,2.105-4.371c0.634-1.499,1.2-3.045,1.682-4.595   c0.489-1.574,0.904-3.187,1.232-4.793c0.333-1.63,0.589-3.301,0.758-4.965C113.913,67.424,114,65.705,114,64   C114,62.896,113.104,62,112,62z"></path>
    <path d="M63.99,53.894c4.109,0,7.452-3.347,7.452-7.46s-3.343-7.46-7.452-7.46c-4.108,0-7.451,3.347-7.451,7.46   S59.882,53.894,63.99,53.894z M63.99,42.974c1.903,0,3.452,1.552,3.452,3.46s-1.548,3.46-3.452,3.46   c-1.903,0-3.451-1.552-3.451-3.46S62.087,42.974,63.99,42.974z"></path>
    <path d="M83.266,53.894c4.109,0,7.452-3.347,7.452-7.46s-3.343-7.46-7.452-7.46c-4.108,0-7.451,3.347-7.451,7.46   S79.157,53.894,83.266,53.894z M83.266,42.974c1.903,0,3.452,1.552,3.452,3.46s-1.548,3.46-3.452,3.46   c-1.903,0-3.451-1.552-3.451-3.46S81.363,42.974,83.266,42.974z"></path>
    <path d="M52.185,46.434c0-4.113-3.343-7.46-7.451-7.46c-4.109,0-7.452,3.347-7.452,7.46s3.343,7.46,7.452,7.46   C48.842,53.894,52.185,50.547,52.185,46.434z M44.734,49.894c-1.903,0-3.452-1.552-3.452-3.46s1.548-3.46,3.452-3.46   c1.903,0,3.451,1.552,3.451,3.46S46.637,49.894,44.734,49.894z"></path>
  </g>
</svg>
