<svg fill="#000000" xmlns="http://www.w3.org/2000/svg" xmlns:xlink="http://www.w3.org/1999/xlink" version="1.1" x="0px" y="0px" viewBox="0 0 66 66" enable-background="new 0 0 66 66" xml:space="preserve" width="50" height="50">
       <g>
            <path d="M60.678,1.785H17.372c-2.382,0-4.319,1.938-4.319,4.319c0,2.103,0,3.422,0,5.58H5.322c-2.382,0-4.32,1.938-4.32,4.32v43.89   c0,2.382,1.938,4.32,4.32,4.32h43.3c2.382,0,4.32-1.938,4.32-4.32v-5.58h7.736c2.382,0,4.319-1.938,4.319-4.319   c0-4.773,0-39.227,0-43.892C64.998,3.723,63.06,1.785,60.678,1.785z M14.553,6.105c0-1.554,1.265-2.819,2.819-2.819h43.306   c1.555,0,2.819,1.265,2.819,2.819V8.05H14.553V6.105z M51.442,59.895c0,1.555-1.265,2.82-2.82,2.82h-43.3   c-1.555,0-2.82-1.265-2.82-2.82v-43.89c0-1.555,1.265-2.82,2.82-2.82h7.73v36.81c0,2.379,1.936,4.32,4.32,4.32h34.07V59.895z    M60.678,52.815h-8.494c-0.001,0-0.001,0-0.002,0h-34.81c-1.555,0-2.819-1.264-2.819-2.818V9.55h48.945v40.447   C63.498,51.551,62.233,52.815,60.678,52.815z"></path>
            <path d="M35.282,17.061H19.668c-0.414,0-0.75,0.336-0.75,0.75c0,0.414,0.336,0.75,0.75,0.75h15.614c0.414,0,0.75-0.336,0.75-0.75   C36.032,17.397,35.695,17.061,35.282,17.061z"></path>
            <path d="M35.282,23.882H19.668c-0.414,0-0.75,0.336-0.75,0.75c0,0.414,0.336,0.75,0.75,0.75h15.614c0.414,0,0.75-0.336,0.75-0.75   C36.032,24.218,35.695,23.882,35.282,23.882z"></path>
            <path d="M35.282,30.703H19.668c-0.414,0-0.75,0.336-0.75,0.75c0,0.414,0.336,0.75,0.75,0.75h15.614c0.414,0,0.75-0.336,0.75-0.75   C36.032,31.039,35.695,30.703,35.282,30.703z"></path>
            <path d="M35.282,37.523H19.668c-0.414,0-0.75,0.336-0.75,0.75c0,0.414,0.336,0.75,0.75,0.75h15.614c0.414,0,0.75-0.336,0.75-0.75   C36.032,37.859,35.695,37.523,35.282,37.523z"></path>
            <path d="M35.282,44.344H19.668c-0.414,0-0.75,0.336-0.75,0.75c0,0.414,0.336,0.75,0.75,0.75h15.614c0.414,0,0.75-0.336,0.75-0.75   C36.032,44.68,35.695,44.344,35.282,44.344z"></path>
            <path d="M58.383,17.061h-18.31c-0.414,0-0.75,0.336-0.75,0.75v27.283c0,0.414,0.336,0.75,0.75,0.75h18.31   c0.414,0,0.75-0.336,0.75-0.75V17.811C59.133,17.397,58.797,17.061,58.383,17.061z M57.633,44.344h-16.81V18.561h16.81V44.344z"></path>
            <path d="M58.6,4.918H36.519c-0.414,0-0.75,0.336-0.75,0.75c0,0.414,0.336,0.75,0.75,0.75H58.6c0.414,0,0.75-0.336,0.75-0.75   C59.35,5.253,59.014,4.918,58.6,4.918z"></path>
            <path d="M20.19,4.918h-0.739c-0.414,0-0.75,0.336-0.75,0.75c0,0.414,0.336,0.75,0.75,0.75h0.739c0.414,0,0.75-0.336,0.75-0.75   C20.94,5.253,20.604,4.918,20.19,4.918z"></path>
            <path d="M23.83,4.918h-0.739c-0.414,0-0.75,0.336-0.75,0.75c0,0.414,0.336,0.75,0.75,0.75h0.739c0.414,0,0.75-0.336,0.75-0.75   C24.58,5.253,24.244,4.918,23.83,4.918z"></path>
            <path d="M27.471,4.918h-0.739c-0.414,0-0.75,0.336-0.75,0.75c0,0.414,0.336,0.75,0.75,0.75h0.739c0.414,0,0.75-0.336,0.75-0.75   C28.221,5.253,27.885,4.918,27.471,4.918z"></path>
       </g>
  </svg>