<?xml version="1.0" encoding="iso-8859-1"?>
<!-- Generator: Adobe Illustrator 19.0.0, SVG Export Plug-In . SVG Version: 6.00 Build 0)  -->
<svg version="1.1" id="Capa_1" xmlns="http://www.w3.org/2000/svg" xmlns:xlink="http://www.w3.org/1999/xlink" x="0px" y="0px"
	 viewBox="0 0 468.293 468.293" style="enable-background:new 0 0 468.293 468.293;" xml:space="preserve" width="50px" height="50px">
<path style="fill:#FCD462;" d="M369.705,128.516H0V81.851c0-6.897,5.591-12.488,12.488-12.488h344.729
	c6.897,0,12.488,5.591,12.488,12.488V128.516z"/>
<path style="fill:#EBF0F3;" d="M357.217,398.929H12.488C5.591,398.929,0,393.338,0,386.442V128.516h369.705v257.926
	C369.705,393.338,364.114,398.929,357.217,398.929z"/>
<circle style="fill:#44C4A1;" cx="39.436" cy="98.941" r="14.786"/>
<circle style="fill:#E56353;" cx="83.799" cy="98.941" r="14.786"/>
<circle style="fill:#27A2DB;" cx="128.187" cy="98.941" r="14.786"/>
<path style="fill:#EBF0F3;" d="M335.199,108.798H207.035c-5.445,0-9.859-4.414-9.859-9.859v0c0-5.445,4.414-9.859,9.859-9.859
	h128.164c5.445,0,9.859,4.414,9.859,9.859v0C345.058,104.385,340.644,108.798,335.199,108.798z"/>
<path style="fill:#27A2DB;" d="M459.536,278.817h0.184c4.735,0,8.573-3.838,8.573-8.573l0-13.044c0-4.735-3.838-8.573-8.573-8.573
	h-0.183c-5.644,0-10.449-3.797-12.124-9.187c-1.46-4.697-3.33-9.213-5.574-13.502c-2.618-5.004-1.915-11.087,2.078-15.081
	l0.112-0.112c3.348-3.348,3.348-8.776,0-12.124l-9.223-9.223c-3.348-3.348-8.776-3.348-12.124,0l-0.111,0.111
	c-3.994,3.994-10.077,4.697-15.081,2.078c-4.289-2.244-8.805-4.115-13.502-5.574c-5.389-1.675-9.187-6.48-9.187-12.124v-0.182
	c0-4.735-3.838-8.573-8.573-8.573h-13.044c-4.735,0-8.573,3.838-8.573,8.573v0.182c0,5.644-3.797,10.449-9.187,12.124
	c-4.698,1.46-9.214,3.33-13.504,5.575c-5.004,2.618-11.087,1.915-15.081-2.078l-0.112-0.112c-3.348-3.348-8.776-3.348-12.124,0
	l-9.223,9.224c-3.348,3.348-3.348,8.776,0,12.124l0.112,0.112c3.994,3.993,4.697,10.077,2.078,15.081
	c-2.244,4.289-4.114,8.805-5.574,13.502c-1.675,5.389-6.48,9.187-12.123,9.187h-0.183c-4.735,0-8.573,3.838-8.573,8.573l0,13.044
	c0,4.735,3.838,8.573,8.573,8.573h0.183c5.644,0,10.449,3.797,12.124,9.187c1.46,4.697,3.33,9.213,5.574,13.502
	c2.618,5.004,1.916,11.088-2.078,15.081l-0.111,0.111c-3.348,3.348-3.348,8.776,0,12.124l9.223,9.223
	c3.348,3.348,8.776,3.348,12.124,0l0.112-0.112c3.994-3.994,10.077-4.697,15.081-2.078c4.29,2.244,8.805,4.115,13.502,5.574
	c5.389,1.675,9.187,6.48,9.187,12.124v0.182c0,4.735,3.838,8.573,8.573,8.573h13.044c4.735,0,8.573-3.838,8.573-8.573v-0.182
	c0-5.644,3.797-10.449,9.187-12.124c4.698-1.46,9.213-3.33,13.502-5.574c5.004-2.618,11.087-1.916,15.081,2.078l0.112,0.112
	c3.348,3.348,8.776,3.348,12.124,0l9.223-9.224c3.348-3.348,3.348-8.776,0-12.124l-0.112-0.112
	c-3.994-3.993-4.697-10.077-2.078-15.081c2.244-4.289,4.115-8.805,5.574-13.502C449.088,282.615,453.893,278.817,459.536,278.817z"
	/>
<circle style="fill:#EBF0F3;" cx="369.708" cy="263.724" r="64.293"/>
<g>
	<circle style="fill:#D5D6DB;" cx="369.708" cy="263.724" r="34.292"/>
	<rect x="24.645" y="172.894" style="fill:#D5D6DB;" width="202.839" height="18.732"/>
	<rect x="24.645" y="227.209" style="fill:#D5D6DB;" width="202.839" height="18.732"/>
	<rect x="24.645" y="281.506" style="fill:#D5D6DB;" width="202.839" height="18.732"/>
	<rect x="24.645" y="335.797" style="fill:#D5D6DB;" width="202.839" height="18.732"/>
</g>
<g>
</g>
<g>
</g>
<g>
</g>
<g>
</g>
<g>
</g>
<g>
</g>
<g>
</g>
<g>
</g>
<g>
</g>
<g>
</g>
<g>
</g>
<g>
</g>
<g>
</g>
<g>
</g>
<g>
</g>
</svg>
