<svg xmlns="http://www.w3.org/2000/svg" width="75" height="75" viewBox="0 0 342 480"><g><path d="M68.37.96c21-.26 42-.08 63-.1.05 6.58.15 13.15-.1 19.72-14.54-.1-29.08 0-43.62.1-.1 9.53-.3 19.07-.2 28.6 14.6.1 29.2.24 43.8.18.18 5.4.12 10.82-.04 16.23-20.93-.15-41.87-.1-62.8-.07.04-21.56.08-43.1-.03-64.67zM138.86.9c21.26-.05 42.52-.18 63.8.06-.1 6.2-.03 12.4-.03 18.62-15.47-.05-30.95.02-46.42.2.03 2.44.03 4.88 0 7.32 15.46.25 30.9.28 46.34.37.06 12.73.03 25.45.1 38.17-21.26-.04-42.53-.02-63.8.08-.1-5.14-.12-10.27.03-15.4 14.74.03 29.5.05 44.23-.07.1-3.3.13-6.63.12-9.94-14.8 0-29.63.06-44.44-.04 0-13.12 0-26.25.08-39.37zM209.77 1c21.22 0 42.45 0 63.67 0 .1 6.24.18 12.48-.02 18.7-15.54 0-31.08.1-46.62.12.04 2.55.1 5.1.23 7.65 15.45-.07 30.9.12 46.34.28.14 12.67.24 25.34.06 38-21.27-.05-42.54-.05-63.8.05-.14-5.12-.18-10.26.04-15.38 14.7.1 29.43.1 44.15-.05.04-3.32.1-6.64.08-9.95-14.77.14-29.55.06-44.33 0 0-13.13.1-26.28.2-39.42z"/></g><path fill="#0170ba" d="M0 92.46c113.92 0 227.83-.02 341.75 0-6.27 70.85-12.44 141.7-18.97 212.53-3.88 45.26-7.88 90.53-12.1 135.77-24.3 6.44-48.38 13.78-72.68 20.25-22.32 6.55-44.82 12.48-67.15 18.98h-.66c-21.26-6.32-42.72-11.88-63.97-18.2-25.08-6.76-49.94-14.3-75.03-21.03-3.27-33.9-6.22-67.84-9.13-101.77-5.5-62.7-11.46-125.34-16.74-188.04C3.5 132.1 2.2 113.16 0 94.33v-1.87m171.4 27.95c-.23 13.62.2 27.24-.23 40.84-39.08-.14-78.17-.03-117.25 0 .67 13.22 2.44 26.34 4.26 39.44 36.36 1.35 72.77-.05 109.13 1.04-31.8 14.27-64 27.7-95.95 41.68-2.74 1.22-5.67 2.14-8.12 3.92.27 14.5 2.6 28.94 3.64 43.42 19.38-.07 38.75-.38 58.13-.4 15.53-.1 31.07.22 46.6-.12-.74 23.86.23 47.75-.5 71.6-10.45-1.54-20.77-3.87-31.18-5.72-8.2-1.8-16.62-2.72-24.7-5.07-1.16-11.45-1.96-22.94-2.98-34.4-2.34-.72-4.82-.65-7.24-.7-11.74.08-23.5-.03-35.24.15 1.15 22.03 3.13 44.03 6.5 65.85 11.58 3.02 23.18 5.98 34.74 9.13 17.7 4.82 35.64 8.83 53.38 13.57 2.1.45 4.24 1.23 6.43 1.05 1.2 14.5.28 29.07.5 43.6 4.1-.66 8.1-1.67 12.06-2.9 33.58-9.1 67.12-18.4 100.68-27.6 1.67-13.2 2.45-26.5 3.77-39.73 3.5-40.22 7.02-80.44 10.68-120.65 4.3-46 8-92.05 12.32-138.05-46.47.04-92.93-.1-139.4.06z"/><g fill="#29a9df"><path d="M171.4 120.4c46.47-.14 92.93 0 139.4-.05-4.32 46-8.03 92.05-12.32 138.05-3.66 40.2-7.18 80.43-10.67 120.65-1.3 13.23-2.1 26.52-3.76 39.72-33.56 9.2-67.1 18.5-100.68 27.62-3.95 1.2-7.97 2.22-12.06 2.88-.22-14.53.7-29.1-.5-43.6.3-.06.92-.18 1.22-.24 31.23-7.84 62.25-16.47 93.4-24.6 3.95-44.2 8.32-88.37 11.1-132.66-26.5.14-53.02.06-79.52.17-3.86.02-7.72 0-11.56-.28 14.26-7.34 29.26-13.16 43.9-19.7 14.05-6.38 28.27-12.35 42.37-18.6 2.73-1.25 5.63-2.3 8.02-4.15.94-3.45.9-7.06 1.26-10.6.8-11.2 2.25-22.33 2.8-33.54-37.54-.3-75.07-.04-112.6-.24.4-13.6 0-27.22.23-40.83zM171.6 290.22c18.12-.3 36.25.18 54.38.06-1 18.53-2.55 37.03-3.5 55.56-11.12 3.63-22.4 6.7-33.6 10.06-5.97 1.82-12.1 3.26-17.78 5.93.73-23.86-.24-47.75.5-71.6z"/></g><g fill="#cfcfcf"><path d="M53.92 161.25c39.08-.04 78.17-.15 117.25 0 .5 43-.13 86 .43 128.97-15.53.34-31.07.03-46.6.1-19.38.04-38.75.35-58.13.42-1.03-14.48-3.37-28.9-3.64-43.42 2.45-1.78 5.38-2.7 8.12-3.92 31.95-13.97 64.15-27.4 95.96-41.68-36.35-1.1-72.76.3-109.12-1.04-1.82-13.1-3.6-26.22-4.26-39.43zM69.76 316.08c11.75-.18 23.5-.07 35.24-.14 2.42.04 4.9-.03 7.24.7 1.02 11.45 1.82 22.94 2.97 34.4 8.1 2.34 16.5 3.27 24.72 5.06 10.4 1.85 20.73 4.18 31.18 5.73 1 14.52-.75 29.14.92 43.6-.3.07-.9.2-1.2.25-2.2.18-4.33-.6-6.44-1.05-17.74-4.74-35.67-8.75-53.38-13.57-11.56-3.15-23.16-6.1-34.74-9.13-3.37-21.82-5.35-43.82-6.5-65.85z"/></g><path fill="#fff" d="M171.17 161.24c37.54.2 75.07-.06 112.6.24-.54 11.2-1.98 22.35-2.8 33.55-.36 3.53-.3 7.14-1.25 10.6-2.4 1.85-5.3 2.9-8 4.14-14.1 6.25-28.33 12.22-42.38 18.6-14.64 6.54-29.64 12.36-43.9 19.7 3.84.28 7.7.3 11.56.28 26.5-.1 53-.03 79.5-.17-2.76 44.3-7.13 88.47-11.07 132.67-31.16 8.12-62.18 16.75-93.4 24.6-1.68-14.48.07-29.1-.93-43.62 5.68-2.67 11.8-4.1 17.78-5.93 11.2-3.36 22.48-6.43 33.6-10.06.95-18.53 2.5-37.03 3.5-55.56-18.13.12-36.26-.37-54.38-.06-.56-42.98.08-85.98-.43-128.98z"/></svg>