<svg fill="#000000" xmlns="http://www.w3.org/2000/svg" xmlns:xlink="http://www.w3.org/1999/xlink" version="1.1" x="0px" y="0px" viewBox="0 0 64 64" style="enable-background:new 0 0 250 250;" xml:space="preserve" width="80" height="80">
  <g>
       <path d="M55.408,43.305C57.103,39.796,58,35.918,58,32s-0.897-7.796-2.592-11.305C59.761,19.612,63,15.682,63,11   c0-5.514-4.486-10-10-10c-4.689,0-8.624,3.249-9.699,7.61c-0.779-0.376-1.576-0.717-2.397-1.016C40.341,3.868,37.126,1,33.246,1   h-2.491c-3.881,0-7.095,2.868-7.658,6.594c-0.821,0.299-1.618,0.64-2.397,1.016C19.624,4.249,15.689,1,11,1C5.486,1,1,5.486,1,11   c0,4.682,3.239,8.612,7.592,9.695C6.897,24.204,6,28.082,6,32s0.897,7.796,2.592,11.305C4.239,44.388,1,48.318,1,53   c0,5.514,4.486,10,10,10c4.684,0,8.616-3.242,9.696-7.597c0.423,0.203,0.86,0.394,1.304,0.579V63h20v-7.018   c0.444-0.185,0.881-0.375,1.304-0.579C44.384,59.758,48.316,63,53,63c5.514,0,10-4.486,10-10   C63,48.318,59.761,44.388,55.408,43.305z M53,3c4.411,0,8,3.589,8,8s-3.589,8-8,8s-8-3.589-8-8S48.589,3,53,3z M31,46v11h-7V46.899   c2.279-0.465,4-2.484,4-4.899h8c0,2.414,1.721,4.434,4,4.899V57h-7V46H31z M18,30h4v12c-2.206,0-4-1.794-4-4V30z M24,42h2   c0,1.302-0.839,2.402-2,2.816V42z M40,44.816c-1.161-0.414-2-1.514-2-2.816h2V44.816z M42,30h4v8c0,2.206-1.794,4-4,4V30z M42,28   v-2h-2v14H24V26h-2v2h-4c0-3.859,3.14-7,7-7h1.207c0.92,2.209,4.629,3.645,5.455,3.941L32,25.062l0.337-0.121   c0.826-0.296,4.535-1.732,5.455-3.941H39c3.86,0,7,3.141,7,7H42z M35.345,21c-0.758,0.688-2.064,1.43-3.345,1.932   c-1.281-0.501-2.588-1.244-3.345-1.932H35.345z M32,19c-3.86,0-7-3.141-7-7v-0.429c1.223-0.721,2.288-1.7,3.107-2.929   C28.375,8.24,28.824,8,29.307,8h5.386c0.483,0,0.932,0.24,1.235,0.694c0.789,1.183,1.85,2.157,3.072,2.877V12   C39,15.859,35.86,19,32,19z M30.754,3h2.491C36.418,3,39,5.581,39,8.754v0.387c-0.543-0.458-1.032-0.991-1.443-1.607   C36.917,6.573,35.846,6,34.693,6h-5.386c-1.153,0-2.224,0.573-2.899,1.585C26.017,8.172,25.537,8.692,25,9.143V8.754   C25,5.581,27.582,3,30.754,3z M3,11c0-4.411,3.589-8,8-8s8,3.589,8,8s-3.589,8-8,8S3,15.411,3,11z M11,61c-4.411,0-8-3.589-8-8   s3.589-8,8-8s8,3.589,8,8S15.411,61,11,61z M20.984,53.309C20.988,53.206,21,53.104,21,53c0-5.514-4.486-10-10-10   c-0.105,0-0.207,0.013-0.312,0.016C8.935,39.627,8,35.835,8,32s0.935-7.627,2.688-11.016C10.793,20.987,10.895,21,11,21   c5.514,0,10-4.486,10-10c0-0.102-0.012-0.201-0.015-0.303c0.653-0.338,1.325-0.645,2.015-0.923V12c0,2.826,1.312,5.349,3.356,7H25   c-4.962,0-9,4.037-9,9v10c0,3.309,2.691,6,6,6v9.81C21.65,53.651,21.317,53.481,20.984,53.309z M24,61v-2h7v2H24z M33,61v-2h7v2H33   z M42,53.81V44c3.309,0,6-2.691,6-6V28c0-4.963-4.038-9-9-9h-1.356C39.688,17.349,41,14.826,41,12V9.774   c0.69,0.279,1.362,0.586,2.015,0.923C43.012,10.799,43,10.898,43,11c0,5.514,4.486,10,10,10c0.105,0,0.207-0.013,0.312-0.016   C55.065,24.373,56,28.165,56,32s-0.935,7.627-2.688,11.016C53.207,43.013,53.105,43,53,43c-5.514,0-10,4.486-10,10   c0,0.104,0.012,0.206,0.016,0.309C42.683,53.481,42.35,53.651,42,53.81z M53,61c-4.411,0-8-3.589-8-8s3.589-8,8-8s8,3.589,8,8   S57.411,61,53,61z"></path>
       <rect x="6" y="6" width="10" height="2"></rect>
       <rect x="6" y="10" width="10" height="2"></rect>
       <rect x="14" y="14" width="2" height="2"></rect>
       <rect x="6" y="14" width="6" height="2"></rect>
       <rect x="48" y="6" width="10" height="2"></rect>
       <rect x="48" y="10" width="10" height="2"></rect>
       <rect x="56" y="14" width="2" height="2"></rect>
       <rect x="48" y="14" width="6" height="2"></rect>
       <rect x="6" y="48" width="10" height="2"></rect>
       <rect x="6" y="52" width="10" height="2"></rect>
       <rect x="14" y="56" width="2" height="2"></rect>
       <rect x="6" y="56" width="6" height="2"></rect>
       <rect x="48" y="48" width="10" height="2"></rect>
       <rect x="48" y="52" width="10" height="2"></rect>
       <rect x="56" y="56" width="2" height="2"></rect>
       <rect x="48" y="56" width="6" height="2"></rect>
  </g>
</svg>