<svg xmlns="http://www.w3.org/2000/svg" width="50" height="50" viewBox="0 0 512 512" enable-background="new 0 0 512 512"><path fill="#0d1215" d="M432 100c-5.52 0-10 4.48-10 10s4.48 10 10 10 10-4.48 10-10-4.48-10-10-10zM80 100c-5.52 0-10 4.48-10 10s4.48 10 10 10 10-4.48 10-10-4.48-10-10-10zM502 220h-11.96c-3.74-28.8-12.77-56.25-26.94-81.7-2.7-4.83-8.78-6.56-13.6-3.88-4.83 2.7-6.56 8.78-3.88 13.6 12.5 22.47 20.65 46.63 24.25 71.98H462c-5.52 0-10 4.48-10 10v40c0 5.52 4.48 10 10 10h40c5.52 0 10-4.48 10-10v-40c0-5.52-4.48-10-10-10zm-10 40h-20v-20h9.08s0 0 .02 0H492v20zM365.98 292.62c0-.15 0-.3-.02-.46-.02-.22-.05-.43-.08-.63-.02-.13-.03-.26-.06-.4-.05-.23-.1-.47-.17-.7-.02-.1-.04-.2-.07-.28-.1-.3-.2-.6-.3-.88-.02-.03-.03-.07-.04-.1-.14-.33-.3-.66-.47-.97l-100-183c-1.75-3.2-5.1-5.2-8.77-5.2-3.66 0-7.02 2-8.78 5.2l-100 183c-.17.32-.32.64-.46.97 0 .04-.02.07-.03.1-.12.3-.22.58-.3.88-.04.1-.06.18-.08.27-.07.24-.13.48-.17.72-.03.13-.04.26-.06.4-.03.2-.06.4-.08.62 0 .15-.02.3-.02.46 0 .13-.02.25-.02.38 0 .07 0 .13 0 .2 0 .15.02.3.03.47.02.2.03.4.06.6 0 .13.03.26.05.4.04.22.08.43.13.64.03.13.06.25.1.37.05.23.13.45.2.67.03.06.04.13.06.2l36.07 95.56c-2.88 1.43-5.56 3.34-7.9 5.7-5.68 5.66-8.8 13.2-8.8 21.2 0 13.04 8.36 24.15 20 28.28V502c0 5.52 4.48 10 10 10h120c5.52 0 10-4.48 10-10v-54.7c4.17-1.47 8-3.87 11.2-7.1 5.68-5.66 8.8-13.2 8.8-21.2 0-11.77-6.82-21.98-16.7-26.9l36.06-95.57c.02-.06.03-.13.06-.2.07-.2.15-.43.2-.66.04-.12.07-.24.1-.36.05-.2.1-.4.13-.63.02-.14.05-.27.06-.4.04-.2.05-.4.07-.6 0-.16.02-.32.02-.48 0-.07 0-.13 0-.2 0-.13 0-.25-.02-.38zM256 283c5.5 0 10 4.5 10 10s-4.5 10-10 10-10-4.5-10-10 4.5-10 10-10zm50 209H206v-43h100v43zm17.07-65.93c-1.9 1.9-4.4 2.93-7.07 2.93H196c-5.5 0-10-4.5-10-10 0-2.67 1.04-5.18 2.93-7.07 1.9-1.9 4.4-2.93 7.07-2.93h119.93c.02 0 .05 0 .07 0 0 0 .02 0 .03 0 5.5.02 9.97 4.5 9.97 10 0 2.67-1.04 5.18-2.93 7.07zm-14-37.07H202.92l-32.44-86H196c5.52 0 10-4.48 10-10s-4.48-10-10-10h-23.14L246 149.15v115.57c-11.64 4.13-20 15.24-20 28.28 0 16.54 13.46 30 30 30s30-13.46 30-30c0-13.04-8.36-24.15-20-28.28V149.15L339.14 283H316c-5.52 0-10 4.48-10 10s4.48 10 10 10h25.54l-32.46 86zM62.5 134.42c-4.82-2.68-10.9-.95-13.6 3.88-14.17 25.45-23.2 52.9-26.94 81.7H10c-5.52 0-10 4.48-10 10v40c0 5.52 4.48 10 10 10h40c5.52 0 10-4.48 10-10v-40c0-5.52-4.48-10-10-10h-7.88c3.6-25.35 11.75-49.5 24.26-71.97 2.68-4.83.95-10.92-3.87-13.6zM40 260H20v-20h10.9c.02 0 .02 0 .02 0H40v20zM482 0c-13.04 0-24.15 8.36-28.28 20H286V10c0-5.52-4.48-10-10-10h-40c-5.52 0-10 4.48-10 10v10H58.28C54.15 8.36 43.04 0 30 0 13.46 0 0 13.46 0 30s13.46 30 30 30c13.04 0 24.15-8.36 28.28-20H158.8c-21.3 8.93-40.87 20.5-56.97 34.08-4.23 3.56-4.76 9.87-1.2 14.1 1.97 2.34 4.8 3.55 7.65 3.55 2.27 0 4.56-.77 6.44-2.35 28.7-24.2 69.63-41.47 111.28-47.26V50c0 5.52 4.48 10 10 10h40c5.52 0 10-4.48 10-10v-7.88c41.65 5.8 82.6 23.07 111.28 47.26 1.88 1.58 4.17 2.35 6.44 2.35 2.85 0 5.68-1.2 7.65-3.56 3.57-4.22 3.03-10.53-1.2-14.1C394.07 60.52 374.5 48.93 353.2 40H453.7c4.13 11.64 15.24 20 28.28 20 16.54 0 30-13.46 30-30S498.54 0 482 0zM30 40c-5.5 0-10-4.5-10-10s4.5-10 10-10 10 4.5 10 10-4.5 10-10 10zm236-10v10h-20V20h20v10zm216 10c-5.5 0-10-4.5-10-10s4.5-10 10-10 10 4.5 10 10-4.5 10-10 10z"/></svg>