<?xml version="1.0" encoding="iso-8859-1"?>
<!-- Generator: Adobe Illustrator 19.0.0, SVG Export Plug-In . SVG Version: 6.00 Build 0)  -->
<svg version="1.1" id="Capa_1" xmlns="http://www.w3.org/2000/svg" xmlns:xlink="http://www.w3.org/1999/xlink" x="0px" y="0px"
	 viewBox="0 0 496 496" style="enable-background:new 0 0 496 496;" xml:space="preserve" width="60px" height="60px">
<g>
	<path style="fill:#E56565;" d="M416,80H80V0h336V80z M96,64h304V16H96V64z"/>
	<rect x="112" y="32" style="fill:#E56565;" width="16" height="16"/>
	<rect x="144" y="32" style="fill:#E56565;" width="16" height="16"/>
	<rect x="176" y="32" style="fill:#E56565;" width="16" height="16"/>
</g>
<path style="fill:#FFCB57;" d="M216,248l-54.056-54.056c-6.368-6.368-9.944-15-9.944-24l0,0C152,151.192,167.192,136,185.944,136
	l0,0c9,0,17.632,3.576,24,9.944L216,152l6.056-6.056c6.368-6.368,15-9.944,24-9.944l0,0C264.808,136,280,151.192,280,169.944l0,0
	c0,9-3.576,17.632-9.944,24L216,248z"/>
<g>
	<path style="fill:#3F3A34;" d="M352,432h128v24c0,13.232-10.768,24-24,24H40c-13.232,0-24-10.768-24-24v-24h128v-16H0v40
		c0,22.056,17.944,40,40,40h416c22.056,0,40-17.944,40-40v-40H352V432z"/>
	<path style="fill:#3F3A34;" d="M184,464h128c13.232,0,24-10.768,24-24v-24H160v24C160,453.232,170.768,464,184,464z M176,432h144v8
		c0,4.408-3.584,8-8,8H184c-4.416,0-8-3.592-8-8V432z"/>
	<rect x="48" y="448" style="fill:#3F3A34;" width="16" height="16"/>
	<rect x="80" y="448" style="fill:#3F3A34;" width="16" height="16"/>
	<rect x="112" y="448" style="fill:#3F3A34;" width="16" height="16"/>
	<path style="fill:#3F3A34;" d="M456,80h-24v16h24c13.232,0,24,10.768,24,24v280h16V120C496,97.944,478.056,80,456,80z"/>
	<path style="fill:#3F3A34;" d="M16,120c0-13.232,10.768-24,24-24h24V80H40C17.944,80,0,97.944,0,120v280h16V120z"/>
	<path style="fill:#3F3A34;" d="M448,400h16V128c0-8.824-7.176-16-16-16h-16v16h16V400z"/>
	<path style="fill:#3F3A34;" d="M32,128v272h16V128h16v-16H48C39.176,112,32,119.176,32,128z"/>
	<polygon style="fill:#3F3A34;" points="416,96 400,96 400,368 96,368 96,96 80,96 80,384 416,384 	"/>
	<path style="fill:#3F3A34;" d="M216.408,140.28L216,140.688l-0.4-0.4C207.68,132.36,197.152,128,185.936,128
		C162.816,128,144,146.816,144,169.944c0,11.192,4.36,21.728,12.28,29.656L216,259.312l59.728-59.72
		C283.64,191.664,288,181.136,288,169.944C288,146.816,269.184,128,246.064,128C234.848,128,224.32,132.36,216.408,140.28z
		 M272,169.944c0,6.928-2.696,13.44-7.592,18.344L216,236.688l-48.4-48.4c-4.904-4.904-7.6-11.424-7.6-18.344
		C160,155.64,171.632,144,185.936,144c6.936,0,13.448,2.696,18.344,7.6L216,163.312l11.728-11.712c4.888-4.904,11.4-7.6,18.336-7.6
		C260.368,144,272,155.64,272,169.944z"/>
	<polygon style="fill:#3F3A34;" points="128,112 320,112 320,96 112,96 112,256 128,256 	"/>
	<polygon style="fill:#3F3A34;" points="320,128 304,128 304,272 112,272 112,288 320,288 	"/>
	<rect x="336" y="96" style="fill:#3F3A34;" width="48" height="16"/>
	<rect x="336" y="128" style="fill:#3F3A34;" width="48" height="16"/>
	<rect x="336" y="160" style="fill:#3F3A34;" width="48" height="16"/>
	<rect x="336" y="192" style="fill:#3F3A34;" width="48" height="16"/>
	<rect x="336" y="224" style="fill:#3F3A34;" width="48" height="16"/>
	<rect x="336" y="256" style="fill:#3F3A34;" width="48" height="16"/>
	<rect x="112" y="304" style="fill:#3F3A34;" width="16" height="16"/>
	<rect x="144" y="304" style="fill:#3F3A34;" width="240" height="16"/>
	<rect x="368" y="336" style="fill:#3F3A34;" width="16" height="16"/>
	<rect x="112" y="336" style="fill:#3F3A34;" width="240" height="16"/>
</g>
<g>
</g>
<g>
</g>
<g>
</g>
<g>
</g>
<g>
</g>
<g>
</g>
<g>
</g>
<g>
</g>
<g>
</g>
<g>
</g>
<g>
</g>
<g>
</g>
<g>
</g>
<g>
</g>
<g>
</g>
</svg>
