<svg xmlns="http://www.w3.org/2000/svg" viewBox="0 0 511.999 511.999" enable-background="new 0 0 511.999 511.999" width="80"><path fill="#63A097" d="M400.6 250.6c0 90.16-73.16 163.24-163.42 163.24S73.75 340.76 73.75 250.6 146.92 87.4 237.18 87.4s163.44 73.08 163.44 163.23z"/><g fill="#458081"><path d="M237.18 413.84c90.26 0 163.44-73.08 163.44-163.23 0-15.8-2.26-31.06-6.45-45.5-3.9.2-8.13 1.46-12.77 4.02l-3.85-24.52c-14.37-5.6-34.03-7.52-39.12 8.94-17.7 57.25-71.37 121.42-75.5 113.5-5.22-10.02-11.73-19.6-20.13-25.35-4.32-2.97-11.18-4.75-17.4-4.54-14.42.5-19.52 17.2-18.87 30.76.25 5.33-49.6 68.86-109.4 26.85 28.6 47.38 80.62 79.07 140.05 79.07zM386.63 184.46c8.98 20.22 13.98 42.6 13.98 66.15 0 90.16-73.16 163.24-163.42 163.24S73.75 340.76 73.75 250.6c0-23.54 5-45.92 14-66.14 43.38 15.53 94.58 24.5 149.43 24.5s106.06-8.97 149.45-24.5z"/></g><path fill="#316B6B" d="M237.18 413.84c90.26 0 163.44-73.08 163.44-163.23 0-15.8-2.27-31.06-6.46-45.5-3.9.2-8.13 1.47-12.76 4.02l-3.4-21.7c-13.12 4.33-26.9 8.07-41.22 11.16-19.16 55.9-69.84 116.15-73.84 108.47-5.23-10.03-11.74-19.6-20.14-25.36-4.32-2.97-11.18-4.75-17.4-4.54-14.4.5-19.52 17.2-18.87 30.76.26 5.33-49.6 68.86-109.4 26.85 28.6 47.38 80.62 79.07 140.05 79.07z"/><path fill="#86BAA8" d="M185.93 217.47c-5.04 0-8.94-4.38-8.43-9.4 7.08-69.52 31.12-120.7 59.68-120.7s52.6 51.18 59.7 120.7c.5 5.02-3.4 9.4-8.45 9.4h-102.5z"/><path fill="#004646" d="M395.35 291.84c-18.3 70.18-82.17 122-158.17 122S97.3 362.02 79 291.84c47.08 12.43 100.94 19.5 158.18 19.5s111.1-7.07 158.17-19.5z"/><path fill="#003736" d="M237.18 413.84c76 0 139.88-51.82 158.17-122-47.07 12.43-100.93 19.5-158.17 19.5-10.7 0-21.3-.26-31.74-.75-7.56 13.07-53.8 62.46-108.32 24.17 28.6 47.38 80.63 79.07 140.06 79.07z"/><path fill="#63A097" d="M190.66 320.22c-5.48 0-10.13-4-10.94-9.43-2.8-18.63-4.34-38.94-4.34-60.2 0-15.7.84-30.86 2.4-45.23 19.16 2.36 39.03 3.6 59.4 3.6s40.25-1.24 59.4-3.6c1.57 14.37 2.4 29.54 2.4 45.24 0 24.9-2.1 48.5-5.88 69.62H190.66z"/><path fill="#548980" d="M293.1 320.22c2.74-15.36 4.6-32.04 5.4-49.58-17.28 24.54-33.38 40.6-35.56 36.4-5.23-10.02-11.74-19.6-20.14-25.35-4.32-2.97-11.18-4.75-17.4-4.54-14.42.5-19.52 17.2-18.87 30.76.07 1.33-3 6.27-8.53 12.3h95.1z"/><path fill="#458081" d="M237.18 413.84c-26.36 0-48.86-43.6-57.75-104.97 18.77 1.6 38.05 2.46 57.75 2.46 19.7 0 39-.86 57.75-2.46-8.88 61.37-31.4 104.97-57.75 104.97z"/><path fill="#316B6B" d="M237.18 311.33c-10.7 0-21.28-.26-31.73-.75-2.7 4.68-10.38 14.04-21.64 22.36 10.74 48.4 30.62 80.9 53.38 80.9 26.36 0 48.87-43.6 57.75-104.97-18.76 1.6-38.05 2.46-57.75 2.46z"/><path fill="#FFCE71" d="M478.98 392.44c-4.82 14.4-9.6 28.47-14.2 41.75-4.5 12.98-9.27 26.4-14.3 40.2-2.23 6.13-7.5 9.84-13.06 9.84v.07h-118.6c-7.82 0-14.16-7.08-14.16-15.83 0-.23 0-.46 0-.68-1-25.1-11.1-36.34-18.38-44.45-2.75-3.07-5.23-5.84-7.37-8.98-15.28-22.4-22.34-41.5-30.7-64.08-3.58-9.7-7.42-20.07-12.85-32.83-2.48-5.82-6.1-18.96-6.37-24.5-.66-13.8 4.5-30.77 19.07-31.3 6.3-.2 13.25 1.6 17.62 4.62 8.5 5.83 15.07 15.58 20.37 25.78 4.16 8.04 5.97 18.08 8.86 25.04 1.1 2.64 2.16 4.9 3.2 6.8 9.42 17.1 28.7 7.8 34.84-11.72 7.4-23.5 15.83-56.35 16.68-78.2.9-23.28 1.8-45.75 12.78-57.34 12.02-12.7 25.04-14.8 39.57-9.1l3.9 24.94c21-11.63 34.04 3.08 41.85 21.05 7.8 17.95 10.32 25.14 10.53 32.2h16.3c2.74.3 9.06 3.9 9.8 5.24 6.92 12.7 12.32 25.3 14.4 38.23 4.47 29.4-4.67 58.08-19.77 103.2z"/><path fill="#FFA84D" d="M478 246.88c-.23 2.2-.54 4.58-.92 7.24-.37 2.65-.88 5.63-1.56 9.1-1.62 8.16-3.07 16.12-4.48 23.83-3.4 18.6-6.6 36.17-11.3 51.85-1.3 4.3-5.24 7.07-9.5 7.07-.96 0-1.9-.13-2.86-.42-5.26-1.57-8.24-7.1-6.67-12.34 4.4-14.62 7.5-31.66 10.8-49.7 1.42-7.78 2.9-15.83 4.53-24.1.6-3.1 1.07-5.74 1.4-8.03.32-2.34.6-4.34.8-6.15 0 .18 0 .36 0 .54h16.33c.87.1 2.12.53 3.43 1.12zm-56-57.8v-.6c-4.78-.46-10.13.7-16.14 4.02-2.3 3.1-3.38 6.97-3 10.83 1.7 17.9 2.45 33.8-.54 47.28-6.44 29.04-12.17 54.38-16.98 70.34-1.57 5.23 1.18 10.95 6.4 12.62 1 .32 2.02.47 3.02.47 4.26 0 8.2-2.76 9.5-7.05 5.02-16.6 10.88-42.47 17.45-72.08 4.06-18.25.1-65.76.3-65.83z"/><path d="M437.96 495.4h-118.9c-14.1 0-25.6-12.22-25.6-27.26 0-.2 0-.4.02-.6-.94-20.72-8.67-29.33-15.5-36.94-3-3.32-5.77-6.43-8.34-10.18-16.12-23.6-23.5-43.54-32.05-66.63-3.64-9.8-7.37-19.87-12.7-32.34-2.66-6.23-6.92-20.77-7.28-28.48-.65-13.6 3.24-26.38 10.4-34.17 5.23-5.66 12.04-8.8 19.7-9.06 8.77-.3 18.15 2.23 24.52 6.6 8.92 6.13 16.8 15.93 24.1 29.97 2.97 5.77 4.83 11.97 6.47 17.45.97 3.2 1.87 6.23 2.82 8.5.9 2.2 1.8 4.1 2.67 5.68 1.17 2.14 2.33 3.17 3.4 3.06 2.76-.28 8.06-4.5 10.65-12.72 7.32-23.23 15.42-55.2 16.2-75.3 1-25.77 1.97-50.1 15.93-64.82 14.77-15.57 32.25-19.58 51.95-11.92.2.08.42.17.63.26 4.16 1.85 6.7 5.92 6.77 10.25.16 3.06.44 6.45.78 10.07 5.6-.97 11.04-.58 16.3 1.2 11.4 3.9 20.76 14.1 27.84 30.38 5.53 12.72 8.67 20.7 10.22 27.24 2.13-1.4 4.75-2.1 7.48-1.78 4.7.5 15.32 5.13 18.58 11.13 8.63 15.8 13.62 29.14 15.67 41.9 4.82 31.64-4.1 60.5-20.26 108.75-5.26 15.7-9.93 29.4-14.28 41.92-4.75 13.7-9.6 27.3-14.4 40.44-3.62 9.95-12.17 16.58-22.07 17.28-.57.08-1.15.13-1.74.13zm-188.8-222.88c-.2 0-.42 0-.64 0-1.56.07-2.63.57-3.7 1.73-3 3.25-4.77 10.34-4.42 17.65.18 3.76 3.3 15.5 5.48 20.6 5.54 13 9.54 23.77 13.06 33.3 8.4 22.64 15 40.47 29.54 61.76 1.7 2.5 3.9 4.95 6.43 7.77 8.07 8.97 20.2 22.47 21.38 51.67 0 .3.02.58 0 .87v.27c0 2.72 1.65 4.46 2.8 4.46h117.6c.43-.05.85-.07 1.28-.07.73 0 1.8-.73 2.37-2.34 4.77-13.05 9.57-26.54 14.3-40.12 4.3-12.43 8.95-26.07 14.18-41.67 15.06-44.92 23.38-71.62 19.36-97.97-1.54-9.57-5.4-20-12.16-32.65-.9-.53-2.05-1.1-2.7-1.35-1.36-.23-2.62-.7-3.75-1.33-.16 1.3-.34 2.64-.54 4.08-.35 2.52-.83 5.35-1.48 8.64-1.5 7.62-2.88 15.07-4.2 22.28-3.2 17.47-6.2 33.97-10.64 48.76-1.8 6.03-8.17 9.45-14.2 7.64-6.03-1.8-9.46-8.17-7.65-14.2 4.08-13.58 7-29.47 10.06-46.3 1.33-7.3 2.7-14.84 4.25-22.6.56-2.85.98-5.28 1.27-7.4 1.85-13.1 2-14.17-8.6-38.5-4.27-9.86-9.35-16.2-14.27-17.9-.84-.27-2.9-.97-6.55.05 2.16 21.06 3.84 43.48.07 60.42-6.4 28.76-11.66 52-16.4 67.64-1.83 6.04-8.2 9.44-14.22 7.6-6.03-1.8-9.43-8.18-7.6-14.2 4.5-14.86 9.9-38.67 15.96-65.98 3.53-15.83.76-41.66-1.47-62.4-.64-6-1.26-11.78-1.72-17.1-7.72-1.3-14 1.3-20.57 8.24-8.06 8.5-8.9 29.6-9.7 50-1.08 28.13-13.46 69.3-17.23 81.26-4.97 15.8-17.1 27.26-30.14 28.56-10.55 1.05-19.9-4.33-25.64-14.76-1.28-2.32-2.54-5-3.76-7.94-1.4-3.34-2.46-6.9-3.6-10.7-1.4-4.73-2.87-9.63-4.87-13.47-5.53-10.62-11-17.7-16.77-21.66-1.9-1.3-6.03-2.62-10.16-2.62zM236.7 480.36c-50.8 0-100.43-16.7-140.96-47.68-30.72-23.47-54.85-54.15-70.5-89.04L22.7 361.7c-.88 6.23-6.65 10.58-12.88 9.7-6.23-.87-10.58-6.63-9.7-12.87l9.34-66.75c.1-.77.26-1.52.5-2.24.52-1.6 1.38-3.02 2.48-4.2 1.13-1.22 2.52-2.2 4.12-2.83 1.2-.47 2.52-.76 3.88-.8 1.35-.04 2.67.16 3.9.56 1.62.53 3.05 1.4 4.24 2.5 1.2 1.13 2.16 2.5 2.8 4.1.28.7.5 1.43.63 2.2C53.2 392.9 143.93 462.8 247.84 457.25c6.3-.33 11.66 4.5 12 10.78.33 6.28-4.5 11.65-10.78 12-4.12.2-8.24.32-12.35.32zm-9.72-55.18c-.14 0-.28 0-.42 0-.13 0-.26-.02-.4-.03-91.97-5.85-164-82.67-164-174.94 0-96.64 78.64-175.28 175.3-175.28 0 0 .02 0 .03 0 45.4 0 88.46 17.3 121.24 48.73 4.55 4.35 4.7 11.57.34 16.12-4.35 4.54-11.57 4.7-16.12.34-18.25-17.48-40.16-29.94-63.92-36.65 3.8 6.03 7.5 13.26 11.06 21.9 11.93 29.04 19.27 68.17 20.64 110.2.2 6.3-4.73 11.57-11.02 11.77-6.32.2-11.57-4.72-11.77-11.02-.2-6.5-.58-12.85-1.07-19.03-16.45 1.68-33.17 2.54-49.82 2.54-16.57 0-32.94-.8-49.08-2.43-.8 10.38-1.24 21.34-1.24 32.84 0 75.24 31.45 138.4 48.3 155.54.07.06.13.12.2.18 1.08 1.15 1.87 2.45 2.4 3.83.53 1.43.8 2.97.7 4.58 0 0 0 .02 0 .02 0 .36-.04.72-.1 1.08 0 0 0 0 0 .02-.14.98-.4 1.9-.78 2.78 0 0 0 0 0 .02-.57 1.33-1.4 2.57-2.5 3.64-1.2 1.18-2.6 2.04-4.08 2.6-1.22.44-2.54.68-3.9.68zM95.48 305.85c18 45.74 57.52 80.97 106.36 92.67-11.2-19.12-22.3-45.8-29.58-76.98-26.3-3.26-52.05-8.52-76.77-15.7zm-7.66-26.23c25.5 8.33 52.3 14.48 79.86 18.32-2.37-15.23-3.74-31.23-3.74-47.72 0-11.87.5-23.84 1.5-35.66-24.43-3.64-48.24-9.2-71.25-16.6-5.98 16.3-9.23 33.9-9.23 52.26 0 10.04.98 19.87 2.85 29.4zm102.62-84.92c15.32 1.53 30.88 2.3 46.62 2.3 15.82 0 31.7-.8 47.3-2.4-8.38-58.7-29.1-96.88-46.9-96.88-16.64 0-38.44 35.81-47.02 96.98zm-86.75-17.65c20.78 6.55 42.26 11.5 64.28 14.83 4.94-34.87 14.34-66.76 27.9-88.4-39.62 11.25-72.74 38.15-92.2 73.57zm-85.36 52.08c-.52 0-1.06-.03-1.6-.1-6.24-.9-10.58-6.65-9.7-12.9 13.6-96.7 87.04-174.97 182.72-194.75C269.06 4.98 350.7 31.4 405.4 89.3l1.78-38.2c.3-6.3 5.62-11.14 11.93-10.87 6.3.3 11.16 5.64 10.86 11.93l-3.16 67.48c0 .2-.02.38-.04.57-.14 1.58-.6 3.05-1.3 4.37-.73 1.4-1.77 2.65-3.1 3.67-.86.67-1.83 1.22-2.86 1.62 0 0-.02 0-.03 0s-.02 0-.02.02c0 0 0 0-.02 0-.03 0-.05.02-.07.03 0 0-.02.02-.03.02 0 0-.02 0-.03 0-1.6.6-3.26.8-4.9.65-1.57-.14-3.05-.6-4.37-1.3-1.35-.72-2.58-1.73-3.58-3-.12-.15-.23-.3-.34-.46C357.9 59.3 274.8 27.1 194.4 43.7 108.1 61.56 41.9 132.13 29.62 219.33c-.8 5.7-5.7 9.8-11.28 9.8z"/></svg>