<svg version="1.1" id="Capa_1" xmlns="http://www.w3.org/2000/svg" xmlns:xlink="http://www.w3.org/1999/xlink" x="0px" y="0px" viewBox="0 0 496 496" style="enable-background:new 0 0 496 496;" xml:space="preserve" width="35" height="35">
        <g>
             <rect x="144" y="184" style="fill:#FFCB57;" width="80" height="136"/>
             <rect x="256" y="152" style="fill:#FFCB57;" width="96" height="96"/>
        </g>
        <path style="fill:#E56565;" d="M411.072,60.256L380.944,0H115.056L84.928,60.256C81.704,66.704,80,73.92,80,81.128
             c0,18.712,10.768,35.408,27.44,42.536c6.792,2.904,13.776,4.344,20.624,4.344c9.312,0,18.376-2.656,26.344-7.912
             c5.496-3.632,10.088-8.256,13.608-13.56C176.624,119.464,191.336,128,208,128c16.672,0,31.392-8.544,40-21.496
             C256.608,119.456,271.328,128,288,128c16.664,0,31.376-8.536,39.984-21.472c3.52,5.304,8.112,9.928,13.608,13.56
             c13.832,9.128,30.952,10.424,46.968,3.568C405.224,116.52,416,99.824,416,81.12C416,73.92,414.296,66.704,411.072,60.256z
             M396.76,67.416c0.728,1.456,1.176,3.032,1.656,4.584H333.76l-18.664-56h55.952L396.76,67.416z M179.104,72l18.664-56H240v56
             H179.104z M256,16h42.232l18.664,56H256V16z M124.944,16h55.952l-18.664,56H97.576c0.488-1.552,0.928-3.128,1.656-4.584L124.944,16z
             M145.592,106.736c-9.256,6.112-20.88,6.912-31.856,2.224c-8.704-3.728-14.84-11.6-16.912-20.96h62.16
             C157.024,95.592,152.328,102.288,145.592,106.736z M208,112c-14.864,0-27.288-10.232-30.864-24h61.728
             C235.288,101.768,222.864,112,208,112z M288,112c-14.864,0-27.288-10.232-30.864-24h61.728C315.288,101.768,302.864,112,288,112z
             M382.264,108.96c-10.984,4.688-22.6,3.888-31.856-2.224C343.68,102.296,338.976,95.6,337.016,88h62.16
             C397.112,97.36,390.968,105.232,382.264,108.96z"/>
        <g>
             <path style="fill:#3F3A34;" d="M352,432h128v24c0,13.232-10.768,24-24,24H40c-13.232,0-24-10.768-24-24v-24h128v-16H0v40
                  c0,22.056,17.944,40,40,40h416c22.056,0,40-17.944,40-40v-40H352V432z"/>
             <path style="fill:#3F3A34;" d="M184,464h128c13.232,0,24-10.768,24-24v-24H160v24C160,453.232,170.768,464,184,464z M176,432h144v8
                  c0,4.416-3.592,8-8,8H184c-4.408,0-8-3.584-8-8V432z"/>
             <rect x="48" y="448" style="fill:#3F3A34;" width="16" height="16"/>
             <rect x="80" y="448" style="fill:#3F3A34;" width="16" height="16"/>
             <rect x="112" y="448" style="fill:#3F3A34;" width="16" height="16"/>
             <path style="fill:#3F3A34;" d="M456,88h-24v16h24c13.232,0,24,10.768,24,24v272h16V128C496,105.944,478.056,88,456,88z"/>
             <path style="fill:#3F3A34;" d="M16,128c0-13.232,10.768-24,24-24h24V88H40c-22.056,0-40,17.944-40,40v272h16V128z"/>
             <path style="fill:#3F3A34;" d="M448,400h16V136c0-8.824-7.176-16-16-16h-16v16h16V400z"/>
             <path style="fill:#3F3A34;" d="M32,136v264h16V136h16v-16H48C39.176,120,32,127.176,32,136z"/>
             <path style="fill:#3F3A34;" d="M392,136h-16v176H232V176h-96v136h-16V136h-16v192h288V136z M152,192h64v120h-64V192z"/>
             <path style="fill:#3F3A34;" d="M360,144H248v112h112V144z M344,192h-32v-32h32V192z M296,160v32h-32v-32H296z M264,208h32v32h-32
                  V208z M312,240v-32h32v32H312z"/>
        </g>
   </svg>