<svg fill="#000000" xmlns="http://www.w3.org/2000/svg" xmlns:xlink="http://www.w3.org/1999/xlink" version="1.1" x="0px" y="0px" viewBox="0 0 65 65" enable-background="new 0 0 65 65" xml:space="preserve" width="35" height="35">
    <path d="M24.1,8.8l-1-1.1L32-0.1c0.3-0.2,0.7-0.2,1,0l9,7.8l-1,1.1l-1.2-1l-7.3-6.3L24.1,8.8z"></path>
    <path fill="#d20805" d="M21.2,32.3c0.1,0,0.1,0,0.2,0c0.2,0,0.4-0.1,0.6-0.2l2.5-2.7l1.7,0.1c-0.1,0.6-0.1,1.2,0,1.7c0.2,1.1,0.9,2,1.8,2.6    c0.7,0.4,1.5,0.7,2.3,0.7c0.3,0,0.6,0,0.9-0.1c1.1-0.2,2-0.9,2.6-1.8c0.5-0.8,0.7-1.7,0.6-2.7l5.3,0.3l0.3,1    c0.1,0.3,0.4,0.6,0.7,0.6c0.1,0,0.1,0,0.2,0c0.4-0.1,0.6-0.5,0.5-0.9L40,26.1c0.6-0.3,1.1-0.8,1.4-1.4c0.5-0.8,0.6-1.8,0.3-2.7    c-0.2-0.9-0.8-1.7-1.6-2.2c-0.6-0.4-1.3-0.5-1.9-0.5L37,14.5c-0.1-0.4-0.5-0.6-0.9-0.5c-0.4,0.1-0.6,0.5-0.5,0.9l0.3,1l-12.9,8.1    l-3.5-1.2c-0.3-0.1-0.5,0-0.8,0.2c-0.2,0.2-0.3,0.5-0.2,0.7l2.1,8.1C20.7,32,20.9,32.2,21.2,32.3z M32.4,31.8    c-0.4,0.6-1,1-1.7,1.2c-0.7,0.2-1.4,0-2-0.4c-0.6-0.4-1-1-1.2-1.7c-0.1-0.4-0.1-0.9,0-1.3l5.2,0.3C32.9,30.5,32.8,31.2,32.4,31.8z     M39.4,21c0.5,0.3,0.8,0.8,1,1.3c0.1,0.6,0.1,1.1-0.2,1.6c-0.1,0.2-0.3,0.5-0.5,0.6l-1-3.9C38.9,20.8,39.2,20.8,39.4,21z     M39.1,28.7L38,28.6L35.2,18l1-0.6L39.1,28.7z M22.8,25.5c0.2,0.1,0.4,0,0.6-0.1l10.5-6.6l2.5,9.7l-12.3-0.6    c-0.2,0-0.4,0.1-0.6,0.2l-1.8,1.9l-1.4-5.4L22.8,25.5z"></path>
    <rect fill="#d20805" x="42.9" y="20.5" transform="matrix(-0.968 0.2509 -0.2509 -0.968 92.6412 30.7808)" width="2.9" height="1.5"></rect>
    <rect fill="#d20805" x="40.8" y="16.1" transform="matrix(0.8619 0.5071 -0.5071 0.8619 14.6264 -18.6516)" width="1.5" height="2.9"></rect>
    <rect fill="#d20805" x="42.2" y="25.2" transform="matrix(-0.8618 -0.5073 0.5073 -0.8618 68.155 70.4607)" width="2.9" height="1.5"></rect>
    <path d="M62.5,25.7L54,18.2V9.5c0-1.1-0.9-2-2-2H13c-1.1,0-2,0.9-2,2v8.7l-8.5,7.4c-0.2,0.1-0.3,0.4-0.3,0.6v38.2    c0,0.4,0.3,0.8,0.8,0.8h59.1c0.4,0,0.8-0.3,0.8-0.8V26.2C62.8,26,62.7,25.8,62.5,25.7z M24.3,45.9l-20.6,17v-35L24.3,45.9z     M32.5,41L60,63.8H5L32.5,41z M40.7,45.9l20.6-18v35L40.7,45.9z M60.9,26.3l-6.9,6V20.2L60.9,26.3z M13,9h39    c0.3,0,0.5,0.2,0.5,0.5v24.1l-13,11.3L33,39.5c-0.3-0.2-0.7-0.2-1,0l-6.6,5.4l-13-11.3V9.5C12.5,9.2,12.7,9,13,9z M11,32.3l-6.9-6    l6.9-6V32.3z"></path>
    <rect fill="#d20805" x="21.2" y="58.7" width="22.6" height="1.5"></rect>
    <rect fill="#d20805" x="25.4" y="55.1" width="14.1" height="1.5"></rect>
</svg>