<?xml version="1.0" encoding="iso-8859-1"?>
<!-- Generator: Adobe Illustrator 19.0.0, SVG Export Plug-In . SVG Version: 6.00 Build 0)  -->
<svg version="1.1" id="Capa_1" xmlns="http://www.w3.org/2000/svg" xmlns:xlink="http://www.w3.org/1999/xlink" x="0px" y="0px"
	 viewBox="0 0 496 496" style="enable-background:new 0 0 496 496;" xml:space="preserve" width="60px" height="60px">
<g>
	<rect x="40" y="168" style="fill:#333333;" width="16" height="80"/>
	<rect x="200" y="144" style="fill:#333333;" width="160" height="16"/>
	<path style="fill:#333333;" d="M440,224v160H56v-40H40v64c0,22.056,17.944,40,40,40h48v32H96v16h304v-16h-32v-32h48
		c22.056,0,40-17.944,40-40V224H440z M352,480H144v-32h208V480z M416,432H80c-13.232,0-24-10.768-24-24v-8h384v8
		C440,421.232,429.232,432,416,432z"/>
</g>
<g>
	<path style="fill:#FFA64D;" d="M496,232H352V120h144V232z"/>
	<path style="fill:#FFA64D;" d="M144,352H0V240h144V352z"/>
	<path style="fill:#FFA64D;" d="M336,352H192V208h144V352z"/>
	<path style="fill:#FFA64D;" d="M208,176H0V0h208V176z"/>
</g>
<g>
	<rect x="32" y="32" style="fill:#333333;" width="16" height="16"/>
	<rect x="64" y="32" style="fill:#333333;" width="112" height="16"/>
	<rect x="160" y="128" style="fill:#333333;" width="16" height="16"/>
	<rect x="32" y="128" style="fill:#333333;" width="112" height="16"/>
	<rect x="32" y="96" style="fill:#333333;" width="144" height="16"/>
	<rect x="32" y="64" style="fill:#333333;" width="144" height="16"/>
	<rect x="384" y="152" style="fill:#333333;" width="16" height="16"/>
	<rect x="416" y="152" style="fill:#333333;" width="48" height="16"/>
	<rect x="448" y="184" style="fill:#333333;" width="16" height="16"/>
	<rect x="384" y="184" style="fill:#333333;" width="48" height="16"/>
	<rect x="32" y="272" style="fill:#333333;" width="16" height="16"/>
	<rect x="64" y="272" style="fill:#333333;" width="48" height="16"/>
	<rect x="96" y="304" style="fill:#333333;" width="16" height="16"/>
	<rect x="32" y="304" style="fill:#333333;" width="48" height="16"/>
	<rect x="224" y="240" style="fill:#333333;" width="80" height="16"/>
	<rect x="224" y="272" style="fill:#333333;" width="80" height="16"/>
	<rect x="224" y="304" style="fill:#333333;" width="80" height="16"/>
</g>
<path style="fill:#FFA64D;" d="M424,80H296V0h128V80z"/>
<rect x="328" y="32" style="fill:#333333;" width="64" height="16"/>
<g>
</g>
<g>
</g>
<g>
</g>
<g>
</g>
<g>
</g>
<g>
</g>
<g>
</g>
<g>
</g>
<g>
</g>
<g>
</g>
<g>
</g>
<g>
</g>
<g>
</g>
<g>
</g>
<g>
</g>
</svg>
