<svg xmlns="http://www.w3.org/2000/svg" xmlns:xlink="http://www.w3.org/1999/xlink" version="1.1" x="0px" y="0px" viewBox="0 0 65 81.25" enable-background="new 0 0 65 65" xml:space="preserve" class="svg-icon-size">
                                                       <g>
                                                            <path fill="#d20805" d="M28.2,29.9l-9.7,1.3l7.1,6.8l-1.7,9.6l8.6-4.6l8.6,4.6L39.4,38l7.1-6.8l-9.7-1.3L32.5,21L28.2,29.9z M43.2,32.3l-5.4,5.2   l1.3,7.4l-6.6-3.5l-6.6,3.5l1.3-7.4l-5.4-5.2l7.4-1l3.3-6.8l3.3,6.8L43.2,32.3z"/>
                                                            <polygon fill="#d20805" points="47.2,27.6 44.1,21 40.7,28 42,28.6 44.1,24.5 46.2,29 51.2,29.7 47.6,33.1 48.5,38.1 44.4,35.9 43.7,37.2    50.5,40.9 49.2,33.7 54.5,28.6  "/>
                                                            <polygon fill="#d20805" points="21.3,37.2 20.6,35.9 16.5,38.1 17.4,33.1 13.8,29.7 18.8,29 20.9,24.5 23,28.6 24.3,28 20.9,21 17.8,27.6    10.5,28.6 15.8,33.7 14.5,40.9  "/>
                                                            <path d="M12.4,12.9c4.4-4.5,10.2-7.4,16.4-8.2c0.5,1.6,1.9,2.9,3.7,2.9c2.1,0,3.9-1.7,3.9-3.9s-1.7-3.9-3.9-3.9   c-2,0-3.6,1.5-3.8,3.4C22.1,4,15.9,7.1,11.3,11.8L12.4,12.9z M32.5,1.3c1.3,0,2.4,1.1,2.4,2.4c0,1.3-1.1,2.4-2.4,2.4   c-1.3,0-2.4-1.1-2.4-2.4C30.1,2.3,31.2,1.3,32.5,1.3z"/>
                                                            <path d="M4.1,40.9l1.4-0.4c-0.8-2.6-1.1-5.2-1.1-7.9c0-3.7,0.7-7.4,2.1-10.8c0.3,0.1,0.7,0.1,1,0.1c1.4,0,2.7-0.7,3.4-1.9   c1.1-1.9,0.4-4.2-1.4-5.3c-0.6-0.3-1.3-0.5-2-0.5c-1.4,0-2.7,0.7-3.4,1.9C3.7,16.9,3.5,18,3.8,19C4,19.8,4.5,20.5,5.2,21   c-1.5,3.6-2.3,7.5-2.3,11.5C2.9,35.3,3.3,38.2,4.1,40.9z M5.5,16.8c0.4-0.7,1.2-1.2,2.1-1.2c0.4,0,0.8,0.1,1.2,0.3   c1.1,0.7,1.5,2.1,0.9,3.3C9,20.3,7.5,20.7,6.4,20c-0.6-0.3-0.9-0.8-1.1-1.5C5.1,18,5.2,17.3,5.5,16.8z"/>
                                                            <path d="M10.1,49.5c0.5-0.5,0.8-1,1-1.7c0.3-1,0.1-2-0.4-2.9c-0.7-1.2-2-2-3.4-2c-0.7,0-1.3,0.2-1.9,0.5C3.6,44.4,3,46.8,4,48.7   c0.7,1.2,2,2,3.4,2c0.5,0,1-0.1,1.5-0.3c3.9,5.1,9.3,8.9,15.5,10.6l0.4-1.4C19,57.9,13.8,54.3,10.1,49.5z M5.3,47.9   c-0.3-0.6-0.4-1.2-0.2-1.8c0.2-0.6,0.6-1.1,1.1-1.4c0.4-0.2,0.8-0.3,1.2-0.3c0.9,0,1.7,0.5,2.1,1.2c0.3,0.6,0.4,1.2,0.2,1.8   c-0.2,0.6-0.6,1.1-1.1,1.4C7.5,49.5,6,49,5.3,47.9z"/>
                                                            <path d="M52.4,52.3c-4.4,4.4-10.1,7.2-16.2,8c-0.2-0.6-0.5-1.2-1-1.7c-0.7-0.7-1.7-1.2-2.8-1.2c-2.1,0-3.9,1.7-3.9,3.8   c0,2.1,1.7,3.9,3.8,3.9h0c2,0,3.6-1.5,3.8-3.4c6.5-0.8,12.5-3.8,17.2-8.5L52.4,52.3z M32.5,63.7v0.8V63.7c-1.3,0-2.4-1.1-2.4-2.4   c0-1.3,1.1-2.4,2.4-2.4c0.6,0,1.2,0.3,1.7,0.7c0.4,0.5,0.7,1.1,0.7,1.7C34.9,62.7,33.8,63.7,32.5,63.7z"/>
                                                            <path d="M55,15.7c-0.5,0.5-0.8,1-1,1.7c-0.3,1-0.2,2,0.3,3c0.7,1.2,2,2,3.4,2c0.7,0,1.3-0.2,1.9-0.5c0.9-0.5,1.6-1.3,1.8-2.3   c0.3-1,0.2-2-0.3-3c-0.7-1.2-2-2-3.4-2c-0.5,0-1,0.1-1.4,0.3c-4.1-5.5-10-9.5-16.6-11.1l-0.4,1.5C45.6,6.8,51.2,10.5,55,15.7z    M59.8,17.3c0.3,0.6,0.4,1.2,0.2,1.8c-0.2,0.6-0.6,1.1-1.1,1.4c-1.1,0.6-2.6,0.2-3.2-0.9c-0.3-0.6-0.4-1.2-0.2-1.8   c0.2-0.6,0.6-1.1,1.1-1.4c0.4-0.2,0.8-0.3,1.2-0.3C58.6,16.1,59.4,16.6,59.8,17.3z"/>
                                                            <path d="M59.7,44.2c1.6-3.7,2.4-7.6,2.4-11.7c0-2.5-0.3-5.1-1-7.5l-1.5,0.4c0.6,2.3,0.9,4.7,0.9,7.1c0,3.8-0.8,7.5-2.3,11   c-0.3-0.1-0.7-0.1-1.1-0.1c-1.4,0-2.6,0.7-3.3,1.9c-0.5,0.9-0.7,1.9-0.4,2.9c0.3,1,0.9,1.9,1.8,2.4c0.6,0.4,1.3,0.5,2,0.5   c1.4,0,2.6-0.7,3.3-1.9c0.5-0.9,0.7-1.9,0.4-2.9C60.9,45.5,60.4,44.8,59.7,44.2z M59.3,48.5c-0.4,0.7-1.2,1.2-2.1,1.2   c-0.4,0-0.8-0.1-1.2-0.3c-0.5-0.3-0.9-0.8-1.1-1.5c-0.2-0.6-0.1-1.3,0.3-1.8c0.4-0.7,1.2-1.2,2.1-1.2c0.4,0,0.8,0.1,1.2,0.3   c0.5,0.3,0.9,0.8,1.1,1.5C59.8,47.3,59.7,47.9,59.3,48.5z"/>
                                                       </g>
                                                  </svg>