<svg xmlns="http://www.w3.org/2000/svg" xmlns:xlink="http://www.w3.org/1999/xlink" version="1.1" x="0px" y="0px" viewBox="0 0 65 65" enable-background="new 0 0 65 65" xml:space="preserve" width="50" height="50">
       <g>
            <path fill="#d20805" d="M30.8,25.5c0.3-0.5,0.5-1,0.5-1.6c0-1.4-1.2-2.6-2.6-2.6h-2.7h-1.9c0.8-1.4,1.1-2.9,1.1-4.5v-1.2c0-1.5-1.2-2.7-2.7-2.7   c-1.5,0-2.7,1.2-2.7,2.7c0,1.7-0.6,3.5-1.7,4.8l-0.6,0.8H12v1.5h6.4l1.1-1.4c1.3-1.6,2-3.7,2-5.8c0-0.7,0.5-1.2,1.2-1.2   c0.6,0,1.2,0.5,1.2,1.2v1.2c0,1.4-0.4,2.8-1.1,4l-1.2,1.9h4.5h2.7c0.6,0,1.1,0.5,1.1,1.1c0,0.7-0.6,1.3-1.3,1.3h-1.9h-0.1v1.5h0.1   h1.9h1c0.7,0,1.2,0.5,1.2,1.2c0,0.7-0.5,1.2-1.2,1.2h-0.9h-2.1v1.5h2.1c0.6,0,1.2,0.5,1.2,1.2c0,0.7-0.5,1.2-1.2,1.2h-1.1h-0.9v1.5   h0.9c0.7,0,1.2,0.5,1.2,1.2c0,0.7-0.5,1.2-1.2,1.2h-6.2c-0.3,0-0.6-0.1-0.9-0.2l-1.4-0.7c-0.6-0.3-1.2-0.4-1.8-0.4h-6.5V37h6.5   c0.4,0,0.8,0.1,1.2,0.3l1.4,0.7c0.5,0.2,1,0.3,1.5,0.3h6.2c1.5,0,2.7-1.2,2.7-2.7c0-0.5-0.2-1-0.4-1.4c0.9-0.4,1.6-1.3,1.6-2.4   c0-0.6-0.2-1.1-0.5-1.5c0.8-0.5,1.4-1.3,1.4-2.3C32.2,26.8,31.7,26,30.8,25.5z"></path>
            <rect x="13.9" y="32.2" width="1.5" height="1.5"></rect>
            <rect x="16.9" y="32.2" width="1.5" height="1.5"></rect>
            <path d="M65.3,43.2C65.3,33.7,57.5,26,48,26c-1.3,0-2.6,0.1-3.8,0.4C44,14.3,34.1,4.5,22,4.5c-12.3,0-22.2,10-22.2,22.2   c0,4.7,1.5,9.2,4.2,13.1l-2.9,7.5l8.6-2.1C14,48.7,20.2,49,22,49c3.3,0,6.4-0.7,9.2-2c1.7,7.9,8.6,13.5,16.8,13.5   c1.4,0,6.1-0.2,9.5-2.9l6.9,1.7l-2.3-6C64.1,50.4,65.3,46.9,65.3,43.2z M10.4,43.8l-0.3-0.3l-6.6,1.6l2.2-5.6l-0.3-0.3   c-2.7-3.6-4.2-7.9-4.2-12.5C1.2,15.3,10.5,6,22,6c11.4,0,20.7,9.3,20.7,20.7c0,11.4-9.3,20.7-20.7,20.7   C18.4,47.5,13.5,46.5,10.4,43.8z M57.1,56l-0.3,0.3c-2.4,2-6.1,2.8-8.8,2.8c-7.6,0-14-5.3-15.5-12.7c1.2-0.7,2.4-1.4,3.4-2.3h21.6   v-1.5H37.6c1.4-1.4,2.6-3,3.6-4.7h13.3v-1.5H42c1.2-2.6,2-5.4,2.1-8.4c1.2-0.3,2.5-0.5,3.8-0.5c8.7,0,15.8,7.1,15.8,15.8   c0,3.5-1.1,6.7-3.2,9.5l-0.3,0.3l1.6,4.1L57.1,56z"></path>
            <rect x="38" y="48.7" width="16.3" height="1.5"></rect>
       </g>
  </svg>