<svg fill="#000000" xmlns="http://www.w3.org/2000/svg" xmlns:xlink="http://www.w3.org/1999/xlink" version="1.1" x="0px" y="0px" viewBox="0 0 100 100" enable-background="new 0 0 100 100" xml:space="preserve" width="50" height="50">
   <path d="M68.707,27.016c3.09,0,5.604-2.514,5.604-5.605s-2.515-5.605-5.604-5.605s-5.604,2.514-5.604,5.605  c0,1.129,0.338,2.179,0.915,3.059l-9.07,7.488c-0.839-0.502-1.816-0.795-2.863-0.795c-2.967,0-5.396,2.318-5.587,5.237l-8.559,2.472  c-1.014-1.45-2.693-2.401-4.592-2.401c-3.091,0-5.605,2.514-5.605,5.605c0,1.878,0.932,3.539,2.354,4.557l-1.145,5.906  c-3.077,0.016-5.575,2.523-5.575,5.603c0,0.728,0.144,1.422,0.398,2.061l-3.094,2.48c-0.958-0.763-2.167-1.222-3.484-1.222  c-3.091,0-5.605,2.514-5.605,5.605s2.515,5.605,5.605,5.605c3.09,0,5.604-2.514,5.604-5.605c0-0.499-0.072-0.98-0.195-1.441  l3.412-2.735c0.861,0.54,1.875,0.857,2.965,0.857c3.091,0,5.604-2.514,5.604-5.605c0-1.847-0.901-3.483-2.283-4.504l1.156-5.963  c2.988-0.059,5.407-2.466,5.486-5.45l8.428-2.434c0.998,1.551,2.736,2.582,4.713,2.582c3.09,0,5.604-2.514,5.604-5.605  c0-0.77-0.156-1.504-0.438-2.172l9.581-7.91C67.419,26.895,68.048,27.016,68.707,27.016z M68.707,19.306  c1.16,0,2.104,0.944,2.104,2.105s-0.944,2.105-2.104,2.105s-2.104-0.944-2.104-2.105S67.547,19.306,68.707,19.306z M17.193,69.171  c-1.161,0-2.105-0.944-2.105-2.105s0.944-2.105,2.105-2.105c1.16,0,2.104,0.944,2.104,2.105S18.354,69.171,17.193,69.171z   M28.979,60.247c-1.161,0-2.105-0.944-2.105-2.105s0.944-2.105,2.105-2.105c1.16,0,2.104,0.944,2.104,2.105  S30.14,60.247,28.979,60.247z M33.346,44.18c-1.161,0-2.105-0.944-2.105-2.104s0.944-2.105,2.105-2.105  c1.16,0,2.104,0.944,2.104,2.105S34.506,44.18,33.346,44.18z M52.084,38.873c-1.161,0-2.105-0.944-2.105-2.105  s0.944-2.105,2.105-2.105c1.16,0,2.104,0.944,2.104,2.105S53.244,38.873,52.084,38.873z M76.124,77.969  c0,0.966-0.783,1.75-1.75,1.75H60.155l0.077,1.511c4.598,0.788,6.655,4.757,7.114,6.962c0.107,0.516-0.022,1.052-0.355,1.461  c-0.332,0.409-0.831,0.646-1.357,0.646h-31.58c-0.519,0-1.01-0.23-1.343-0.627c-0.332-0.398-0.472-0.922-0.38-1.433  c0.407-2.262,2.361-6.331,6.901-7.146l0.071-1.375H10.809c-2.741,0-4.79-2.93-4.79-5.549V14.083c0-2.58,1.97-4.382,4.79-4.382  h73.679c2.816,0,4.861,1.843,4.861,4.382v51.726c0,0.966-0.783,1.75-1.75,1.75s-1.75-0.784-1.75-1.75V14.083  c0-0.796-0.952-0.882-1.361-0.882H10.809c-0.856,0-1.29,0.297-1.29,0.882V74.17c0,1.016,0.827,2.049,1.29,2.049h30.337  c0.479,0,0.938,0.197,1.269,0.545c0.331,0.348,0.504,0.816,0.479,1.295l-0.243,4.73c-0.048,0.93-0.816,1.66-1.748,1.66  c-2.282,0-3.577,1.196-4.297,2.351h26.359c-0.772-1.099-2.118-2.208-4.402-2.208c-0.932,0-1.7-0.73-1.748-1.661l-0.249-4.873  c-0.024-0.479,0.149-0.947,0.479-1.295s0.789-0.544,1.269-0.544h16.061C75.341,76.219,76.124,77.003,76.124,77.969z M93.026,77.087  l-7.986-7.986c-0.088-0.088-0.185-0.166-0.288-0.233c-0.635-0.41-0.896-0.501-0.995-0.536c-0.183-0.064-0.398-0.108-0.644-0.132  l-0.5-0.262l-2.945-2.886c1.358-2.263,2.101-5.052,2.101-7.932c0-8.761-7.132-15.889-15.898-15.889  c-4.245,0-8.237,1.653-11.239,4.655c-3.002,3.002-4.655,6.994-4.655,11.239C49.976,65.878,57.114,73,65.89,73  c3.161,0,5.78-0.645,7.981-1.969l2.952,2.81l0.274,0.521c0.029,0.194,0.07,0.366,0.123,0.518c0.031,0.088,0.114,0.322,0.476,0.914  c0.072,0.119,0.158,0.229,0.257,0.327l8.02,8.02c0.647,0.648,1.528,1.004,2.48,1.004c1.17,0,2.381-0.541,3.322-1.482l0.658-0.658  c0.759-0.758,1.281-1.722,1.471-2.713C94.142,79.051,93.822,77.882,93.026,77.087z M53.476,57.125c0-3.31,1.289-6.423,3.63-8.764  c2.342-2.341,5.454-3.63,8.765-3.63c6.837,0,12.398,5.558,12.398,12.389c0,2.405-0.682,4.793-1.87,6.553  c-0.195,0.29-0.317,0.443-0.337,0.468c-0.02,0.023-0.033,0.05-0.051,0.074c-0.016,0.021-0.036,0.038-0.051,0.06  c-0.186,0.265-0.791,1.08-1.368,1.657c-0.716,0.716-1.289,1.247-1.534,1.471c-0.142,0.084-0.348,0.21-0.601,0.38  c-1.737,1.171-3.823,1.716-6.566,1.716C59.045,69.5,53.476,63.948,53.476,57.125z M89.959,80.529L89.3,81.188  c-0.315,0.316-0.652,0.457-0.847,0.457l-0.006,0.021l-7.866-7.867c-0.012-0.019-0.022-0.038-0.033-0.057  c0-0.008-0.001-0.013-0.001-0.015c-0.016-0.245-0.083-0.483-0.197-0.7l-0.563-1.07c-0.089-0.168-0.204-0.322-0.343-0.453  l-2.808-2.673c0.137-0.134,0.279-0.274,0.43-0.425c0.169-0.169,0.331-0.347,0.489-0.524l2.793,2.737  c0.122,0.12,0.262,0.221,0.414,0.301l1.066,0.558c0.255,0.133,0.478,0.216,0.804,0.199c0,0,0.002-0.001,0.012,0  c0.02,0.012,0.038,0.023,0.057,0.034l7.781,7.782C90.484,79.673,90.356,80.132,89.959,80.529z"></path>
</svg>