<svg fill="#000000" xmlns="http://www.w3.org/2000/svg" xmlns:xlink="http://www.w3.org/1999/xlink" version="1.1" x="0px" y="0px" viewBox="0 0 100 100" style="enable-background:new 0 0 250 250;" xml:space="preserve" width="80" height="80">
      <path d="M14.4,61c3,0,5.4-2.4,5.4-5.4s-2.4-5.4-5.4-5.4S9,52.6,9,55.6S11.4,61,14.4,61z M14.4,52.2c1.9,0,3.4,1.5,3.4,3.4  S16.2,59,14.4,59S11,57.5,11,55.6S12.5,52.2,14.4,52.2z"></path>
      <path d="M34.9,39.7c3,0,5.4-2.4,5.4-5.4S37.9,29,34.9,29s-5.4,2.4-5.4,5.4S31.9,39.7,34.9,39.7z M34.9,31c1.9,0,3.4,1.5,3.4,3.4  s-1.5,3.4-3.4,3.4s-3.4-1.5-3.4-3.4S33,31,34.9,31z"></path>
      <path d="M59.5,50.5c3,0,5.4-2.4,5.4-5.4s-2.4-5.4-5.4-5.4c-3,0-5.4,2.4-5.4,5.4S56.5,50.5,59.5,50.5z M59.5,41.8  c1.9,0,3.4,1.5,3.4,3.4s-1.5,3.4-3.4,3.4c-1.9,0-3.4-1.5-3.4-3.4S57.7,41.8,59.5,41.8z"></path>
      <path d="M85.6,13.2c-3,0-5.4,2.4-5.4,5.4s2.4,5.4,5.4,5.4s5.4-2.4,5.4-5.4S88.6,13.2,85.6,13.2z M85.6,22c-1.9,0-3.4-1.5-3.4-3.4  s1.5-3.4,3.4-3.4s3.4,1.5,3.4,3.4S87.5,22,85.6,22z"></path>
      <path d="M67.6,39c0.3,0,0.5-0.1,0.7-0.3l12.1-12.3c0.4-0.4,0.4-1,0-1.4c-0.4-0.4-1-0.4-1.4,0L66.9,37.3c-0.4,0.4-0.4,1,0,1.4  C67.1,38.9,67.4,39,67.6,39z"></path>
      <path d="M43.2,39.1l7.1,3c0.1,0.1,0.3,0.1,0.4,0.1c0.4,0,0.8-0.2,0.9-0.6c0.2-0.5,0-1.1-0.5-1.3l-7.1-3c-0.5-0.2-1.1,0-1.3,0.5  C42.4,38.3,42.7,38.9,43.2,39.1z"></path>
      <path d="M20.8,49.4c0.3,0,0.5-0.1,0.7-0.3l7.1-7.1c0.4-0.4,0.4-1,0-1.4c-0.4-0.4-1-0.4-1.4,0l-7.1,7.1c-0.4,0.4-0.4,1,0,1.4  C20.3,49.3,20.6,49.4,20.8,49.4z"></path>
      <path d="M10.4,72.2c-0.6,0-1,0.4-1,1v12.5c0,0.6,0.4,1,1,1h8c0.6,0,1-0.4,1-1V73.2c0-0.6-0.4-1-1-1H10.4z M17.4,84.8h-6V74.2h6V84.8  z"></path>
      <path d="M24.6,63c-0.6,0-1,0.4-1,1v21.8c0,0.6,0.4,1,1,1h8c0.6,0,1-0.4,1-1V64c0-0.6-0.4-1-1-1H24.6z M31.6,84.8h-6V65h6V84.8z"></path>
      <path d="M38.9,55.1c-0.6,0-1,0.4-1,1v29.6c0,0.6,0.4,1,1,1h8c0.6,0,1-0.4,1-1V56.1c0-0.6-0.4-1-1-1H38.9z M45.9,84.8h-6V57.1h6V84.8  z"></path>
      <path d="M53.1,86.8h8c0.6,0,1-0.4,1-1V66c0-0.6-0.4-1-1-1h-8c-0.6,0-1,0.4-1,1v19.8C52.1,86.3,52.6,86.8,53.1,86.8z M54.1,67h6v17.8  h-6V67z"></path>
      <path d="M67.4,86.8h8c0.6,0,1-0.4,1-1V60.3c0-0.6-0.4-1-1-1h-8c-0.6,0-1,0.4-1,1v25.5C66.4,86.3,66.8,86.8,67.4,86.8z M68.4,61.3h6  v23.5h-6V61.3z"></path>
      <path d="M81.6,86.8h8c0.6,0,1-0.4,1-1V47.6c0-0.6-0.4-1-1-1h-8c-0.6,0-1,0.4-1,1v38.2C80.6,86.3,81.1,86.8,81.6,86.8z M82.6,48.6h6  v36.2h-6V48.6z"></path>
 </svg>