<svg fill="#000000" xmlns="http://www.w3.org/2000/svg" xmlns:xlink="http://www.w3.org/1999/xlink" version="1.1" x="0px" y="0px" viewBox="0 0 91 91" style="enable-background:new 0 0 91 91;" xml:space="preserve" width="50" height="50">
  <g>
    <polygon points="3.1,85.2 89,85.2 89,82 6.3,82 6.3,77.7 11.6,77.7 11.6,74.5 6.3,74.5 6.3,64.1 11.6,64.1 11.6,61 6.3,61    6.3,50.6 11.6,50.6 11.6,47.4 6.3,47.4 6.3,37.1 11.6,37.1 11.6,33.9 6.3,33.9 6.3,23.5 11.6,23.5 11.6,20.4 6.3,20.4 6.3,8.4    3.1,8.4  "></polygon>
    <path d="M37.4,17.9c-5.3,0-9.6,4.3-9.6,9.6c0,3.6,2,6.8,5,8.4l-5.6,13.9c-0.4,0-0.8-0.1-1.2-0.1c-5.3,0-9.6,4.3-9.6,9.6   s4.3,9.6,9.6,9.6s9.6-4.3,9.6-9.6c0-3.8-2.2-7-5.4-8.6l5.5-13.8c0.5,0.1,1.1,0.1,1.6,0.1c3.3,0,6.2-1.7,7.9-4.2l9,5   c-0.3,1-0.5,2-0.5,3.1c0,5.3,4.3,9.6,9.6,9.6s9.6-4.3,9.6-9.6c0-1.7-0.5-3.4-1.3-4.8l13.7-16.4l0,9.6h3.2l0-15.3l-15.3,0v3.2   l10.1,0L69.7,33.7c-1.7-1.4-3.9-2.3-6.2-2.3c-3.1,0-5.8,1.4-7.5,3.7l-9.2-5.1c0.2-0.8,0.3-1.6,0.3-2.5C47,22.2,42.7,17.9,37.4,17.9   z M32.5,59.3c0,3.5-2.9,6.4-6.4,6.4s-6.4-2.9-6.4-6.4s2.9-6.4,6.4-6.4S32.5,55.7,32.5,59.3z M63.4,34.5c3.5,0,6.4,2.9,6.4,6.4   c0,3.5-2.9,6.4-6.4,6.4S57,44.5,57,40.9C57,37.4,59.9,34.5,63.4,34.5z M37.4,33.9c-3.5,0-6.4-2.9-6.4-6.4s2.9-6.4,6.4-6.4   s6.4,2.9,6.4,6.4S41,33.9,37.4,33.9z"></path>
    <rect x="61.2" y="57.5" width="3.2" height="19.9"></rect>
    <rect x="43.9" y="42.2" width="3.2" height="35.1"></rect>
    <rect x="78.6" y="42.2" width="3.2" height="35.1"></rect>
    <rect x="26.6" y="71.2" width="3.2" height="6.1"></rect>
  </g>
</svg>