<svg xmlns="http://www.w3.org/2000/svg" viewBox="0 0 395.734 395.734" enable-background="new 0 0 395.734 395.734" width="80"><path fill="#fff" d="M333.2 62.5c-74.8-74.8-195.96-74.8-270.75 0s-74.8 195.94 0 270.74c67.36 67.42 172.48 74.2 247.27 19.78l62.45 19.13-19.2-62.38c54.43-74.8 47.64-179.9-19.78-247.27z"/><g fill="#193651"><path d="M337.52 58.17C300.42 20.47 250.38.05 197.82.05c-53.14 0-102.6 20.43-140.35 58.12C20.43 95.27 0 145.3 0 197.87s20.43 102.6 58.12 139.7c37.1 37.1 87.14 58.1 139.7 58.1 40.8 0 79.77-12.33 113.13-35.86l70.46 21.66L359.77 311c55-78.55 46.4-184.83-22.24-252.83zm25.34 304.74l-54.43-16.67-2.46 1.88c-31.55 22.9-69.23 35.24-108.15 35.24-49.46 0-95.8-19.14-131.04-54.37-35.23-35.3-54.43-81.65-54.43-131.1s19.13-95.8 54.43-131.04 81.58-54.37 131.04-54.37 95.8 19.14 131.04 54.43c64.9 64.9 72.92 165.68 19.13 239.25l-1.88 2.46 16.74 54.3zM197.82 362.9c-4.33 0-8.66 0-13-.64l1.23-12.34c3.7 0 8.02.64 11.77.64v12.35zm13-.57l-1.24-12.35c3.7 0 8.02-.65 11.77-1.23l1.88 12.35c-3.75.58-8.1 1.23-12.42 1.23zm-39-1.23c-4.32-.65-8.65-1.23-12.98-2.46l3.1-11.76c3.68.64 8.02 1.87 11.77 2.45l-1.87 11.77zm64.33-2.52l-2.45-12.35c3.68-.65 8-1.87 11.76-3.1l3.7 11.76c-4.34 1.22-8.67 2.45-13 3.68zm-89.66-3.7c-4.34-1.22-8.03-3.1-12.36-4.32l4.92-11.12c3.68 1.23 7.43 3.1 11.1 4.33l-3.67 11.12zm114.35-4.32l-4.92-11.12c3.7-1.23 7.44-3.1 11.12-4.9l5.56 11.1c-3.67 1.24-7.42 3.05-11.75 4.92zM122.38 345c-3.7-1.87-7.44-4.33-11.12-6.2l6.2-10.54c3.1 1.87 6.8 4.33 10.54 5.56L122.38 345zm161.35-6.2l-6.2-10.54c3.1-1.88 6.8-4.33 9.9-6.8l7.42 9.9c-3.68 2.52-7.37 4.98-11.12 7.44zm-182.95-7.44c-3.68-2.45-6.78-4.98-9.9-8l8.03-9.26c3.1 2.46 6.2 4.98 9.25 7.44l-7.37 9.82zm203.96-8l-8-9.26c3.1-2.46 6.2-5.56 8.65-8l9.23 8.65-.64.64c-2.4 2.4-5.5 5.5-9.26 7.95zM81 314.67c-3.68-3.68-6.2-6.8-9.24-9.9l9.24-8c2.46 3.1 5.56 6.2 8.02 8.66L81 314.68zm242.94-9.9l-9.9-8c2.47-3.1 4.92-6.2 7.45-9.25l9.88 7.44c-2.52 3.03-4.98 6.72-7.44 9.82zM64.26 294.9c-2.46-3.68-4.98-7.43-7.43-10.54l10.53-6.2c1.88 3.1 4.33 6.8 6.8 9.9l-9.9 6.84zm274.5-11.12l-10.55-6.2c1.9-3.7 4.34-6.8 5.57-10.54l11.12 5.56c-1.82 3.75-3.63 7.5-6.15 11.18zM50.67 273.3c-1.87-3.68-3.68-8-5.56-11.76l11.12-4.9c1.23 3.68 3.1 7.42 4.98 11.1l-10.54 5.57zm299.83-12.4l-11.75-4.92c1.22-3.68 3.1-7.43 4.33-11.12l11.76 3.7c-1.22 4.32-2.45 8-4.33 12.34zM40.8 249.2c-1.24-4.33-2.47-8.02-3.7-12.35l11.77-3.1c.65 3.68 1.88 8 3.1 11.76l-11.18 3.7zm317.73-13l-12.35-3.1c.65-3.7 1.88-8.02 2.46-11.77L361 223.2c-.6 4.34-1.82 8.67-2.47 13zM34.6 223.86c-.66-4.34-1.24-8.67-1.24-13l12.35-1.23c.65 3.7.65 8.02 1.23 11.77l-12.34 2.45zm327.68-13.65l-12.35-1.2c0-3.7.65-8.03.65-11.78l12.35-.64v1.22c-.07 4.4-.07 8.73-.65 12.4zM32.13 197.88c0-4.33 0-8.67.64-13l12.35 1.23c0 3.7-.64 8.02-.64 11.77H32.13zm317.74-12.35c-.65-3.69-.65-8.02-1.23-11.77l12.35-1.87c.63 4.33 1.2 8.66 1.2 13l-12.33.64zM46.35 174.4L34 172.52c.65-4.33 1.23-8.66 2.46-13l11.77 3.1c0 3.7-1.23 7.45-1.88 11.78zM346.18 162c-1.23-3.7-1.87-8.03-3.1-11.78l11.77-3.68c1.22 4.33 2.45 8 3.68 12.34l-12.35 3.1zM51.9 150.86l-11.75-3.7c1.22-4.32 3.1-8 4.33-12.33l11.12 4.9c-.6 3.76-2.46 7.44-3.7 11.13zm286.85-11.7c-1.23-3.7-3.1-7.44-4.92-11.12l11.12-5.56c1.88 3.67 3.7 8 5.56 11.76l-11.75 4.9zM61.22 128.63l-11.12-5.56c1.88-3.68 4.33-7.43 6.2-11.12l10.54 6.2c-1.94 3.05-3.8 6.8-5.62 10.48zm266.4-11.12c-1.87-3.1-4.32-6.78-6.78-9.88l9.9-7.43c2.45 3.67 4.9 6.77 7.42 10.52l-10.53 6.8zm-254.05-9.3l-9.9-7.43c2.46-3.7 4.98-6.8 8.02-9.9l9.24 8.02c-2.46 2.52-4.92 6.26-7.37 9.3zm240.48-9.9c-2.45-3.1-4.9-5.55-8-8.65l4.32-4.33L314.7 81c3.1 3.1 6.2 6.2 8.66 9.23l-9.3 8.08zM89.67 89.7l-4.34-4.32L81 81.05c3.1-3.1 6.2-6.2 9.25-8.66l8 9.23c-3.03 2.52-6.13 5.56-8.58 8.08zm207.06-8.07c-3.1-2.45-6.2-4.9-9.25-7.43l7.44-9.9c3.68 2.46 6.78 4.92 9.9 8.02l-8.1 9.3zm-189.16-7.37l-7.43-9.9c3.68-2.44 6.8-4.97 10.54-7.42l6.2 10.54c-2.52 2.45-6.2 4.26-9.3 6.78zM277.6 67.4c-3.1-1.87-6.8-4.32-10.55-5.55l5.56-11.12c3.7 1.88 7.45 4.33 11.13 6.2l-6.14 10.48zm-149.67-5.55l-5.56-11.12c3.7-1.87 8.02-3.68 11.77-5.56l4.9 11.12c-3.67 1.87-7.35 3.74-11.1 5.55zm128-5.56c-3.68-1.24-7.43-3.1-11.1-4.34l3.67-11.77c4.33 1.22 8.02 3.1 12.35 4.32l-4.92 11.77zm-105.7-3.7l-3.68-11.76c4.33-1.23 8.02-2.46 12.35-3.69L162 49.5c-4.4.65-8.08 1.88-11.76 3.1zm82.82-3.74c-3.68-.65-8.02-1.88-11.77-2.46l1.88-12.35c4.33.65 8.66 1.23 13 2.46l-3.1 12.36zm-59.34-1.8l-1.87-12.36c4.33-.65 8.66-1.23 13-1.23l1.22 12.35c-4.33 0-8.66.58-12.34 1.23zm35.88-1.9c-3.68 0-8-.63-11.76-.63V32.18c4.33 0 8.66 0 13 .64l-1.24 12.35z"/></g><path fill="#FDBF5E" d="M286.84 287.53c-49.46 49.46-129.23 49.46-178.7 0s-49.44-129.23 0-178.68 129.24-49.46 178.7 0c49.45 48.8 49.45 129.23 0 178.68z"/><g fill="#fff"><path d="M177.4 168.2h40.2v115h-40.2zM197.82 149.06c-11.12 0-20.43-9.25-20.43-20.43 0-11.12 9.23-20.43 20.42-20.43 11.12 0 20.43 9.25 20.43 20.43-.65 11.12-9.3 20.43-20.43 20.43z"/></g><g fill="#193651"><path d="M197.82 155.2c-14.22 0-26.57-11.77-26.57-26.57 0-14.22 11.76-26.57 26.57-26.57 14.22 0 26.57 11.77 26.57 26.57-.6 14.87-12.36 26.57-26.58 26.57zm0-40.14c-7.44 0-14.22 6.2-14.22 14.22 0 7.43 6.2 14.22 14.22 14.22 7.43 0 14.22-6.2 14.22-14.22-.65-8.08-6.8-14.22-14.22-14.22zM223.8 277V162H159.5v12.33h11.77v115h71.1V277h-18.54zm-12.4 0h-27.8V174.4h27.8V277z"/></g></svg>