<svg xmlns="http://www.w3.org/2000/svg" viewBox="0 0 511.998 511.998" enable-background="new 0 0 511.998 511.998"><g fill="#DB380E"><path d="M253.46 94.87c-23.65 16.64-50.47 35.5-64.83 66.7-24.96 54.43 51.06 113.8 54.3 116.3.76.6 1.67.88 2.57.88.95 0 1.9-.33 2.7-.98 1.5-1.26 1.93-3.4 1.02-5.15-.27-.53-27.56-53.53-26.55-91.55.36-13.24 18.9-28.27 38.52-44.17 17.96-14.57 38.33-31.08 50.24-50.4 26.17-42.5-2.9-84.32-3.2-84.74-1.16-1.62-3.3-2.2-5.12-1.4-1.82.8-2.83 2.77-2.4 4.7.05.3 5.7 27.94-10.04 56.42-6.48 11.77-20.72 21.8-37.22 33.4zM353.14 113.62c1.67-1.26 2.16-3.55 1.15-5.38-1.02-1.83-3.22-2.64-5.18-1.9-4.02 1.53-98.4 37.92-98.4 81.88 0 30.3 12.93 46.32 22.38 58 3.7 4.6 6.9 8.56 7.97 11.94 2.97 9.74-4.07 27.35-7.03 33.3-.85 1.73-.43 3.8 1.02 5.06.78.68 1.76 1.02 2.74 1.02.84 0 1.67-.25 2.4-.75 1.62-1.14 39.67-28.04 32.84-60.45-2.54-12.3-8.6-21.3-13.93-29.25-8.27-12.3-14.24-21.2-5.18-37.6 10.63-19.16 58.73-55.52 59.22-55.88z"/></g><g fill="#73A1FB"><path d="M107.42 298.24c-1.62 4.84-.86 9.65 2.2 13.9 10.24 14.2 46.48 22.03 102.07 22.03 7.53 0 15.48-.15 23.63-.44 88.87-3.18 121.84-30.87 123.2-32.05 1.48-1.28 1.88-3.42.95-5.14-.92-1.73-2.9-2.6-4.8-2.08-31.3 8.55-89.75 11.58-130.3 11.58-45.35 0-68.46-3.27-74.1-5.68 2.9-3.98 20.8-11.1 42.97-15.46 2.12-.42 3.58-2.38 3.37-4.53s-2.02-3.8-4.18-3.8c-13 0-78.2 1.06-85.02 21.67zM404.8 269.72c-18.32 0-35.7 9.2-36.43 9.57-1.7.9-2.56 2.85-2.1 4.72.47 1.86 2.15 3.17 4.07 3.17.4 0 39.1.3 42.6 22.43 3.12 19.08-36.62 50-52.2 60.3-1.67 1.12-2.33 3.27-1.54 5.13.66 1.58 2.2 2.57 3.86 2.57.3 0 .6-.03.88-.1 3.7-.78 90.4-19.9 81.24-70.38-5.6-30.94-25.04-37.43-40.37-37.43zM345.35 363.75c.3-1.6-.37-3.26-1.72-4.2l-20.8-14.57c-1-.7-2.3-.93-3.48-.6-.2.04-21.96 5.76-53.52 9.26-12.53 1.4-26.56 2.15-40.58 2.15-31.56 0-52.2-3.72-55.2-6.44-.4-.76-.27-1.1-.2-1.3.55-1.52 3.47-3.32 5.36-4.04 2.1-.77 3.2-3.03 2.57-5.15-.65-2.13-2.84-3.38-5-2.86-20.86 5.04-31.06 12.08-30.32 20.92 1.32 15.7 37.65 23.74 68.37 25.87 4.42.3 9.2.44 14.2.44 51.08 0 116.55-16.02 117.2-16.18 1.6-.4 2.82-1.7 3.13-3.3zM188.6 397.42c1.58-1.03 2.28-2.97 1.72-4.77-.56-1.8-2.24-2.97-4.12-2.94-2.8.08-27.35 1.2-29.07 16.82-.52 4.68.82 8.94 3.98 12.7 8.83 10.44 32.62 16.65 72.75 18.97 4.75.28 9.57.42 14.33.42 51.02 0 85.38-15.97 86.82-16.65 1.4-.66 2.3-2.03 2.4-3.57s-.7-3-2-3.8l-26.28-16.05c-.92-.55-2-.74-3.05-.53-.16.04-16.85 3.5-42.02 6.92-4.77.65-10.73.97-17.73.97-25.15 0-53.13-4.1-58.5-6.8-.07-.5.03-1.13.78-1.68zM224.4 486.85c116.86-.1 179.58-20.88 191.66-33.96 4.28-4.63 4.74-9 4.38-11.87-.9-7.04-7.3-11.35-8.04-11.82-1.76-1.12-4.1-.82-5.48.75-1.36 1.58-1.4 3.9-.02 5.46.73.96 1.16 2.55-1 4.7-4.83 4.52-53.54 18.2-134.65 22.32-11.1.58-22.77.88-34.64.88-72.6 0-125.76-9.95-132.74-15.75 2.7-3.86 21.5-10.03 41.48-13.53 2.26-.4 3.78-2.5 3.43-4.77-.35-2.26-2.43-3.82-4.7-3.52-.57.08-2.5.2-4.7.33-33 2-71.1 6.5-73.1 23.5-.6 5.17.93 9.88 4.58 13.97 8.9 10 34.5 23.32 153.55 23.32zM439 456.58c-1.64-.77-3.6-.38-4.82.95-.17.18-17.74 18.56-70.57 29.34-20.2 4.06-58.17 6.1-112.8 6.1-54.76 0-106.85-2.14-107.37-2.17-2.18-.1-4.04 1.48-4.33 3.62-.3 2.14 1.08 4.16 3.18 4.66.54.13 55.14 12.92 129.78 12.92 35.8 0 70.64-2.9 103.55-8.65 61.37-10.75 65.66-41.18 65.82-42.47.2-1.8-.76-3.54-2.4-4.3z"/></g></svg>