<svg version="1.1" id="Layer_1" xmlns="http://www.w3.org/2000/svg" xmlns:xlink="http://www.w3.org/1999/xlink" x="0px" y="0px" viewBox="0 0 400 372.562" enable-background="new 0 0 400 372.562" xml:space="preserve" width="140" height="140">
                                            <g>
                                                <path fill="#DCE7E8" d="M350.632,133.226H47.779c-4.258,0-7.742,3.484-7.742,7.742v196.717c0,4.258,3.484,7.742,7.742,7.742
                                                    h302.853c4.258,0,7.742-3.484,7.742-7.742V140.968C358.375,136.71,354.89,133.226,350.632,133.226z"/>
                                                <rect x="53.562" y="146.474" fill="#606DB3" width="291.287" height="185.704"/>
                                                <g>
                                                    <path fill="#BDCCD3" d="M1,347.653c0,11.362,9.296,20.658,20.658,20.658h355.096c11.362,0,20.658-9.296,20.658-20.658v-2.754H1
                                                        V347.653z"/>
                                                </g>
                                                <g>
                                                    <path fill="#FFFFFF" d="M299.469,312.04c-2.874,0-5.61,0.57-8.122,1.58c-5.495-10.746-16.667-18.108-29.566-18.108
                                                        c-0.228,0-0.453,0.013-0.68,0.017c-2.743-12.092-13.548-21.122-26.47-21.122c-5.826,0-11.218,1.841-15.641,4.964v-58.867h-9.579
                                                        c-4.403,18.038-8.663,35.014-8.663,35.014s-4.26-16.976-8.662-35.014h-9.579v41.262c-4.771-2.524-10.207-3.96-15.981-3.96
                                                        c-17.41,0-31.773,13.002-33.935,29.824c-4.623-1.954-9.705-3.035-15.04-3.035c-18.13,0-33.338,12.484-37.513,29.323
                                                        c-7.628,3.146-13.338,9.971-14.955,18.261h89.055h14.669h33.475h13.163h5.267h12.788h52.092h11.284h2.82h9.733h11.762
                                                        C320.335,320.917,310.949,312.04,299.469,312.04z M120.017,317.728c-0.495,0.295-1.039,0.434-1.576,0.434
                                                        c-1.058,0-2.088-0.542-2.667-1.517c-0.36-0.609-1.207-1.241-2.385-1.581h-3.566c-1.179,0.339-2.025,0.972-2.385,1.581
                                                        c-0.872,1.47-2.771,1.96-4.243,1.083c-1.471-0.873-1.957-2.772-1.084-4.243c1.781-3.002,5.419-4.866,9.496-4.866
                                                        c4.077,0,7.715,1.865,9.496,4.866C121.974,314.956,121.489,316.856,120.017,317.728z M187.276,303.695
                                                        c-0.411,0.184-0.842,0.272-1.266,0.272c-1.183,0-2.312-0.682-2.828-1.831c-0.198-0.443-0.444-0.853-0.683-1.268h-24.403
                                                        c-0.239,0.415-0.485,0.825-0.683,1.268c-0.7,1.562-2.532,2.259-4.094,1.559c-1.561-0.7-2.258-2.533-1.559-4.094
                                                        c3.275-7.302,10.55-12.02,18.538-12.02c7.987,0,15.263,4.718,18.537,12.02C189.534,301.162,188.836,302.995,187.276,303.695z
                                                         M262.711,317.09c-0.411,0.184-0.842,0.272-1.266,0.272c-1.182,0-2.312-0.682-2.828-1.831c-0.208-0.465-0.481-0.887-0.797-1.267
                                                        h-8.464c-0.316,0.38-0.589,0.802-0.797,1.267c-0.701,1.561-2.535,2.259-4.094,1.559c-1.561-0.7-2.258-2.533-1.559-4.094
                                                        c1.886-4.207,6.079-6.924,10.681-6.924c4.603,0,8.796,2.717,10.682,6.924C264.969,314.557,264.271,316.39,262.711,317.09z"/>
                                                    <path fill="#F15A53" d="M238.941,228.39c2.571,7.288,3.873,14.778,4.038,22.172c27.23-14.757,40.137-50.473,28.896-82.353
                                                        c-4.411-12.517-11.929-22.662-21.185-29.796c-1.483,30.929-9.412,56.782-19.449,74.616
                                                        C234.348,217.637,236.961,222.771,238.941,228.39z"/>
                                                    <path fill="#F15A53" d="M150.799,138.291c-9.317,7.176-16.869,17.405-21.264,30.023c-11.124,31.917,1.91,67.589,29.194,82.246
                                                        c0.136-7.393,1.415-14.889,3.957-22.186c1.953-5.605,4.535-10.731,7.611-15.336h-0.037
                                                        C160.207,195.181,152.268,169.28,150.799,138.291z"/>
                                                    <path fill="#BDCBD3" d="M194.434,7.141c0.2-0.249,0.394-0.485,0.586-0.719C194.827,6.656,194.633,6.892,194.434,7.141z"/>
                                                    <path fill="#BDCBD3" d="M188.736,14.858c0.195-0.284,0.391-0.567,0.583-0.843C189.127,14.29,188.931,14.574,188.736,14.858z"/>
                                                    <path fill="#BDCBD3" d="M193.576,8.224c0.171-0.219,0.338-0.429,0.505-0.639C193.914,7.795,193.747,8.005,193.576,8.224z"/>
                                                    <path fill="#BDCBD3" d="M189.777,13.363c0.185-0.262,0.37-0.524,0.552-0.778C190.147,12.839,189.962,13.1,189.777,13.363z"/>
                                                    <path fill="#BDCBD3" d="M190.783,11.953c0.178-0.246,0.354-0.489,0.529-0.727C191.137,11.464,190.961,11.706,190.783,11.953z"/>
                                                    <path fill="#BDCBD3" d="M191.748,10.632c0.175-0.236,0.348-0.468,0.52-0.696C192.096,10.165,191.923,10.396,191.748,10.632z"/>
                                                    <path fill="#BDCBD3" d="M192.68,9.389c0.172-0.226,0.34-0.445,0.508-0.663C193.02,8.944,192.851,9.163,192.68,9.389z"/>
                                                    <path fill="#BDCBD3" d="M199.36,1.79c0.092-0.075,0.178-0.143,0.263-0.208C199.537,1.647,199.451,1.714,199.36,1.79z"/>
                                                    <path fill="#BDCBD3" d="M198.299,2.76c0.113-0.111,0.223-0.218,0.33-0.319C198.522,2.541,198.412,2.649,198.299,2.76z"/>
                                                    <path fill="#BDCBD3" d="M195.244,6.147c0.263-0.317,0.52-0.621,0.768-0.911C195.763,5.527,195.507,5.83,195.244,6.147z"/>
                                                    <path fill="#BDCBD3" d="M198.86,2.225c0.1-0.092,0.197-0.178,0.292-0.259C199.058,2.048,198.961,2.134,198.86,2.225z"/>
                                                    <path fill="#BDCBD3" d="M196.227,4.991c0.173-0.2,0.346-0.398,0.512-0.584C196.573,4.593,196.401,4.791,196.227,4.991z"/>
                                                    <path fill="#BDCBD3" d="M197.003,4.117c0.142-0.156,0.283-0.311,0.419-0.456C197.286,3.806,197.145,3.961,197.003,4.117z"/>
                                                    <path fill="#BDCBD3" d="M197.682,3.388c0.125-0.131,0.25-0.261,0.369-0.382C197.932,3.127,197.807,3.256,197.682,3.388z"/>
                                                    <path fill="#BDCBD3" d="M172.805,42.154c0.281-0.566,0.563-1.123,0.845-1.68C173.368,41.031,173.086,41.588,172.805,42.154z"/>
                                                    <path fill="#BDCBD3" d="M176.851,34.371c0.23-0.424,0.46-0.849,0.69-1.267C177.311,33.522,177.081,33.947,176.851,34.371z"/>
                                                    <path fill="#BDCBD3" d="M178.073,32.146c0.221-0.397,0.442-0.794,0.662-1.185C178.514,31.352,178.294,31.748,178.073,32.146z"/>
                                                    <path fill="#BDCBD3" d="M175.541,36.818c0.273-0.517,0.545-1.033,0.818-1.54C176.086,35.786,175.814,36.301,175.541,36.818z"/>
                                                    <path fill="#BDCBD3" d="M179.262,30.032c0.219-0.384,0.438-0.767,0.656-1.145C179.7,29.265,179.481,29.647,179.262,30.032z"/>
                                                    <path fill="#BDCBD3" d="M170.457,47.012c0.221-0.471,0.443-0.936,0.666-1.402C170.901,46.075,170.679,46.541,170.457,47.012z"/>
                                                    <path fill="#BDCBD3" d="M173.992,39.796c0.391-0.766,0.783-1.524,1.175-2.273C174.776,38.272,174.384,39.029,173.992,39.796z"/>
                                                    <path fill="#BDCBD3" d="M171.632,44.548c0.236-0.488,0.473-0.97,0.71-1.452C172.105,43.578,171.868,44.06,171.632,44.548z"/>
                                                    <path fill="#BDCBD3" d="M187.644,16.462c0.213-0.317,0.427-0.635,0.637-0.943C188.071,15.827,187.858,16.144,187.644,16.462z"/>
                                                    <path fill="#BDCBD3" d="M183.915,22.22c0.243-0.39,0.484-0.77,0.725-1.151C184.399,21.45,184.158,21.83,183.915,22.22z"/>
                                                    <path fill="#BDCBD3" d="M180.446,27.976c0.217-0.372,0.433-0.74,0.649-1.106C180.879,27.236,180.663,27.604,180.446,27.976z"/>
                                                    <path fill="#BDCBD3" d="M186.315,18.463c0.303-0.463,0.604-0.92,0.902-1.367C186.919,17.543,186.618,18.001,186.315,18.463z"/>
                                                    <path fill="#BDCBD3" d="M185.039,20.437c0.354-0.555,0.705-1.099,1.052-1.633C185.744,19.338,185.393,19.883,185.039,20.437z"/>
                                                    <path fill="#BDCBD3" d="M181.618,25.987c0.218-0.366,0.436-0.727,0.653-1.086C182.054,25.26,181.837,25.621,181.618,25.987z"/>
                                                    <path fill="#BDCBD3" d="M182.771,24.076c0.226-0.371,0.451-0.734,0.675-1.097C183.222,23.341,182.997,23.705,182.771,24.076z"/>
                                                    <path fill="#BDCBD3" d="M200.18,1.202c0.078-0.044,0.146-0.074,0.215-0.104C200.326,1.127,200.258,1.158,200.18,1.202z"/>
                                                    <path fill="#BDCBD3" d="M199.8,1.448c0.083-0.059,0.159-0.108,0.235-0.156C199.959,1.34,199.883,1.389,199.8,1.448z"/>
                                                    <path fill="#BDCBD3" d="M182.506,204.786h5.779c-3.21-13.431-5.779-24.694-5.779-26.335c0-15.458,8.167-27.989,18.242-27.989
                                                        c10.075,0,18.242,12.531,18.242,27.989c0,1.641-2.569,12.903-5.779,26.335h5.779v8.252h7.242h5.004
                                                        c0.002-0.003,0.004-0.007,0.006-0.01c10.037-17.834,17.966-43.687,19.449-74.616c0.164-3.429,0.253-6.918,0.253-10.468
                                                        c0-29.484-9.175-57.993-19.704-80.502c-9.056,2.553-19.446,4.004-30.492,4.004c-10.996,0-21.341-1.438-30.368-3.969l0.367-0.055
                                                        l-0.481,0c-10.534,22.513-19.714,51.03-19.714,80.523c0,3.508,0.086,6.956,0.247,10.346c1.469,30.989,9.408,56.89,19.461,74.748
                                                        h0.037h4.966h7.242V204.786z M200.707,85.469c12.487-0.022,22.629,10.083,22.653,22.57c0.022,12.488-10.084,22.63-22.572,22.653
                                                        c-12.486,0.02-22.627-10.083-22.651-22.57C178.115,95.633,188.219,85.493,200.707,85.469z"/>
                                                    <path fill="#BDCBD3" d="M200.496,1.052C200.591,1.019,200.676,1,200.748,1C200.676,1,200.591,1.019,200.496,1.052z"/>
                                                    <path fill="#BDCBD3" d="M218.99,213.039v-8.252h-5.779c-0.641,2.684-1.308,5.455-1.986,8.252H218.99z"/>
                                                    <path fill="#BDCBD3" d="M182.506,204.786v8.252h7.764c-0.677-2.798-1.344-5.569-1.986-8.252H182.506z"/>
                                                    <polygon fill="#A4B8C1" points="175.264,213.039 177.581,220.504 182.506,220.504 182.506,213.039 		"/>
                                                    <polygon fill="#A4B8C1" points="218.99,220.504 223.915,220.504 226.232,213.039 218.99,213.039 		"/>
                                                    <path fill="#A4B8C1" d="M190.271,213.039h-7.764v7.465h9.579C191.48,218.022,190.871,215.52,190.271,213.039z"/>
                                                    <path fill="#A4B8C1" d="M211.226,213.039c-0.601,2.481-1.209,4.983-1.815,7.465h9.579v-7.465H211.226z"/>
                                                    <path fill="#FFFFFF" d="M200.788,130.692c12.488-0.023,22.594-10.165,22.572-22.653c-0.023-12.487-10.166-22.591-22.653-22.57
                                                        c-12.488,0.024-22.592,10.165-22.57,22.653C178.16,120.608,188.302,130.712,200.788,130.692z M200.722,93.893
                                                        c7.835-0.014,14.199,6.326,14.214,14.161c0.014,7.836-6.327,14.199-14.163,14.214c-7.834,0.013-14.198-6.327-14.212-14.162
                                                        C186.547,100.27,192.887,93.908,200.722,93.893z"/>
                                                    <path fill="#F15A53" d="M183.446,22.978c0.156-0.253,0.313-0.509,0.469-0.758C183.759,22.47,183.602,22.725,183.446,22.978z"/>
                                                    <path fill="#F15A53" d="M187.217,17.096c0.144-0.216,0.285-0.423,0.427-0.635C187.502,16.673,187.361,16.881,187.217,17.096z"/>
                                                    <path fill="#F15A53" d="M199.152,1.966c0.07-0.061,0.14-0.121,0.207-0.176C199.292,1.845,199.223,1.905,199.152,1.966z"/>
                                                    <path fill="#F15A53" d="M186.091,18.805c0.075-0.115,0.149-0.227,0.224-0.341C186.24,18.578,186.166,18.689,186.091,18.805z"/>
                                                    <path fill="#F15A53" d="M182.271,24.901c0.167-0.276,0.334-0.553,0.5-0.825C182.605,24.348,182.438,24.625,182.271,24.901z"/>
                                                    <path fill="#F15A53" d="M184.64,21.069c0.133-0.21,0.267-0.425,0.4-0.632C184.907,20.644,184.773,20.859,184.64,21.069z"/>
                                                    <path fill="#F15A53" d="M173.65,40.474c0.114-0.225,0.228-0.454,0.342-0.678C173.878,40.019,173.765,40.248,173.65,40.474z"/>
                                                    <path fill="#F15A53" d="M172.342,43.096c0.154-0.314,0.308-0.631,0.463-0.942C172.65,42.466,172.496,42.782,172.342,43.096z"/>
                                                    <path fill="#F15A53" d="M188.281,15.518c0.153-0.224,0.303-0.441,0.454-0.661C188.585,15.077,188.434,15.294,188.281,15.518z"/>
                                                    <path fill="#F15A53" d="M175.168,37.523c0.124-0.238,0.249-0.469,0.373-0.705C175.417,37.054,175.292,37.285,175.168,37.523z"/>
                                                    <path fill="#F15A53" d="M170.262,47.422h0.004c0.064-0.137,0.127-0.275,0.191-0.411C170.392,47.15,170.327,47.284,170.262,47.422z
                                                        "/>
                                                    <path fill="#F15A53" d="M171.123,45.61c0.169-0.355,0.339-0.711,0.509-1.062C171.462,44.9,171.292,45.255,171.123,45.61z"/>
                                                    <path fill="#F15A53" d="M181.095,26.87c0.175-0.296,0.349-0.591,0.523-0.883C181.444,26.279,181.27,26.574,181.095,26.87z"/>
                                                    <path fill="#F15A53" d="M179.918,28.887c0.177-0.306,0.353-0.609,0.528-0.911C180.27,28.278,180.094,28.581,179.918,28.887z"/>
                                                    <path fill="#F15A53" d="M178.735,30.961c0.176-0.312,0.352-0.621,0.527-0.929C179.086,30.34,178.911,30.649,178.735,30.961z"/>
                                                    <path fill="#F15A53" d="M176.359,35.278c0.164-0.305,0.328-0.604,0.492-0.906C176.687,34.674,176.523,34.972,176.359,35.278z"/>
                                                    <path fill="#F15A53" d="M177.541,33.105c0.177-0.323,0.355-0.64,0.532-0.959C177.895,32.465,177.718,32.782,177.541,33.105z"/>
                                                    <path fill="#F15A53" d="M191.312,11.225c0.146-0.2,0.292-0.398,0.436-0.593C191.604,10.827,191.458,11.025,191.312,11.225z"/>
                                                    <path fill="#F15A53" d="M196.739,4.407c0.09-0.101,0.176-0.193,0.264-0.29C196.915,4.214,196.829,4.306,196.739,4.407z"/>
                                                    <path fill="#F15A53" d="M194.081,7.585c0.118-0.148,0.238-0.301,0.353-0.444C194.318,7.284,194.198,7.437,194.081,7.585z"/>
                                                    <path fill="#F15A53" d="M196.012,5.237c0.074-0.086,0.143-0.163,0.215-0.246C196.154,5.074,196.086,5.151,196.012,5.237z"/>
                                                    <path fill="#F15A53" d="M195.02,6.421c0.074-0.09,0.151-0.186,0.224-0.274C195.171,6.235,195.094,6.331,195.02,6.421z"/>
                                                    <polygon fill="#F15A53" points="231.242,47.442 231.239,47.442 231.24,47.443 		"/>
                                                    <path fill="#F15A53" d="M200.395,1.098c0.033-0.014,0.071-0.035,0.102-0.046C200.465,1.063,200.428,1.083,200.395,1.098z"/>
                                                    <path fill="#F15A53" d="M198.051,3.006c0.085-0.086,0.166-0.166,0.248-0.247C198.217,2.84,198.136,2.92,198.051,3.006z"/>
                                                    <path fill="#F15A53" d="M199.622,1.582c0.06-0.046,0.121-0.093,0.178-0.134C199.743,1.489,199.682,1.536,199.622,1.582z"/>
                                                    <path fill="#F15A53" d="M197.421,3.661c0.089-0.095,0.174-0.183,0.26-0.273C197.595,3.478,197.511,3.566,197.421,3.661z"/>
                                                    <path fill="#F15A53" d="M200.035,1.293c0.049-0.031,0.1-0.065,0.145-0.091C200.134,1.227,200.083,1.262,200.035,1.293z"/>
                                                    <path fill="#F15A53" d="M198.629,2.441c0.079-0.075,0.156-0.146,0.232-0.215C198.785,2.295,198.708,2.366,198.629,2.441z"/>
                                                    <path fill="#F15A53" d="M192.268,9.936c0.138-0.184,0.276-0.368,0.412-0.547C192.544,9.568,192.406,9.752,192.268,9.936z"/>
                                                    <path fill="#F15A53" d="M189.319,14.014c0.154-0.221,0.306-0.436,0.458-0.652C189.625,13.578,189.473,13.793,189.319,14.014z"/>
                                                    <path fill="#F15A53" d="M190.329,12.584c0.153-0.214,0.304-0.424,0.454-0.632C190.632,12.161,190.482,12.37,190.329,12.584z"/>
                                                    <path fill="#F15A53" d="M193.188,8.726c0.13-0.168,0.261-0.339,0.388-0.502C193.449,8.387,193.318,8.558,193.188,8.726z"/>
                                                    <path fill="#F15A53" d="M170.38,47.477c9.027,2.531,19.372,3.969,30.368,3.969c11.046,0,21.435-1.451,30.492-4.004l0-0.001
                                                        C218.236,19.645,203.166,1,200.748,1c-0.072,0-0.157,0.019-0.252,0.052c-0.031,0.011-0.069,0.032-0.102,0.046
                                                        c-0.068,0.029-0.137,0.06-0.215,0.104c-0.046,0.026-0.096,0.06-0.145,0.091c-0.075,0.048-0.152,0.096-0.235,0.156
                                                        c-0.057,0.041-0.118,0.088-0.178,0.134c-0.085,0.065-0.171,0.132-0.263,0.208c-0.067,0.055-0.137,0.116-0.207,0.176
                                                        c-0.094,0.082-0.191,0.168-0.292,0.259c-0.076,0.069-0.153,0.14-0.232,0.215c-0.107,0.101-0.217,0.208-0.33,0.319
                                                        c-0.082,0.081-0.163,0.161-0.248,0.247c-0.119,0.121-0.244,0.25-0.369,0.382c-0.086,0.09-0.171,0.178-0.26,0.273
                                                        c-0.135,0.144-0.277,0.3-0.419,0.456c-0.088,0.097-0.173,0.189-0.264,0.29c-0.166,0.185-0.339,0.384-0.512,0.584
                                                        c-0.072,0.083-0.141,0.16-0.215,0.246c-0.249,0.29-0.505,0.593-0.768,0.911c-0.073,0.088-0.15,0.184-0.224,0.274
                                                        c-0.193,0.234-0.387,0.471-0.586,0.719c-0.115,0.144-0.235,0.296-0.353,0.444c-0.167,0.21-0.333,0.42-0.505,0.639
                                                        c-0.128,0.163-0.258,0.334-0.388,0.502c-0.168,0.218-0.336,0.437-0.508,0.663c-0.136,0.179-0.274,0.363-0.412,0.547
                                                        c-0.172,0.229-0.345,0.46-0.52,0.696c-0.144,0.195-0.29,0.393-0.436,0.593c-0.175,0.238-0.351,0.481-0.529,0.727
                                                        c-0.151,0.208-0.301,0.418-0.454,0.632c-0.182,0.255-0.367,0.516-0.552,0.778c-0.152,0.216-0.304,0.431-0.458,0.652
                                                        c-0.192,0.276-0.388,0.559-0.583,0.843c-0.151,0.22-0.301,0.436-0.454,0.661c-0.21,0.308-0.424,0.626-0.637,0.943
                                                        c-0.142,0.212-0.283,0.419-0.427,0.635c-0.298,0.447-0.599,0.904-0.902,1.367c-0.075,0.114-0.149,0.226-0.224,0.341
                                                        c-0.348,0.534-0.699,1.078-1.052,1.633c-0.132,0.207-0.266,0.422-0.4,0.632c-0.241,0.38-0.481,0.761-0.725,1.151
                                                        c-0.156,0.249-0.313,0.505-0.469,0.758c-0.224,0.363-0.449,0.727-0.675,1.097c-0.166,0.272-0.333,0.549-0.5,0.825
                                                        c-0.217,0.359-0.435,0.72-0.653,1.086c-0.174,0.292-0.349,0.587-0.523,0.883c-0.216,0.366-0.432,0.734-0.649,1.106
                                                        c-0.176,0.302-0.352,0.605-0.528,0.911c-0.218,0.378-0.437,0.761-0.656,1.145c-0.176,0.308-0.351,0.617-0.527,0.929
                                                        c-0.22,0.391-0.441,0.788-0.662,1.185c-0.177,0.319-0.354,0.636-0.532,0.959c-0.23,0.418-0.46,0.842-0.69,1.267
                                                        c-0.164,0.302-0.328,0.601-0.492,0.906c-0.273,0.508-0.545,1.024-0.818,1.54c-0.125,0.236-0.249,0.467-0.373,0.705
                                                        c-0.392,0.749-0.784,1.506-1.175,2.273c-0.114,0.224-0.228,0.453-0.342,0.678c-0.282,0.557-0.564,1.115-0.845,1.68
                                                        c-0.155,0.311-0.309,0.628-0.463,0.942c-0.237,0.482-0.474,0.964-0.71,1.452c-0.17,0.351-0.339,0.707-0.509,1.062
                                                        c-0.222,0.465-0.444,0.931-0.666,1.402c-0.064,0.136-0.128,0.274-0.191,0.411l0.481,0L170.38,47.477z"/>
                                                    <circle fill="#53A5DC" cx="200.747" cy="108.08" r="14.188"/>
                                                    <path fill="#F15A53" d="M200.748,255.518c0,0,4.26-16.976,8.663-35.014h-17.325C196.488,238.542,200.748,255.518,200.748,255.518z
                                                        "/>
                                                    <path fill="#F15A53" d="M218.99,178.452c0-15.458-8.167-27.989-18.242-27.989c-10.075,0-18.242,12.531-18.242,27.989
                                                        c0,1.641,2.569,12.903,5.779,26.335h24.926C216.421,191.355,218.99,180.092,218.99,178.452z"/>
                                                    <path fill="#F15A53" d="M213.211,204.786h-24.926c0.641,2.684,1.308,5.455,1.986,8.252h20.955
                                                        C211.903,210.241,212.57,207.47,213.211,204.786z"/>
                                                    <path fill="#F15A53" d="M190.271,213.039c0.6,2.481,1.209,4.983,1.815,7.465h17.325c0.606-2.482,1.214-4.984,1.815-7.465H190.271z
                                                        "/>
                                                    <path fill="#FFFFFF" d="M170.298,293.775c-5.066,0-9.697,2.753-12.202,7.093h24.403
                                                        C179.994,296.528,175.364,293.775,170.298,293.775z"/>
                                                    <path fill="#DCE7E8" d="M170.298,287.581c-7.987,0-15.263,4.718-18.538,12.02c-0.699,1.561-0.002,3.393,1.559,4.094
                                                        c1.561,0.7,3.393,0.003,4.094-1.559c0.198-0.443,0.444-0.853,0.683-1.268h-3.509c2.692-6.003,8.707-10.19,15.711-10.19
                                                        c7.004,0,13.02,4.188,15.711,10.19h-3.509c0.239,0.415,0.485,0.825,0.683,1.268c0.516,1.149,1.645,1.831,2.828,1.831
                                                        c0.424,0,0.854-0.088,1.266-0.272c1.561-0.7,2.258-2.533,1.559-4.094C185.56,292.299,178.284,287.581,170.298,287.581z"/>
                                                    <path fill="#DCE7E8" d="M170.298,290.678c-7.004,0-13.019,4.188-15.711,10.19h3.509c2.505-4.34,7.136-7.093,12.202-7.093
                                                        c5.067,0,9.697,2.753,12.201,7.093h3.509C183.317,294.866,177.302,290.678,170.298,290.678z"/>
                                                    <path fill="#FFFFFF" d="M253.587,312.266c-1.658,0-3.199,0.755-4.232,1.997h8.464
                                                        C256.787,313.021,255.246,312.266,253.587,312.266z"/>
                                                    <path fill="#DCE7E8" d="M253.587,306.072c-4.602,0-8.795,2.717-10.681,6.924c-0.699,1.561-0.002,3.393,1.559,4.094
                                                        c1.558,0.7,3.393,0.001,4.094-1.559c0.208-0.465,0.481-0.887,0.797-1.267h-3.624c1.346-3.001,4.353-5.095,7.855-5.095
                                                        c3.502,0,6.51,2.094,7.855,5.095h-3.623c0.316,0.38,0.589,0.802,0.797,1.267c0.516,1.149,1.645,1.831,2.828,1.831
                                                        c0.424,0,0.854-0.088,1.266-0.272c1.561-0.7,2.258-2.533,1.559-4.094C262.383,308.79,258.191,306.072,253.587,306.072z"/>
                                                    <path fill="#DCE7E8" d="M253.588,309.169c-3.502,0-6.51,2.094-7.855,5.095h3.624c1.032-1.242,2.573-1.997,4.232-1.997
                                                        c1.659,0,3.2,0.755,4.232,1.997h3.623C260.097,311.262,257.09,309.169,253.588,309.169z"/>
                                                    <path fill="#FFFFFF" d="M109.823,315.065h3.566c-0.532-0.153-1.125-0.252-1.783-0.252
                                                        C110.948,314.813,110.355,314.912,109.823,315.065z"/>
                                                    <path fill="#DCE7E8" d="M111.606,308.619c-4.077,0-7.715,1.865-9.496,4.866c-0.873,1.471-0.387,3.371,1.084,4.243
                                                        c1.472,0.877,3.371,0.387,4.243-1.083c0.361-0.609,1.207-1.241,2.385-1.581h-5.049c1.17-1.973,3.786-3.349,6.832-3.349
                                                        c3.046,0,5.662,1.376,6.832,3.349h-5.049c1.179,0.339,2.025,0.972,2.385,1.581c0.578,0.975,1.609,1.517,2.667,1.517
                                                        c0.537,0,1.081-0.139,1.576-0.434c1.471-0.873,1.957-2.772,1.084-4.243C119.321,310.483,115.683,308.619,111.606,308.619z"/>
                                                    <path fill="#DCE7E8" d="M111.606,311.716c-3.046,0-5.662,1.376-6.832,3.349h5.049c0.532-0.153,1.125-0.252,1.783-0.252
                                                        c0.658,0,1.251,0.099,1.783,0.252h5.049C117.268,313.092,114.652,311.716,111.606,311.716z"/>
                                                </g>
                                            </g>
                                            </svg>