<svg xmlns="http://www.w3.org/2000/svg" viewBox="0 0 512 512" enable-background="new 0 0 512 512" width="80"><path fill="#88ACB5" d="M177.6 334.22c-5.2-5.2-9.75-10.75-13.68-16.62l12.03-12.03c-.12 16.93 1.65 28.65 1.65 28.65z"/><path fill="#5195AF" d="M303.4 303.4c-43.25 43.25-125.8 30.82-125.8 30.82 14.05 14.05 30.94 23.54 48.82 28.46l32.2 32.2s38.1-23.16 75.6-60.66l137.04-137.04c43.25-43.26 43.25-113.38 0-156.62 0 0 12.44 82.54-30.82 125.8L303.4 303.4z"/><path fill="#88ACB5" d="M471.26 40.56C428-2.7 357.9-2.7 314.64 40.56L177.6 177.6l-31.1 95.43c2.42 15.67 8.24 30.92 17.42 44.57l1.52-1.52c2.87 6.77 6.9 12.88 12.16 18.14 15.24 15.24 37.8 20.28 61.97 16.1s49.9-17.6 71.53-39.22l137.04-137.04c43.26-43.25 53.6-103.02 23.12-133.5zM431.4 157.32l-68.7 68.7-14.4 3.62-50.15 60.93-3.8 3.8c-10.26 10.26-23.92 15.9-38.45 15.92-14.52-.02-28.17-5.68-38.44-15.95-5.3-5.3-9.36-11.48-12.06-18.23-2.53-6.34-3.87-13.2-3.87-20.2 0-14.53 5.66-28.2 15.93-38.46L354.5 80.42c10.27-10.27 23.93-15.92 38.45-15.93 14.53 0 28.18 5.64 38.45 15.9 10.27 10.3 15.93 23.94 15.93 38.47 0 14.52-5.66 28.18-15.93 38.45z"/><g fill="#FFBE35"><path d="M328.43 260.3l34.26-34.27c-4.97-17.67-14.4-34.34-28.3-48.25 0 0 6.4 42.52-5.97 82.5zM270.24 398.56l-72.88 72.9c-43.25 43.23-113.37 43.23-156.62 0 0 0 82.55 12.4 125.8-30.83l47.54-47.54 56.16 5.46z"/></g><path fill="#F3A933" d="M334.4 334.4l-64.16 64.16c-18.8 1.88-37.93.05-56.16-5.47l27.38-27.4c32.94 4.3 67.45-6.18 92.75-31.48l5.34-5.33c-1.64 1.87-3.35 3.72-5.14 5.5z"/><path fill="#FFCD60" d="M334.4 177.78c-43.24-43.24-113.36-43.25-156.62 0L40.74 314.83c-43.24 43.24-43.25 113.35-.02 156.6 15.26 15.26 37.83 20.3 62 16.1s49.9-17.58 71.53-39.2l52.1-52.1s-7.03-9.72-25.58-7.9L157.5 431.6c-10.27 10.26-23.93 15.9-38.45 15.92-14.52 0-28.18-5.67-38.45-15.94s-15.92-23.92-15.93-38.44c0-14.53 5.66-28.18 15.93-38.45l137.05-137.05c10.27-10.27 23.92-15.93 38.44-15.93 14.52 0 28.18 5.65 38.45 15.92 10.27 10.27 15.92 23.93 15.92 38.46 0 12.72-4.34 24.77-12.32 34.47l52.64-52.63c3.62-23.48-1.54-45.3-16.4-60.16z"/><path fill="#FFBE35" d="M255.92 366.65l-29.57 29.58c-8.7-1.82-17.27-4.46-25.6-7.9l25.67-25.66c9.65 2.65 19.58 3.98 29.5 3.98z"/><path d="M264.38 392.87l-72.8 72.8c-19.37 19.37-45.13 30.04-72.53 30.04s-53.16-10.66-72.53-30.03c-40-40-40-105.07 0-145.07l137.04-137.04c19.37-19.38 45.13-30.04 72.53-30.04s53.15 10.67 72.52 30.04c11.3 11.3 19.8 25.1 24.82 40.16l-64.86 64.86c-8.73 8.73-20.33 13.53-32.67 13.53-12.33 0-23.94-4.8-32.66-13.52-4.4-4.4-7.8-9.54-10.13-15.27-1.7-4.17-6.45-6.2-10.63-4.5-4.2 1.7-6.2 6.46-4.5 10.64 3.13 7.77 7.75 14.74 13.7 20.7 11.82 11.8 27.53 18.3 44.24 18.3s32.42-6.5 44.24-18.3l68.2-68.2c.05-.05.1-.1.15-.16l68.68-68.7c11.8-11.8 18.32-27.5 18.32-44.22s-6.5-32.4-18.32-44.22c-11.8-11.82-27.52-18.32-44.23-18.32-16.7 0-32.4 6.5-44.23 18.32l-43.27 43.27c-3.2 3.2-3.2 8.37 0 11.56 3.2 3.2 8.37 3.2 11.56 0L360.3 86.2c8.73-8.74 20.33-13.54 32.67-13.54 12.34 0 23.95 4.8 32.67 13.53 8.73 8.72 13.54 20.32 13.54 32.66s-4.8 23.95-13.54 32.67L366.14 211c-5.95-14.5-14.78-27.8-25.96-39-46.37-46.37-121.8-46.37-168.18 0L34.96 309.05c-46.37 46.36-46.37 121.8 0 168.18C58.14 500.4 88.6 512 119.06 512c30.44 0 60.9-11.6 84.08-34.77l72.8-72.8c3.18-3.2 3.18-8.37 0-11.56-3.2-3.2-8.37-3.2-11.56 0zM477.04 34.77c-46.37-46.36-121.8-46.36-168.18 0l-72.88 72.9c-3.2 3.18-3.2 8.36 0 11.55 3.2 3.2 8.36 3.2 11.55 0l72.9-72.9c40-39.98 105.06-39.98 145.06 0 39.98 40 39.98 105.08 0 145.08L328.43 328.44c-19.37 19.37-45.13 30.04-72.53 30.04s-53.15-10.67-72.52-30.04c-11.3-11.3-19.8-25.1-24.8-40.16l64.84-64.86c8.73-8.73 20.33-13.53 32.67-13.53 12.33 0 23.94 4.8 32.66 13.52 4.4 4.4 7.8 9.54 10.13 15.27 1.7 4.17 6.45 6.2 10.63 4.5 4.2-1.7 6.2-6.46 4.5-10.65-3.13-7.77-7.75-14.73-13.7-20.7-11.82-11.8-27.53-18.3-44.24-18.3s-32.42 6.5-44.23 18.3L74.82 348.92c-11.8 11.82-18.32 27.53-18.32 44.24s6.5 32.4 18.32 44.22c11.8 11.82 27.52 18.32 44.23 18.32 16.7 0 32.4-6.5 44.23-18.32l43.2-43.2c3.2-3.2 3.2-8.37 0-11.56-3.2-3.2-8.36-3.2-11.55 0l-43.2 43.2c-8.74 8.73-20.34 13.54-32.68 13.54s-23.95-4.8-32.67-13.53c-8.73-8.72-13.54-20.32-13.54-32.66 0-12.35 4.8-23.95 13.54-32.68L145.86 301c5.95 14.5 14.77 27.8 25.96 39 22.46 22.46 52.32 34.83 84.1 34.83 31.75 0 61.62-12.37 84.08-34.83l137.04-137.05c46.37-46.36 46.37-121.8 0-168.17z"/></svg>