<svg xmlns="http://www.w3.org/2000/svg" width="130" height="235" enable-background="new 0 0 400 400"><rect width="100%" height="100%" fill="none"/><g class="currentLayer"><title>Layer 1</title><path fill="#D22027" fill-rule="evenodd" stroke="#fff" stroke-width="3" stroke-miterlimit="2.613" d="M45.46 46.76l21.58.04c.42 18.94 18.8 135.23 60.76 160L.73 234c11.93-23.63 48.54-87.02 44.73-187.24z" clip-rule="evenodd"/><path fill="#fff" fill-rule="evenodd" d="M16.12 223.77l92.7-20.54c-30-33-39-79.84-47.53-143.17h-7.1c.4 59.4-10.35 114.74-38.08 163.7z" clip-rule="evenodd"/><path fill="#fff" fill-rule="evenodd" d="M0 235.1l89.36-19.24 40.68-8.64c-3.72-2.46-7.87-5.28-11.2-8.58L5.88 224 0 235.1z" clip-rule="evenodd"/><path fill="#fff" fill-rule="evenodd" d="M56.3 35.46c9.53 0 17.3-7.97 17.3-17.73C73.6 7.96 65.84 0 56.3 0S38.96 7.96 38.96 17.73c0 9.76 7.78 17.73 17.32 17.73z" clip-rule="evenodd"/><path fill="#D22027" fill-rule="evenodd" d="M64.38 17.82c-.05 4.52-3.66 8.2-8.1 8.2s-8.04-3.68-8.08-8.2h-5.96c.05 7.88 6.34 14.3 14.05 14.3 7.7 0 14-6.42 14.04-14.3h-5.96z" clip-rule="evenodd"/></g></svg>