<svg xmlns="http://www.w3.org/2000/svg" viewBox="0 0 512.003 512.003" enable-background="new 0 0 512.003 512.003" width="80"><path fill="#F1DFC4" d="M256 502c135.5 0 246-110.5 246-246S391.5 10 256 10 10 120.5 10 256s110.5 246 246 246z"/><path fill="#EE4A4D" d="M256 302c25.34 0 46-20.66 46-46s-20.66-46-46-46-46 20.66-46 46 20.67 46 46 46z"/><path fill="#000001" d="M477 385.04c.25-.33.5-.67.7-1.04 22.44-38.86 34.3-83.13 34.3-128 0-68.38-26.63-132.67-74.98-181.02C388.67 26.63 324.38 0 256 0S123.33 26.63 74.98 74.98C26.63 123.33 0 187.62 0 256c0 68.38 26.63 132.67 74.98 181.02C123.33 485.37 187.62 512 256 512c33.8 0 66.75-6.56 97.97-19.5 31.22-12.92 59.16-31.6 83.05-55.48 3.9-3.9 3.9-10.24 0-14.14-3.9-3.9-10.24-3.9-14.14 0C378.3 467.45 319.04 492 256 492c-39.38 0-76.53-9.7-109.2-26.84l19.86-34.4s0 0 0-.02c.87-1.5 1.3-3.12 1.34-4.73.1-3.54-1.7-7.02-5-8.92 0 0 0 0-.02 0-54.45-31.46-89.3-88.7-92.68-151.08H110c5.52 0 10-4.48 10-10s-4.48-10-10-10H70.3c.7-12.88 2.7-25.67 6.04-38.14 1.43-5.33-1.74-10.82-7.07-12.25-5.34-1.4-10.82 1.75-12.25 7.08C52.36 220.06 50 238 50 256c0 70.02 35.95 135.48 94.47 173.2l-15 25.94C63.72 413.2 20 339.6 20 256c0-39.38 9.7-76.53 26.84-109.2l34.42 19.86c1.57.9 3.3 1.34 5 1.34 3.45 0 6.8-1.8 8.66-5 8.13-14.08 18.08-27.04 29.56-38.52 3.9-3.9 3.9-10.24 0-14.14-3.9-3.9-10.24-3.9-14.14 0-10.37 10.36-19.57 21.82-27.5 34.13l-25.98-15C98.8 63.72 172.4 20 256 20c39.38 0 76.54 9.7 109.2 26.84l-19.86 34.42c-2.76 4.78-1.12 10.9 3.66 13.66 1.58.9 3.3 1.34 5 1.34 3.45 0 6.8-1.8 8.66-5l19.86-34.4c29.18 18.6 54.02 43.44 72.62 72.62l-25.98 15c-7.9-12.28-17.1-23.75-27.5-34.15-3.9-3.9-10.23-3.9-14.14 0s-3.9 10.24 0 14.15c23.06 23.05 39.7 51.9 48.14 83.38 1.2 4.47 5.24 7.4 9.66 7.4.85 0 1.72-.1 2.6-.33 5.33-1.43 8.5-6.9 7.06-12.25-3.8-14.2-9.14-27.9-15.82-40.88l26-15C482.3 179.45 492 216.6 492 256c0 38.03-9.24 75.58-26.8 109.23l-26.03-15.03C453.77 321.95 462 289.92 462 256c0-5.52-4.47-10-10-10h-40.32c-.2-3.17-.5-6.34-.9-9.47-.7-5.48-5.7-9.37-11.17-8.68-5.47.7-9.35 5.7-8.66 11.17.7 5.6 1.06 11.32 1.06 16.98 0 20.6-4.7 40.82-13.55 59.15L352.4 300.1c6.3-13.8 9.6-28.86 9.6-44.1 0-5.52-4.48-10-10-10h-49.95c-.02 0-.03 0-.05 0-5.52 0-10 4.48-10 10 0 19.85-16.15 36-36 36s-36-16.15-36-36 16.15-36 36-36c5.52 0 10-4.48 10-10 0-5.53-4.48-10-10-10-27.46 0-50.36 19.88-55.1 46h-30.3c4.97-42.72 41.36-76 85.4-76 30.63 0 59.16 16.48 74.48 43 2.76 4.78 8.87 6.42 13.66 3.66 4.78-2.76 6.42-8.88 3.66-13.66-7.72-13.37-18.17-24.66-30.4-33.35l15.08-26.12c16.8 11.43 30.97 26.57 41.3 44.47 1.85 3.2 5.2 5 8.67 5 1.7 0 3.4-.43 5-1.34 4.77-2.76 6.4-8.88 3.65-13.66-13.8-23.9-33.54-43.5-57.1-57.1-8.94-5.16-18.4-9.45-28.33-12.78-5.23-1.76-10.9 1.06-12.66 6.3-1.75 5.23 1.07 10.9 6.3 12.66 5.45 1.82 10.74 4 15.85 6.46l-15.07 26.1C286.44 153.4 271.44 150 256 150c-35.58 0-67.12 17.62-86.36 44.6l-26.1-15.07c16.6-24.4 40.84-42.97 69.28-52.5 5.24-1.75 8.06-7.4 6.3-12.65-1.75-5.24-7.4-8.06-12.65-6.3-6.77 2.26-13.33 4.97-19.65 8.1l-15-26c23.05-11.7 48.36-18.5 74.18-19.9V110c0 5.52 4.48 10 10 10s10-4.48 10-10V70.3c12.88.7 25.67 2.7 38.14 6.04 5.34 1.43 10.82-1.74 12.25-7.07 1.42-5.34-1.75-10.82-7.08-12.25C291.94 52.36 274 50 256 50c-36.1 0-71.73 9.54-103 27.6-4.78 2.76-6.42 8.88-3.66 13.66 0 0 0 0 0 .02l20.16 34.9c-19.83 13.22-36.46 30.88-48.5 51.67-.03.05-.07.1-.1.15-.03.06-.06.13-.1.2-3.2 5.57-6.1 11.37-8.62 17.37-2.14 5.1.25 10.96 5.34 13.1 1.27.53 2.58.78 3.87.78 3.9 0 7.6-2.3 9.22-6.13.92-2.2 1.9-4.35 2.92-6.48l26.08 15.06c-6.17 13.43-9.62 28.37-9.62 44.1s3.45 30.66 9.62 44.1l-26.07 15.05c-1.34-2.78-2.6-5.6-3.77-8.5-2.05-5.13-7.88-7.62-13-5.56-5.13 2.05-7.6 7.87-5.56 13 17.15 42.74 52.07 75.55 95.8 90 1.04.36 2.1.52 3.14.52 4.2 0 8.1-2.66 9.5-6.86 1.73-5.25-1.1-10.9-6.36-12.64-28.74-9.5-53.1-28.1-69.77-52.64l26.1-15.07C188.9 344.4 220.44 362 256 362c18.58 0 36.9-4.9 53-14.2 4.8-2.76 6.42-8.88 3.66-13.66-2.76-4.78-8.88-6.42-13.66-3.66-10.15 5.86-21.4 9.56-33 10.92v-30.3c22.87-4.15 40.95-22.23 45.1-45.1h30.3c-1.36 11.6-5.05 22.83-10.9 32.98 0 0 0 0-.02.02-2.76 4.78-1.12 10.9 3.66 13.66l34.3 19.8c-2.55 3.78-5.3 7.44-8.26 10.96-3.55 4.23-3 10.54 1.24 14.1 1.87 1.56 4.15 2.33 6.42 2.33 2.85 0 5.7-1.22 7.67-3.58 5.84-6.95 11.02-14.36 15.5-22.14.04-.05.07-.08.1-.13s.06-.1.08-.16c11.9-20.68 18.95-43.9 20.5-67.84h30.05c-3.25 61-36 114.27-84.24 145.8l-19.84-34.36c-2.76-4.78-8.88-6.42-13.66-3.66-4.78 2.77-6.42 8.88-3.66 13.66l19.86 34.4c-22.5 11.46-47.6 18.48-74.2 19.9v-30.07c6.56-.42 13.1-1.25 19.53-2.5 5.43-1.04 8.98-6.28 7.93-11.7s-6.3-8.98-11.72-7.93c-8.46 1.64-17.12 2.46-25.74 2.46-5.52 0-10 4.48-10 10v39.7c-12.88-.68-25.67-2.7-38.14-6.04-5.33-1.43-10.82 1.74-12.25 7.07-1.42 5.34 1.75 10.82 7.1 12.25C220.06 459.64 238 462 256 462c37.28 0 72.27-9.95 102.46-27.33.18-.1.37-.16.54-.27.3-.18.6-.37.9-.58 27.93-16.38 51.7-39.16 69.24-66.3L464 387.63c.02 0 .03.02.04.02.37.2.74.4 1.12.55.08.05.17.08.26.1.3.13.6.23.9.32.1.03.2.05.28.08.78.2 1.57.3 2.36.3.02 0 .05 0 .07 0 .05 0 .1 0 .15 0 .33 0 .66-.03 1-.07.08 0 .16-.02.25-.03.8-.1 1.56-.3 2.3-.6.07-.04.14-.07.2-.1.3-.13.6-.27.9-.43.08-.04.15-.08.23-.12.7-.4 1.33-.88 1.92-1.45.06-.06.12-.13.2-.2.22-.22.43-.47.64-.72.06-.1.12-.16.18-.24zM170.6 266h30.3c4.16 22.87 22.23 40.94 45.1 45.1v30.3c-39.44-4.6-70.8-35.96-75.4-75.4z"/></svg>