<svg version="1.1" id="Layer_1" xmlns="http://www.w3.org/2000/svg" xmlns:xlink="http://www.w3.org/1999/xlink" x="0px" y="0px" viewBox="0 0 450 450" enable-background="new 0 0 450 450" xml:space="preserve" width="130" height="130">
	<g>
		<path fill="#AB7444" d="M6.097,91.8c-3.98-3.98-3.98-10.432,0-14.412l67.319-67.319c3.979-3.979,10.433-3.981,14.413-0.001
			l39.494,39.494c3.981,3.98,3.979,10.434,0,14.413l-67.319,67.319c-3.98,3.98-10.432,3.98-14.413,0L6.097,91.8z"/>
		<path fill="#AB7444" d="M443.904,358.2c3.981,3.981,3.978,10.433-0.001,14.412l-67.318,67.319
			c-3.98,3.979-10.431,3.981-14.411,0.001l-39.495-39.495c-3.979-3.98-3.979-10.434,0-14.414l67.318-67.318
			c3.98-3.98,10.434-3.98,14.414,0L443.904,358.2z"/>
		<path fill="#AB7444" d="M358.201,6.096c3.98-3.98,10.432-3.98,14.411,0.001l67.32,67.319c3.978,3.979,3.981,10.433,0,14.412
			l-39.494,39.494c-3.98,3.98-10.435,3.979-14.415,0l-67.318-67.319c-3.981-3.98-3.98-10.433,0-14.413L358.201,6.096z"/>
		<path fill="#AB7444" d="M91.8,443.903c-3.98,3.982-10.433,3.98-14.413,0l-67.319-67.318c-3.98-3.98-3.98-10.432,0-14.413
			l39.494-39.492c3.98-3.981,10.433-3.979,14.412,0l67.319,67.318c3.98,3.98,3.981,10.434,0,14.414L91.8,443.903z"/>
		<path fill="#4F2F15" d="M418.111,361.875c2.548,2.549,2.547,6.677,0,9.225l-43.083,43.085c-2.548,2.547-6.677,2.547-9.224,0
			l-25.277-25.276c-2.547-2.548-2.547-6.678,0-9.225L383.61,336.6c2.548-2.547,6.678-2.547,9.226,0L418.111,361.875z"/>
		<path fill="#F9372F" d="M362.487,31.889c2.548-2.547,6.676-2.547,9.224,0.001l43.085,43.084c2.547,2.547,2.548,6.677,0,9.224
			l-25.275,25.276c-2.548,2.548-6.679,2.547-9.226,0L337.211,66.39c-2.548-2.547-2.547-6.677,0-9.224L362.487,31.889z"/>
		<path fill="#0ABFBC" d="M32.737,86.197c-2.548-2.547-2.548-6.677,0-9.224l43.084-43.084c2.547-2.547,6.677-2.549,9.224-0.001
			l25.276,25.276c2.548,2.547,2.547,6.678,0,9.224l-43.084,43.084c-2.547,2.548-6.676,2.548-9.224,0L32.737,86.197z"/>
		<path fill="#FF9900" d="M87.505,418.111c-2.547,2.548-6.677,2.547-9.224,0l-43.084-43.083c-2.547-2.548-2.548-6.677,0-9.226
			l25.276-25.275c2.547-2.547,6.677-2.547,9.224,0l43.084,43.083c2.547,2.548,2.548,6.678,0,9.226L87.505,418.111z"/>
		<circle fill="#113C4F" cx="225" cy="225" r="202.501"/>
		<g>
			<g>
				
					<rect x="166.442" y="51.994" transform="matrix(-0.3611 0.9325 -0.9325 -0.3611 318.3794 -84.7627)" fill="#E0FBFF" width="43.57" height="29.385"/>
				<polygon fill="#B5F6FF" points="182.37,41.057 192.326,68.274 166.636,81.689 			"/>
				<polygon fill="#FFFFFF" points="209.795,51.676 184.103,65.091 194.061,92.308 			"/>
			</g>
		</g>
		<g>
			<g>
				
					<rect x="203.925" y="57.989" transform="matrix(-0.9402 0.3406 -0.3406 -0.9402 462.6799 64.1362)" fill="#E0FBFF" width="43.571" height="29.385"/>
				<polygon fill="#B5F6FF" points="241.18,51.426 227.206,76.815 200.215,66.266 			"/>
				<polygon fill="#FFFFFF" points="251.197,79.075 224.204,68.524 210.23,93.916 			"/>
			</g>
		</g>
		<g>
			<path fill="#72D5E3" d="M354.199,310.704c1.699,1.698,1.699,4.476,0,6.175l-33.347,33.347c-1.698,1.698-4.479,1.699-6.177,0
				l-25.094-25.093c-1.699-1.699-1.698-4.479,0-6.177l33.347-33.347c1.701-1.699,4.479-1.699,6.178,0L354.199,310.704z"/>
			
				<rect x="304.146" y="294.34" transform="matrix(0.7071 0.7071 -0.7071 0.7071 319.0934 -134.4944)" fill="#FFFFFF" width="35.487" height="47.158"/>
			
				<rect x="299.565" y="316.869" transform="matrix(0.7071 -0.7072 0.7072 0.7071 -136.1533 309.6764)" fill="#F2E9E1" width="12.263" height="4.607"/>
			
				<rect x="302.697" y="319.522" transform="matrix(0.7071 -0.7071 0.7071 0.7071 -134.8909 315.3141)" fill="#F2E9E1" width="20.998" height="1.946"/>
			
				<rect x="307.073" y="323.056" transform="matrix(0.7071 -0.7071 0.7071 0.7071 -136.8613 318.4095)" fill="#F2E9E1" width="17.645" height="2.685"/>
			
				<rect x="312.995" y="329.195" transform="matrix(0.7071 -0.7071 0.7071 0.7071 -139.1566 325.6322)" fill="#F2E9E1" width="20.999" height="3.197"/>
			
				<rect x="321.012" y="297.451" transform="matrix(0.7071 -0.7071 0.7071 0.7071 -118.9242 319.9559)" fill="#F2E9E1" width="11.494" height="12.163"/>
			
				<rect x="331.862" y="311.16" transform="matrix(0.7072 -0.7071 0.7071 0.7072 -123.4442 330.7457)" fill="#F2E9E1" width="11.411" height="6.48"/>
			<path fill="#F7AD68" d="M367.163,314.014c0,0-2.581-2.134-5.341-1.772c-2.757,0.366-7.333-0.958-10.452-2.216
				c-3.119-1.254-12.182-1.95-14.275-2.164c-2.088-0.217-3.435-1.331-3.59-2.969c-0.157-1.643,1.605-4.913,11.383-3.252l-8.894-8.995
				c0,0,0.236-0.793,3.797-0.826c3.571-0.026,13.72-0.148,15.135,0.025c1.413,0.175,16.026,7.871,17.064,8.16L367.163,314.014z"/>
			<path fill="#F7AD68" d="M317.829,363.347c0,0-2.133-2.582-1.772-5.341c0.368-2.758-0.956-7.332-2.215-10.452
				c-1.256-3.118-1.948-12.184-2.166-14.273c-0.215-2.09-1.329-3.439-2.968-3.594c-1.644-0.153-4.912,1.605-3.253,11.383
				l-8.912-8.975c0,0-0.793,0.236-0.826,3.797c-0.025,3.571-0.233,13.803-0.057,15.217c0.176,1.413,7.87,16.029,8.159,17.064
				L317.829,363.347z"/>
			<path fill="#FF6A00" d="M369.932,366.116l33.573,33.573c0,0-23.735,20.315-27.586,23.31c-3.847,2.993-8.554,5.987-16.465,3.208
				c-7.912-2.78-39.99-14.328-39.99-14.328s-7.094-2.466-8.34-8.341c-1.349-6.367-10.77-37.009-10.77-37.009l21.508-6.417
				l10.032,29.773c0,0,0.508,4.137,6.603,5.741c6.096,1.603,11.548,6.844,14.861-0.108
				C356.674,388.572,358.599,377.236,369.932,366.116z"/>
			<path fill="#FF6A00" d="M369.932,366.116l33.573,33.573c0,0,20.316-23.736,23.312-27.585c2.993-3.85,5.987-8.555,3.206-16.466
				c-2.78-7.914-14.329-39.989-14.329-39.989s-2.465-7.094-8.34-8.341c-6.366-1.349-37.009-10.768-37.009-10.768l-6.417,21.506
				l29.775,10.032c0,0,4.135,0.508,5.739,6.603c1.604,6.095,6.844,11.546-0.107,14.86
				C392.388,352.858,381.052,354.783,369.932,366.116z"/>
			<g>
				<path fill="#F7AD68" d="M381.499,371.148c-2.45-1.15-5.699-1.306-6.783-0.223c-1.081,1.081-0.925,4.33,0.225,6.78
					c-3.258,4.655-7.812,13.398-5.737,23.941l18.383-2.099l8.922-6.256l6.832-9.5l2.1-18.382
					C394.897,363.337,386.156,367.888,381.499,371.148z"/>
				<path fill="#2B190A" d="M405.143,365.112c0,0-5.573,4.784-8.986,9.92c-4.284,6.447-3.616,12.664-3.616,12.664
					s-7.635,0.751-13.715,4.667c-6.835,4.403-9.92,8.986-9.92,8.986s2.577,14.3,14.469,26.15
					c11.118,11.081,27.674,17.904,47.753-0.162c17.506-19.455,11.996-35.964,1.224-46.737
					C418.002,366.243,405.143,365.112,405.143,365.112z"/>
			</g>
		</g>
		<g>
			<path fill="#FFFFFF" d="M288.476,91.218c0.663-0.662,1.639-0.764,2.175-0.229l71.564,71.565c0.532,0.532,0.43,1.508-0.231,2.17
				l-41.928,41.926c-0.66,0.66-1.639,0.765-2.171,0.233l-71.564-71.565c-0.536-0.535-0.431-1.513,0.23-2.174L288.476,91.218z"/>
			<g>
				<g>
					<path fill="#6F6F6F" d="M333.493,180.46c0.161,0.16,0.456,0.13,0.656-0.07l2.363-2.362c0.2-0.2,0.231-0.498,0.07-0.658
						l-2.491-2.491c-0.161-0.161-0.458-0.129-0.657,0.071l-2.362,2.362c-0.201,0.201-0.233,0.496-0.07,0.657L333.493,180.46z"/>
					<path fill="#6F6F6F" d="M302.754,144.271c0.2-0.201,0.232-0.498,0.072-0.659l-2.723-2.723c-0.162-0.161-0.459-0.129-0.659,0.072
						l-2.362,2.361c-0.2,0.201-0.232,0.496-0.069,0.657l2.721,2.723c0.161,0.161,0.457,0.131,0.657-0.07L302.754,144.271z"/>
					<path fill="#6F6F6F" d="M292.697,148.294c0.2-0.2,0.231-0.497,0.07-0.659l-1.889-1.887c-0.161-0.162-0.458-0.13-0.657,0.071
						l-2.461,2.462c-0.2,0.2-0.231,0.496-0.072,0.656l1.889,1.889c0.161,0.162,0.456,0.131,0.659-0.07L292.697,148.294z"/>
					<path fill="#6F6F6F" d="M330.671,179.127c0.197-0.199,0.23-0.497,0.069-0.658l-1.89-1.89c-0.158-0.16-0.456-0.126-0.655,0.072
						l-2.462,2.463c-0.2,0.2-0.231,0.496-0.072,0.656l1.889,1.89c0.162,0.162,0.459,0.13,0.657-0.069L330.671,179.127z"/>
					<path fill="#6F6F6F" d="M320.664,181.186c-0.2,0.2-0.229,0.496-0.069,0.657l1.891,1.89c0.162,0.163,0.455,0.129,0.656-0.071
						l2.461-2.462c0.2-0.2,0.235-0.495,0.073-0.657l-1.891-1.89c-0.161-0.161-0.459-0.129-0.659,0.071L320.664,181.186z"/>
					<path fill="#6F6F6F" d="M272.929,149.947c0.2-0.199,0.231-0.495,0.069-0.657l-1.958-1.958c-0.161-0.16-0.456-0.129-0.655,0.071
						l-1.45,1.45c-0.199,0.199-0.23,0.495-0.07,0.655l1.958,1.958c0.161,0.162,0.458,0.13,0.656-0.068L272.929,149.947z"/>
					<path fill="#6F6F6F" d="M290.019,152.754c0.199-0.199,0.229-0.493,0.068-0.654l-1.889-1.889
						c-0.161-0.162-0.455-0.131-0.654,0.069l-2.464,2.463c-0.199,0.199-0.232,0.495-0.07,0.656l1.889,1.89
						c0.161,0.161,0.456,0.128,0.655-0.071L290.019,152.754z"/>
					<path fill="#6F6F6F" d="M268.418,143.219c-0.2,0.199-0.231,0.495-0.069,0.657l1.957,1.958c0.161,0.161,0.456,0.128,0.656-0.071
						l2.461-2.461c0.2-0.2,0.234-0.497,0.073-0.657l-1.958-1.958c-0.161-0.162-0.459-0.129-0.659,0.072L268.418,143.219z"/>
					<path fill="#6F6F6F" d="M276.994,139.731c0.2-0.199,0.23-0.494,0.069-0.655l-1.957-1.958c-0.162-0.162-0.458-0.131-0.656,0.068
						l-2.462,2.462c-0.2,0.2-0.231,0.496-0.069,0.657l1.957,1.958c0.161,0.16,0.456,0.128,0.656-0.071L276.994,139.731z"/>
					<path fill="#6F6F6F" d="M290.68,132.196c0.2-0.201,0.233-0.498,0.07-0.659l-1.958-1.958c-0.16-0.16-0.456-0.128-0.656,0.072
						l-2.363,2.362c-0.2,0.201-0.231,0.496-0.072,0.656l1.96,1.958c0.161,0.161,0.458,0.131,0.657-0.07L290.68,132.196z"/>
					<path fill="#6F6F6F" d="M287.604,129.121c0.201-0.201,0.234-0.497,0.073-0.657l-1.958-1.958
						c-0.161-0.161-0.457-0.129-0.659,0.07l-2.362,2.363c-0.2,0.2-0.231,0.496-0.07,0.657l1.96,1.958
						c0.16,0.16,0.455,0.129,0.655-0.072L287.604,129.121z"/>
					<path fill="#6F6F6F" d="M267.748,148.392c0.161,0.16,0.456,0.128,0.655-0.07l1.452-1.451c0.199-0.2,0.231-0.495,0.07-0.656
						l-1.958-1.958c-0.162-0.161-0.457-0.13-0.656,0.069l-1.452,1.451c-0.199,0.198-0.229,0.495-0.068,0.656L267.748,148.392z"/>
					<path fill="#6F6F6F" d="M322.74,176.12c-0.2,0.2-0.23,0.498-0.069,0.659l1.888,1.888c0.161,0.161,0.459,0.131,0.657-0.068
						l2.464-2.463c0.197-0.198,0.23-0.498,0.068-0.659l-1.887-1.887c-0.162-0.162-0.46-0.13-0.659,0.068L322.74,176.12z"/>
					<path fill="#6F6F6F" d="M307.782,161.164c-0.2,0.199-0.23,0.497-0.068,0.659l1.887,1.886c0.161,0.162,0.459,0.13,0.657-0.069
						l2.462-2.463c0.199-0.198,0.231-0.497,0.07-0.658l-1.887-1.886c-0.162-0.163-0.461-0.13-0.66,0.068L307.782,161.164z"/>
					<path fill="#6F6F6F" d="M305.707,166.228c-0.2,0.2-0.23,0.497-0.068,0.659l1.89,1.89c0.161,0.16,0.455,0.128,0.655-0.073
						l2.462-2.462c0.2-0.2,0.234-0.495,0.072-0.656l-1.891-1.89c-0.161-0.161-0.459-0.131-0.659,0.07L305.707,166.228z"/>
					<path fill="#6F6F6F" d="M308.701,169.221c-0.2,0.2-0.231,0.496-0.07,0.658l1.887,1.886c0.162,0.163,0.46,0.132,0.66-0.068
						l2.461-2.462c0.201-0.2,0.231-0.497,0.069-0.66l-1.887-1.886c-0.161-0.162-0.459-0.13-0.659,0.07L308.701,169.221z"/>
					<path fill="#6F6F6F" d="M310.775,164.156c-0.2,0.199-0.231,0.495-0.072,0.655l1.89,1.89c0.161,0.161,0.458,0.13,0.657-0.069
						l2.462-2.462c0.199-0.199,0.231-0.497,0.07-0.658l-1.89-1.89c-0.162-0.16-0.458-0.126-0.656,0.072L310.775,164.156z"/>
					<path fill="#6F6F6F" d="M302.716,163.237c-0.2,0.201-0.233,0.496-0.069,0.657l1.889,1.89c0.161,0.16,0.456,0.13,0.657-0.07
						l2.461-2.462c0.2-0.201,0.233-0.498,0.07-0.658l-1.889-1.89c-0.162-0.162-0.458-0.129-0.659,0.071L302.716,163.237z"/>
					<path fill="#6F6F6F" d="M299.725,160.246c-0.2,0.2-0.231,0.495-0.069,0.657l1.888,1.887c0.161,0.162,0.457,0.132,0.659-0.069
						l2.461-2.462c0.2-0.2,0.231-0.498,0.07-0.66l-1.888-1.887c-0.163-0.163-0.46-0.131-0.66,0.07L299.725,160.246z"/>
					<path fill="#6F6F6F" d="M287.211,135.666c0.197-0.199,0.231-0.496,0.069-0.658l-1.958-1.958
						c-0.161-0.16-0.457-0.127-0.656,0.072l-2.462,2.462c-0.199,0.199-0.231,0.496-0.072,0.656l1.958,1.958
						c0.162,0.162,0.459,0.13,0.657-0.069L287.211,135.666z"/>
					<path fill="#6F6F6F" d="M304.789,158.171c-0.199,0.199-0.229,0.498-0.068,0.658l1.888,1.889
						c0.162,0.162,0.458,0.129,0.656-0.071l2.464-2.463c0.197-0.198,0.233-0.494,0.07-0.656l-1.889-1.889
						c-0.16-0.16-0.459-0.129-0.659,0.069L304.789,158.171z"/>
					<path fill="#6F6F6F" d="M314.683,175.203c-0.201,0.201-0.23,0.498-0.069,0.659l1.887,1.887c0.162,0.162,0.459,0.132,0.659-0.069
						l2.462-2.462c0.201-0.2,0.231-0.498,0.069-0.66l-1.887-1.887c-0.161-0.161-0.459-0.131-0.659,0.07L314.683,175.203z"/>
					<path fill="#6F6F6F" d="M313.765,167.147c-0.199,0.199-0.231,0.496-0.069,0.657l1.887,1.888
						c0.162,0.162,0.459,0.129,0.659-0.069l2.462-2.464c0.199-0.199,0.231-0.495,0.068-0.657l-1.887-1.887
						c-0.161-0.162-0.459-0.128-0.657,0.07L313.765,167.147z"/>
					<path fill="#6F6F6F" d="M317.675,178.195c-0.201,0.201-0.234,0.494-0.072,0.656l1.89,1.89c0.16,0.16,0.456,0.13,0.656-0.07
						l2.462-2.462c0.2-0.2,0.231-0.497,0.072-0.657l-1.891-1.89c-0.162-0.163-0.456-0.128-0.656,0.072L317.675,178.195z"/>
					<path fill="#6F6F6F" d="M319.748,173.129c-0.2,0.199-0.231,0.496-0.07,0.657l1.888,1.887c0.163,0.165,0.458,0.13,0.657-0.069
						l2.462-2.463c0.2-0.198,0.234-0.493,0.07-0.658l-1.888-1.887c-0.161-0.162-0.459-0.129-0.657,0.069L319.748,173.129z"/>
					<path fill="#6F6F6F" d="M316.758,170.139c-0.2,0.199-0.234,0.494-0.073,0.655l1.891,1.89c0.161,0.161,0.46,0.131,0.659-0.069
						l2.462-2.463c0.199-0.199,0.229-0.497,0.069-0.657l-1.891-1.891c-0.161-0.162-0.456-0.126-0.655,0.072L316.758,170.139z"/>
					<path fill="#6F6F6F" d="M311.692,172.213c-0.2,0.2-0.232,0.495-0.07,0.657l1.889,1.889c0.16,0.16,0.454,0.128,0.655-0.072
						l2.461-2.462c0.201-0.201,0.234-0.496,0.074-0.656l-1.89-1.889c-0.161-0.162-0.456-0.129-0.657,0.072L311.692,172.213z"/>
					<path fill="#6F6F6F" d="M267.626,135.289c-0.199,0.199-0.23,0.496-0.069,0.658l2.296,2.296c0.162,0.161,0.459,0.13,0.659-0.069
						l2.462-2.462c0.199-0.2,0.229-0.496,0.068-0.657l-2.298-2.296c-0.161-0.162-0.456-0.133-0.655,0.067L267.626,135.289z"/>
					<path fill="#6F6F6F" d="M261.479,129.142c-0.199,0.199-0.233,0.494-0.07,0.656l1.957,1.957c0.161,0.161,0.456,0.128,0.656-0.071
						l2.462-2.462c0.199-0.2,0.23-0.493,0.068-0.655l-1.956-1.956c-0.162-0.163-0.455-0.131-0.654,0.068L261.479,129.142z"/>
					<path fill="#6F6F6F" d="M273.624,122.08c0.199-0.198,0.233-0.495,0.072-0.656l-1.956-1.957c-0.163-0.162-0.46-0.127-0.657,0.072
						l-2.464,2.462c-0.199,0.199-0.231,0.494-0.069,0.656l1.956,1.957c0.161,0.161,0.456,0.128,0.656-0.071L273.624,122.08z"/>
					<path fill="#6F6F6F" d="M265.05,125.571c-0.2,0.2-0.234,0.494-0.072,0.657l1.957,1.956c0.161,0.162,0.456,0.13,0.656-0.071
						l2.462-2.462c0.2-0.2,0.233-0.496,0.072-0.656l-1.957-1.957c-0.162-0.163-0.458-0.129-0.657,0.072L265.05,125.571z"/>
					<path fill="#6F6F6F" d="M259.84,129.72c0.2-0.2,0.232-0.498,0.072-0.659l-1.958-1.958c-0.161-0.162-0.457-0.128-0.659,0.072
						l-2.46,2.461c-0.201,0.199-0.233,0.495-0.072,0.656l1.958,1.958c0.162,0.162,0.459,0.129,0.657-0.07L259.84,129.72z"/>
					<path fill="#6F6F6F" d="M268.124,128.644c-0.201,0.2-0.233,0.495-0.069,0.657l1.957,1.958c0.161,0.16,0.455,0.129,0.656-0.072
						l2.461-2.461c0.2-0.201,0.234-0.496,0.073-0.657l-1.957-1.958c-0.163-0.162-0.46-0.129-0.66,0.07L268.124,128.644z"/>
					<path fill="#6F6F6F" d="M257.911,132.711c-0.2,0.199-0.234,0.494-0.072,0.657l1.956,1.956c0.162,0.161,0.458,0.128,0.657-0.071
						l2.461-2.461c0.2-0.2,0.232-0.496,0.072-0.657l-1.956-1.957c-0.162-0.163-0.458-0.128-0.659,0.072L257.911,132.711z"/>
					<path fill="#6F6F6F" d="M255.352,135.27c-0.199,0.199-0.233,0.493-0.07,0.656l1.957,1.957c0.161,0.16,0.456,0.128,0.655-0.07
						l1.45-1.45c0.2-0.2,0.231-0.495,0.07-0.656l-1.956-1.957c-0.163-0.162-0.456-0.129-0.657,0.07L255.352,135.27z"/>
					<path fill="#6F6F6F" d="M274.114,150.407c-0.16-0.16-0.456-0.13-0.655,0.07l-1.452,1.45c-0.199,0.198-0.229,0.495-0.069,0.656
						l1.958,1.958c0.161,0.163,0.457,0.129,0.657-0.069l1.449-1.45c0.199-0.199,0.231-0.495,0.069-0.657L274.114,150.407z"/>
					<path fill="#6F6F6F" d="M327.088,189.101c-0.161-0.161-0.456-0.131-0.656,0.068l-2.462,2.462
						c-0.199,0.199-0.231,0.497-0.068,0.658l3.185,3.186c0.162,0.163,0.456,0.128,0.656-0.071l2.462-2.462
						c0.2-0.199,0.231-0.492,0.069-0.654L327.088,189.101z"/>
					<path fill="#6F6F6F" d="M340.658,181.66c-0.093-0.213-0.304-0.52-0.466-0.682l-2.508-2.508c-0.16-0.16-0.455-0.127-0.656,0.073
						l-2.362,2.363c-0.2,0.2-0.232,0.495-0.073,0.656l3.204,3.203c0.162,0.162,0.456,0.129,0.656-0.071l1.781-1.781
						c0.201-0.2,0.426-0.564,0.5-0.808C340.807,181.857,340.658,181.66,340.658,181.66z"/>
					<path fill="#6F6F6F" d="M323.516,199.045c0.162,0.162,0.456,0.128,0.655-0.071l2.461-2.461c0.2-0.201,0.236-0.496,0.074-0.658
						l-1.894-1.893c-0.161-0.162-0.46-0.131-0.661,0.07l-2.461,2.461c-0.199,0.199-0.229,0.497-0.068,0.659L323.516,199.045z"/>
					<path fill="#6F6F6F" d="M276.701,125.156c0.197-0.199,0.231-0.495,0.07-0.657l-1.958-1.957c-0.163-0.163-0.46-0.129-0.657,0.07
						l-2.464,2.462c-0.199,0.199-0.233,0.495-0.069,0.657l1.958,1.958c0.161,0.162,0.456,0.128,0.655-0.071L276.701,125.156z"/>
					<path fill="#6F6F6F" d="M266.981,122.578c0.2-0.2,0.233-0.497,0.072-0.659l-1.96-1.957c-0.161-0.162-0.456-0.129-0.656,0.071
						l-2.462,2.462c-0.2,0.201-0.231,0.496-0.072,0.656l1.96,1.958c0.161,0.162,0.456,0.131,0.656-0.07L266.981,122.578z"/>
					<path fill="#6F6F6F" d="M258.405,126.066c-0.2,0.2-0.232,0.496-0.072,0.657l1.957,1.958c0.163,0.161,0.46,0.129,0.659-0.07
						l2.462-2.462c0.2-0.199,0.23-0.495,0.068-0.656l-1.958-1.958c-0.16-0.16-0.455-0.13-0.654,0.069L258.405,126.066z"/>
					<path fill="#6F6F6F" d="M274.567,149.368c-0.2,0.199-0.231,0.497-0.07,0.657l1.958,1.958c0.161,0.162,0.457,0.129,0.656-0.07
						l2.461-2.46c0.2-0.201,0.234-0.498,0.072-0.66l-1.957-1.958c-0.161-0.16-0.459-0.128-0.659,0.072L274.567,149.368z"/>
					<path fill="#6F6F6F" d="M264.553,132.215c-0.199,0.199-0.233,0.495-0.07,0.657l1.96,1.958c0.161,0.161,0.456,0.128,0.655-0.072
						l2.464-2.462c0.199-0.199,0.23-0.493,0.069-0.654l-1.958-1.958c-0.162-0.163-0.456-0.132-0.656,0.068L264.553,132.215z"/>
					<path fill="#6F6F6F" d="M261.498,141.417c-0.199,0.198-0.23,0.496-0.069,0.657l2.298,2.296c0.161,0.162,0.459,0.131,0.656-0.068
						l1.452-1.45c0.199-0.2,0.23-0.497,0.067-0.657l-2.295-2.296c-0.161-0.162-0.457-0.131-0.657,0.069L261.498,141.417z"/>
					<path fill="#6F6F6F" d="M271.492,146.294c-0.199,0.199-0.231,0.495-0.07,0.656l1.958,1.958c0.161,0.162,0.458,0.131,0.657-0.069
						l2.46-2.46c0.201-0.201,0.234-0.498,0.072-0.66l-1.958-1.958c-0.16-0.16-0.457-0.128-0.657,0.073L271.492,146.294z"/>
					<path fill="#6F6F6F" d="M280.071,142.806c0.199-0.199,0.228-0.495,0.067-0.656l-1.958-1.958
						c-0.161-0.161-0.454-0.131-0.655,0.069l-2.462,2.463c-0.2,0.199-0.231,0.495-0.07,0.656l1.957,1.958
						c0.161,0.161,0.459,0.13,0.659-0.069L280.071,142.806z"/>
					<path fill="#6F6F6F" d="M283.144,145.88c0.2-0.199,0.23-0.493,0.068-0.655l-1.958-1.958c-0.16-0.16-0.455-0.131-0.655,0.068
						l-2.462,2.463c-0.2,0.199-0.23,0.497-0.07,0.656l1.957,1.958c0.162,0.163,0.458,0.129,0.659-0.07L283.144,145.88z"/>
					<path fill="#6F6F6F" d="M258.425,138.343c-0.199,0.199-0.231,0.494-0.069,0.656l1.958,1.958c0.161,0.162,0.456,0.128,0.655-0.07
						l1.451-1.451c0.2-0.199,0.231-0.494,0.07-0.655l-1.958-1.957c-0.163-0.163-0.456-0.131-0.657,0.068L258.425,138.343z"/>
					<path fill="#6F6F6F" d="M264.057,138.858c-0.2,0.199-0.231,0.498-0.07,0.658l2.298,2.296c0.161,0.162,0.459,0.131,0.657-0.068
						l2.461-2.461c0.2-0.2,0.233-0.498,0.072-0.66l-2.298-2.296c-0.161-0.161-0.459-0.129-0.659,0.071L264.057,138.858z"/>
					<path fill="#6F6F6F" d="M271.197,131.718c-0.2,0.2-0.231,0.497-0.069,0.658l2.296,2.296c0.161,0.162,0.457,0.131,0.659-0.068
						l2.462-2.462c0.2-0.2,0.23-0.497,0.069-0.659l-2.297-2.296c-0.162-0.16-0.459-0.129-0.66,0.07L271.197,131.718z"/>
					<path fill="#6F6F6F" d="M260.984,135.784c-0.2,0.199-0.232,0.495-0.07,0.657l1.958,1.958c0.161,0.161,0.456,0.128,0.656-0.072
						l2.46-2.46c0.201-0.201,0.235-0.497,0.073-0.658l-1.958-1.958c-0.162-0.162-0.458-0.128-0.659,0.072L260.984,135.784z"/>
					<path fill="#6F6F6F" d="M301.799,155.179c-0.2,0.199-0.231,0.497-0.07,0.659l1.891,1.889c0.16,0.16,0.456,0.129,0.656-0.07
						l2.462-2.462c0.199-0.199,0.231-0.497,0.07-0.657l-1.889-1.889c-0.161-0.162-0.459-0.129-0.657,0.069L301.799,155.179z"/>
					<path fill="#6F6F6F" d="M280.115,128.571c0.199-0.199,0.231-0.498,0.068-0.659l-2.295-2.296
						c-0.161-0.162-0.46-0.129-0.659,0.069l-2.462,2.463c-0.2,0.199-0.23,0.497-0.069,0.658l2.296,2.296
						c0.162,0.161,0.459,0.13,0.659-0.069L280.115,128.571z"/>
					<path fill="#6F6F6F" d="M256.271,133.289c0.201-0.2,0.231-0.496,0.069-0.657l-1.957-1.958c-0.162-0.161-0.457-0.129-0.656,0.07
						l-1.117,1.119c-0.201,0.199-0.362,0.517-0.354,0.703c0.006,0.187,0.419,0.752,0.579,0.912l1.33,1.33
	
						c0.162,0.162,0.459,0.129,0.657-0.068L256.271,133.289z"/>
					<path fill="#6F6F6F" d="M292.303,169.319c0.199-0.199,0.229-0.496,0.067-0.658l-1.954-1.954
						c-0.163-0.162-0.459-0.132-0.659,0.067l-1.449,1.451c-0.199,0.198-0.23,0.495-0.069,0.657l1.954,1.955
						c0.163,0.162,0.461,0.131,0.659-0.068L292.303,169.319z"/>
					<path fill="#6F6F6F" d="M289.227,166.245c0.201-0.2,0.23-0.496,0.069-0.657l-1.957-1.958c-0.162-0.161-0.458-0.13-0.656,0.069
						l-1.451,1.451c-0.197,0.199-0.23,0.495-0.069,0.655l1.958,1.958c0.161,0.161,0.457,0.13,0.656-0.068L289.227,166.245z"/>
					<path fill="#6F6F6F" d="M286.152,163.17c0.199-0.2,0.231-0.495,0.07-0.656l-1.957-1.958c-0.162-0.161-0.459-0.13-0.657,0.069
						l-1.451,1.45c-0.2,0.199-0.23,0.496-0.069,0.657l1.957,1.958c0.162,0.161,0.459,0.129,0.657-0.07L286.152,163.17z"/>
					<path fill="#6F6F6F" d="M283.078,160.095c0.2-0.199,0.231-0.495,0.07-0.655l-1.958-1.957c-0.161-0.161-0.458-0.131-0.656,0.068
						l-1.452,1.45c-0.199,0.198-0.229,0.497-0.067,0.657l1.956,1.957c0.162,0.161,0.459,0.129,0.657-0.069L283.078,160.095z"/>
					<path fill="#6F6F6F" d="M301.525,178.541c0.199-0.199,0.231-0.493,0.068-0.657l-1.956-1.955c-0.16-0.16-0.458-0.131-0.656,0.068
						l-1.452,1.451c-0.199,0.198-0.229,0.497-0.069,0.657l1.957,1.955c0.163,0.164,0.458,0.131,0.656-0.069L301.525,178.541z"/>
					<path fill="#6F6F6F" d="M295.377,172.393c0.199-0.199,0.23-0.494,0.07-0.655l-1.96-1.959c-0.161-0.162-0.455-0.129-0.656,0.07
						l-1.449,1.451c-0.199,0.198-0.232,0.493-0.072,0.655l1.961,1.96c0.16,0.161,0.455,0.127,0.654-0.071L295.377,172.393z"/>
					<path fill="#6F6F6F" d="M298.449,175.466c0.2-0.199,0.232-0.493,0.069-0.656l-1.956-1.955c-0.16-0.161-0.456-0.131-0.657,0.068
						l-1.449,1.451c-0.199,0.198-0.23,0.496-0.069,0.657l1.956,1.956c0.163,0.163,0.458,0.129,0.656-0.07L298.449,175.466z"/>
					<path fill="#6F6F6F" d="M304.601,181.617c0.198-0.199,0.231-0.495,0.068-0.655l-1.957-1.959
						c-0.161-0.16-0.458-0.131-0.658,0.068l-1.45,1.451c-0.199,0.199-0.23,0.497-0.069,0.657l1.96,1.958
						c0.161,0.162,0.458,0.129,0.655-0.069L304.601,181.617z"/>
					<path fill="#6F6F6F" d="M303.645,150.613c0.162,0.162,0.457,0.13,0.657-0.071l2.363-2.361c0.2-0.201,0.231-0.497,0.07-0.658
						l-2.784-2.784c-0.162-0.162-0.457-0.129-0.657,0.07l-2.363,2.362c-0.201,0.201-0.231,0.495-0.069,0.657L303.645,150.613z"/>
					<path fill="#6F6F6F" d="M325.758,172.724c0.161,0.162,0.455,0.129,0.655-0.072l2.363-2.361c0.2-0.201,0.232-0.496,0.072-0.657
						l-21.009-21.009c-0.161-0.16-0.456-0.128-0.657,0.072l-2.362,2.362c-0.2,0.2-0.231,0.495-0.072,0.656L325.758,172.724z"/>
					<path fill="#6F6F6F" d="M329.877,176.843c0.16,0.16,0.458,0.131,0.657-0.069l2.362-2.362c0.2-0.201,0.231-0.499,0.07-0.659
						l-3.015-3.016c-0.161-0.161-0.46-0.13-0.66,0.07l-2.362,2.362c-0.2,0.201-0.229,0.497-0.069,0.657L329.877,176.843z"/>
					<path fill="#6F6F6F" d="M289.207,142.588c-0.199,0.199-0.231,0.495-0.07,0.657l5.507,5.507c0.162,0.161,0.459,0.129,0.657-0.07
						l2.464-2.464c0.197-0.198,0.23-0.495,0.068-0.657l-5.506-5.506c-0.161-0.162-0.459-0.128-0.657,0.07L289.207,142.588z"/>
					<path fill="#6F6F6F" d="M278.497,153.298c-0.199,0.2-0.233,0.496-0.07,0.657l3.203,3.203c0.161,0.16,0.456,0.128,0.656-0.071
						l2.461-2.461c0.2-0.2,0.234-0.497,0.073-0.658l-3.204-3.203c-0.161-0.161-0.457-0.128-0.657,0.073L278.497,153.298z"/>
					<path fill="#6F6F6F" d="M275.939,155.857c-0.199,0.198-0.233,0.494-0.07,0.655l2.027,2.028c0.162,0.162,0.459,0.13,0.657-0.068
						l1.451-1.451c0.199-0.199,0.231-0.495,0.069-0.657l-2.029-2.027c-0.161-0.162-0.455-0.129-0.655,0.07L275.939,155.857z"/>
					<path fill="#6F6F6F" d="M280.565,127.532c0.161,0.162,0.458,0.132,0.657-0.069l2.363-2.362c0.2-0.2,0.231-0.498,0.07-0.659
						l-5.372-5.372c-0.161-0.162-0.458-0.129-0.657,0.071l-2.362,2.362c-0.201,0.201-0.233,0.495-0.07,0.658L280.565,127.532z"/>
					<path fill="#6F6F6F" d="M296.734,157.254c-0.202,0.2-0.232,0.495-0.07,0.658l1.888,1.887c0.162,0.162,0.456,0.13,0.656-0.071
						l2.462-2.462c0.2-0.2,0.234-0.495,0.072-0.656l-1.888-1.889c-0.162-0.163-0.459-0.13-0.66,0.07L296.734,157.254z"/>
					<path fill="#6F6F6F" d="M295.911,142.877c0.16,0.161,0.455,0.129,0.655-0.071l2.362-2.362c0.201-0.2,0.234-0.496,0.073-0.657
						l-3.204-3.203c-0.161-0.161-0.456-0.128-0.656,0.072l-2.362,2.362c-0.202,0.201-0.233,0.495-0.072,0.657L295.911,142.877z"/>
					<path fill="#6F6F6F" d="M333.66,182.116c0.199-0.199,0.233-0.495,0.072-0.657l-1.889-1.888c-0.16-0.161-0.46-0.129-0.659,0.07
						l-2.462,2.462c-0.2,0.199-0.229,0.497-0.069,0.658l1.889,1.888c0.161,0.162,0.458,0.129,0.656-0.07L333.66,182.116z"/>
					<path fill="#6F6F6F" d="M271.848,112.971c-0.185-0.007-0.503,0.153-0.701,0.353l-5.602,5.601c-0.2,0.2-0.233,0.496-0.07,0.657
						l1.958,1.958c0.161,0.161,0.458,0.129,0.656-0.07l2.462-2.463c0.199-0.198,0.45-0.449,0.552-0.551
						c0.107-0.107,0.356-0.356,0.558-0.557l2.362-2.362c0.2-0.2,0.231-0.497,0.07-0.657l-1.33-1.33
						C272.601,113.388,272.038,112.976,271.848,112.971z"/>
					<path fill="#6F6F6F" d="M321.157,197.45c-0.16-0.16-0.456-0.13-0.655,0.069l-1.452,1.451c-0.197,0.199-0.229,0.495-0.068,0.656
						l1.281,1.281c0.161,0.161,0.469,0.372,0.679,0.469c0,0,0.197,0.148,0.445,0.076c0.245-0.075,0.61-0.302,0.808-0.502l0.869-0.869
						c0.2-0.199,0.234-0.493,0.072-0.655L321.157,197.45z"/>
					<path fill="#6F6F6F" d="M307.675,184.693c0.2-0.2,0.229-0.497,0.068-0.657l-1.957-1.958c-0.161-0.161-0.455-0.129-0.655,0.07
						l-1.451,1.451c-0.199,0.198-0.233,0.493-0.07,0.654l1.957,1.958c0.161,0.16,0.459,0.13,0.657-0.068L307.675,184.693z"/>
					<path fill="#6F6F6F" d="M274.077,121.043c0.16,0.162,0.455,0.129,0.656-0.071l2.361-2.362c0.202-0.2,0.234-0.496,0.073-0.656
						l-1.956-1.957c-0.162-0.162-0.458-0.129-0.659,0.072l-2.36,2.362c-0.201,0.201-0.234,0.495-0.072,0.657L274.077,121.043z"/>
					<path fill="#6F6F6F" d="M334.837,182.565c-0.166-0.164-0.461-0.129-0.659,0.07l-2.464,2.462
						c-0.199,0.199-0.234,0.494-0.068,0.657l2.581,2.581c0.162,0.163,0.456,0.128,0.655-0.071l2.464-2.462
						c0.197-0.199,0.234-0.494,0.072-0.656L334.837,182.565z"/>
					<path fill="#6F6F6F" d="M329.767,184.636c-0.16-0.16-0.455-0.127-0.655,0.073l-2.462,2.462c-0.2,0.201-0.233,0.495-0.073,0.656
						l4.08,4.079c0.162,0.162,0.455,0.129,0.656-0.072l2.461-2.462c0.2-0.2,0.235-0.494,0.073-0.657L329.767,184.636z"/>
					<path fill="#6F6F6F" d="M316.897,193.914c0.199-0.199,0.23-0.495,0.07-0.656l-1.96-1.958c-0.161-0.162-0.455-0.128-0.654,0.072
						l-1.452,1.451c-0.199,0.198-0.231,0.493-0.07,0.654l1.958,1.959c0.16,0.161,0.458,0.129,0.655-0.07L316.897,193.914z"/>
					<path fill="#6F6F6F" d="M310.75,187.767c0.199-0.2,0.229-0.497,0.068-0.657l-1.957-1.958c-0.162-0.161-0.457-0.131-0.657,0.069
						l-1.451,1.45c-0.199,0.199-0.23,0.496-0.068,0.657l1.957,1.958c0.16,0.16,0.458,0.129,0.656-0.068L310.75,187.767z"/>
					<path fill="#6F6F6F" d="M313.824,190.842c0.199-0.199,0.229-0.496,0.068-0.658l-1.957-1.957
						c-0.162-0.162-0.456-0.13-0.656,0.069l-1.45,1.451c-0.199,0.199-0.233,0.493-0.069,0.656l1.957,1.957
						c0.161,0.161,0.459,0.131,0.657-0.067L313.824,190.842z"/>
					<path fill="#6F6F6F" d="M318.702,193.503c-0.199,0.199-0.234,0.493-0.073,0.656l1.89,1.89c0.161,0.161,0.458,0.129,0.657-0.071
						l2.46-2.46c0.201-0.2,0.234-0.498,0.073-0.659l-1.89-1.89c-0.161-0.162-0.456-0.126-0.656,0.074L318.702,193.503z"/>
					<path fill="#6F6F6F" d="M319.972,196.989c0.199-0.199,0.229-0.496,0.068-0.657l-1.956-1.955
						c-0.162-0.163-0.456-0.131-0.656,0.068l-1.451,1.451c-0.199,0.198-0.231,0.493-0.068,0.657l1.954,1.954
						c0.16,0.161,0.458,0.13,0.656-0.068L319.972,196.989z"/>
					<path fill="#6F6F6F" d="M288.847,135.087c-0.2,0.201-0.231,0.497-0.07,0.657l1.958,1.958c0.162,0.162,0.456,0.13,0.656-0.07
						l2.363-2.363c0.2-0.2,0.233-0.496,0.07-0.659l-1.958-1.958c-0.16-0.16-0.456-0.128-0.657,0.072L288.847,135.087z"/>
					<path fill="#6F6F6F" d="M304.976,167.713c0.199-0.2,0.228-0.495,0.068-0.655l-1.889-1.889c-0.161-0.162-0.456-0.132-0.655,0.067
						l-2.464,2.463c-0.199,0.2-0.229,0.497-0.068,0.658l1.889,1.889c0.16,0.16,0.456,0.128,0.656-0.071L304.976,167.713z"/>
					<path fill="#6F6F6F" d="M298.993,161.729c0.199-0.199,0.23-0.493,0.068-0.656l-1.889-1.889c-0.16-0.16-0.455-0.131-0.656,0.068
						l-2.462,2.462c-0.199,0.199-0.23,0.497-0.069,0.657l1.888,1.888c0.162,0.163,0.459,0.131,0.657-0.069L298.993,161.729z"/>
					<path fill="#6F6F6F" d="M296,158.738c0.2-0.2,0.23-0.495,0.069-0.656l-1.888-1.888c-0.161-0.161-0.457-0.132-0.656,0.067
						l-2.462,2.462c-0.201,0.199-0.231,0.498-0.069,0.659l1.887,1.888c0.161,0.161,0.459,0.129,0.657-0.07L296,158.738z"/>
					<path fill="#6F6F6F" d="M293.723,163.602c0.2-0.2,0.234-0.497,0.07-0.66l-1.888-1.887c-0.163-0.164-0.46-0.13-0.66,0.07
						l-2.461,2.461c-0.199,0.199-0.231,0.495-0.069,0.659l1.888,1.887c0.163,0.163,0.459,0.13,0.659-0.069L293.723,163.602z"/>
					<path fill="#6F6F6F" d="M299.706,169.586c0.201-0.201,0.233-0.499,0.072-0.66l-1.889-1.889
						c-0.162-0.162-0.459-0.128-0.659,0.072l-2.461,2.461c-0.2,0.2-0.233,0.495-0.07,0.657l1.889,1.89
						c0.161,0.161,0.457,0.129,0.657-0.07L299.706,169.586z"/>
					<path fill="#6F6F6F" d="M296.713,166.593c0.201-0.2,0.233-0.498,0.073-0.659l-1.891-1.89c-0.16-0.16-0.458-0.128-0.657,0.073
						l-2.461,2.461c-0.2,0.199-0.231,0.496-0.07,0.656l1.889,1.889c0.16,0.16,0.458,0.129,0.657-0.07L296.713,166.593z"/>
					<path fill="#6F6F6F" d="M301.986,164.723c0.2-0.199,0.229-0.495,0.068-0.656l-1.89-1.89c-0.162-0.162-0.456-0.131-0.655,0.068
						l-2.464,2.463c-0.199,0.199-0.23,0.495-0.069,0.656l1.889,1.889c0.161,0.162,0.459,0.131,0.659-0.068L301.986,164.723z"/>
					<path fill="#6F6F6F" d="M290.731,160.611c0.2-0.201,0.232-0.499,0.07-0.66l-1.887-1.888c-0.162-0.161-0.46-0.128-0.66,0.072
						l-2.461,2.461c-0.199,0.199-0.231,0.495-0.069,0.657l1.887,1.887c0.162,0.161,0.459,0.13,0.659-0.07L290.731,160.611z"/>
					<path fill="#6F6F6F" d="M295.816,149.197c-0.199,0.199-0.231,0.496-0.07,0.657l1.889,1.889c0.161,0.161,0.458,0.129,0.657-0.07
						l2.464-2.462c0.197-0.199,0.23-0.496,0.069-0.656l-1.889-1.89c-0.161-0.162-0.459-0.128-0.657,0.07L295.816,149.197z"/>
					<path fill="#6F6F6F" d="M293.743,154.262c-0.202,0.201-0.233,0.496-0.07,0.658l1.888,1.888c0.161,0.161,0.458,0.131,0.657-0.068
						l2.462-2.462c0.201-0.201,0.231-0.498,0.07-0.66l-1.888-1.887c-0.162-0.162-0.459-0.13-0.659,0.07L293.743,154.262z"/>
					<path fill="#6F6F6F" d="M298.809,152.19c-0.2,0.199-0.233,0.495-0.072,0.656l1.889,1.889c0.161,0.162,0.457,0.129,0.656-0.07
						l2.462-2.463c0.2-0.198,0.233-0.495,0.072-0.657l-1.889-1.887c-0.161-0.162-0.458-0.129-0.656,0.07L298.809,152.19z"/>
					<path fill="#6F6F6F" d="M287.74,157.619c0.2-0.2,0.233-0.499,0.072-0.66l-1.889-1.889c-0.162-0.162-0.459-0.128-0.66,0.072
						l-2.46,2.461c-0.2,0.2-0.231,0.496-0.07,0.657l1.889,1.888c0.161,0.162,0.459,0.131,0.657-0.068L287.74,157.619z"/>
					<path fill="#6F6F6F" d="M290.75,151.271c-0.2,0.201-0.231,0.496-0.069,0.658l1.888,1.888c0.162,0.162,0.458,0.131,0.657-0.069
						l2.461-2.462c0.202-0.2,0.234-0.497,0.072-0.659l-1.889-1.889c-0.161-0.162-0.457-0.129-0.657,0.07L290.75,151.271z"/>
					<path fill="#6F6F6F" d="M323.659,184.18c-0.2,0.2-0.231,0.495-0.069,0.657l1.887,1.887c0.161,0.161,0.458,0.131,0.657-0.068
						l2.462-2.462c0.2-0.201,0.231-0.499,0.068-0.66l-1.885-1.887c-0.162-0.162-0.457-0.129-0.659,0.072L323.659,184.18z"/>
					<path fill="#6F6F6F" d="M293.011,155.747c0.199-0.199,0.228-0.495,0.067-0.656l-1.889-1.889
						c-0.161-0.161-0.455-0.13-0.654,0.069l-2.464,2.464c-0.199,0.199-0.233,0.495-0.072,0.656l1.889,1.889
						c0.161,0.161,0.459,0.13,0.659-0.069L293.011,155.747z"/>
					<path fill="#6F6F6F" d="M316.943,179.68c0.2-0.2,0.23-0.494,0.069-0.656l-1.89-1.891c-0.162-0.162-0.454-0.129-0.654,0.07
						l-2.462,2.462c-0.199,0.2-0.234,0.493-0.073,0.656l1.891,1.89c0.162,0.161,0.458,0.129,0.657-0.07L316.943,179.68z"/>
					<path fill="#6F6F6F" d="M314.665,184.544c0.2-0.2,0.23-0.5,0.069-0.66l-1.889-1.889c-0.161-0.162-0.459-0.128-0.659,0.072
						l-2.461,2.461c-0.199,0.199-0.231,0.495-0.07,0.657l1.889,1.889c0.162,0.162,0.46,0.131,0.66-0.068L314.665,184.544z"/>
					<path fill="#6F6F6F" d="M317.653,187.533c0.201-0.2,0.235-0.495,0.074-0.657l-1.891-1.89c-0.16-0.16-0.456-0.126-0.656,0.074
						l-2.461,2.461c-0.2,0.199-0.233,0.495-0.073,0.654l1.891,1.891c0.161,0.162,0.455,0.128,0.656-0.072L317.653,187.533z"/>
					<path fill="#6F6F6F" d="M319.933,182.669c0.2-0.199,0.232-0.491,0.072-0.653l-1.892-1.891c-0.16-0.16-0.456-0.131-0.657,0.068
						l-2.462,2.462c-0.199,0.199-0.229,0.497-0.068,0.658l1.891,1.891c0.161,0.162,0.456,0.128,0.655-0.072L319.933,182.669z"/>
					<path fill="#6F6F6F" d="M325.919,188.655c0.198-0.199,0.229-0.496,0.067-0.657l-1.89-1.89c-0.16-0.16-0.454-0.129-0.652,0.07
						l-2.464,2.463c-0.199,0.199-0.231,0.495-0.07,0.655l1.89,1.89c0.16,0.16,0.458,0.13,0.657-0.069L325.919,188.655z"/>
					<path fill="#6F6F6F" d="M320.646,190.525c0.201-0.201,0.232-0.499,0.072-0.659l-1.888-1.889c-0.161-0.16-0.459-0.129-0.66,0.071
						l-2.46,2.461c-0.2,0.2-0.231,0.498-0.07,0.658l1.888,1.889c0.161,0.16,0.458,0.129,0.657-0.07L320.646,190.525z"/>
					<path fill="#6F6F6F" d="M322.926,185.662c0.2-0.199,0.229-0.495,0.068-0.657l-1.887-1.886c-0.162-0.162-0.458-0.131-0.657,0.068
						l-2.462,2.462c-0.2,0.199-0.231,0.495-0.069,0.658l1.887,1.886c0.162,0.163,0.459,0.131,0.659-0.068L322.926,185.662z"/>
					<path fill="#6F6F6F" d="M305.688,175.568c0.2-0.2,0.234-0.497,0.072-0.66l-1.888-1.887c-0.161-0.162-0.457-0.128-0.659,0.072
						l-2.461,2.461c-0.2,0.199-0.231,0.495-0.069,0.656l1.887,1.888c0.162,0.162,0.459,0.129,0.657-0.07L305.688,175.568z"/>
					<path fill="#6F6F6F" d="M311.671,181.551c0.2-0.201,0.235-0.497,0.07-0.66l-1.885-1.887c-0.163-0.162-0.461-0.129-0.661,0.071
						l-2.461,2.461c-0.199,0.199-0.23,0.497-0.068,0.659l1.885,1.887c0.165,0.163,0.46,0.13,0.659-0.069L311.671,181.551z"/>
					<path fill="#6F6F6F" d="M310.958,173.694c0.2-0.199,0.23-0.492,0.07-0.652l-1.891-1.89c-0.161-0.16-0.454-0.129-0.654,0.07
						l-2.462,2.463c-0.199,0.199-0.232,0.495-0.073,0.656l1.891,1.889c0.161,0.161,0.456,0.128,0.656-0.072L310.958,173.694z"/>
					<path fill="#6F6F6F" d="M307.969,170.706c0.2-0.2,0.228-0.497,0.067-0.657l-1.888-1.888c-0.161-0.161-0.458-0.133-0.656,0.067
						l-2.464,2.463c-0.199,0.199-0.23,0.498-0.067,0.659l1.885,1.888c0.163,0.161,0.461,0.131,0.66-0.068L307.969,170.706z"/>
					<path fill="#6F6F6F" d="M302.696,172.577c0.2-0.201,0.235-0.497,0.073-0.659l-1.889-1.89c-0.161-0.161-0.459-0.128-0.659,0.072
						l-2.461,2.461c-0.199,0.199-0.231,0.496-0.07,0.657l1.891,1.89c0.161,0.162,0.456,0.128,0.655-0.072L302.696,172.577z"/>
					<path fill="#6F6F6F" d="M313.95,176.687c0.201-0.199,0.233-0.492,0.069-0.656l-1.888-1.888
						c-0.161-0.161-0.457-0.132-0.656,0.068l-2.462,2.462c-0.2,0.199-0.23,0.497-0.07,0.657l1.888,1.889
						c0.163,0.163,0.458,0.129,0.659-0.07L313.95,176.687z"/>
					<path fill="#6F6F6F" d="M308.682,178.561c0.2-0.201,0.231-0.5,0.072-0.66l-1.89-1.89c-0.161-0.161-0.458-0.126-0.659,0.074
						l-2.46,2.461c-0.2,0.199-0.233,0.494-0.072,0.655l1.891,1.89c0.16,0.16,0.458,0.129,0.657-0.07L308.682,178.561z"/>
				</g>
				<g>
					<path fill="#6F6F6F" d="M286.676,145.122l-2.77,2.812l-1.818,1.816c-0.199,0.199-0.231,0.496-0.07,0.657l1.888,1.889
						c0.163,0.161,0.46,0.13,0.66-0.07l2.462-2.462c0.199-0.199,0.228-0.495,0.067-0.656l-0.308-0.309c0,0-0.29-0.289,0.456-1.036
						l2.462-2.462c0.2-0.2,0.231-0.496,0.07-0.656l-1.018-1.021c-0.163-0.161-0.459-0.129-0.659,0.072l-1.268,1.268
						C286.774,145.021,286.723,145.072,286.676,145.122z"/>
				</g>
			</g>
			
				<rect x="304.411" y="126.759" transform="matrix(-0.7071 -0.7071 0.7071 -0.7071 443.7191 457.1288)" fill="#D5D6DA" width="24.241" height="19.822"/>
		</g>
		<path fill="#D5D6DA" d="M237.629,135.933c-1.019,1.02-0.789,2.905,0.514,4.208l74.917,74.919c1.306,1.304,3.189,1.532,4.208,0.513
			l2.661-2.66c1.019-1.02,0.791-2.903-0.513-4.208l-74.918-74.918c-1.303-1.303-3.189-1.533-4.208-0.513L237.629,135.933z"/>
		<g>
			<g>
				<path fill="#113C4F" d="M73.787,174.183c-0.943,0.039-1.886,0.356-2.694,0.975c-0.785,0.6-1.331,1.397-1.624,2.271
					c-0.483,1.447-0.265,3.105,0.735,4.411c0.701,0.916,1.667,1.505,2.71,1.746c1.339,0.31,2.798,0.043,3.973-0.857
					c1.205-0.921,1.843-2.305,1.867-3.709c0.016-1.036-0.3-2.088-0.977-2.975C76.795,174.763,75.289,174.121,73.787,174.183z"/>
				<path fill="#FFFFFF" d="M73.886,176.485c-0.486,0.019-0.973,0.183-1.392,0.503c-0.405,0.31-0.686,0.723-0.839,1.172
					c-0.248,0.748-0.136,1.603,0.381,2.279c0.361,0.474,0.86,0.778,1.399,0.901c0.69,0.162,1.447,0.021,2.051-0.441
					c0.622-0.476,0.951-1.189,0.965-1.915c0.009-0.536-0.155-1.078-0.505-1.536C75.438,176.783,74.659,176.45,73.886,176.485z"/>
				<path fill="#FF9900" d="M76.887,182.729c-1.175,0.9-2.634,1.167-3.973,0.857l9.238,21.094c0,0,3.338,7.14,7.437,7.131
					l-3.663-8.718l-8.001-19.052l16.342,12.954l7.409,5.872c1.114-3.946-4.864-9.081-4.864-9.081l-18.058-14.765
					C78.73,180.425,78.092,181.809,76.887,182.729z"/>
				<path fill="#B5F6FF" d="M64.1,147.653c-6.578,2.613-1.143,12.143,0.5,16.048c0.668,1.593,1.648,3.943,2.57,6.168
					c-1.846-1.454-3.773-2.976-5.093-4.019c-3.323-2.633-11.035-10.437-15.322-4.805c-4.307,5.659,2.169,9.946,5.394,11.21
					c5.451,2.137,7.751-2.3,7.751-2.3l9.577,7.395c-0.003,0.024-0.003,0.052-0.007,0.078c0.293-0.874,0.839-1.672,1.624-2.271
					c0.808-0.619,1.752-0.936,2.694-0.975l-4.647-11.469c0,0,4.893-1.022,4.302-6.85C73.096,152.421,70.709,145.031,64.1,147.653z
					 M56.59,169.542c-1.435,1.812-4.418,1.838-6.664,0.061c-2.244-1.783-2.898-4.688-1.462-6.503
					c1.436-1.809,4.416-1.836,6.661-0.057C57.37,164.821,58.023,167.732,56.59,169.542z M71.486,153.012
					c1.105,2.639,0.277,5.507-1.85,6.401c-2.132,0.894-4.759-0.519-5.869-3.161c-1.102-2.638-0.278-5.506,1.852-6.399
					C67.753,148.956,70.377,150.374,71.486,153.012z"/>
			</g>
			<g>
				<path fill="#0ABFBC" d="M73.787,174.183c-0.943,0.039-1.886,0.356-2.694,0.975c-0.785,0.6-1.331,1.397-1.624,2.271
					c-0.483,1.447-0.265,3.105,0.735,4.411c0.701,0.916,1.667,1.505,2.71,1.746c1.339,0.31,2.798,0.043,3.973-0.857
					c1.205-0.921,1.843-2.305,1.867-3.709c0.016-1.036-0.3-2.088-0.977-2.975C76.795,174.763,75.289,174.121,73.787,174.183z"/>
				<path fill="#FFFFFF" d="M73.886,176.485c-0.486,0.019-0.973,0.183-1.392,0.503c-0.405,0.31-0.686,0.723-0.839,1.172
					c-0.248,0.748-0.136,1.603,0.381,2.279c0.361,0.474,0.86,0.778,1.399,0.901c0.69,0.162,1.447,0.021,2.051-0.441
					c0.622-0.476,0.951-1.189,0.965-1.915c0.009-0.536-0.155-1.078-0.505-1.536C75.438,176.783,74.659,176.45,73.886,176.485z"/>
				<path fill="#FF9900" d="M76.887,182.729c-1.175,0.9-2.634,1.167-3.973,0.857l9.238,21.094c0,0,3.338,7.14,7.437,7.131
					l-3.663-8.718l-8.001-19.052l16.342,12.954l7.409,5.872c1.114-3.946-4.864-9.081-4.864-9.081l-18.058-14.765
					C78.73,180.425,78.092,181.809,76.887,182.729z"/>
				<path fill="#B5F6FF" d="M64.1,147.653c-6.578,2.613-1.143,12.143,0.5,16.048c0.668,1.593,1.648,3.943,2.57,6.168
					c-1.846-1.454-3.773-2.976-5.093-4.019c-3.323-2.633-11.035-10.437-15.322-4.805c-4.307,5.659,2.169,9.946,5.394,11.21
					c5.451,2.137,7.751-2.3,7.751-2.3l9.577,7.395c-0.003,0.024-0.003,0.052-0.007,0.078c0.293-0.874,0.839-1.672,1.624-2.271
					c0.808-0.619,1.752-0.936,2.694-0.975l-4.647-11.469c0,0,4.893-1.022,4.302-6.85C73.096,152.421,70.709,145.031,64.1,147.653z
					 M56.59,169.542c-1.435,1.812-4.418,1.838-6.664,0.061c-2.244-1.783-2.898-4.688-1.462-6.503
					c1.436-1.809,4.416-1.836,6.661-0.057C57.37,164.821,58.023,167.732,56.59,169.542z M71.486,153.012
					c1.105,2.639,0.277,5.507-1.85,6.401c-2.132,0.894-4.759-0.519-5.869-3.161c-1.102-2.638-0.278-5.506,1.852-6.399
					C67.753,148.956,70.377,150.374,71.486,153.012z"/>
			</g>
		</g>
		<g>
			<g>
				<g>
					
						<rect x="111.209" y="97.476" transform="matrix(-0.7739 0.6334 -0.6334 -0.7739 333.794 155.0282)" fill="#FFFFFF" width="56.023" height="79.258"/>
					<g>
						<path fill="#113C4F" d="M135.295,92.597c0.609-0.498,1.515-0.477,2.047,0.17c0.467,0.571,0.371,1.54-0.24,2.039
							c-0.573,0.47-1.542,0.371-2.007-0.2C134.563,93.958,134.722,93.065,135.295,92.597z"/>
						<path fill="#113C4F" d="M139.046,97.18c0.61-0.5,1.549-0.439,2.014,0.13c0.531,0.649,0.402,1.577-0.207,2.076
							c-0.573,0.47-1.51,0.412-2.039-0.237C138.347,98.58,138.474,97.646,139.046,97.18z"/>
						<path fill="#113C4F" d="M142.797,101.763c0.612-0.5,1.546-0.441,2.044,0.168c0.469,0.574,0.375,1.542-0.235,2.041
							c-0.573,0.469-1.543,0.371-2.012-0.202C142.096,103.162,142.226,102.23,142.797,101.763z"/>
						<path fill="#113C4F" d="M146.546,106.343c0.609-0.5,1.515-0.478,2.047,0.171c0.496,0.608,0.37,1.539-0.24,2.038
							c-0.573,0.47-1.51,0.409-2.008-0.199C145.814,107.704,145.974,106.812,146.546,106.343z"/>
						<path fill="#113C4F" d="M150.264,110.888c0.611-0.499,1.546-0.441,2.077,0.209c0.5,0.61,0.371,1.537-0.238,2.034
							c-0.573,0.47-1.51,0.414-2.008-0.197C149.564,112.284,149.693,111.357,150.264,110.888z"/>
						<path fill="#113C4F" d="M154.047,115.51c0.609-0.5,1.515-0.48,2.016,0.132c0.527,0.643,0.403,1.576-0.208,2.077
							c-0.571,0.467-1.512,0.406-2.039-0.238C153.315,116.87,153.475,115.978,154.047,115.51z"/>
						<path fill="#113C4F" d="M157.766,120.053c0.61-0.5,1.577-0.404,2.076,0.207c0.499,0.61,0.339,1.5-0.268,1.999
							c-0.574,0.468-1.48,0.45-1.978-0.16C157.096,121.489,157.193,120.52,157.766,120.053z"/>
						<path fill="#113C4F" d="M161.546,124.67c0.61-0.499,1.517-0.475,2.013,0.131c0.501,0.611,0.405,1.58-0.205,2.079
							c-0.573,0.469-1.542,0.37-2.041-0.239C160.815,126.034,160.974,125.139,161.546,124.67z"/>
						<path fill="#113C4F" d="M165.298,129.254c0.609-0.498,1.544-0.441,2.044,0.168c0.469,0.573,0.373,1.542-0.238,2.041
							c-0.573,0.47-1.54,0.371-2.01-0.2C164.596,130.652,164.725,129.723,165.298,129.254z"/>
						<path fill="#113C4F" d="M169.045,133.834c0.611-0.5,1.518-0.475,2.047,0.171c0.468,0.573,0.373,1.541-0.238,2.041
							c-0.571,0.467-1.542,0.371-2.009-0.202C168.316,135.199,168.473,134.303,169.045,133.834z"/>
						<path fill="#113C4F" d="M172.767,138.381c0.611-0.5,1.546-0.442,2.076,0.207c0.498,0.609,0.341,1.501-0.27,2.002
							c-0.573,0.468-1.479,0.446-1.978-0.163C172.066,139.777,172.195,138.848,172.767,138.381z"/>
						<path fill="#113C4F" d="M176.517,142.962c0.608-0.498,1.547-0.44,2.046,0.17c0.497,0.61,0.402,1.577-0.208,2.077
							c-0.573,0.469-1.541,0.371-2.039-0.236C175.816,144.361,175.943,143.431,176.517,142.962z"/>
						<path fill="#113C4F" d="M180.265,147.543c0.611-0.5,1.577-0.401,2.046,0.17c0.532,0.648,0.371,1.539-0.237,2.038
							c-0.573,0.47-1.479,0.451-2.009-0.199C179.596,148.981,179.692,148.011,180.265,147.543z"/>
						<g>
							<path fill="#DB2F27" d="M140.952,89.875c-0.247-0.304-0.656-0.416-0.923-0.197l-3.543,2.899
								c-0.231,0.19-0.199,0.61,0.049,0.913c0.25,0.307,0.624,0.378,0.854,0.191l3.543-2.9
								C141.201,90.563,141.204,90.181,140.952,89.875z"/>
						</g>
						<g>
							<path fill="#DB2F27" d="M144.704,94.458c-0.248-0.304-0.658-0.418-0.924-0.199l-3.543,2.899
								c-0.229,0.189-0.199,0.613,0.05,0.914c0.249,0.304,0.625,0.38,0.854,0.192l3.545-2.9
								C144.951,95.144,144.952,94.762,144.704,94.458z"/>
						</g>
						<g>
							<path fill="#DB2F27" d="M148.454,99.041c-0.279-0.344-0.657-0.419-0.925-0.2l-3.543,2.901
								c-0.231,0.187-0.231,0.571,0.051,0.915c0.249,0.302,0.624,0.379,0.855,0.19l3.542-2.9
								C148.703,99.728,148.703,99.345,148.454,99.041z"/>
						</g>
						<g>
							<path fill="#DB2F27" d="M152.172,103.585c-0.25-0.307-0.625-0.379-0.891-0.16l-3.544,2.9
								c-0.229,0.187-0.233,0.569,0.018,0.875c0.249,0.304,0.654,0.415,0.884,0.228l3.544-2.9
								C152.449,104.308,152.421,103.887,152.172,103.585z"/>
						</g>
						<g>
							<path fill="#DB2F27" d="M155.923,108.167c-0.25-0.307-0.627-0.383-0.895-0.164l-3.545,2.9
								c-0.229,0.189-0.228,0.573,0.023,0.879c0.249,0.304,0.655,0.415,0.884,0.228l3.543-2.899
								C156.201,108.891,156.172,108.471,155.923,108.167z"/>
						</g>
						<g>
							<path fill="#DB2F27" d="M159.704,112.787c-0.25-0.306-0.657-0.417-0.924-0.199l-3.545,2.901
								c-0.228,0.187-0.197,0.606,0.051,0.913c0.248,0.304,0.623,0.379,0.854,0.19l3.542-2.9
								C159.952,113.474,159.953,113.089,159.704,112.787z"/>
						</g>
						<g>
							<path fill="#DB2F27" d="M163.423,117.329c-0.25-0.305-0.624-0.378-0.891-0.157l-3.544,2.899
								c-0.229,0.189-0.234,0.57,0.018,0.874c0.249,0.306,0.655,0.419,0.886,0.231l3.543-2.9
								C163.701,118.057,163.674,117.634,163.423,117.329z"/>
						</g>
						<g>
							<path fill="#DB2F27" d="M167.205,121.949c-0.28-0.343-0.655-0.416-0.925-0.195l-3.541,2.897
								c-0.232,0.19-0.234,0.57,0.048,0.914c0.25,0.304,0.622,0.379,0.853,0.19l3.544-2.901
								C167.452,122.637,167.453,122.255,167.205,121.949z"/>
						</g>
						<g>
							<path fill="#DB2F27" d="M170.923,126.492c-0.251-0.303-0.627-0.378-0.893-0.158l-3.544,2.898
								c-0.23,0.189-0.23,0.571,0.018,0.876c0.25,0.305,0.657,0.419,0.886,0.231l3.544-2.901
								C171.202,127.219,171.172,126.798,170.923,126.492z"/>
						</g>
						<g>
							<path fill="#DB2F27" d="M174.703,131.112c-0.249-0.304-0.686-0.453-0.953-0.235l-3.545,2.901
								c-0.229,0.189-0.169,0.645,0.079,0.951c0.25,0.305,0.627,0.38,0.857,0.192l3.544-2.9
								C174.953,131.801,174.953,131.418,174.703,131.112z"/>
						</g>
						<g>
							<path fill="#DB2F27" d="M178.424,135.657c-0.25-0.305-0.625-0.376-0.892-0.157l-3.543,2.9
								c-0.229,0.188-0.233,0.568,0.016,0.874c0.25,0.303,0.655,0.415,0.885,0.229l3.543-2.902
								C178.701,136.381,178.671,135.962,178.424,135.657z"/>
						</g>
						<g>
							<path fill="#DB2F27" d="M182.172,140.24c-0.218-0.27-0.657-0.417-0.923-0.199l-3.544,2.9c-0.229,0.189-0.17,0.646,0.05,0.913
								c0.25,0.307,0.656,0.417,0.885,0.231l3.545-2.901C182.451,140.965,182.424,140.545,182.172,140.24z"/>
						</g>
						<g>
							<path fill="#DB2F27" d="M185.924,144.821c-0.249-0.304-0.625-0.379-0.894-0.159l-3.543,2.9
								c-0.231,0.189-0.232,0.571,0.017,0.876c0.25,0.305,0.625,0.376,0.854,0.189l3.543-2.901
								C186.169,145.507,186.173,145.126,185.924,144.821z"/>
						</g>
					</g>
				</g>
				
					<rect x="135.084" y="144.409" transform="matrix(-0.7739 0.6333 -0.6333 -0.7739 361.3351 171.6189)" fill="#F9372F" width="29.893" height="11.809"/>
				
					<rect x="128.589" y="141.008" transform="matrix(-0.7739 0.6333 -0.6333 -0.7739 344.7885 161.6564)" fill="#FF9900" width="29.894" height="2.741"/>
				
					<rect x="131.604" y="137.386" transform="matrix(-0.7739 0.6333 -0.6333 -0.7739 337.2386 157.1057)" fill="#FF9900" width="17.937" height="2.741"/>
			</g>
		</g>
		<g>
			<path fill="#F7AD68" d="M96.351,154.31c0,0,1.501,1.93,6.094,0.212c4.592-1.72,13.377-0.652,13.377-0.652s7.752,1.806,9.961,2.23
				c2.208,0.426,3.904,1.084,3.484,3.202c-0.421,2.116-5.006,1.865-11.447,1.423c0,0-0.963,0.091,2.281,1.479
				c3.246,1.389,14.057,6.507,14.057,6.507s3.808,1.329,2.543,4.019c-1.152,2.45-3.384,0.857-4.793,0.195
				c-1.408-0.662-8.219-3.828-8.219-3.828s-0.717,0.17-0.309,0.66l11.922,5.375c0,0,2.183,0.904,1.387,2.665
				c-0.937,2.075-2.31,1.499-3.203,1.081c-0.892-0.421-11.971-5.399-11.971-5.399s-0.889,0.059-0.34,0.725l11.173,5.023
				c0,0,1.48,0.629,0.617,2.465c-0.865,1.84-2.246,1.121-2.246,1.121l-11.361-5.109c0,0-0.621-0.021-0.287,0.613l9.433,4.203
				c0,0,1.211,0.707,0.326,2.465c-0.883,1.76-2.275,1.081-2.275,1.081l-28.667-13.244c0,0-3.376-1.42-3.575-3.557
				c-0.202-2.134-3.655-2.836-3.655-2.836L96.351,154.31z"/>
			<path fill="#F9372F" d="M83.884,80.067L50.311,46.495c0,0-20.317,23.735-23.311,27.585c-2.993,3.848-5.987,8.553-3.206,16.466
				c2.78,7.912,18.629,50.843,18.629,50.843c1.769,7.847,7.956,10.373,7.14,9.998c-6.737-3.101,40.632,20.316,40.632,20.316
				l9.195-20.103l-32.155-16.619c0,0-2.809-1.451-6.659-11.93c-2.174-5.915-10.332-23.456-6.094-26.409
				C60.797,92.238,72.763,91.401,83.884,80.067z"/>
			<path fill="#F7AD68" d="M158.126,92.535c0,0,1.929,1.503,0.212,6.094c-1.72,4.592-0.651,13.377-0.651,13.377
				s1.806,7.752,2.23,9.96c0.427,2.208,1.084,3.903,3.202,3.486c2.117-0.422,1.865-5.006,1.424-11.448c0,0,0.09-0.963,1.478,2.281
				c1.39,3.245,6.508,14.055,6.508,14.055s1.329,3.808,4.019,2.544c2.45-1.152,0.857-3.385,0.195-4.793
				c-0.662-1.408-3.828-8.218-3.828-8.218s0.17-0.717,0.66-0.309l5.377,11.922c0,0,0.902,2.183,2.663,1.386
				c2.077-0.937,1.499-2.309,1.083-3.203c-0.422-0.891-5.399-11.971-5.399-11.971s0.058-0.889,0.723-0.34l5.023,11.174
				c0,0,0.628,1.48,2.466,0.615c1.838-0.864,1.12-2.246,1.12-2.246l-5.109-11.36c0,0-0.02-0.622,0.614-0.288l4.202,9.433
				c0,0,0.707,1.21,2.466,0.326c1.761-0.884,1.08-2.274,1.08-2.274L176.64,94.07c0,0-1.422-3.375-3.557-3.574
				c-2.134-0.204-2.836-3.655-2.836-3.655L158.126,92.535z"/>
			<path fill="#F9372F" d="M83.884,80.067L50.311,46.495c0,0,23.736-20.316,27.586-23.311c3.848-2.993,8.552-5.987,16.466-3.207
				c7.912,2.781,50.842,18.63,50.842,18.63c7.847,1.768,10.373,7.955,9.998,7.139c-3.1-6.737,20.315,40.632,20.315,40.632
				l-20.103,9.195l-16.617-32.155c0,0-1.452-2.81-11.931-6.658c-5.915-2.175-23.455-10.333-26.409-6.094
				C96.054,56.98,95.217,68.947,83.884,80.067z"/>
			<path fill="#F7AD68" d="M78.853,68.503c1.15,2.449,1.305,5.698,0.222,6.78c-1.08,1.081-4.33,0.927-6.779-0.223
				c-4.656,3.258-13.399,7.811-23.943,5.735l2.102-18.381l18.816,3.064l-3.061-18.819l18.381-2.101
				C86.664,55.104,82.113,63.845,78.853,68.503z"/>
			<circle fill="#FFD773" cx="22.689" cy="18.873" r="13.729"/>
			<path fill="#FFDB80" d="M69.403,17.648C58.629,6.875,42.121,1.367,22.664,18.872C4.598,38.951,11.419,55.507,22.502,66.626
				c11.85,11.891,26.15,14.468,26.15,14.468s26.827-14.406,36.237-36.237C84.889,44.857,83.758,31.999,69.403,17.648z"/>
		</g>
		<g>
			<path fill="#F7AD68" d="M353.65,154.309c0,0-1.501,1.932-6.095,0.214c-4.59-1.721-13.377-0.654-13.377-0.654
				s-7.753,1.808-9.959,2.231c-2.207,0.426-3.904,1.085-3.484,3.203c0.42,2.115,5.005,1.864,11.447,1.422c0,0,0.963,0.092-2.284,1.48
				c-3.245,1.39-18.108,8.407-18.108,8.407s-3.81,1.329-2.544,4.02c1.153,2.45,3.388,0.856,4.793,0.195
				c1.41-0.664,12.273-5.729,12.273-5.729s0.715,0.17,0.309,0.66l-6.527,3.068c0,0-2.182,0.902-1.385,2.665
				c0.936,2.076,2.307,1.499,3.203,1.08c0.89-0.42,6.571-3.09,6.571-3.09s0.891,0.058,0.344,0.726l-5.778,2.714
				c0,0-1.481,0.626-0.617,2.464c0.864,1.84,2.246,1.123,2.246,1.123l5.967-2.803c0,0,0.618-0.019,0.284,0.613l-4.037,1.895
				c0,0-1.21,0.707-0.324,2.465c0.884,1.76,2.274,1.081,2.274,1.081l23.272-10.935c0,0,3.376-1.422,3.574-3.556
				c0.205-2.135,3.659-2.839,3.659-2.839L353.65,154.309z"/>
			<path fill="#F7AD68" d="M321.803,87.175c0,0-1.226,2.114,2.089,5.727c3.317,3.612,5.619,12.156,5.619,12.156
				s1.233,7.865,1.668,10.071c0.431,2.207,0.456,4.027-1.662,4.431c-2.122,0.405-3.606-3.942-5.614-10.078
				c0,0-0.445-0.859-0.514,2.67c-0.07,3.53-1.003,19.941-1.003,19.941s0.196,4.027-2.774,3.863c-2.704-0.148-2.063-2.816-1.976-4.369
				c0.084-1.554,0.708-13.525,0.708-13.525s-0.426-0.6-0.728-0.039l-0.397,7.199c0,0-0.019,2.362-1.951,2.285
				c-2.275-0.089-2.252-1.58-2.201-2.563c0.054-0.987,0.4-7.255,0.4-7.255s-0.388-0.802-0.799-0.042l-0.349,6.372
				c0,0-0.028,1.609-2.056,1.496c-2.027-0.112-1.879-1.662-1.879-1.662l0.359-6.58c0,0-0.215-0.583-0.675-0.038l-0.245,4.455
				c0,0-0.2,1.385-2.163,1.227c-1.962-0.162-1.857-1.706-1.857-1.706l1.413-25.672c0,0,0.054-3.663,1.957-4.648
				c1.903-0.988,1.261-4.453,1.261-4.453L321.803,87.175z"/>
			<path fill="#B5F6FF" d="M366.117,80.068l33.572-33.573c0,0-23.736-20.317-27.585-23.311c-3.85-2.993-8.555-5.987-16.466-3.207
				c-7.914,2.78-39.989,14.329-39.989,14.329s-7.914,2.352-8.341,8.34c-0.427,5.988-3.635,45.977-3.635,45.977l22.882,1.07
				l2.568-32.293c0,0-0.537-5.239,5.558-6.842c6.095-1.605,11.546-6.844,14.86,0.107C352.858,57.614,354.783,68.947,366.117,80.068z"
				/>
			<path fill="#B5F6FF" d="M366.117,80.068l33.572-33.573c0,0,20.318,23.737,23.309,27.583c2.994,3.85,5.989,8.556,3.208,16.466
				c-2.779,7.914-18.629,50.844-18.629,50.844c-1.766,7.847-7.954,10.372-7.138,9.998c6.737-3.102-40.631,20.316-40.631,20.316
				l-9.195-20.103l32.153-16.619c0,0,2.809-1.45,6.661-11.928c2.172-5.916,10.331-23.457,6.092-26.41
				C389.205,92.238,377.236,91.401,366.117,80.068z"/>
			<g>
				<path fill="#F7AD68" d="M371.146,68.501c-1.149,2.45-1.305,5.7-0.221,6.781c1.081,1.081,4.33,0.927,6.779-0.224
					c4.656,3.257,13.399,7.812,23.943,5.737l-2.098-18.381l-18.82,3.065l3.064-18.82l-18.382-2.1
					C363.337,55.105,367.888,63.845,371.146,68.501z"/>
				<path fill="#4F2F15" d="M365.113,44.857c0,0,8.591,2.963,9.92,8.987c1.331,6.02,5.695,11.635,5.695,11.635
					s5.612,4.363,11.634,5.695c6.025,1.328,8.986,9.92,8.986,9.92s14.3-2.577,26.151-14.467
					c11.081-11.118,17.904-27.675-0.163-47.756c-19.455-17.504-35.964-11.996-46.739-1.224
					C366.243,31.998,365.113,44.857,365.113,44.857z"/>
			</g>
		</g>
		<g>
			
				<rect x="97.046" y="251.633" transform="matrix(0.8292 0.559 -0.559 0.8292 186.0775 -22.5816)" fill="#F9372F" width="65.882" height="83.075"/>
			<polygon fill="#FFFFFF" points="132.774,339.216 86.254,307.857 122.504,254.08 133.497,251.489 173.66,278.564 		"/>
			
				<rect x="139.532" y="277.977" transform="matrix(-0.8292 -0.559 0.559 -0.8292 113.9376 607.8568)" fill="#F2E9E1" width="20.629" height="17.084"/>
			
				<rect x="123.695" y="266.025" transform="matrix(0.8292 0.5589 -0.5589 0.8292 172.3196 -29.4518)" fill="#F2E9E1" width="21.314" height="2.439"/>
			
				<rect x="120.968" y="270.071" transform="matrix(0.8292 0.5589 -0.5589 0.8292 174.1166 -27.2359)" fill="#F2E9E1" width="21.314" height="2.441"/>
			
				<rect x="118.239" y="274.119" transform="matrix(0.8292 0.559 -0.559 0.8292 175.9168 -25.0189)" fill="#F2E9E1" width="21.314" height="2.44"/>
			
				<rect x="115.51" y="278.165" transform="matrix(0.8292 0.5589 -0.5589 0.8292 177.7079 -22.8037)" fill="#F2E9E1" width="21.317" height="2.443"/>
			
				<rect x="110.795" y="288.72" transform="matrix(0.8292 0.559 -0.559 0.8292 184.8081 -24.8684)" fill="#F2E9E1" width="44.595" height="2.441"/>
			
				<rect x="108.066" y="292.767" transform="matrix(0.8292 0.559 -0.559 0.8292 186.5995 -22.6512)" fill="#F2E9E1" width="44.591" height="2.441"/>
			
				<rect x="106.037" y="294.526" transform="matrix(0.8292 0.5589 -0.5589 0.8292 186.5061 -18.9355)" fill="#F2E9E1" width="36.407" height="2.441"/>
			
				<rect x="102.609" y="300.863" transform="matrix(0.8292 0.559 -0.559 0.8292 190.187 -18.2197)" fill="#F2E9E1" width="44.593" height="2.439"/>
			
				<rect x="99.882" y="304.908" transform="matrix(0.8292 0.5589 -0.5589 0.8292 191.977 -16.0052)" fill="#F2E9E1" width="44.591" height="2.441"/>
			<polygon fill="#F2E9E1" points="137.257,323.654 100.279,298.727 101.642,296.703 138.618,321.627 		"/>
			
				<rect x="95.454" y="309.635" transform="matrix(0.8292 0.5589 -0.5589 0.8292 192.8199 -9.3587)" fill="#F2E9E1" width="32.542" height="2.44"/>
			
				<rect x="93.837" y="310.046" transform="matrix(0.8293 0.5588 -0.5588 0.8293 191.6366 -4.7546)" fill="#F2E9E1" width="19.526" height="2.442"/>
			
				<rect x="123.552" y="326.785" transform="matrix(0.8292 0.5589 -0.5589 0.8292 205.2476 -15.7703)" fill="#F2E9E1" width="9.761" height="2.443"/>
			<polygon fill="#F2E9E1" points="133.497,251.489 122.504,254.08 128.862,258.365 		"/>
			<path fill="#FF9900" d="M155.621,263.078l-0.356-0.239c0.043-0.057,0.097-0.103,0.136-0.166c1.314-1.943,0.798-4.579-1.143-5.89
				c-1.945-1.31-4.582-0.798-5.893,1.149c-0.039,0.06-0.063,0.126-0.102,0.186l-0.353-0.238c-1.845-1.244-4.351-0.755-5.595,1.087
				c-1.243,1.844-0.755,4.352,1.089,5.595l7.712,5.199c1.843,1.243,4.348,0.757,5.594-1.089
				C157.951,266.827,157.467,264.323,155.621,263.078z M150.284,259.226c0.596-0.886,1.794-1.119,2.678-0.523
				c0.885,0.597,1.118,1.792,0.52,2.68c-0.042,0.06-0.107,0.097-0.153,0.152l-3.127-2.109
				C150.234,259.361,150.243,259.287,150.284,259.226z"/>
		</g>
		<g>
			<g>
				<path fill="#F7AD68" d="M170.512,346.753c0,0,0.879-0.025-0.77-6.719c-1.649-6.692-2.269-13.267-2.728-13.986
					c-0.459-0.719-5.645-8.194-6.698-9.191c-1.055-0.998-4.717-1.043-4.026,2.746C156.978,323.393,162.091,344.2,170.512,346.753z"/>
				<path fill="#F7AD68" d="M154.263,321.262c0,0-1.634-1.556-2.927-0.644c-1.292,0.915-2.44,2.681-1.129,4.634
					c0,0-3.242,1.493-1.019,5.021c0,0-2.57,1.273-0.87,4.23c1.292,2.244,4.054,5.058,4.054,5.058S161.452,333.064,154.263,321.262z"
					/>
				<g>
					<path fill="#113C4F" d="M146.414,306.306c0,0-0.124,0.477,0.198,0.973c0.337,0.514,0.765,0.836,0.916,0.738
						c0.178-0.117,0.08-0.655-0.255-1.168C146.947,306.353,146.414,306.306,146.414,306.306z"/>
					
						<rect x="148.878" y="324.887" transform="matrix(0.5461 0.8377 -0.8377 0.5461 346.1284 14.4843)" fill="#FFFFFF" width="21.642" height="3.498"/>
					<path fill="#B5F6FF" d="M165.446,336.726c-0.507,0.327-1.077,0.282-1.303-0.069l2.931-1.907c0.226,0.348,0.038,0.886-0.441,1.2
						L165.446,336.726z"/>
					
						<rect x="147.197" y="312.248" transform="matrix(-0.5457 -0.838 0.838 -0.5457 -29.0053 612.2693)" fill="#FF9900" width="8.53" height="3.498"/>
					<polygon fill="#B5F6FF" points="149.976,308.516 147.248,306.759 146.567,307.205 147.045,310.423 147.669,311.378 
						150.598,309.47 				"/>
					
						<rect x="153.586" y="316.199" transform="matrix(0.5471 0.8371 -0.8371 0.5471 335.901 15.0571)" fill="#B5F6FF" width="0.899" height="3.498"/>
				</g>
				<path fill="#F7AD68" d="M144.975,355.658c0,0,1.777-10.009,4.757-13.462c2.982-3.452,4.634-7.304,4.427-9.495
					c-0.207-2.193-2.108-12.593,2.131-13.098c3.212-0.381,3.486,9.572,3.486,9.572l1.853,3.465l8.883,14.112
					c0,0-11.062,13.194-12.628,14.848L144.975,355.658z"/>
			</g>
			<path fill="#F7AD68" d="M87.175,321.803c0,0,2.114-1.226,5.729,2.089c3.611,3.317,12.155,5.619,12.155,5.619
				s7.865,1.234,10.071,1.668c2.207,0.432,4.025,0.457,4.431-1.662c0.404-2.12-3.942-3.606-10.078-5.614c0,0-0.859-0.445,2.669-0.514
				c3.531-0.07,17.254-1.07,17.254-1.07s4.025,0.196,3.863-2.772c-0.15-2.704-2.817-2.063-4.37-1.977
				c-1.555,0.087-10.836,0.773-10.836,0.773s-0.601-0.425-0.04-0.728l11.818-0.979c0,0,2.364-0.019,2.286-1.951
				c-0.09-2.276-1.581-2.255-2.564-2.202c-0.985,0.055-11.873,0.982-11.873,0.982s-0.804-0.386-0.043-0.798l10.992-0.933
				c0,0,1.608-0.028,1.496-2.055c-0.112-2.029-1.661-1.882-1.661-1.882l-11.2,0.944c0,0-0.583-0.215-0.036-0.676l9.073-0.826
				c0,0,1.386-0.2,1.226-2.163c-0.161-1.963-1.706-1.855-1.706-1.855l-30.292,1.995c0,0-3.662,0.053-4.647,1.956
				c-0.988,1.903-4.452,1.261-4.452,1.261L87.175,321.803z"/>
			<path fill="#0ABFBC" d="M80.068,366.117l-33.573,33.572c0,0-20.317-23.736-23.311-27.585c-2.994-3.849-5.988-8.554-3.207-16.466
				c2.78-7.914,14.329-39.989,14.329-39.989s2.351-7.914,8.341-8.341c5.987-0.427,45.976-3.635,45.976-3.635l1.07,22.882
				L57.4,329.121c0,0-5.239-0.535-6.844,5.56c-1.603,6.095-6.844,11.546,0.107,14.86C57.614,352.858,68.948,354.783,80.068,366.117z"
				/>
			<path fill="#0ABFBC" d="M80.068,366.117l-33.573,33.572c0,0,23.736,20.318,27.583,23.309c3.849,2.995,8.556,5.989,16.467,3.208
				c7.913-2.779,41.98-16.467,41.98-16.467c7.847-1.769,10.374-7.955,9.999-7.138c-3.102,6.736,20.316-40.632,20.316-40.632
				l-20.103-9.196l-16.618,32.156c0,0-1.452,2.808-11.929,6.659c-5.917,2.173-14.595,8.17-17.548,3.932
				C92.239,389.205,91.401,377.236,80.068,366.117z"/>
			<g>
				<path fill="#F7AD68" d="M68.502,371.146c2.449-1.149,5.699-1.303,6.781-0.221c1.081,1.081,0.926,4.33-0.223,6.779
					c3.258,4.656,7.811,13.399,5.736,23.943l-18.379-2.099l3.062-18.819l-18.817,3.063l-2.102-18.38
					C55.104,363.337,63.846,367.888,68.502,371.146z"/>
				<path fill="#4F2F15" d="M44.857,365.113c0,0,2.963,8.591,8.986,9.92c6.021,1.331,11.634,5.695,11.634,5.695
					s4.364,5.612,5.695,11.636c1.329,6.022,9.921,8.985,9.921,8.985s-2.576,14.299-14.466,26.151
					c-11.119,11.081-27.675,17.904-47.756-0.165c-17.504-19.455-11.996-35.963-1.224-46.737
					C31.999,366.242,44.857,365.113,44.857,365.113z"/>
			</g>
		</g>
		<g>
			<g>
				
					<rect x="83.428" y="110.758" transform="matrix(0.4752 -0.8799 0.8799 0.4752 -47.4911 146.9639)" fill="#F9372F" width="32.046" height="5.069"/>

				
					<rect x="83.428" y="110.758" transform="matrix(0.4752 -0.8799 0.8799 0.4752 -47.4911 146.9639)" fill="#F2E9E1" width="32.046" height="5.069"/>
				
					<rect x="83.449" y="111.99" transform="matrix(0.4752 -0.8799 0.8799 0.4752 -47.4908 146.9881)" fill="#F9372F" width="32.045" height="2.63"/>
				<polygon fill="#F2E9E1" points="90.37,131.725 90.073,131.565 93.015,128.028 94.068,128.595 			"/>
				<polygon fill="#F2E9E1" points="89.063,131.018 89.607,126.188 90.701,126.778 89.401,131.202 			"/>
				<polygon fill="#FFFFFF" points="89.401,131.202 90.701,126.778 93.015,128.028 90.073,131.565 			"/>
				<polygon fill="#2DB3B1" points="89.401,131.202 90.073,131.565 90.37,131.725 88.833,132.957 89.063,131.018 			"/>
			</g>
			<g>
				
					<rect x="88.78" y="116.783" transform="matrix(-0.4724 0.8814 -0.8814 -0.4724 259.4771 83.3071)" fill="#F9372F" width="32.046" height="5.072"/>
				
					<rect x="88.78" y="116.783" transform="matrix(-0.4724 0.8814 -0.8814 -0.4724 259.4771 83.3071)" fill="#FF6A00" width="32.046" height="5.072"/>
				
					<rect x="88.803" y="118.016" transform="matrix(-0.4724 0.8814 -0.8814 -0.4724 259.5189 83.3016)" fill="#FF9900" width="32.046" height="2.629"/>
				<polygon fill="#F2E9E1" points="115.18,101.583 114.885,101.425 113.553,105.829 114.608,106.394 			"/>
				<polygon fill="#F2E9E1" points="113.871,100.881 110.137,103.998 111.235,104.586 114.209,101.064 			"/>
				<polygon fill="#FFFFFF" points="114.209,101.064 111.235,104.586 113.553,105.829 114.885,101.425 			"/>
				<polygon fill="#2DB3B1" points="114.209,101.064 114.885,101.425 115.18,101.583 115.361,99.622 113.871,100.881 			"/>
			</g>
			
				<rect x="95.907" y="131.701" transform="matrix(-0.4744 0.8803 -0.8803 -0.4744 260.901 112.7014)" fill="#2DB3B1" width="1.798" height="5.072"/>
			
				<rect x="106.594" y="95.865" transform="matrix(0.4735 -0.8808 0.8808 0.4735 -30.073 146.494)" fill="#2DB3B1" width="1.796" height="5.07"/>
			<path fill="#FFFFFF" d="M105.685,96.408l2.211,1.189l2.21,1.189c0,0,0.764-1.721-1.321-2.843
				C106.701,94.823,105.685,96.408,105.685,96.408z"/>
			<path fill="#FFFFFF" d="M94.148,133.827l2.21,1.189l2.211,1.189c0,0-1.016,1.585-3.1,0.464
				C93.385,135.548,94.148,133.827,94.148,133.827z"/>
		</g>
		<g>
			<g>
				<path fill="#FFFFFF" d="M359.283,263.069l5.47,1.554c-0.913,8.139,4.155,15.981,12.292,18.292
					c9.064,2.574,18.496-2.687,21.069-11.749c2.573-9.06-2.687-18.494-11.749-21.064c-8.14-2.314-16.572,1.698-20.07,9.102
					l-5.473-1.552c-1.463-0.416-2.985,0.434-3.397,1.897l-0.037,0.126C356.975,261.133,357.824,262.656,359.283,263.069z"/>
				<path fill="#F9372F" d="M372.679,256.914c5.3-4.985,13.637-4.731,18.623,0.569c4.984,5.298,4.729,13.634-0.568,18.619
					c-5.302,4.984-13.637,4.731-18.622-0.568C367.128,270.233,367.38,261.899,372.679,256.914z"/>
				<path fill="#E6E7E8" d="M375.593,275.267c-4.983-5.301-4.728-13.638,0.569-18.623c1.824-1.711,4.007-2.79,6.29-3.274
					c-3.482-0.197-7.033,0.967-9.774,3.545c-5.298,4.985-5.551,13.319-0.567,18.621c3.268,3.478,7.978,4.768,12.333,3.846
					C381.192,279.196,378.003,277.825,375.593,275.267z"/>
			</g>
		</g>
		<g>
			<g>
				<path fill="#FFFFFF" d="M45.179,260.567l5.472,1.552c-0.914,8.137,4.154,15.981,12.291,18.292
					c9.061,2.574,18.495-2.689,21.067-11.75c2.574-9.059-2.686-18.492-11.75-21.063c-8.137-2.314-16.569,1.697-20.068,9.103
					l-5.473-1.555c-1.462-0.415-2.983,0.434-3.396,1.897l-0.038,0.127C42.871,258.629,43.719,260.151,45.179,260.567z"/>
				<circle fill="#FF9900" cx="67.601" cy="264.005" r="13.174"/>
				<path fill="#E6E7E8" d="M61.489,272.763c-4.984-5.299-4.727-13.638,0.569-18.622c1.824-1.713,4.008-2.792,6.289-3.276
					c-3.48-0.197-7.032,0.967-9.774,3.545c-5.298,4.985-5.551,13.319-0.566,18.621c3.267,3.478,7.978,4.766,12.332,3.845
					C67.088,276.692,63.899,275.32,61.489,272.763z"/>
			</g>
		</g>
		<g>
			<path fill="#DEDEDE" d="M270.585,347.615c-0.25-1.585-1.738-2.668-3.326-2.417c-1.584,0.247-2.665,1.737-2.416,3.321
				c0.176,1.122,0.979,1.984,1.993,2.307l0.397,2.521l-0.714,0.112l0.24,1.526l3.84-0.606l-0.24-1.525l-0.567,0.09l-0.396-2.521
				C270.263,349.803,270.761,348.737,270.585,347.615z M267.431,346.281c0.988-0.157,1.913,0.52,2.069,1.506
				c0.156,0.987-0.518,1.913-1.506,2.069c-0.987,0.156-1.911-0.519-2.066-1.506C265.772,347.365,266.444,346.436,267.431,346.281z"/>
			<path fill="#FFFFFF" d="M259.938,395.05c0.181,1.148,1.361,1.888,2.679,1.681l23.406-3.69c1.314-0.205,2.213-1.273,2.032-2.42
				l-6.104-38.742c-0.181-1.145-1.366-1.889-2.68-1.683l-23.407,3.689c-1.317,0.207-2.211,1.28-2.031,2.425L259.938,395.05z"/>
			
				<rect x="259.223" y="355.77" transform="matrix(-0.9878 0.1556 -0.1556 -0.9878 597.138 701.9863)" fill="#F9372F" width="23.728" height="37.202"/>
			<path fill="#B5F6FF" d="M259.938,395.05c0.181,1.148,1.361,1.888,2.679,1.681l23.406-3.69c1.314-0.205,2.213-1.273,2.032-2.42
				l-6.104-38.742c-0.181-1.145-1.366-1.889-2.68-1.683l-23.407,3.689c-1.317,0.207-2.211,1.28-2.031,2.425L259.938,395.05z"/>
			
				<rect x="259.223" y="355.77" transform="matrix(-0.9878 0.1556 -0.1556 -0.9878 597.138 701.9863)" fill="#F9372F" width="23.728" height="37.202"/>
			<path fill="#FFFFFF" d="M259.938,395.05c0.181,1.148,1.361,1.888,2.679,1.681l23.406-3.69c1.314-0.205,2.213-1.273,2.032-2.42
				l-6.104-38.742c-0.181-1.145-1.366-1.889-2.68-1.683l-23.407,3.689c-1.317,0.207-2.211,1.28-2.031,2.425L259.938,395.05z"/>
			
				<rect x="259.223" y="355.77" transform="matrix(-0.9878 0.1556 -0.1556 -0.9878 597.138 701.9863)" fill="#F9372F" width="23.728" height="37.202"/>
			<g>
				
					<rect x="272.6" y="376.116" transform="matrix(-0.9878 0.1558 -0.1558 -0.9878 611.8411 718.1111)" fill="#FFFFFF" width="10.369" height="13.824"/>
				
					<rect x="271.252" y="373.983" transform="matrix(-0.9878 0.1558 -0.1558 -0.9878 607.8292 701.329)" fill="#FFFFFF" width="10.37" height="0.993"/>
				
					<rect x="275.116" y="371.822" transform="matrix(-0.9878 0.1557 -0.1557 -0.9878 611.0009 696.7816)" fill="#FFFFFF" width="6.192" height="0.995"/>
				
					<rect x="258.496" y="360.757" transform="matrix(0.9878 -0.1557 0.1557 0.9878 -53.0623 45.3377)" fill="#FFFFFF" width="8.596" height="1.064"/>
				
					<rect x="271.548" y="358.815" transform="matrix(0.9878 -0.1556 0.1556 0.9878 -52.5978 47.2378)" fill="#FFFFFF" width="7.616" height="1.373"/>
				
					<rect x="273.809" y="360.879" transform="matrix(0.9878 -0.1557 0.1557 0.9878 -52.9322 47.4954)" fill="#FFFFFF" width="5.69" height="1.373"/>
				
					<rect x="258.771" y="362.502" transform="matrix(0.9878 -0.1556 0.1556 0.9878 -53.2699 45.3412)" fill="#FFFFFF" width="8.598" height="1.066"/>
				
					<rect x="259.045" y="364.249" transform="matrix(0.9878 -0.1556 0.1556 0.9878 -53.5458 45.4125)" fill="#FFFFFF" width="8.597" height="1.066"/>
				<g>
					<circle fill="#FF9900" cx="277.541" cy="381.477" r="2.456"/>
					<path fill="#FF9900" d="M282.758,386.807l-0.046-0.3c-0.289-1.833-2.014-3.086-3.844-2.797l-1.902,0.299
						c-1.835,0.29-3.088,2.011-2.799,3.844l0.047,0.3L282.758,386.807z"/>
				</g>
			</g>
			
				<rect x="261.528" y="379.992" transform="matrix(0.9879 -0.1554 0.1554 0.9879 -55.9193 45.9754)" fill="#FFFFFF" width="9.116" height="1.279"/>
			
				<rect x="261.944" y="382.852" transform="matrix(0.9878 -0.1558 0.1558 0.9878 -56.5001 46.21)" fill="#FFFFFF" width="9.116" height="1.281"/>
			
				<rect x="262.36" y="385.714" transform="matrix(0.9878 -0.1557 0.1557 0.9878 -56.9036 46.2741)" fill="#FFFFFF" width="9.113" height="1.28"/>
			
				<rect x="262.778" y="388.576" transform="matrix(0.9878 -0.1558 0.1558 0.9878 -57.3708 46.399)" fill="#FFFFFF" width="9.11" height="1.28"/>
			<path fill="#B5F6FF" d="M269.754,347.233c-0.25-1.584-1.737-2.668-3.326-2.418c-1.584,0.25-2.665,1.738-2.416,3.323
				c0.177,1.124,0.979,1.984,1.993,2.305l0.397,2.52l-0.711,0.114l0.239,1.522l3.839-0.605l-0.24-1.523l-0.566,0.09l-0.397-2.523
				C269.43,349.421,269.931,348.354,269.754,347.233z M266.602,345.897c0.988-0.156,1.913,0.52,2.069,1.507
				c0.156,0.986-0.517,1.914-1.507,2.069c-0.987,0.156-1.913-0.52-2.068-1.506C264.941,346.979,265.615,346.052,266.602,345.897z"/>
			<path fill="#B5F6FF" d="M265.691,353.078l0.239,1.522l1.992-0.314l-0.759-4.813c-0.987,0.156-1.913-0.52-2.068-1.506
				c-0.155-0.988,0.519-1.914,1.506-2.07l-0.173-1.082c-1.584,0.25-2.665,1.738-2.416,3.323c0.177,1.124,0.979,1.984,1.993,2.305
				l0.397,2.52L265.691,353.078z"/>
		</g>
		<g>
			<g>
				
					<rect x="176.974" y="373.653" transform="matrix(0.3929 0.9196 -0.9196 0.3929 463.5379 50.4368)" fill="#F9372F" width="33.193" height="5.254"/>
				
					<rect x="176.974" y="373.653" transform="matrix(0.3929 0.9196 -0.9196 0.3929 463.5379 50.4368)" fill="#F2E9E1" width="33.193" height="5.254"/>
				
					<rect x="176.951" y="374.93" transform="matrix(0.3929 0.9196 -0.9196 0.3929 463.5395 50.4668)" fill="#F9372F" width="33.196" height="2.724"/>
				<polygon fill="#FF6A00" points="184.484,357.033 184.802,356.898 185.775,361.563 184.633,362.05 			"/>
				<polygon fill="#FF6A00" points="185.899,356.429 189.466,359.987 188.281,360.494 185.532,356.584 			"/>
				<polygon fill="#FF9900" points="185.532,356.584 188.281,360.494 185.775,361.563 184.802,356.898 			"/>
				<polygon fill="#FFFFFF" points="185.532,356.584 184.802,356.898 184.484,357.033 184.473,354.993 185.899,356.429 			"/>
			</g>
			<polygon fill="#51C3F5" points="198.413,394.294 197.682,392.585 202.507,390.511 203.244,392.226 		"/>
			<path fill="#FF9900" d="M203.244,392.226l-2.389,1.024l-2.393,1.022c0,0,0.903,1.731,3.159,0.764
				C203.872,394.068,203.244,392.226,203.244,392.226z"/>
		</g>
		<g>
			<polygon fill="#B5F6FF" points="206.844,379.466 210.033,302.276 218.238,302.62 215.05,379.808 		"/>
			<g>
				
					<rect x="209.913" y="304.572" transform="matrix(0.9991 0.0417 -0.0417 0.9991 12.901 -8.5989)" fill="#FFFFFF" width="5.703" height="1.326"/>
				
					<rect x="209.796" y="307.826" transform="matrix(0.9991 0.0419 -0.0419 0.9991 13.1068 -8.6055)" fill="#FFFFFF" width="3.989" height="0.924"/>
				
					<rect x="209.668" y="310.913" transform="matrix(0.9991 0.0412 -0.0412 0.9991 13.0175 -8.4618)" fill="#FFFFFF" width="3.993" height="0.927"/>
				
					<rect x="209.54" y="314.002" transform="matrix(0.9992 0.0412 -0.0412 0.9992 13.1426 -8.4526)" fill="#FFFFFF" width="3.994" height="0.928"/>
				
					<rect x="209.412" y="317.092" transform="matrix(0.9992 0.0409 -0.0409 0.9992 13.1711 -8.3847)" fill="#FFFFFF" width="3.995" height="0.926"/>
				
					<rect x="209.276" y="320.016" transform="matrix(0.9991 0.0416 -0.0416 0.9991 13.5318 -8.5518)" fill="#FFFFFF" width="5.708" height="1.325"/>
				
					<rect x="209.159" y="323.27" transform="matrix(0.9992 0.04 -0.04 0.9992 13.1176 -8.1866)" fill="#FFFFFF" width="3.99" height="0.926"/>
				
					<rect x="209.03" y="326.359" transform="matrix(0.9992 0.0409 -0.0409 0.9992 13.5566 -8.3651)" fill="#FFFFFF" width="3.993" height="0.926"/>
				
					<rect x="208.903" y="329.447" transform="matrix(0.9991 0.0413 -0.0413 0.9991 13.7941 -8.4222)" fill="#FFFFFF" width="3.992" height="0.926"/>
				<polygon fill="#FFFFFF" points="212.746,333.545 208.757,333.377 208.795,332.455 212.785,332.617 			"/>
				
					<rect x="208.638" y="335.463" transform="matrix(0.9992 0.0412 -0.0412 0.9992 14.0327 -8.4308)" fill="#FFFFFF" width="5.706" height="1.322"/>
				
					<rect x="208.52" y="338.712" transform="matrix(0.9991 0.0413 -0.0413 0.9991 14.1826 -8.4021)" fill="#FFFFFF" width="3.991" height="0.928"/>
				<polygon fill="#FFFFFF" points="212.363,342.811 208.374,342.646 208.408,341.718 212.4,341.884 			"/>
				
					<rect x="208.263" y="344.889" transform="matrix(0.9991 0.0415 -0.0415 0.9991 14.5192 -8.4316)" fill="#FFFFFF" width="3.996" height="0.927"/>
				
					<rect x="208.136" y="347.98" transform="matrix(0.9991 0.0413 -0.0413 0.9991 14.5583 -8.3747)" fill="#FFFFFF" width="3.992" height="0.927"/>
				
					<rect x="208" y="350.902" transform="matrix(0.9992 0.0412 -0.0412 0.9992 14.6605 -8.3869)" fill="#FFFFFF" width="5.706" height="1.327"/>
				
					<rect x="207.88" y="354.156" transform="matrix(0.9991 0.0419 -0.0419 0.9991 15.0302 -8.4756)" fill="#FFFFFF" width="3.994" height="0.927"/>
				<polygon fill="#FFFFFF" points="211.727,358.256 207.736,358.088 207.772,357.165 211.763,357.329 			"/>
				
					<rect x="207.627" y="360.334" transform="matrix(0.9991 0.0416 -0.0416 0.9991 15.1821 -8.4034)" fill="#FFFFFF" width="3.99" height="0.926"/>
				<polygon fill="#FFFFFF" points="211.468,364.434 207.48,364.267 207.518,363.342 211.508,363.504 			"/>
				
					<rect x="207.362" y="366.35" transform="matrix(0.9992 0.0412 -0.0412 0.9992 15.2979 -8.3484)" fill="#FFFFFF" width="5.705" height="1.322"/>
				
					<rect x="207.243" y="369.6" transform="matrix(0.9992 0.041 -0.041 0.9992 15.3298 -8.258)" fill="#FFFFFF" width="3.992" height="0.925"/>
				
					<rect x="207.115" y="372.689" transform="matrix(0.9991 0.0421 -0.0421 0.9991 15.9082 -8.4794)" fill="#FFFFFF" width="3.996" height="0.926"/>
				
					<rect x="206.989" y="375.777" transform="matrix(0.9992 0.0407 -0.0407 0.9992 15.4713 -8.1864)" fill="#FFFFFF" width="3.988" height="0.927"/>
			</g>
		</g>
		<g>
			<g>
				<polygon fill="#FF9900" points="382.734,192.046 395.162,186.205 396.542,183.252 393.374,182.893 392.242,183.427 
					391.5,185.044 389.785,184.581 388.91,184.992 389.444,186.126 388.616,186.513 388.083,185.383 387.374,185.713 
					387.907,186.848 386.381,186.18 384.822,186.914 384.573,188.587 383.121,187.711 381.21,188.612 			"/>
				<g>
					<polygon fill="#FFFFFF" points="382.392,191.314 394.449,185.647 395.016,184.429 382.025,190.535 				"/>
				</g>
				<path fill="#113C4F" d="M377.587,185.624l-4.216,1.984c-1.4,0.656-2.076,2.159-1.515,3.356l2.86,6.086
					c0.563,1.197,2.152,1.632,3.548,0.977l4.221-1.983c1.399-0.657,2.078-2.159,1.513-3.356l-2.86-6.087
					C380.576,185.403,378.987,184.968,377.587,185.624z M377.089,195.495c0.172,0.365,0.014,0.802-0.352,0.973
					c-0.366,0.173-0.803,0.016-0.973-0.351l-2.494-5.304c-0.172-0.368-0.015-0.801,0.349-0.974c0.366-0.172,0.802-0.016,0.974,0.35
					L377.089,195.495z"/>
				<path fill="#113C4F" d="M362.659,192.641l-17.075,8.025c-1.282,0.603-1.834,2.129-1.232,3.413l2.716,5.774
					c0.602,1.285,2.129,1.833,3.413,1.231l17.075-8.025c1.282-0.602,1.831-2.133,1.23-3.412l-2.719-5.774
					C365.47,192.589,363.94,192.038,362.659,192.641z M367.476,200.012c0.168,0.366,0.014,0.804-0.353,0.98
					c-0.366,0.169-0.802,0.011-0.975-0.356l-2.491-5.304c-0.173-0.366-0.018-0.804,0.351-0.974c0.366-0.174,0.804-0.016,0.975,0.351
					L367.476,200.012z"/>
				<path fill="#F9372F" d="M377.587,185.624l-4.216,1.984c-1.4,0.656-2.076,2.159-1.515,3.356l2.86,6.086
					c0.563,1.197,2.152,1.632,3.548,0.977l4.221-1.983c1.399-0.657,2.078-2.159,1.513-3.356l-2.86-6.087
					C380.576,185.403,378.987,184.968,377.587,185.624z M377.089,195.495c0.172,0.365,0.014,0.802-0.352,0.973
					c-0.366,0.173-0.803,0.016-0.973-0.351l-2.494-5.304c-0.172-0.368-0.015-0.801,0.349-0.974c0.366-0.172,0.802-0.016,0.974,0.35
					L377.089,195.495z"/>
				<path fill="#2DB3B1" d="M362.659,192.641l-17.075,8.025c-1.282,0.603-1.834,2.129-1.232,3.413l2.716,5.774
					c0.602,1.285,2.129,1.833,3.413,1.231l17.075-8.025c1.282-0.602,1.831-2.133,1.23-3.412l-2.719-5.774
					C365.47,192.589,363.94,192.038,362.659,192.641z M367.476,200.012c0.168,0.366,0.014,0.804-0.353,0.98
					c-0.366,0.169-0.802,0.011-0.975-0.356l-2.491-5.304c-0.173-0.366-0.018-0.804,0.351-0.974c0.366-0.174,0.804-0.016,0.975,0.351
					L367.476,200.012z"/>
				<path fill="#FFFFFF" d="M359.61,195.869l-12.248,5.758c-0.919,0.431-1.316,1.53-0.884,2.447l1.949,4.144
					c0.431,0.921,1.526,1.316,2.444,0.885l12.255-5.757c0.917-0.435,1.315-1.529,0.882-2.449l-1.948-4.145
					C361.629,195.832,360.534,195.438,359.61,195.869z"/>
				<g>
					<path fill="#FFC51A" d="M374.587,191.633c-0.404-0.454-0.874-0.835-1.385-1.13c-0.48-0.279-0.995-0.481-1.532-0.609
						c-1.228-0.298-2.552-0.194-3.741,0.366c-1.19,0.559-2.118,1.486-2.677,2.623c0.211,0.151,0.401,0.336,0.559,0.551
						c0.468-1.092,1.32-1.989,2.427-2.51c1.12-0.524,2.372-0.595,3.508-0.254c0.737,0.216,1.424,0.601,1.995,1.146
						c0.103,0.097,0.204,0.198,0.294,0.305c0.31,0.349,0.571,0.743,0.772,1.171c0.265,0.566,0.407,1.161,0.45,1.749l0.508,1.076
						c0.039,0.089,0.094,0.159,0.156,0.219c0.191-1.1,0.057-2.268-0.453-3.354C375.238,192.49,374.94,192.036,374.587,191.633z"/>
					<path fill="#FFC51A" d="M374.872,197.321c-0.458,1.08-1.295,2-2.436,2.538c-1.036,0.487-2.217,0.6-3.325,0.313
						c-0.053-0.011-0.104-0.033-0.157-0.05c-0.734-0.212-1.392-0.585-1.938-1.089c-0.474-0.43-0.869-0.949-1.145-1.542
						c-0.279-0.595-0.435-1.23-0.463-1.878l-0.426-0.906c-0.054-0.115-0.137-0.205-0.231-0.275c-0.014,0.079-0.029,0.158-0.035,0.238
						c-0.138,1.068,0.033,2.152,0.493,3.132c0.503,1.073,1.326,1.941,2.333,2.512c0.434,0.246,0.895,0.442,1.388,0.569
						c0.03,0.009,0.063,0.012,0.097,0.02c1.241,0.298,2.56,0.164,3.722-0.381c1.218-0.572,2.133-1.52,2.676-2.643
						C375.209,197.73,375.022,197.544,374.872,197.321z"/>
				</g>
			</g>
		</g>
		<g>
			<g>
				
					<rect x="346.853" y="96.295" transform="matrix(0.9373 -0.3484 0.3484 0.9373 -13.3623 128.2181)" fill="#FFFFFF" width="5.853" height="9.925"/>
				
					<rect x="348.73" y="99.831" transform="matrix(0.9374 -0.3482 0.3482 0.9374 -15.9828 129.6888)" fill="#F9372F" width="8.08" height="18.946"/>
				
					<rect x="346.643" y="98.119" transform="matrix(0.9372 -0.3489 0.3489 0.9372 -12.5286 127.3322)" fill="#113C4F" width="1.113" height="0.651"/>
				
					<rect x="349.34" y="97.117" transform="matrix(-0.9375 0.3481 -0.3481 -0.9375 711.832 67.0016)" fill="#113C4F" width="1.114" height="0.649"/>
			</g>
		</g>
		<g>
			<g>
				
					<rect x="219.05" y="148.183" transform="matrix(-0.9847 -0.174 0.174 -0.9847 413.9143 342.5858)" fill="#FFFFFF" width="5.854" height="9.925"/>
				
					<rect x="219.431" y="135.22" transform="matrix(-0.9847 -0.1741 0.1741 -0.9847 418.3421 326.0783)" fill="#0ABFBC" width="8.08" height="18.946"/>
				
					<rect x="222.222" y="156.553" transform="matrix(-0.9846 -0.1751 0.1751 -0.9846 414.6544 350.3327)" fill="#113C4F" width="1.113" height="0.65"/>
				
					<rect x="219.388" y="156.052" transform="matrix(0.985 0.1727 -0.1727 0.985 30.3104 -35.6341)" fill="#113C4F" width="1.113" height="0.651"/>
			</g>
		</g>
		<g>
			<polygon fill="#FFFFFF" points="407.259,237.638 406.007,237.123 405.562,228.489 408.244,236.709 		"/>
			<polygon fill="#FFFFFF" points="407.259,237.638 405.562,228.489 408.244,236.709 		"/>
			<polygon fill="#F2E9E1" points="407.259,237.638 405.562,228.489 406.007,237.123 		"/>
			<path fill="#F9372F" d="M410.582,241.818c-0.062-0.334-0.386-0.556-0.72-0.494l-3.711,0.689c-0.337,0.064-0.557,0.386-0.496,0.72
				l0,0c0.063,0.336,0.385,0.558,0.721,0.494l3.709-0.689C410.423,242.477,410.645,242.155,410.582,241.818L410.582,241.818z"/>
			<polygon fill="#FF6A00" points="408.556,237.231 405.901,237.724 406.293,241.987 409.719,241.35 		"/>
			<polygon fill="#F2E9E1" points="408.005,241.67 406.293,241.987 405.901,237.724 407.23,237.478 		"/>
			<path fill="#F9372F" d="M409.284,236.962c-0.051-0.281-0.326-0.469-0.608-0.417l-3.132,0.583c-0.282,0.05-0.469,0.323-0.417,0.606
				l0,0c0.053,0.285,0.324,0.47,0.608,0.419l3.132-0.581C409.15,237.521,409.338,237.248,409.284,236.962L409.284,236.962z"/>
			<path fill="#F0F0F0" d="M407.3,237.864l-1.566,0.289c-0.284,0.051-0.556-0.133-0.608-0.419c-0.051-0.283,0.136-0.556,0.417-0.606
				l1.567-0.292L407.3,237.864z"/>
			<path fill="#F0F0F0" d="M408.233,242.883l-1.857,0.344c-0.337,0.064-0.659-0.158-0.721-0.494c-0.06-0.334,0.16-0.656,0.496-0.72
				l1.854-0.343L408.233,242.883z"/>
		</g>
		<g>
			<polygon fill="#FFFFFF" points="93.42,244.088 92.167,243.577 91.723,234.94 94.406,243.161 		"/>
			<polygon fill="#FFFFFF" points="93.42,244.088 91.723,234.94 94.406,243.161 		"/>
			<polygon fill="#F2E9E1" points="93.42,244.088 91.723,234.94 92.167,243.577 		"/>
			<path fill="#F9372F" d="M96.742,248.27c-0.061-0.336-0.385-0.556-0.72-0.495l-3.711,0.689c-0.336,0.063-0.556,0.387-0.495,0.721
				l0,0c0.062,0.336,0.384,0.557,0.721,0.494l3.71-0.689C96.583,248.93,96.806,248.607,96.742,248.27L96.742,248.27z"/>
			<polygon fill="#FF6A00" points="94.716,243.682 92.062,244.175 92.455,248.437 95.879,247.802 		"/>
			<polygon fill="#F2E9E1" points="94.167,248.122 92.455,248.437 92.062,244.175 93.39,243.93 		"/>
			<path fill="#F9372F" d="M95.444,243.414c-0.051-0.283-0.325-0.469-0.607-0.417l-3.133,0.582c-0.283,0.051-0.47,0.324-0.417,0.607
				l0,0c0.05,0.284,0.323,0.47,0.607,0.417l3.133-0.579C95.31,243.971,95.498,243.698,95.444,243.414L95.444,243.414z"/>
			<path fill="#F0F0F0" d="M93.461,244.316l-1.566,0.288c-0.284,0.053-0.557-0.133-0.607-0.417c-0.053-0.283,0.133-0.556,0.417-0.607
				l1.567-0.292L93.461,244.316z"/>
			<path fill="#F0F0F0" d="M94.393,249.335l-1.856,0.344c-0.337,0.063-0.659-0.158-0.721-0.494c-0.061-0.334,0.159-0.659,0.495-0.721
				l1.855-0.342L94.393,249.335z"/>
		</g>
		<g>
			<g>
				<path fill="#F0F0F0" d="M287.389,45.76l-12.83,3.997l-0.308-0.661c-0.188-0.41-0.676-0.589-1.085-0.399
					c-0.412,0.19-0.588,0.676-0.401,1.088l0.14,0.293l-5.746,2.051l1.148,2.477l0,0l1.15,2.479l5.277-3.061l0.134,0.295
					c0.191,0.41,0.676,0.589,1.089,0.397c0.41-0.19,0.588-0.676,0.397-1.086l-0.307-0.661L287.389,45.76z"/>
				<path fill="#F0F0F0" d="M265.776,51.449c-0.488,0.223-0.695,0.801-0.471,1.286l1.244,2.687l0,0l1.244,2.687
					c0.227,0.484,0.803,0.699,1.29,0.471c0.483-0.225,0.698-0.803,0.473-1.288l-1.248-2.687l-1.244-2.685
					C266.838,51.434,266.261,51.224,265.776,51.449z"/>
			</g>
			<g>
				<polygon fill="#FFFFFF" points="271.867,51.899 272.159,49.797 285.11,45.76 273.663,53.04 			"/>
				<polygon fill="#FFFFFF" points="271.867,51.899 285.11,45.76 273.663,53.04 			"/>
				<polygon fill="#F2E9E1" points="271.867,51.899 285.11,45.76 272.159,49.797 			"/>
				<path fill="#FF6A00" d="M266.805,58.58c0.484-0.225,0.699-0.803,0.473-1.289l-2.49-5.37c-0.226-0.488-0.806-0.697-1.29-0.472l0,0
					c-0.484,0.224-0.696,0.799-0.47,1.286l2.491,5.372C265.743,58.595,266.321,58.807,266.805,58.58L266.805,58.58z"/>
				<polygon fill="#F9372F" points="272.991,53.715 271.207,49.87 264.884,52.128 267.181,57.083 			"/>
				<polygon fill="#F2E9E1" points="266.033,54.606 264.884,52.128 271.207,49.87 272.099,51.793 			"/>
				<path fill="#FF6A00" d="M273.681,54.717c0.41-0.19,0.587-0.675,0.397-1.085l-2.102-4.535c-0.19-0.412-0.678-0.589-1.086-0.4l0,0
					c-0.412,0.192-0.59,0.676-0.398,1.088l2.102,4.535C272.783,54.729,273.268,54.906,273.681,54.717L273.681,54.717z"/>
				<path fill="#F0F0F0" d="M271.544,52.05l-1.052-2.266c-0.191-0.412-0.014-0.896,0.398-1.088c0.409-0.189,0.896-0.011,1.086,0.4
					l1.048,2.266L271.544,52.05z"/>
				<path fill="#F0F0F0" d="M264.275,55.421l-1.247-2.686c-0.226-0.487-0.014-1.062,0.47-1.286c0.484-0.225,1.063-0.016,1.29,0.472
					l1.246,2.685L264.275,55.421z"/>
			</g>
		</g>
	</g>
	<path fill="#4F2F15" d="M365.113,44.857c0,0,0,21.852,26.998,30.997c0,0-2.193-4.68,1.344-4.351
		c3.537,0.329,10.938,0.007,10.938,0.007s-0.804-22.686-6.918-23.329C391.361,47.538,365.113,44.857,365.113,44.857z"/>
	</svg>