<?xml version="1.0" encoding="UTF-8" standalone="no" ?>
<!DOCTYPE svg PUBLIC "-//W3C//DTD SVG 1.1//EN" "http://www.w3.org/Graphics/SVG/1.1/DTD/svg11.dtd">
<svg xmlns="http://www.w3.org/2000/svg" xmlns:xlink="http://www.w3.org/1999/xlink" version="1.1" width="297.9167665100098" height="116.71000000000001" xml:space="preserve">
<desc>Created with Fabric.js 1.6.0-rc.1</desc>
<defs></defs>
<g style="stroke: none; stroke-width: 1; stroke-dasharray: none; stroke-linecap: butt; stroke-linejoin: miter; stroke-miterlimit: 10; fill: none; fill-rule: nonzero; opacity: 1;" transform="translate(10 10) scale(0.2 0.19)" >
  <circle cx="254" cy="254" r="254" style="stroke: none; stroke-width: 1; stroke-dasharray: none; stroke-linecap: butt; stroke-linejoin: miter; stroke-miterlimit: 10; fill: #b8212e; fill-rule: nonzero; opacity: 1;" transform="  matrix(1 0 0 1 0 0) "/>
  <circle cx="253.9" cy="254" r="109.4" style="stroke: none; stroke-width: 1; stroke-dasharray: none; stroke-linecap: butt; stroke-linejoin: miter; stroke-miterlimit: 10; fill: #bd0b03; fill-rule: nonzero; opacity: 1;" transform="  matrix(1 0 0 1 0 0) "/>
  <path d="M 354 236.1 c -0.2 -7.2 -0.5 -14.4 -0.7 -21.6 c -0.1 -3.3 -0.5 -7.1 -3.3 -8.8 c -1.1 -0.7 -2.5 -1 -3.5 -1.8 c -1.3 -1.1 -1.6 -3 -1.9 -4.7 c -0.4 -2.7 -0.8 -5.5 -1.2 -8.2 c -10.9 -15.5 -25.8 -28 -43.2 -36.1 c -1.7 2.7 -5.3 4.2 -8.1 2.9 c 0.3 6 -6.2 9.6 -11.8 11.9 c -2.8 1.1 -5.9 2.3 -8.8 1.4 c -2.1 -0.6 -3.7 -2.1 -5.6 -3.3 c -6.4 -4.1 -15.4 -3.6 -21.4 1.1 c -2.1 1.7 -4 4.2 -3.5 6.9 c 0.4 2.7 4.3 4.5 6 2.4 c 0.7 -0.9 0.8 -2.1 1.3 -3.2 c 1.2 -2.6 4.8 -3.6 7.1 -2.1 c 1.3 3.3 -1.3 7.1 -4.6 8.4 c -3.3 1.3 -7 0.8 -10.4 0.2 c -3.5 -0.6 -7.1 -1.3 -10.5 -0.3 c -1.1 -3.1 -0.8 -6.7 0.7 -9.6 c -1.8 0.2 -3.7 0.5 -5.1 1.6 c -1.4 1.1 -2.2 3.3 -1.1 4.8 c 0.5 0.7 1.4 1.1 1.8 1.9 c 1.3 2.2 -1.6 4.4 -4 5.3 c -5.2 2 -10.3 4 -15.5 5.9 c 2.9 2.8 6.5 5 10.3 6.4 c 2.2 0.8 4.8 1.3 6.9 0.1 c 1.3 -0.7 2.2 -1.9 3.5 -2.6 c 3.7 -2 8 1.3 11.1 4.1 c 3.2 2.8 8.4 5.2 11.2 2.1 c 0.7 -0.7 1.1 -1.7 1.8 -2.5 c 3.1 -3.4 8.8 -0.4 13.2 -1.7 c 1.1 2.7 -1.9 5.4 -4.7 5.8 c -2.8 0.5 -5.8 -0.3 -8.6 0.5 c -0.5 0.1 -1 0.3 -1.3 0.8 c -0.7 1 0.2 2.3 1.1 3.1 c 2.4 2.1 5.3 3.5 8.5 4.1 c -0.5 3.7 -5.3 4.7 -9.1 4.8 c -3.9 0.1 -7.9 0.2 -11.9 0.3 c -4.5 0.1 -10.4 -0.8 -11.1 -5.3 c -0.3 -2 0.6 -4.4 -0.8 -5.9 c -0.6 -0.7 -1.6 -1 -2.5 -1.2 c -5.1 -1.4 -10.4 -2.8 -15.6 -1.7 c -3.1 0.6 -5.9 2.1 -8.6 3.6 c -7.6 4.1 -15.6 9.4 -17.8 17.7 c -2 7.5 1.5 15.3 4.8 22.3 c 1.3 2.7 2.8 5.6 5.6 6.8 c 4.4 1.8 10.2 -1.5 13.9 1.6 c 2.9 2.5 2 6.9 1.5 10.7 c -0.8 5.8 -0.3 11.8 1.6 17.3 c 0.6 1.7 1.4 3.4 2.9 4.2 c 1.1 0.5 2.3 0.5 3.4 1 c 3.5 1.5 3.5 6.4 3.3 10.2 c -0.3 5 0.1 10.1 1.2 15.1 c 0.4 2 1.1 4.2 2.8 5.4 c 1.4 1 3.2 1.1 5 1.2 c 6.6 0.3 14.4 0.1 18.1 -5.4 c 2.7 -4 2.2 -9.8 5.5 -13.4 c 1.6 -1.7 3.9 -2.7 5.5 -4.5 c 3.7 -4.3 1.5 -10.9 2.2 -16.6 c 0.7 -4.9 4 -9.4 8.5 -11.5 c 3.1 -1.4 6.5 -1.8 9.4 -3.6 c 2.8 -1.8 4.6 -6 2.4 -8.5 c -5.8 1.4 -12 -1.3 -16.3 -5.5 c -4.3 -4.2 -7 -9.7 -9.5 -15.1 c -0.8 -1.7 -1.6 -3.5 -1.5 -5.4 s 1.5 -3.8 3.4 -3.8 c 1.8 0 3.3 1.7 3.7 3.5 c 0.4 1.8 0.1 3.6 0.1 5.5 c -0.1 9 8.2 17.1 17.1 16.9 c 9 -0.2 16.9 -8.7 16.4 -17.6 c -3.2 -0.2 -6.4 -0.3 -9.7 -0.5 c -1 -0.1 -2 -0.1 -2.7 -0.7 c -1.2 -0.9 -1.2 -2.7 -1.5 -4.2 c -0.2 -1.5 -1.3 -3.3 -2.8 -3 c 9.9 -3.3 19.3 10.9 29.3 7.9 c -1.4 1.7 -0.6 4.3 0.8 6 s 3.3 3 4.3 4.9 c 0.9 1.7 0.9 3.6 1.5 5.4 c 1.3 4.3 5.1 7.2 8.8 9.9 c 1.8 -4.2 2.1 -8.9 3.3 -13.3 c 1.2 -4.4 3.7 -8.9 8 -10.5 c 6.7 -2.5 13.5 2.9 18.5 7.9 C 353.9 242.7 354.1 239.1 354 236.1 z M 281.4 214.9 l 0.6 -0.6 c -2.3 -0.4 -2.6 -3.4 -3.4 -5.6 c -1.2 -3.5 -4.8 -6.5 -3.9 -10.1 c 0.5 -2.1 2.6 -3.7 4.7 -3.6 c 0.9 0 1.8 0.4 2.3 1.1 c 0.9 1.2 0.5 2.9 0.5 4.4 c 0 2.6 1.2 5.1 1.7 7.6 C 284.4 210.7 283.8 213.9 281.4 214.9 z" style="stroke: none; stroke-width: 1; stroke-dasharray: none; stroke-linecap: butt; stroke-linejoin: miter; stroke-miterlimit: 10; fill: #d6d613; fill-rule: nonzero; opacity: 1;" transform=" matrix(1 0 0 1 0 0) " stroke-linecap="round" />
  <path d="M 265.9 314.4 c -3 -0.6 -5.5 -3.3 -5.8 -6.3 c -0.3 -3.1 1.6 -6.2 4.4 -7.4 c 1.6 -0.6 3.4 -0.7 4.7 -1.8 c 0.7 -0.6 1.2 -1.3 1.9 -1.9 c 0.7 -0.6 1.8 -0.9 2.5 -0.3 c 0.3 0.2 0.5 0.6 0.7 1 c 0.5 1.7 -0.1 3.5 -1.1 5 s -2.3 2.7 -3.2 4.3 c -1.5 2.5 -2 5.5 -1.3 8.4 c 0.2 1 0.6 2 0.4 3 c -0.4 1.5 -2.2 2.3 -3.7 1.8 c -1.4 -0.5 -2.3 -2.2 -2.1 -3.7 L 265.9 314.4 z" style="stroke: none; stroke-width: 1; stroke-dasharray: none; stroke-linecap: butt; stroke-linejoin: miter; stroke-miterlimit: 10; fill: #d6d613; fill-rule: nonzero; opacity: 1;" transform=" matrix(1 0 0 1 0 0) " stroke-linecap="round" />
  <path d="M 357.9 263.2 c -0.5 1 -1.5 1.5 -2.3 2.2 c -1.9 1.8 -1.9 4.7 -2 7.3 c 0 0.9 -0.3 2 -1.1 2.1 c -0.3 0.1 -0.7 -0.1 -1 -0.2 c -4.8 -2 -8.9 -5.7 -11.5 -10.2 c -0.7 -1.3 -1.4 -2.8 -1 -4.3 c 0.3 -1.5 2.1 -2.6 3.4 -1.9 c 1.5 0.8 2 3.7 3.7 3.3 c 1.2 -0.3 1.2 -1.9 0.8 -3.1 c -0.4 -1.1 -1 -2.4 -0.4 -3.4 c 0.8 -1.3 3 -0.7 3.8 0.6 c 0.8 1.3 0.9 2.9 1.4 4.4 c 2.4 -2.9 4.2 -6.4 5.2 -10 c 0.4 3.5 0.8 7 1.2 10.5 C 358.2 261.4 358.3 262.4 357.9 263.2 z" style="stroke: none; stroke-width: 1; stroke-dasharray: none; stroke-linecap: butt; stroke-linejoin: miter; stroke-miterlimit: 10; fill: #d6d613; fill-rule: nonzero; opacity: 1;" transform=" matrix(1 0 0 1 0 0) " stroke-linecap="round" />
  <path d="M 253.9 436 c -100.4 0 -182 -81.6 -182 -182 s 81.6 -182 182 -182 s 182 81.6 182 182 S 354.3 436 253.9 436 z M 253.9 86.7 c -92.2 0 -167.3 75 -167.3 167.3 c 0 92.2 75 167.3 167.3 167.3 s 167.3 -75 167.3 -167.3 C 421.2 161.8 346.1 86.7 253.9 86.7 z" style="stroke: none; stroke-width: 1; stroke-dasharray: none; stroke-linecap: butt; stroke-linejoin: miter; stroke-miterlimit: 10; fill: #E6E9EE; fill-rule: nonzero; opacity: 1;" transform=" matrix(1 0 0 1 0 0) " stroke-linecap="round" />
  <path d="M 426.4 213.1 L 426.4 213.1 c -22.6 0 -40.9 18.3 -40.9 40.9 l 0 0 c 0 22.6 18.3 40.9 40.9 40.9 l 0 0 c 22.6 0 40.9 -18.3 40.9 -40.9 l 0 0 C 467.3 231.4 448.9 213.1 426.4 213.1 z" style="stroke: none; stroke-width: 1; stroke-dasharray: none; stroke-linecap: butt; stroke-linejoin: miter; stroke-miterlimit: 10; fill: #d6d613; fill-rule: nonzero; opacity: 1;" transform=" matrix(1 0 0 1 0 0) " stroke-linecap="round" />
  <path d="M 426.4 228.6 L 426.4 228.6 c -14 0 -25.4 11.4 -25.4 25.4 l 0 0 c 0 14 11.4 25.4 25.4 25.4 l 0 0 c 14 0 25.4 -11.4 25.4 -25.4 l 0 0 C 451.8 240 440.4 228.6 426.4 228.6 z" style="stroke: none; stroke-width: 1; stroke-dasharray: none; stroke-linecap: butt; stroke-linejoin: miter; stroke-miterlimit: 10; fill: #FF7058; fill-rule: nonzero; opacity: 1;" transform=" matrix(1 0 0 1 0 0) " stroke-linecap="round" />
  <path d="M 79.3 213.1 L 79.3 213.1 c -22.6 0 -40.9 18.3 -40.9 40.9 l 0 0 c 0 22.6 18.3 40.9 40.9 40.9 l 0 0 c 22.6 0 40.9 -18.3 40.9 -40.9 l 0 0 C 120.2 231.4 101.9 213.1 79.3 213.1 z" style="stroke: none; stroke-width: 1; stroke-dasharray: none; stroke-linecap: butt; stroke-linejoin: miter; stroke-miterlimit: 10; fill: #d6d613; fill-rule: nonzero; opacity: 1;" transform=" matrix(1 0 0 1 0 0) " stroke-linecap="round" />
  <path d="M 79.3 228.6 L 79.3 228.6 c -14 0 -25.4 11.4 -25.4 25.4 l 0 0 c 0 14 11.4 25.4 25.4 25.4 l 0 0 c 14 0 25.4 -11.4 25.4 -25.4 l 0 0 C 104.7 240 93.3 228.6 79.3 228.6 z" style="stroke: none; stroke-width: 1; stroke-dasharray: none; stroke-linecap: butt; stroke-linejoin: miter; stroke-miterlimit: 10; fill: #FF7058; fill-rule: nonzero; opacity: 1;" transform=" matrix(1 0 0 1 0 0) " stroke-linecap="round" />
  <path d="M 293.7 427.5 L 293.7 427.5 c 0 -22.6 -18.3 -40.9 -40.9 -40.9 l 0 0 c -22.6 0 -40.9 18.3 -40.9 40.9 l 0 0 c 0 22.6 18.3 40.9 40.9 40.9 l 0 0 C 275.4 468.4 293.7 450.1 293.7 427.5 z" style="stroke: none; stroke-width: 1; stroke-dasharray: none; stroke-linecap: butt; stroke-linejoin: miter; stroke-miterlimit: 10; fill: #d6d613; fill-rule: nonzero; opacity: 1;" transform=" matrix(1 0 0 1 0 0) " stroke-linecap="round" />
  <path d="M 278.2 427.5 L 278.2 427.5 c 0 -14 -11.4 -25.4 -25.4 -25.4 l 0 0 c -14 0 -25.4 11.4 -25.4 25.4 l 0 0 c 0 14 11.4 25.4 25.4 25.4 l 0 0 C 266.8 452.9 278.2 441.6 278.2 427.5 z" style="stroke: none; stroke-width: 1; stroke-dasharray: none; stroke-linecap: butt; stroke-linejoin: miter; stroke-miterlimit: 10; fill: #FF7058; fill-rule: nonzero; opacity: 1;" transform=" matrix(1 0 0 1 0 0) " stroke-linecap="round" />
  <path d="M 293.7 80.5 L 293.7 80.5 c 0 -22.6 -18.3 -40.9 -40.9 -40.9 l 0 0 c -22.6 0 -40.9 18.3 -40.9 40.9 l 0 0 c 0 22.6 18.3 40.9 40.9 40.9 l 0 0 C 275.4 121.3 293.7 103 293.7 80.5 z" style="stroke: none; stroke-width: 1; stroke-dasharray: none; stroke-linecap: butt; stroke-linejoin: miter; stroke-miterlimit: 10; fill: #d6d613; fill-rule: nonzero; opacity: 1;" transform=" matrix(1 0 0 1 0 0) " stroke-linecap="round" />
  <path d="M 278.2 80.5 L 278.2 80.5 c 0 -14 -11.4 -25.4 -25.4 -25.4 l 0 0 c -14 0 -25.4 11.4 -25.4 25.4 l 0 0 c 0 14 11.4 25.4 25.4 25.4 l 0 0 C 266.8 105.8 278.2 94.5 278.2 80.5 z" style="stroke: none; stroke-width: 1; stroke-dasharray: none; stroke-linecap: butt; stroke-linejoin: miter; stroke-miterlimit: 10; fill: #FF7058; fill-rule: nonzero; opacity: 1;" transform=" matrix(1 0 0 1 0 0) " stroke-linecap="round" />
</g>
  <g transform="translate(192.7 82.9) scale(0.48 0.53)">
   <text font-family="Walkway Bold" font-size="40" font-weight="normal" style="stroke: none; stroke-width: 1; stroke-dasharray: none; stroke-linecap: butt; stroke-linejoin: miter; stroke-miterlimit: 10; fill: #000000; fill-rule: nonzero; opacity: 1;" ><tspan x="-163.46" y="8.98" style="stroke: none; stroke-width: 0; stroke-dasharray: none; stroke-linecap: butt; stroke-linejoin: miter; stroke-miterlimit: 4; fill: #000000; fill-rule: ; opacity: 1;">B</tspan><tspan x="-137.78" y="8.98" style="stroke: none; stroke-width: 0; stroke-dasharray: none; stroke-linecap: butt; stroke-linejoin: miter; stroke-miterlimit: 4; fill: #000000; fill-rule: ; opacity: 1;">u</tspan><tspan x="-116.78" y="8.98" style="stroke: none; stroke-width: 0; stroke-dasharray: none; stroke-linecap: butt; stroke-linejoin: miter; stroke-miterlimit: 4; fill: #000000; fill-rule: ; opacity: 1;">i</tspan><tspan x="-111.34" y="8.98" style="stroke: none; stroke-width: 0; stroke-dasharray: none; stroke-linecap: butt; stroke-linejoin: miter; stroke-miterlimit: 4; fill: #000000; fill-rule: ; opacity: 1;">l</tspan><tspan x="-105.9" y="8.98" style="stroke: none; stroke-width: 0; stroke-dasharray: none; stroke-linecap: butt; stroke-linejoin: miter; stroke-miterlimit: 4; fill: #000000; fill-rule: ; opacity: 1;">d</tspan><tspan x="-83.34" y="8.98" style="stroke: none; stroke-width: 0; stroke-dasharray: none; stroke-linecap: butt; stroke-linejoin: miter; stroke-miterlimit: 4; fill: #000000; fill-rule: ; opacity: 1;">.</tspan><tspan x="-74.98" y="8.98" style="stroke: none; stroke-width: 0; stroke-dasharray: none; stroke-linecap: butt; stroke-linejoin: miter; stroke-miterlimit: 4; fill: #000000; fill-rule: ; opacity: 1;"> </tspan><tspan x="-60.82" y="8.98" style="stroke: none; stroke-width: 0; stroke-dasharray: none; stroke-linecap: butt; stroke-linejoin: miter; stroke-miterlimit: 4; fill: #000000; fill-rule: ; opacity: 1;">T</tspan><tspan x="-39.02" y="8.98" style="stroke: none; stroke-width: 0; stroke-dasharray: none; stroke-linecap: butt; stroke-linejoin: miter; stroke-miterlimit: 4; fill: #000000; fill-rule: ; opacity: 1;">h</tspan><tspan x="-18.02" y="8.98" style="stroke: none; stroke-width: 0; stroke-dasharray: none; stroke-linecap: butt; stroke-linejoin: miter; stroke-miterlimit: 4; fill: #000000; fill-rule: ; opacity: 1;">i</tspan><tspan x="-12.58" y="8.98" style="stroke: none; stroke-width: 0; stroke-dasharray: none; stroke-linecap: butt; stroke-linejoin: miter; stroke-miterlimit: 4; fill: #000000; fill-rule: ; opacity: 1;">n</tspan><tspan x="8.42" y="8.98" style="stroke: none; stroke-width: 0; stroke-dasharray: none; stroke-linecap: butt; stroke-linejoin: miter; stroke-miterlimit: 4; fill: #000000; fill-rule: ; opacity: 1;">k</tspan><tspan x="29.7" y="8.98" style="stroke: none; stroke-width: 0; stroke-dasharray: none; stroke-linecap: butt; stroke-linejoin: miter; stroke-miterlimit: 4; fill: #000000; fill-rule: ; opacity: 1;">.</tspan><tspan x="38.06" y="8.98" style="stroke: none; stroke-width: 0; stroke-dasharray: none; stroke-linecap: butt; stroke-linejoin: miter; stroke-miterlimit: 4; fill: #000000; fill-rule: ; opacity: 1;"> </tspan><tspan x="52.22" y="8.98" style="stroke: none; stroke-width: 0; stroke-dasharray: none; stroke-linecap: butt; stroke-linejoin: miter; stroke-miterlimit: 4; fill: #000000; fill-rule: ; opacity: 1;">d</tspan><tspan x="74.78" y="8.98" style="stroke: none; stroke-width: 0; stroke-dasharray: none; stroke-linecap: butt; stroke-linejoin: miter; stroke-miterlimit: 4; fill: #000000; fill-rule: ; opacity: 1;">e</tspan><tspan x="95.78" y="8.98" style="stroke: none; stroke-width: 0; stroke-dasharray: none; stroke-linecap: butt; stroke-linejoin: miter; stroke-miterlimit: 4; fill: #000000; fill-rule: ; opacity: 1;">s</tspan><tspan x="115.22" y="8.98" style="stroke: none; stroke-width: 0; stroke-dasharray: none; stroke-linecap: butt; stroke-linejoin: miter; stroke-miterlimit: 4; fill: #000000; fill-rule: ; opacity: 1;">i</tspan><tspan x="120.66" y="8.98" style="stroke: none; stroke-width: 0; stroke-dasharray: none; stroke-linecap: butt; stroke-linejoin: miter; stroke-miterlimit: 4; fill: #000000; fill-rule: ; opacity: 1;">g</tspan><tspan x="142.46" y="8.98" style="stroke: none; stroke-width: 0; stroke-dasharray: none; stroke-linecap: butt; stroke-linejoin: miter; stroke-miterlimit: 4; fill: #000000; fill-rule: ; opacity: 1;">n</tspan></text>
 </g>
  <g transform="translate(166.18 58.62) scale(1.2 1)">
   <text font-family="Gross" font-size="40" font-weight="normal" style="stroke: none; stroke-width: 1; stroke-dasharray: none; stroke-linecap: butt; stroke-linejoin: miter; stroke-miterlimit: 10; fill: #c20031; fill-rule: nonzero; opacity: 1;" ><tspan x="-45.48" y="8.98" style="stroke: none; stroke-width: 0; stroke-dasharray: none; stroke-linecap: butt; stroke-linejoin: miter; stroke-miterlimit: 4; fill: #c20031; fill-rule: ; opacity: 1;">M</tspan><tspan x="-6.8" y="8.98" style="stroke: none; stroke-width: 0; stroke-dasharray: none; stroke-linecap: butt; stroke-linejoin: miter; stroke-miterlimit: 4; fill: #c20031; fill-rule: ; opacity: 1;">i</tspan><tspan x="3.68" y="8.98" style="stroke: none; stroke-width: 0; stroke-dasharray: none; stroke-linecap: butt; stroke-linejoin: miter; stroke-miterlimit: 4; fill: #c20031; fill-rule: ; opacity: 1;">d</tspan><tspan x="30.68" y="8.98" style="stroke: none; stroke-width: 0; stroke-dasharray: none; stroke-linecap: butt; stroke-linejoin: miter; stroke-miterlimit: 4; fill: #c20031; fill-rule: ; opacity: 1;"> </tspan></text>
 </g>
  <g transform="translate(242.92 55.67) scale(0.93 0.68)">
   <text font-family="PROMESH" font-size="40" font-weight="normal" style="stroke: none; stroke-width: 1; stroke-dasharray: none; stroke-linecap: butt; stroke-linejoin: miter; stroke-miterlimit: 10; fill: #fad905; fill-rule: nonzero; opacity: 1;" ><tspan x="-48.88" y="8.98" style="stroke: none; stroke-width: 0; stroke-dasharray: none; stroke-linecap: butt; stroke-linejoin: miter; stroke-miterlimit: 4; fill: #fad905; fill-rule: ; opacity: 1;">T</tspan><tspan x="-25.56" y="8.98" style="stroke: none; stroke-width: 0; stroke-dasharray: none; stroke-linecap: butt; stroke-linejoin: miter; stroke-miterlimit: 4; fill: #fad905; fill-rule: ; opacity: 1;">E</tspan><tspan x="-5.4" y="8.98" style="stroke: none; stroke-width: 0; stroke-dasharray: none; stroke-linecap: butt; stroke-linejoin: miter; stroke-miterlimit: 4; fill: #fad905; fill-rule: ; opacity: 1;">C</tspan><tspan x="13.08" y="8.98" style="stroke: none; stroke-width: 0; stroke-dasharray: none; stroke-linecap: butt; stroke-linejoin: miter; stroke-miterlimit: 4; fill: #fad905; fill-rule: ; opacity: 1;">H</tspan><tspan x="38.88" y="8.98" style="stroke: none; stroke-width: 0; stroke-dasharray: none; stroke-linecap: butt; stroke-linejoin: miter; stroke-miterlimit: 4; fill: #fad905; fill-rule: ; opacity: 1;"> </tspan></text>
 </g>
</svg>