<svg fill="#000000" xmlns="http://www.w3.org/2000/svg" xmlns:xlink="http://www.w3.org/1999/xlink" version="1.1" x="0px" y="0px" viewBox="0 0 65 65" enable-background="new 0 0 65 65" xml:space="preserve" width="50" height="50">
   <g>
        <path d="M0.4,38.9c0.1,0.5,0.2,1,0.3,1.5l1.5-0.3c-0.1-0.5-0.2-1-0.3-1.4L0.4,38.9z"></path>
        <path d="M1.8,28.4L1.8,28.4C3.5,18,10.8,9.3,20.7,5.7l-1.8,3.7l1.3,0.7l3-6l-6-3l-0.7,1.3l3.7,1.8C9.9,8.1,2.1,17.2,0.3,28.2   L1,28.3l-0.8-0.1c-0.1,0.4-0.1,0.9-0.2,1.5l1.5,0.2C1.6,29.2,1.7,28.8,1.8,28.4z"></path>
        <path d="M1.5,35.2L0,35.3c0,0.5,0.1,1,0.1,1.5l1.5-0.2C1.6,36.2,1.5,35.7,1.5,35.2z"></path>
        <path d="M1.4,32.9c0-0.4,0-0.7,0-1.1l-1.5-0.1c0,0.4,0,0.7,0,1.2l0,0.4l1.5,0L1.4,32.9z"></path>
        <path d="M41.2,4.2c-0.5-0.2-0.9-0.4-1.4-0.5l-0.5,1.4c0.5,0.2,0.9,0.3,1.4,0.5L41.2,4.2z"></path>
        <path d="M47.5,7.4c-0.4-0.3-0.8-0.5-1.3-0.8l-0.8,1.3c0.5,0.3,0.9,0.5,1.3,0.8L47.5,7.4z"></path>
        <path d="M44.4,5.7C44,5.4,43.5,5.2,43.1,5l-0.6,1.4c0.5,0.2,0.9,0.4,1.3,0.6L44.4,5.7z"></path>
        <path d="M64.3,36.6l-3.5,2.2C62.9,28,58.9,16.7,50.4,9.6L50,10.1l0.5-0.5c-0.3-0.2-0.7-0.6-1.2-1l-0.9,1.2c0.5,0.4,0.9,0.7,1.1,0.9   l0,0c8,6.8,11.8,17.6,9.9,27.8l-2.2-3.5l-1.3,0.8l3.6,5.6l5.6-3.6L64.3,36.6z"></path>
        <path d="M46.5,57.7l0.8,1.3c0.4-0.3,0.8-0.5,1.3-0.8l-0.9-1.2C47.3,57.2,46.9,57.5,46.5,57.7z"></path>
        <path d="M43.5,59.4l0.7,1.3c0.4-0.2,0.9-0.5,1.4-0.7l-0.7-1.3C44.3,59,43.9,59.2,43.5,59.4z"></path>
        <path d="M49.3,55.8l0.9,1.2c0.4-0.3,0.8-0.6,1.2-1l-1-1.1C50,55.2,49.6,55.5,49.3,55.8z"></path>
        <path d="M40.4,60.8L40.4,60.8c-9.9,3.4-21.1,1.2-29-5.7l4.1-0.2l-0.1-1.5l-6.7,0.2L9,60.3l1.5-0.1l-0.2-4.1c5.7,5,13,7.7,20.5,7.7   c3.4,0,6.7-0.5,10-1.7l-0.3-0.7l0.3,0.7c0.4-0.1,0.8-0.3,1.4-0.6l-0.6-1.4C41.2,60.5,40.7,60.7,40.4,60.8z"></path>
        <polygon fill="#d20805" points="34.3,30.8 36.8,33.3 34.3,35.8 35.4,36.9 38.9,33.3 35.4,29.7"></polygon>
        <polygon fill="#d20805" points="25.2,29.6 21.7,33.2 25.1,36.8 26.2,35.8 23.8,33.2 26.3,30.7"></polygon>
        <rect fill="#d20805" x="29.5" y="26.5" transform="matrix(-0.8934 -0.4493 0.4493 -0.8934 42.3717 76.5901)" width="1.5" height="13.6"></rect>
        <path d="M48.3,28.7c-0.5-1.8-1.2-3.6-2.2-5.2l2.7-3.9l-5-5l-3.9,2.7c-1.6-1-3.4-1.7-5.3-2.1l-0.9-4.7l-7.1,0l-0.8,4.7   c-1.8,0.5-3.6,1.2-5.2,2.2l-3.9-2.7l-5,5l2.7,3.9c-1,1.6-1.7,3.4-2.1,5.3l-4.7,0.9l0,7.1l4.7,0.8c0.5,1.9,1.2,3.6,2.2,5.2l-2.7,3.9   l5,5l3.9-2.7c1.6,1,3.4,1.7,5.3,2.1l0.9,4.7l7.1-0.1l0.8-4.7c1.9-0.5,3.6-1.2,5.2-2.2l3.9,2.7l5-5l-2.7-3.9c1-1.7,1.7-3.4,2.1-5.3   l4.7-0.9l0-7.1L48.3,28.7z M47.1,36.3L47,36.7c-0.4,2-1.2,3.9-2.3,5.7l-0.3,0.4l2.6,3.7l-3.2,3.3l-3.7-2.5l-0.4,0.3   c-1.7,1.1-3.6,1.9-5.7,2.4L33.5,50l-0.8,4.4l-4.6,0l-0.8-4.4L26.8,50c-2-0.4-3.9-1.2-5.7-2.3l-0.4-0.3L17,50l-3.3-3.2l2.5-3.7   L16,42.6c-1.1-1.7-1.9-3.6-2.4-5.7l-0.1-0.5l-4.4-0.8l0-4.6l4.4-0.9l0.1-0.5c0.4-2,1.2-4,2.3-5.7l0.3-0.4L13.6,20l3.2-3.3l3.7,2.5   l0.4-0.3c1.7-1.1,3.7-1.9,5.7-2.4l0.5-0.1l0.8-4.4l4.6,0l0.9,4.4l0.5,0.1c2,0.4,4,1.2,5.7,2.3l0.4,0.3l3.7-2.6l3.3,3.2l-2.5,3.7   l0.3,0.4c1.1,1.8,1.9,3.7,2.4,5.7L47,30l4.4,0.8l0,4.6L47.1,36.3z"></path>
        <path d="M30.3,20.6c-7,0-12.7,5.7-12.7,12.7S23.3,46,30.3,46c7,0,12.7-5.7,12.7-12.7S37.3,20.6,30.3,20.6z M30.3,44.5   c-6.2,0-11.2-5-11.2-11.2s5-11.2,11.2-11.2c6.2,0,11.2,5,11.2,11.2S36.5,44.5,30.3,44.5z"></path>
   </g>
</svg>