<svg xmlns="http://www.w3.org/2000/svg" viewBox="0 0 501.551 501.551" enable-background="new 0 0 501.551 501.551"><path fill="#ACB3BA" d="M359.44 494.24c-25.07 0-44.93-20.9-44.93-44.93v-10.44h8.37v10.45c0 20.9 16.72 37.62 37.62 37.62s37.6-16.72 37.6-37.6V400.2c0-19.86 16.72-36.57 36.58-36.57 19.85 0 36.57 16.7 36.57 36.57v10.45h-8.36V400.2c0-15.68-12.55-28.22-28.22-28.22s-28.22 12.54-28.22 28.22v49.1c-1.04 24.04-21.94 44.94-47 44.94z"/><path fill="#334A5E" d="M353.18 135.84H15.68C7.3 135.84 0 143.14 0 151.5v242.43h365.7V148.38c0-7.32-5.2-12.54-12.52-12.54z"/><path fill="#F2F2F2" d="M0 392.88v29.26c0 8.36 7.3 15.67 15.67 15.67h334.37c8.36 0 15.67-7.3 15.67-15.66v-29.26H0z"/><g fill="#CDD6E0"><circle cx="182.857" cy="415.869" r="8.359"/><path d="M112.85 437.8h140.02v40.76H112.84z"/></g><path fill="#F2F2F2" d="M279 501.55H86.72V481.7c0-2.1 1.04-3.14 3.13-3.14H276.9c2.1 0 3.13 1.05 3.13 3.14v19.85H279z"/><path fill="#ACB3BA" d="M112.85 437.8h140.02v11.5H112.84z"/><path fill="#fff" d="M24.03 157.78h316.6v213.16H24.04z"/><path fill="#FFD15C" d="M42.84 177.63h279v81.5h-279z"/><path fill="#F2F2F2" d="M42.84 274.8h74.2v62.7h-74.2z"/><path fill="#CDD6E0" d="M145.24 274.8h74.2v62.7h-74.2z"/><path fill="#FF7058" d="M247.64 274.8h74.2v62.7h-74.2z"/><path fill="#40596B" d="M292.57 309.3l10.45 40.74 10.45-10.45 9.4 10.44 9.4-9.4-10.44-10.45 10.45-9.42z"/><path fill="#c9190c" d="M501.55 436.77v29.25c0 19.86-15.67 35.53-35.53 35.53-19.85 0-35.52-15.67-35.52-35.53v-29.25c0-1.05 0-2.1 0-3.14 0-2.1 1.04-4.18 1.04-6.27 4.18-13.58 15.68-24.03 31.35-26.12 1.03 0 2.08 0 3.12 0 1.05 0 2.1 0 3.14 0 8.36 1.05 15.67 4.18 21.94 10.45 4.18 4.17 7.32 9.4 9.4 15.66 0 2.1 1.05 4.18 1.05 6.27 0 1.05 0 2.1 0 3.14z"/><path fill="#fff" d="M500.5 427.36h-31.34v-26.12c-1.05 0-2.1 0-3.14 0s-2.1 0-3.13 0v26.12h-31.36c0 2.1-1.04 4.18-1.04 6.27h70c1.05-2.1 0-4.18 0-6.27z"/><circle cx="238.237" cy="122.253" r="45.976" fill="#c9190c"/><circle cx="238.237" cy="122.253" r="34.482" fill="#F8B64C"/><path fill="#c9190c" d="M236.15 134.8v-11.5c-3.14-1.05-6.27-2.1-7.32-4.18-2.1-2.1-2.1-4.18-2.1-7.32s1.06-5.22 3.15-7.3c2.1-2.1 4.18-3.14 7.3-3.14v-3.14h4.2v2.1c3.13 0 5.22 1.04 6.26 3.13 2.1 2.1 3.14 4.18 3.14 6.26l-6.27 1.06c0-2.1-1.04-3.14-3.13-4.18v10.45c4.18 1.04 7.32 3.13 8.36 4.18 1.05 2.1 2.1 4.2 2.1 7.32 0 3.14-1.05 6.27-3.14 8.36-2.1 2.1-4.2 3.14-8.37 4.18v5.23h-4.18v-5.24c-3.14 0-5.23-1.04-7.32-3.13-2.1-2.1-3.13-4.18-3.13-8.36l7.3-1.05c0 1.05 1.06 2.1 2.1 3.14-1.04 1.04 0 2.1 1.05 3.13zm0-28.22c-1.05 0-2.1 1.04-2.1 2.1-1.04 1.03-1.04 2.08-1.04 3.12s0 2.1 1.06 2.1c1.04 1.04 1.04 1.04 2.1 2.1v-9.42zm4.18 28.2c1.04 0 2.1-1.03 3.13-2.08 1.05-1.04 1.05-2.1 1.05-3.13 0-1.05 0-2.1-1.04-3.14s-2.1-1.04-3.13-2.1v10.46z"/><circle cx="126.433" cy="64.784" r="64.784" fill="#FFD15C"/><circle cx="126.433" cy="64.784" r="49.11" fill="#F8B64C"/><path fill="#FFD15C" d="M123.3 82.55V66.87c-5.23-1.04-8.36-3.13-10.45-6.27-2.1-3.13-3.14-6.26-3.14-10.44s1.06-7.32 4.2-10.45c2.08-3.13 6.26-4.17 10.44-5.22v-3.13h5.23v4.18c4.18 0 7.3 2.1 9.4 4.18 2.1 2.1 4.18 5.23 4.18 9.4l-9.4 1.06c-1.05-3.14-2.1-5.23-4.18-6.27V58.5c6.27 2.1 10.45 4.18 12.54 6.27 2.1 2.08 3.14 6.25 3.14 9.4 0 4.17-1.04 8.35-4.18 11.48s-6.27 5.23-11.5 5.23v7.32h-5.22v-6.27c-4.18-1.04-7.3-2.1-10.45-5.22-3.14-3.14-4.2-6.27-5.23-11.5l9.4-1.04c0 2.08 1.05 4.17 2.1 5.2 1.04 2.1 2.08 3.15 3.13 3.15zm0-38.66c-1.05 0-3.14 1.03-3.14 2.08-1.04 1.04-1.04 2.1-1.04 4.18 0 1.04 0 2.1 1.04 4.18 1.05 1.04 2.1 2.1 3.14 3.13V43.9zm6.27 39.7c2.1 0 3.13-1.05 4.18-2.1 1.04-1.04 2.1-3.13 2.1-5.22 0-2.1 0-3.14-1.06-4.18-1.05-1.05-2.1-2.1-5.23-3.14 0 0 0 14.63 0 14.63z"/></svg>