<svg fill="#000000" xmlns="http://www.w3.org/2000/svg" xmlns:xlink="http://www.w3.org/1999/xlink" version="1.1" x="0px" y="0px" viewBox="0 0 65 65" enable-background="new 0 0 65 65" xml:space="preserve" width="35" height="35">
    <g>
         <path fill="none" stroke="#000000" stroke-width="2" stroke-linecap="round" stroke-linejoin="round" stroke-miterlimit="10" d="   M1.5,40.8v6.4c0,0.7,0.5,1.2,1.2,1.2h59.6c0.7,0,1.2-0.5,1.2-1.2v-6.4H1.5z"></path>
         <path fill="none" stroke="#000000" stroke-width="2" stroke-linecap="round" stroke-linejoin="round" stroke-miterlimit="10" d="   M63.5,5.1c0-0.7-0.5-1.2-1.2-1.2H2.7C2,3.9,1.5,4.4,1.5,5.1v35.7h62V5.1z"></path>
         <circle cx="32.5" cy="44.6" r="1.7"></circle>
         <rect x="20.4" y="48.4" fill="none" stroke="#000000" stroke-width="2" stroke-linecap="round" stroke-linejoin="round" stroke-miterlimit="10" width="24.1" height="8.6"></rect>
         <rect x="17.8" y="57" fill="none" stroke="#000000" stroke-width="2" stroke-linecap="round" stroke-linejoin="round" stroke-miterlimit="10" width="29.4" height="4.2"></rect>
         <path fill="none" stroke="#000000" stroke-width="2" stroke-linecap="round" stroke-linejoin="round" stroke-miterlimit="10" d="   M57.9,8.5H7.1c-0.6,0-1,0.5-1,1v30.3v0.9H59v-0.9V9.6C59,9,58.5,8.5,57.9,8.5z"></path>
         <circle fill="none" stroke="#000000" stroke-width="2" stroke-linecap="round" stroke-linejoin="round" stroke-miterlimit="10" cx="25.7" cy="24.6" r="7.6"></circle>
         <path fill="#d20805" d="M25.4,29.7v-0.9c-1.1-0.1-2.1-0.6-3-1.3l0.9-1.1c0.7,0.6,1.4,1,2.1,1.1v-2.4c-0.9-0.2-1.6-0.5-2-0.9   c-0.4-0.4-0.6-0.9-0.6-1.6c0-0.7,0.2-1.3,0.7-1.7c0.5-0.5,1.1-0.7,1.9-0.7v-0.6h0.8v0.6c0.9,0.1,1.8,0.4,2.6,0.9L28,22.2   c-0.5-0.4-1.1-0.6-1.8-0.7v2.3h0c0.9,0.2,1.6,0.5,2.1,0.9c0.4,0.4,0.7,0.9,0.7,1.7c0,0.7-0.3,1.3-0.8,1.8c-0.5,0.5-1.2,0.7-2,0.7   v0.9H25.4z M24.5,21.7c-0.2,0.2-0.3,0.4-0.3,0.7c0,0.3,0.1,0.5,0.2,0.7c0.2,0.2,0.5,0.3,0.9,0.5v-2.1C25,21.4,24.8,21.5,24.5,21.7z    M27.1,27.1c0.2-0.2,0.3-0.4,0.3-0.7c0-0.3-0.1-0.5-0.3-0.7c-0.2-0.2-0.5-0.3-1-0.5v2.2C26.6,27.4,26.9,27.3,27.1,27.1z"></path>
         <polygon fill="none" stroke="#000000" stroke-width="2" stroke-linecap="round" stroke-linejoin="round" stroke-miterlimit="10" points="45.7,29.5 49.9,27.3 34.8,21 41.1,36.1 43.3,31.9 48.2,36.8 50.6,34.4  "></polygon>
         <path fill="none" stroke="#000000" stroke-width="2" stroke-linecap="round" stroke-linejoin="round" stroke-miterlimit="10" d="   M36.5,21.7c-1.3-4.8-5.6-8.4-10.8-8.4c-6.2,0-11.2,5-11.2,11.2s5,11.2,11.2,11.2c5.8,0,10.5-4.3,11.1-9.9"></path>
    </g>
</svg>