<svg version="1.1" id="Capa_1" xmlns="http://www.w3.org/2000/svg" xmlns:xlink="http://www.w3.org/1999/xlink" x="0px" y="0px" viewBox="0 0 480 480" style="enable-background:new 0 0 480 480;" xml:space="preserve" class="svg-icon-size">
   <g>
        <g>
             <g>
                  <path d="M367.488,101.44c-0.088-0.256-0.152-0.504-0.264-0.752c-0.389-0.87-0.931-1.664-1.6-2.344l-96-96
                       c-0.679-0.674-1.476-1.216-2.352-1.6c-0.24-0.112-0.48-0.176-0.728-0.264c-0.679-0.235-1.387-0.375-2.104-0.416
                       C264.312,0.088,264.168,0,264,0H24c-4.418,0-8,3.582-8,8v464c0,4.418,3.582,8,8,8h336c4.418,0,8-3.582,8-8V104
                       c0-0.176-0.088-0.328-0.104-0.504C367.856,102.795,367.719,102.103,367.488,101.44z M272,27.312L340.688,96H280
                       c-4.418,0-8-3.582-8-8V27.312z M352,464H32V16h224v72c0,13.255,10.745,24,24,24h72V464z"/>
                  <path d="M266.344,154.344l-12.416,12.416C236.642,152.061,214.69,143.993,192,144c-22.69-0.007-44.642,8.061-61.928,22.76
                       l-4.416-4.416c-1.5-1.5-3.534-2.344-5.656-2.344H96v16h20.688l2.072,2.072c-34.277,40.449-29.273,101.027,11.176,135.304
                       c40.449,34.277,101.027,29.273,135.304-11.176c30.347-35.811,30.347-88.316,0-124.127L275.312,168H288v-16h-16
                       C269.878,152,267.844,152.844,266.344,154.344z M130.1,290.724C118.381,276.418,111.984,258.492,112,240
                       c-0.015-18.452,6.382-36.335,18.096-50.592l16.248,16.248l11.312-11.312l-16.248-16.248c12.14-9.972,26.96-16.126,42.592-17.688
                       V240c0,2.122,0.844,4.156,2.344,5.656l56.248,56.248C208.441,329.88,158.076,324.875,130.1,290.724z M272,240
                       c0.015,18.452-6.382,36.335-18.096,50.592L200,236.688v-76.28c15.632,1.562,30.452,7.716,42.592,17.688l-16.248,16.248
                       l11.312,11.312l16.248-16.248C265.618,203.665,272.015,221.548,272,240z"/>
                  <rect x="64" y="48" width="16" height="16"/>
                  <rect x="96" y="48" width="128" height="16"/>
                  <rect x="64" y="80" width="160" height="16"/>
                  <rect x="48" y="144" width="32" height="16"/>
                  <rect x="48" y="176" width="32" height="16"/>
                  <rect x="304" y="144" width="32" height="16"/>
                  <rect x="304" y="176" width="32" height="16"/>
                  <rect x="64" y="360" width="32" height="16"/>
                  <rect x="112" y="360" width="80" height="16"/>
                  <rect x="208" y="360" width="96" height="16"/>
                  <rect x="64" y="400" width="192" height="16"/>
                  <rect x="272" y="400" width="32" height="16"/>
                  <path fill="#d20805" d="M424,80c-22.08,0.026-39.974,17.92-40,40v264c-0.001,1.817,0.617,3.581,1.752,5l32,40
                       c2.759,3.451,7.794,4.011,11.244,1.252c0.462-0.37,0.882-0.789,1.252-1.252l32-40c1.135-1.419,1.753-3.183,1.752-5V120
                       C463.974,97.92,446.08,80.026,424,80z M424,411.2L408.64,392h30.72L424,411.2z M448,376h-16V176h-16v200h-16V160h48V376z
                       M448,144h-48v-24c0-13.255,10.745-24,24-24s24,10.745,24,24V144z"/>
             </g>
        </g>
   </g>
</svg>