<?xml version="1.0" encoding="iso-8859-1"?>
<!-- Generator: Adobe Illustrator 19.0.0, SVG Export Plug-In . SVG Version: 6.00 Build 0)  -->
<svg version="1.1" id="Capa_1" xmlns="http://www.w3.org/2000/svg" xmlns:xlink="http://www.w3.org/1999/xlink" x="0px" y="0px"
	 viewBox="0 0 496 496" style="enable-background:new 0 0 496 496;" xml:space="preserve" width="60px" height="60px">
<g>
	<path style="fill:#E56565;" d="M320,80H0V0h320V80z M16,64h288V16H16V64z"/>
	<rect x="32" y="32" style="fill:#E56565;" width="16" height="16"/>
	<rect x="64" y="32" style="fill:#E56565;" width="16" height="16"/>
	<rect x="96" y="32" style="fill:#E56565;" width="16" height="16"/>
</g>
<rect x="40" y="232" style="fill:#FFCB57;" width="88" height="96"/>
<g>
	<rect x="368" y="336" style="fill:#E56565;" width="64" height="16"/>
	<rect x="368" y="304" style="fill:#E56565;" width="64" height="16"/>
	<rect x="368" y="272" style="fill:#E56565;" width="64" height="16"/>
	<rect x="368" y="240" style="fill:#E56565;" width="64" height="16"/>
	<rect x="368" y="208" style="fill:#E56565;" width="64" height="16"/>
</g>
<rect x="184" y="232" style="fill:#FFCB57;" width="128" height="160"/>
<g>
	<path style="fill:#3F3A34;" d="M312,144H184c-22.056,0-40,17.944-40,40v216h16V208h176v192h16V184C352,161.944,334.056,144,312,144
		z M160,192v-8c0-13.232,10.768-24,24-24h128c13.232,0,24,10.768,24,24v8H160z"/>
	<path style="fill:#3F3A34;" d="M144,456c0,22.056,17.944,40,40,40h128c22.056,0,40-17.944,40-40v-40H144V456z M160,432h176v24
		c0,13.232-10.768,24-24,24H184c-13.232,0-24-10.768-24-24V432z"/>
	<rect x="216" y="448" style="fill:#3F3A34;" width="64" height="16"/>
	<polygon style="fill:#3F3A34;" points="16,96 0,96 0,368 128,368 128,352 16,352 	"/>
	<rect x="304" y="96" style="fill:#3F3A34;" width="16" height="32"/>
	<path style="fill:#3F3A34;" d="M435.312,80H336v16h88v64h72v-19.312L435.312,80z M440,144v-36.68L476.68,144H440z"/>
	<polygon style="fill:#3F3A34;" points="480,400 368,400 368,416 496,416 496,176 480,176 	"/>
	<polygon style="fill:#3F3A34;" points="176,128 192,128 192,96 32,96 32,112 176,112 	"/>
	<polygon style="fill:#3F3A34;" points="48,128 32,128 32,208 128,208 128,192 48,192 	"/>
	<polygon style="fill:#3F3A34;" points="32,336 128,336 128,320 48,320 48,240 128,240 128,224 32,224 	"/>
	<rect x="64" y="256" style="fill:#3F3A34;" width="64" height="16"/>
	<rect x="64" y="288" style="fill:#3F3A34;" width="64" height="16"/>
	<polygon style="fill:#3F3A34;" points="368,368 368,384 464,384 464,176 368,176 368,192 448,192 448,368 	"/>
	<path style="fill:#3F3A34;" d="M176,224v176h144V224H176z M304,384H192V240h112V384z"/>
</g>
<g>
</g>
<g>
</g>
<g>
</g>
<g>
</g>
<g>
</g>
<g>
</g>
<g>
</g>
<g>
</g>
<g>
</g>
<g>
</g>
<g>
</g>
<g>
</g>
<g>
</g>
<g>
</g>
<g>
</g>
</svg>
