<svg xmlns="http://www.w3.org/2000/svg" width="512" height="512" viewBox="0 0 401.998 401.998" enable-background="new 0 0 401.998 401.998"><path fill="#fff" d="M326.62 91.08c-1.7-1.72-3.9-2.57-6.56-2.57h-48.82C268 72.7 261.9 59 252.96 47.4h66.52c2.67 0 4.86-.86 6.57-2.57 1.7-1.7 2.56-3.9 2.56-6.57V9.14c0-2.67-.84-4.86-2.55-6.57-1.72-1.7-3.9-2.57-6.57-2.57H81.94c-2.66 0-4.85.86-6.57 2.57-1.7 1.7-2.56 3.9-2.56 6.57V47.1c0 2.48.9 4.62 2.72 6.43s3.95 2.7 6.42 2.7h41.4c40.16 0 65.67 10.76 76.5 32.27H81.95c-2.66 0-4.85.86-6.57 2.57-1.7 1.72-2.56 3.9-2.56 6.57v29.12c0 2.67.86 4.86 2.57 6.56 1.72 1.72 3.9 2.57 6.57 2.57h121.92c-4.2 15.6-13.95 27.5-29.27 35.68-15.34 8.2-35.56 12.28-60.68 12.28H81.94c-2.47 0-4.6.9-6.42 2.7-1.8 1.82-2.7 3.97-2.7 6.44v36.26c0 2.48.84 4.57 2.55 6.28 36.55 38.83 83.94 93.17 142.2 163.03 1.7 2.28 4.08 3.42 7.12 3.42h55.67c4 0 6.76-1.7 8.28-5.15 1.9-3.42 1.53-6.66-1.15-9.7C231.94 319 188.25 267.98 156.47 234.1c32.36-3.8 58.63-14.26 78.8-31.4 20.18-17.12 32.45-39.4 36.83-66.8h47.96c2.66 0 4.85-.86 6.56-2.57 1.72-1.7 2.57-3.9 2.57-6.56V97.65c0-2.67-.87-4.86-2.58-6.57z"/></svg>