<svg fill="#000000" xmlns="http://www.w3.org/2000/svg" viewBox="0 0 64 64" x="0px" y="0px" width="50" height="50">
  <g data-name="2-Search Engine Optimization">
	<path d="M63,0H1A1,1,0,0,0,0,1V57a1,1,0,0,0,1,1H24V56H2V10H62V56H40v2H63a1,1,0,0,0,1-1V1A1,1,0,0,0,63,0ZM12,8H2V2H12ZM62,8H14V2H62Z"></path>
	<path d="M40,51v2H58a1,1,0,0,0,1-1V14a1,1,0,0,0-1-1H47v2H57V47H50v2h7v2Z"></path>
	<path d="M7,49h7V47H7V15H17V13H6a1,1,0,0,0-1,1V52a1,1,0,0,0,1,1H24V51H7Z"></path>
	<rect x="4" y="4" width="2" height="2"></rect>
	<rect x="8" y="4" width="2" height="2"></rect>
	<rect x="58" y="4" width="2" height="2"></rect>
	<rect x="54" y="4" width="2" height="2"></rect>
	<rect x="50" y="4" width="2" height="2"></rect>
	<path d="M43,30A11,11,0,1,0,32,41,11,11,0,0,0,43,30ZM23,30a9,9,0,1,1,9,9A9,9,0,0,1,23,30Z"></path>
	<path fill="#d20805" d="M37,47H35V44.68A15.07,15.07,0,0,0,47,31h1v2a2,2,0,0,0,2,2h3V33H50V31h1a2,2,0,0,0,2-2V25H51v4H47A15.09,15.09,0,0,0,36,15.54a4,4,0,0,0-7.95,0A15.09,15.09,0,0,0,17,29H16V27a2,2,0,0,0-2-2H11v2h3v2H13a2,2,0,0,0-2,2v4h2V31h4A15.07,15.07,0,0,0,29,44.68V47H27a1,1,0,0,0-1,1V60a1,1,0,0,0,1,1h2v2a1,1,0,0,0,1,1h4a1,1,0,0,0,1-1V61h2a1,1,0,0,0,1-1V48A1,1,0,0,0,37,47ZM19,30A13.06,13.06,0,0,1,29.24,17.3,1,1,0,0,0,30,16.22L30,16a2,2,0,1,1,4,.09l0,.13a1,1,0,0,0,.78,1.08,13,13,0,0,1-.9,25.55,1,1,0,0,0-.86,1V47H31V43.84a1,1,0,0,0-.86-1A13,13,0,0,1,19,30ZM33,62H31V61h2Zm3-3H28V49h8Z"></path>
	<rect fill="#d20805" x="30" y="51" width="4" height="2"></rect>
	<rect fill="#d20805" x="30" y="55" width="4" height="2"></rect>
	<path fill="#d20805" d="M33,36V31h5a1,1,0,0,0,1-1,7,7,0,1,0-7,7A1,1,0,0,0,33,36Zm-2-6v4.9A5,5,0,1,1,36.9,29H32A1,1,0,0,0,31,30Z"></path>
  </g>
</svg>