<svg version="1.1" id="Layer_1" xmlns="http://www.w3.org/2000/svg" xmlns:xlink="http://www.w3.org/1999/xlink" x="0px" y="0px" viewBox="0 0 800 800" enable-background="new 0 0 800 800" xml:space="preserve">
                            <rect x="16.228" y="17" display="none" fill="#FFFFFF" width="764.961" height="764.961"/>
                            <g>
                                <path fill="#015288" d="M198.843,652.265c-7.088-0.892-13.826-1.973-20.028-3.211l0.331-1.654c6.163,1.23,12.86,2.305,19.908,3.191
                                    L198.843,652.265z M159.126,644.1c-6.993-2.197-13.34-4.75-18.866-7.592l0.771-1.498c5.441,2.798,11.7,5.314,18.601,7.479
                                    L159.126,644.1z M123.503,624.916c-5.167-4.884-9.071-10.296-11.936-16.544l1.534-0.701c2.773,6.047,6.555,11.287,11.56,16.019
                                    L123.503,624.916z M106.382,588.639c-0.36-3.335-0.536-6.795-0.536-10.578c0-3.079,0.116-6.279,0.354-9.781l1.684,0.115
                                    c-0.237,3.464-0.351,6.625-0.351,9.666c0,3.722,0.172,7.122,0.527,10.396L106.382,588.639z M110.082,548.334l-1.671-0.228
                                    c0.354-2.588,0.724-5.194,1.093-7.812c0.577-4.055,1.157-8.138,1.685-12.234l1.673,0.217c-0.53,4.103-1.111,8.193-1.688,12.254
                                    C110.804,543.145,110.434,545.747,110.082,548.334z M114.83,508.073l-1.684-0.092c0.162-3.011,0.245-5.929,0.245-8.672
                                    c0-3.969-0.172-7.813-0.511-11.421l1.678-0.159c0.347,3.662,0.521,7.558,0.52,11.58
                                    C115.076,502.083,114.992,505.031,114.83,508.073z M108.886,468.29c-2.111-6.371-5.049-12.405-8.733-17.932l1.403-0.934
                                    c3.767,5.652,6.773,11.821,8.929,18.335L108.886,468.29z M87.077,435.258c-2.736-2.499-5.743-4.944-8.939-7.265
                                    c-2.365-1.718-4.692-3.457-6.919-5.168l1.028-1.338c2.215,1.702,4.53,3.432,6.883,5.141c3.246,2.359,6.303,4.843,9.086,7.385
                                    L87.077,435.258z M55.575,409.9c-5.216-4.653-10.114-9.417-14.555-14.157l1.23-1.153c4.406,4.704,9.267,9.432,14.448,14.051
                                    L55.575,409.9z M27.949,380.187c-4.203-5.637-7.907-11.39-11.013-17.097l1.483-0.806c3.067,5.637,6.728,11.322,10.882,16.896
                                    L27.949,380.187z M8.788,344.437c-2.19-6.63-3.639-13.33-4.311-19.914l1.679-0.171c0.657,6.464,2.082,13.043,4.233,19.556
                                    L8.788,344.437z M6.541,304.387l-1.669-0.239c0.958-6.679,2.756-13.293,5.345-19.66l1.564,0.636
                                    C9.241,291.364,7.48,297.845,6.541,304.387z M286.025,269.809l-2.297-2.255c-3.124-3.068-6.362-6.058-9.624-8.889l1.105-1.274
                                    c2.506,2.175,5,4.444,7.438,6.77c-0.359-1.279-0.706-2.55-1.044-3.813l1.63-0.435c0.6,2.243,1.232,4.51,1.896,6.805
                                    L286.025,269.809z M21.363,267.564l-1.386-0.963c3.768-5.421,8.208-10.638,13.196-15.508l1.177,1.207
                                    C29.44,257.095,25.07,262.231,21.363,267.564z M258.257,246.225c-5.485-3.882-11.208-7.511-17.011-10.785l0.828-1.47
                                    c5.853,3.304,11.626,6.963,17.157,10.878L258.257,246.225z M277.029,240.577c-1.33-6.855-2.357-13.608-3.052-20.074l1.676-0.18
                                    c0.689,6.418,1.71,13.124,3.03,19.933L277.029,240.577z M49.828,239.508l-0.969-1.38c5.42-3.804,11.289-7.325,17.444-10.463
                                    l0.766,1.503C60.984,232.271,55.184,235.75,49.828,239.508z M223.214,226.466c-6.14-2.665-12.489-5.034-18.87-7.037l0.506-1.609
                                    c6.437,2.022,12.841,4.41,19.036,7.1L223.214,226.466z M85.543,221.188l-0.571-1.586c6.284-2.265,12.844-4.203,19.494-5.758
                                    l0.383,1.642C98.262,217.025,91.767,218.945,85.543,221.188z M184.839,214.415c-6.559-1.321-13.267-2.308-19.936-2.932l0.158-1.681
                                    c6.728,0.631,13.494,1.627,20.11,2.959L184.839,214.415z M124.683,211.992l-0.202-1.675c6.684-0.803,13.506-1.252,20.276-1.336
                                    l0.022,1.687C138.069,210.75,131.307,211.196,124.683,211.992z M274.524,200.215h-1.687v-0.222c0-6.94,0.43-13.691,1.273-20.063
                                    l1.672,0.221c-0.834,6.298-1.257,12.974-1.258,19.842V200.215z M480.595,168.597c-1.71-6.396-4.236-12.623-7.514-18.503
                                    l1.473-0.821c3.344,6.003,5.925,12.358,7.67,18.889L480.595,168.597z M280.008,160.544l-1.613-0.496
                                    c2.055-6.673,4.709-12.986,7.887-18.768l1.477,0.812C284.637,147.773,282.028,153.981,280.008,160.544z M461.416,133.856
                                    c-4.366-4.847-9.357-9.376-14.833-13.464l1.007-1.352c5.566,4.154,10.64,8.759,15.079,13.687L461.416,133.856z M299.318,125.791
                                    l-1.251-1.13c4.543-5.034,9.71-9.54,15.36-13.393l0.951,1.393C308.839,116.439,303.773,120.857,299.318,125.791z M429.51,109.849
                                    c-5.906-2.989-12.162-5.548-18.591-7.606l0.514-1.607c6.515,2.086,12.852,4.679,18.838,7.707L429.51,109.849z M332.063,103.331
                                    l-0.619-1.567c6.181-2.442,12.777-4.307,19.604-5.541l0.3,1.66C344.631,99.097,338.142,100.931,332.063,103.331z M391.368,97.611
                                    c-6.49-1.018-13.046-1.534-19.481-1.534c-0.005,0-0.01,0-0.016,0l-0.533,0.001l-0.008-1.687l0.541-0.001c0.005,0,0.011,0,0.016,0
                                    c6.522,0,13.165,0.523,19.741,1.553L391.368,97.611z"/>
                                <linearGradient id="SVGID_1_" gradientUnits="userSpaceOnUse" x1="342.7323" y1="231.0319" x2="536.571" y2="231.0319">
                                    <stop  offset="0" style="stop-color:#23BED0"/>
                                    <stop  offset="0.5515" style="stop-color:#23DBD0"/>
                                </linearGradient>
                                <path fill="url(#SVGID_1_)" d="M342.91,251.831c-2.543-15.539,22.911-21.623,29.541-12.162
                                    c-2.124-14.84,9.861-34.301,30.419-35.977c38.805-3.63,27.56,25.205,46.211,25.622c17.04-0.321,4.338-24.949,43.095-12.61
                                    c9.276,2.757,13.981,13.129,20.537,25.945c13.281-14.609,21.419-5.096,23.859,9.183C472.341,260.973,407.14,260.973,342.91,251.831
                                    z"/>
                                <linearGradient id="SVGID_2_" gradientUnits="userSpaceOnUse" x1="115.0367" y1="551.4909" x2="234.6635" y2="551.4909">
                                    <stop  offset="0" style="stop-color:#23BED0"/>
                                    <stop  offset="0.5515" style="stop-color:#23DBD0"/>
                                </linearGradient>
                                <path fill="url(#SVGID_2_)" d="M115.146,564.329c-1.569-9.59,14.14-13.344,18.231-7.508c-1.31-9.158,6.087-21.169,18.773-22.204
                                    c23.95-2.239,17.008,15.555,28.52,15.812c10.516-0.198,2.677-15.397,26.596-7.78c5.724,1.7,8.628,8.104,12.674,16.012
                                    c8.195-9.016,13.219-3.145,14.723,5.667C195.024,569.969,154.786,569.969,115.146,564.329z"/>
                                <linearGradient id="SVGID_3_" gradientUnits="userSpaceOnUse" x1="673.3114" y1="468.8463" x2="792.9396" y2="468.8463">
                                    <stop  offset="0" style="stop-color:#23BED0"/>
                                    <stop  offset="0.5515" style="stop-color:#23DBD0"/>
                                </linearGradient>
                                <path fill="url(#SVGID_3_)" d="M673.421,481.684c-1.569-9.592,14.14-13.345,18.232-7.508c-1.311-9.158,6.084-21.169,18.774-22.203
                                    c23.948-2.24,17.007,15.555,28.518,15.812c10.515-0.198,2.678-15.398,26.597-7.783c5.725,1.701,8.627,8.104,12.672,16.012
                                    c8.197-9.016,13.219-3.144,14.726,5.668C753.301,487.323,713.06,487.323,673.421,481.684z"/>
                                <g>
                                    <rect x="192.154" y="364.849" fill-rule="evenodd" clip-rule="evenodd" fill="#FFFFFF" width="433.719" height="323.854"/>
                                    <rect x="221.693" y="431.855" fill-rule="evenodd" clip-rule="evenodd" fill="#F2F2F2" width="374.645" height="235.983"/>
                                    <g>
                                        <rect x="299.493" y="398.417" fill-rule="evenodd" clip-rule="evenodd" fill="#D8D2D2" width="296.845" height="8.001"/>
                                        <g>
                                            <g>
                                                <path fill="#FDAC19" d="M246.554,402.416c0,2.792,2.281,5.072,5.071,5.072c2.787,0,5.071-2.28,5.071-5.072
                                                    c0-2.787-2.283-5.066-5.071-5.066C248.835,397.35,246.554,399.629,246.554,402.416z"/>
                                            </g>
                                            <g>
                                                <path fill="#0086CA" d="M226.777,402.416c0,2.792,2.281,5.072,5.071,5.072s5.071-2.28,5.071-5.072
                                                    c0-2.787-2.282-5.066-5.071-5.066S226.777,399.629,226.777,402.416z"/>
                                            </g>
                                            <g>
                                                <path fill="#FE6A3C" d="M266.331,402.416c0,2.792,2.282,5.072,5.071,5.072c2.789,0,5.07-2.28,5.07-5.072
                                                    c0-2.787-2.281-5.066-5.07-5.066C268.612,397.35,266.331,399.629,266.331,402.416z"/>
                                            </g>
                                        </g>
                                    </g>
                                    <g>
                                        <g>
                                            <rect x="250.28" y="490.101" fill="#FE6A3C" width="104.068" height="39.518"/>
                                            <g>
                                                <rect x="379.376" y="490.39" fill="#015288" width="188.373" height="3.373"/>
                                                <rect x="379.376" y="508.175" fill="#015288" width="188.373" height="3.374"/>
                                                <rect x="379.376" y="525.954" fill="#015288" width="188.373" height="3.373"/>
                                            </g>
                                        </g>
                                        <g>
                                            <rect x="250.28" y="557.282" fill="#FDAC19" width="104.068" height="39.518"/>
                                            <g>
                                                <rect x="379.376" y="557.573" fill="#015288" width="188.373" height="3.373"/>
                                                <rect x="379.376" y="575.356" fill="#015288" width="188.373" height="3.374"/>
                                                <rect x="379.376" y="593.137" fill="#015288" width="188.373" height="3.373"/>
                                            </g>
                                        </g>
                                    </g>
                                </g>
                                <g>
                                    <g>
                                        <rect x="341.61" y="128.385" fill="#FDAC19" width="376.038" height="65.021"/>
                                        <path fill="#FFFFFF" d="M640.256,185.122l-0.125-0.001c-45.455-0.966-285.481-1.679-287.9-1.686l-1.515-0.004l-4.652-44.705
                                            l1.745-0.117c41.806-2.801,93.661-4.222,154.12-4.222c75.284,0,137.679,2.262,138.3,2.285l1.269,0.047l0.305,1.232
                                            c0.937,3.762,8.954,36.989,2.622,45.09C643.361,184.402,641.919,185.122,640.256,185.122z M353.757,180.066
                                            c20.611,0.062,242.86,0.755,286.448,1.682l0.052,1.687v-1.686c0.62,0,1.086-0.244,1.511-0.787
                                            c3.888-4.973,0.364-27.228-2.935-40.965c-9.259-0.32-67.616-2.238-136.904-2.238c-59.547,0-110.722,1.378-152.149,4.098
                                            L353.757,180.066z"/>
                                        <path fill="#FFFFFF" d="M681.939,151.181c-3.335-4.587-9.776-5.613-14.363-2.283c-4.59,3.333-5.611,9.777-2.28,14.366
                                            c3.109,4.279,9.659,5.689,14.149,3.121l9.655,13.516l2.349-1.706l-10.716-12.776
                                            C684.129,161.898,684.909,155.272,681.939,151.181z M677.952,163.19c-3.295,2.394-7.916,1.657-10.304-1.633
                                            c-2.391-3.293-1.66-7.918,1.635-10.308c3.293-2.389,7.916-1.654,10.31,1.639C681.978,156.178,681.242,160.8,677.952,163.19z"/>
                                    </g>
                                </g>
                                <g>
                                    <g>
                                        <path fill="#FDAC19" d="M140.36,279.994l-0.991-6.822c-1.301-8.845-2.642-17.992-3.547-27.205l2.422-0.237
                                            c0.898,9.156,2.235,18.274,3.526,27.094l0.997,6.824L140.36,279.994z"/>
                                        <path fill="#FDAC19" d="M103.05,296.027l-5.748-3.746c-7.507-4.877-15.266-9.918-22.787-15.337l1.421-1.971
                                            c7.472,5.381,15.209,10.411,22.692,15.273l5.753,3.75L103.05,296.027z"/>
                                        <path fill="#FDAC19" d="M61.643,340.241l-0.446-2.388c9.025-1.687,17.972-3.808,26.629-5.86l6.768-1.598l0.556,2.366
                                            l-6.764,1.594C79.702,336.415,70.724,338.545,61.643,340.241z"/>
                                        <path fill="#FDAC19" d="M193.453,296.027l-1.33-2.032l5.755-3.75c7.48-4.862,15.216-9.892,22.688-15.273l1.423,1.971
                                            c-7.523,5.419-15.282,10.46-22.786,15.337L193.453,296.027z"/>
                                        <path fill="#FDAC19" d="M234.862,340.241c-9.085-1.696-18.059-3.826-26.742-5.887l-6.764-1.594l0.553-2.366l6.77,1.598
                                            c8.656,2.053,17.604,4.174,26.629,5.86L234.862,340.241z"/>
                                    </g>
                                    <path fill-rule="evenodd" clip-rule="evenodd" fill="#015288" d="M138.338,427.75c0.039,0.526,2.986,7.24,3.029,7.769
                                        c4.881,0,9.776,0,14.648,0c-0.056-0.53,2.21-7.243,2.151-7.773C153.303,427.747,143.2,427.747,138.338,427.75z"/>
                                    <path fill-rule="evenodd" clip-rule="evenodd" fill="#FDAC19" d="M129.573,381.847c1.481,3.704,2.854,22.036,4.175,25.793h31.153
                                        c1.442-3.773,2.94-22.119,4.554-25.828c3.547-5.115,19.864-24.106,25.394-41.895c7.449-22.328-13.415-53.854-45.75-53.898
                                        c-32.235-0.282-54.973,29.051-47.542,51.451C107.127,356.048,122.673,373.511,129.573,381.847z"/>
                                    <path fill="#015288" d="M154.998,405.234c-2.368-12.979-1.216-40.275,3.507-59.925c-0.644,0.071-1.28,0.021-1.909-0.144
                                        c-2.955-0.788-5.117-4.146-6.655-7.972c-2.223,5.021-4.938,7.778-8.12,8.228c-1.255,0.179-2.504-0.02-3.713-0.506
                                        c2.802,18.782,5.821,46.055,5.055,60.2l-1.93-0.105c0.728-13.401-2.252-41.556-5.247-61.26c-3.169-2.194-5.949-6.156-7.87-10.062
                                        c-2.027-4.126-3.734-9.591-1.869-11.409l0.127-0.105c1.619-1.114,3.138-1.389,4.51-0.824c3.324,1.367,4.442,7.254,5.042,10.416
                                        l0.025,0.136c0.548,2.895,1.168,6.552,1.807,10.708c1.245,0.723,2.531,1.08,3.791,0.901c2.174-0.306,4.93-2.325,7.424-9.013
                                        c-0.742-2.313-1.283-4.618-1.657-6.491c-1.247-6.233,0.45-11.089,2.77-12.664c0.939-0.637,1.947-0.699,2.759-0.17
                                        c1.443,0.934,1.877,3.475,1.222,7.153c-0.853,4.801-1.876,8.865-3.062,12.184c1.698,5.031,3.841,8.194,6.086,8.79
                                        c0.613,0.162,1.256,0.14,1.932-0.065c1.485-5.691,3.29-10.632,5.411-14.24l0.362-0.621c1.203-2.082,2.336-4.057,3.92-3.896
                                        c1.352,0.13,1.91,1.758,2.096,2.291c1.533,4.46-4.515,12.673-6.22,14.627c-1.319,1.513-2.62,2.592-3.895,3.236
                                        c-4.801,19.281-6.173,47.243-3.798,60.258L154.998,405.234z M168.511,326.432c-0.535,0.299-1.544,2.045-2.04,2.906l-0.369,0.635
                                        c-1.777,3.021-3.333,7.104-4.661,11.846c0.551-0.465,1.117-1.027,1.697-1.693c2.631-3.02,6.836-9.856,5.848-12.729
                                        C168.778,326.787,168.599,326.531,168.511,326.432z M127.558,323.704c-0.493,0.663-0.16,4.138,2.294,9.131
                                        c1.422,2.889,3.438,5.975,5.697,8.092c-0.51-3.205-1.014-6.13-1.495-8.665l-0.026-0.137c-0.454-2.4-1.522-8.02-3.877-8.989
                                        C129.425,322.837,128.579,323.026,127.558,323.704z M151.646,316.75c-0.165,0-0.357,0.109-0.474,0.188
                                        c-1.497,1.018-3.097,5.007-1.961,10.688c0.256,1.276,0.534,2.489,0.832,3.635c0.756-2.557,1.472-5.617,2.122-9.277
                                        c0.626-3.513,0.032-4.933-0.368-5.194C151.752,316.764,151.701,316.75,151.646,316.75z"/>
                                    <path fill-rule="evenodd" clip-rule="evenodd" fill="#0086CA" d="M128.426,403.474c1.937,2.118,2.846,3.113,3.758,4.111
                                        c-3.527-0.333-3.705,5.296,0.74,5.566c-4.537-0.177-4.72,5.627-0.289,5.69c-4.432-0.24-4.613,6.296-0.44,6.664
                                        c-1.062,1.156-1.895,2.061-2.792,3.035c5.732,2.686,37.432,2.512,38.094-0.285c-0.78-0.926-1.644-1.957-2.528-3
                                        c4.45-0.394,3.269-6.29-0.441-6.015c4.979-0.549,3.076-6.449-0.022-6.043c4.186-0.771,2.914-5.035,0.532-5.558
                                        c1.002-1.37,1.787-2.447,3.042-4.166C154.729,403.474,142.209,403.474,128.426,403.474z"/>
                                </g>
                                <g>
                                    <path fill="#1693B8" d="M645.705,267.711c-0.353,0.007,0,0.909,0,0.909c-15.923-6.479-125.691-10.77-129.185,13.487
                                        c-5.637,39.139-11.332,66.414,18.371,78.16c19.09,7.551,61.053,5.551,88.067,3.035l21.661,16.1l-0.516-18.533
                                        c1.154-0.171,2.068-0.32,2.677-0.435C676.305,354.81,693.034,267.013,645.705,267.711z"/>
                                    <g>
                                        <path fill="#FFFFFF" d="M573.798,285.034c-0.096-0.434-0.102-0.562-0.102-0.584v-0.482h-0.242
                                            c-0.015-0.107-0.023-0.196-0.023-0.268c0-0.335-0.098-0.729-0.304-1.206c-0.167-0.399-0.313-0.771-0.458-1.186
                                            c-0.274-0.519-0.576-1.004-0.898-1.449c-0.332-0.46-0.651-0.765-0.971-0.932c-0.299-0.287-0.622-0.491-0.961-0.609
                                            c-0.705-0.247-0.791-0.257-1.606-0.007c-0.342,0.104-0.693,0.217-1.05,0.336l-0.136,0.07c-0.345,0.261-0.777,0.556-1.298,0.886
                                            c-0.554,0.354-1.027,0.726-1.407,1.104c-0.382,0.384-0.779,0.932-1.18,1.626c-0.377,0.649-0.817,1.345-1.353,2.151
                                            c-0.715,1.702-1.214,3.216-1.483,4.496c-0.126,0.537-0.201,1.226-0.234,2.104c-0.029,0.844-0.044,1.64-0.044,2.381
                                            c0,0.75,0.045,1.562,0.134,2.414c0.085,0.822,0.131,1.482,0.131,1.962c0,0.638,0.055,1.364,0.16,2.162
                                            c0.102,0.785,0.213,1.547,0.332,2.288l0.033,0.115c0.242,0.563,0.379,1.088,0.405,1.561c0.027,0.519,0.044,0.904,0.044,1.166
                                            c0,0.305,0.055,0.683,0.167,1.151c0.114,0.465,0.313,0.97,0.565,1.432c0.116,0.35,0.24,0.738,0.372,1.161
                                            c0.161,0.523,0.315,0.835,0.494,1.017l0.084,0.094l0.144,0.028c0.001,0.002,0.097,0.102,0.117,0.509
                                            c0,0.15,0.036,0.362,0.503,1.448c0.308,0.722,0.64,1.507,0.994,2.36c0.353,0.855,0.742,1.731,1.158,2.607
                                            c0.4,0.845,0.659,1.443,0.771,1.778c0.13,0.381,0.288,0.75,0.479,1.094c0.196,0.362,0.204,0.438,0.204,0.431
                                            c0,0.124,0.017,0.368,0.048,0.728c0.034,0.405,0.199,0.816,0.487,1.219c0.103,0.321,0.2,0.73,0.292,1.215
                                            c0.098,0.514,0.145,1.012,0.145,1.479l0.013,0.108c0.104,0.45,0.131,1.01,0.079,1.662c-0.058,0.69-0.09,1.293-0.092,1.796
                                            c-0.113,0.496-0.223,1.067-0.323,1.705c-0.109,0.669-0.161,1.275-0.161,1.799c0,0.313-0.069,0.766-0.208,1.347l-0.013,0.112
                                            c0,0.002-0.002,0.081-0.093,0.295c-0.114,0.267-0.173,0.568-0.173,0.898c0,0.114-0.038,0.414-0.299,1.112
                                            c-0.205,0.545-0.475,1.059-0.836,1.579c-0.263,0.496-0.542,0.998-0.831,1.509c-0.281,0.493-0.481,0.864-0.606,1.135
                                            c-0.44,0.448-1.012,0.803-1.628,1.039c-0.55,0.102-0.958,0.142-1.208,0.107c-0.141-0.021-0.506-0.119-1.408-0.553l-0.099-0.036
                                            c-0.44-0.102-0.858-0.295-1.246-0.567c-0.419-0.293-0.755-0.563-0.998-0.806l-0.145-0.101c-0.112-0.049-0.29-0.191-0.499-0.581
                                            c-0.216-0.405-0.459-0.789-0.72-1.145c-0.108-0.33-0.217-0.68-0.325-1.057c-0.125-0.44-0.248-0.794-0.377-1.079
                                            c-0.105-0.239-0.208-0.562-0.303-0.959c-0.093-0.385-0.142-0.739-0.142-1.054l-0.023-0.155c-0.104-0.308-0.17-0.799-0.198-1.458
                                            c-0.029-0.699-0.042-1.296-0.042-1.79c0-0.474,0.042-1.001,0.126-1.563c0.083-0.563,0.131-0.98,0.137-1.275
                                            c0.138-0.43,0.187-0.73,0.042-0.968c-0.165-0.278-0.49-0.342-0.958-0.347c-0.374-0.064-0.761,0.064-1.124,0.387l-0.161,0.145
                                            l0.007,6.406c0.119,0.623,0.246,1.238,0.379,1.847c0.142,0.644,0.274,1.1,0.405,1.396l0.101,0.145
                                            c0.004,0.005,0.091,0.1,0.208,0.517c0.13,0.467,0.136,0.588,0.136,0.6c0,0.319,0.062,0.655,0.181,1
                                            c0.116,0.326,0.242,0.568,0.391,0.741c0.17,0.312,0.388,0.644,0.67,0.822c0.021,0.059,0.046,0.112,0.08,0.163
                                            c0.027,0.039,0.082,0.105,0.166,0.196c0.114,0.422,0.528,0.718,0.871,0.915c0.113,0.102,0.326,0.26,0.797,0.513
                                            c0.431,0.252,0.57,0.371,0.608,0.41c0.339,0.341,0.774,0.548,1.29,0.622l0.552,0.079v-0.023c0.068,0.03,0.138,0.061,0.212,0.094
                                            c0.279,0.268,0.515,0.453,0.723,0.555c0.145,0.073,0.32,0.109,0.532,0.109c0.207,0,0.455-0.033,0.756-0.101
                                            c0.377-0.007,0.784-0.062,1.211-0.168c0.452-0.114,0.75-0.237,0.941-0.392c0.271-0.125,0.56-0.294,0.852-0.499
                                            c0.254-0.178,0.446-0.325,0.585-0.448c0.263-0.114,0.464-0.41,0.673-0.809c0.204-0.392,0.368-0.771,0.489-1.125
                                            c0.278-0.382,0.562-0.924,0.872-1.648l0.88-2.057c0.267-0.857,0.5-1.692,0.693-2.481c0.202-0.828,0.3-1.495,0.3-2.039
                                            c0-0.475,0.05-1.086,0.149-1.81c0.103-0.743,0.213-1.42,0.334-2.064c0.12-1.002,0.179-1.73,0.179-2.222
                                            c0-0.506-0.062-1.034-0.201-1.611c-0.117-0.353-0.28-0.85-0.485-1.498c-0.199-0.625-0.359-1.245-0.47-1.843l-0.033-0.102
                                            c-0.262-0.608-0.485-1.175-0.674-1.697c-0.231-0.637-0.257-0.799-0.259-0.807v-0.199l-0.139-0.142
                                            c-0.082-0.082-0.164-0.204-0.242-0.362c-0.097-0.193-0.104-0.268-0.104-0.268l-0.041-0.196c-0.115-0.262-0.299-0.699-0.546-1.312
                                            c-0.256-0.632-0.571-1.276-0.898-1.838c-0.264-0.731-0.585-1.696-0.967-2.898l-0.034-0.112l-0.085-0.084
                                            c-0.035-0.033-0.129-0.148-0.278-0.474l-0.397-0.883c-0.418-0.728-0.732-1.436-0.949-2.162c-0.113-0.256-0.218-0.524-0.316-0.806
                                            c-0.086-0.242-0.128-0.471-0.128-0.678c0-0.105-0.013-0.295-0.119-0.844c-0.068-0.351-0.102-0.647-0.102-0.881
                                            c0-0.392-0.051-0.783-0.149-1.159c-0.078-0.299-0.115-0.562-0.115-0.785c0-0.128-0.01-0.29-0.024-0.484
                                            c-0.022-0.247-0.111-0.421-0.233-0.532c-0.021-0.121-0.056-0.281-0.113-0.497c-0.078-0.298-0.118-0.682-0.118-1.137l-0.024-0.154
                                            c-0.07-0.207-0.157-0.725-0.173-1.996c-0.017-1.074-0.023-2.227-0.023-3.462c0-1.561,0.051-2.704,0.149-3.399
                                            c0.098-0.694,0.279-1.463,0.547-2.323c0.111-0.482,0.277-1.037,0.494-1.651c0.204-0.587,0.423-1.039,0.658-1.351
                                            c0.273-0.363,0.565-0.811,0.869-1.326c0.328-0.558,0.543-0.696,0.62-0.731l0.984-0.938c0.28-0.282,0.488-0.549,0.632-0.816
                                            c0.242-0.116,0.498-0.255,0.761-0.42c0.231-0.141,0.436-0.214,0.606-0.214h0.989c0.182,0.214,0.505,0.69,1.055,1.751
                                            c0.233,0.31,0.456,0.771,0.659,1.367c0.218,0.64,0.459,1.273,0.721,1.887c0.115,0.595,0.213,1.15,0.299,1.661
                                            c0.078,0.471,0.063,0.995-0.052,1.645c0,0.464-0.049,0.963-0.145,1.478c-0.098,0.522-0.205,0.953-0.316,1.284l-0.023,0.153
                                            c0,0.31-0.04,0.618-0.119,0.916c-0.097,0.377-0.148,0.723-0.148,1.028c0,0.015-0.004,0.106-0.082,0.325
                                            c-0.081,0.23-0.13,0.489-0.136,0.772c-0.213,0.539-0.299,0.988-0.267,1.334v0.422c-0.033,0.033-0.063,0.064-0.088,0.102
                                            c-0.145,0.203-0.187,0.465-0.133,0.714v0.703h0.482c0.372,0,0.651-0.31,0.876-0.616c0.228-0.308,0.407-0.612,0.538-0.908
                                            c0.121-0.267,0.282-0.654,0.493-1.161c0.211-0.513,0.376-0.951,0.497-1.313l0.023-0.154c0-0.336,0.038-0.853,0.11-1.54
                                            c0.074-0.72,0.111-1.347,0.104-1.775c0.27-1.509,0.274-2.864,0.007-4.031C573.916,285.831,573.875,285.391,573.798,285.034z"/>
                                        <path fill="#FFFFFF" d="M604.696,340.943l-0.11-0.059h-0.126c-0.291,0-0.549,0.015-0.775,0.048
                                            c-0.27,0.038-0.554,0.143-0.872,0.32c-0.11,0.061-0.406,0.165-1.167,0.182c-0.663,0.015-1.637,0.022-2.929,0.022
                                            c-1.264,0-2.223-0.057-2.855-0.17c-0.637-0.113-1.172-0.242-1.618-0.388c-0.561-0.148-1.175-0.285-1.825-0.407
                                            c-1.184-0.219-2.804-0.173-4.521-0.207c-0.711-0.012-1.273-0.085-1.667-0.217l-0.153-0.025c-0.402,0-0.824-0.054-1.254-0.161
                                            c-0.548-0.139-0.686-0.254-0.686-0.254c-0.15-0.167-0.401-0.573-0.74-1.553c-0.131-0.392-0.205-0.99-0.218-1.778
                                            c-0.015-0.836-0.022-1.606-0.022-2.311c0-0.423,0.053-1.12,0.153-2.07c0.104-0.981,0.158-1.92,0.158-2.79
                                            c0-0.987,0.044-2.007,0.131-3.031c0.088-1.056,0.136-1.879,0.136-2.448c0-0.526,0.047-1.028,0.142-1.494
                                            c0.148-0.707,0.165-0.943,0.165-1.071c0-0.238,0.044-0.62,0.128-1.137c0.091-0.569,0.137-1.153,0.137-1.734v-3.448l-0.168-0.786
                                            l0.68-0.158l0.125-0.048c0.132-0.074,0.395-0.161,0.914-0.161c0.447,0,0.871,0.068,1.26,0.198l0.174,0.025
                                            c0.212,0,0.647,0.015,1.307,0.044c0.697,0.029,1.427,0.052,2.198,0.066c0.769,0.015,1.464,0.021,2.087,0.021h1.072
                                            c0.393,0,0.634-0.059,0.797-0.193c0.126-0.098,0.248-0.268,0.425-0.58c0.196-0.228,0.322-0.567,0.393-1.055l0.044-0.552h-0.557
                                            c-0.132,0-0.508-0.008-1.126-0.022l-2.388-0.044c-0.896-0.014-1.801-0.036-2.709-0.065c-0.92-0.03-1.632-0.045-2.139-0.045
                                            h-0.141c-1.526,0-2.191-0.032-2.513-0.068v-0.025c0-0.073,0.017-0.388,0.131-1.68c0.088-1.013,0.134-2.187,0.134-3.49
                                            c0-1.276,0.104-2.892,0.31-4.859c0-0.05,0.015-0.137,0.081-0.27c0.121-0.242,0.184-0.539,0.184-0.88
                                            c0-0.173,0.025-0.679,0.153-2.123c0.102-1.184,0.155-2.507,0.155-3.93c0-1.581,0.046-3.262,0.132-4.991
                                            c0.089-1.756,0.135-3.156,0.135-4.155c0-1.142,0.013-2.094,0.042-2.855c0.013-0.336,0.038-0.544,0.057-0.671
                                            c0.605,0.038,1.135,0.116,1.564,0.228c0.457,0.15,1.055,0.303,1.776,0.456c0.678,0.139,1.237,0.283,1.63,0.412
                                            c0.242,0.104,0.653,0.213,1.288,0.339c0.595,0.119,1.249,0.239,1.962,0.357c0.709,0.117,1.395,0.23,2.061,0.331
                                            c0.659,0.1,1.163,0.182,1.472,0.233c1.217,0.322,1.683,0.479,1.86,0.553c0.145,0.061,0.26,0.152,0.348,0.274
                                            c0.006,0.104,0.017,0.188,0.038,0.262c0.087,0.334,0.348,0.453,0.542,0.453l0.109-0.01c0.174-0.036,0.322-0.125,1.018-0.817
                                            c0.633-0.634,0.814-0.889,0.893-1.025c0.135-0.235,0.12-0.445,0.083-0.58c-0.051-0.18-0.166-0.337-0.351-0.471
                                            c-0.223-0.361-0.819-0.477-1.208-0.554c-0.619-0.119-1.295-0.181-2.007-0.185c-0.685-0.141-1.336-0.286-1.952-0.43
                                            c-0.765-0.176-0.926-0.302-0.939-0.313l-0.156-0.141h-0.2c-0.094,0-0.313-0.015-0.657-0.043
                                            c-0.378-0.027-0.803-0.064-1.271-0.109l-1.39-0.133c-0.479-0.046-0.826-0.067-1.053-0.067c-0.397,0-0.806-0.054-1.217-0.161
                                            c-0.159-0.043-0.262-0.078-0.321-0.104v-0.31h-0.483c-0.029,0-0.141-0.009-0.382-0.114c-0.297-0.13-0.545-0.194-0.748-0.194
                                            c-0.007,0,0.019,0.076-0.343-0.208c-0.28-0.22-0.571-0.414-0.857-0.573c-0.292-0.161-0.643-0.308-1.038-0.437
                                            c-0.556-0.175-0.786-0.196-0.963-0.198c-0.154,0-0.294,0.01-0.411,0.025c-0.299,0.036-0.509,0.231-0.579,0.514
                                            c-0.154,0.202-0.25,0.445-0.286,0.723c-0.034,0.259-0.049,0.47-0.049,0.634c0,0.094-0.021,0.625-0.128,2.626
                                            c-0.091,1.624-0.136,3.536-0.136,5.682c0,2.282-0.052,4.354-0.154,6.159c-0.103,1.853-0.156,3.033-0.156,3.607
                                            c0,0.415-0.056,0.994-0.17,1.714c-0.115,0.735-0.246,1.38-0.387,1.919l-0.017,0.123c0,0.548-0.046,1.438-0.132,2.637
                                            c-0.089,1.227-0.132,2.362-0.132,3.371v10.075c0,0.682-0.052,1.468-0.153,2.329c-0.099,0.866-0.153,1.593-0.157,2.159
                                            c-0.149,0.594-0.279,1.504-0.396,2.78c-0.118,1.295-0.179,2.611-0.179,3.911c0,1.131-0.042,2.257-0.13,3.342
                                            c-0.091,1.124-0.136,1.809-0.136,2.093c0,0.463,0.052,1.188,0.158,2.214c0.104,1.001,0.227,1.773,0.373,2.355
                                            c0.002,0.703,0.048,1.395,0.137,2.057c0.086,0.639,0.127,1.085,0.127,1.327c0,0.283,0.018,0.56,0.049,0.828
                                            c0.062,0.52,0.327,0.707,0.532,0.769c0.207,0.155,0.422,0.233,0.645,0.233c0.187,0,0.469-0.058,0.779-0.373
                                            c0.174-0.208,0.33-0.46,0.464-0.745c0.149-0.313,0.223-0.643,0.223-0.978v-0.208c0.131,0.075,0.241,0.156,0.325,0.239
                                            l0.141,0.142h0.2c0.236,0,0.681,0.051,1.32,0.15c1.469,0.227,3.081,0.128,4.596,0.288c0.836,0.092,1.555,0.136,2.128,0.136
                                            c0.418,0,1.001,0.058,1.738,0.171c0.757,0.118,1.486,0.249,2.205,0.397c0.7,0.117,1.306,0.228,1.816,0.33
                                            c0.643,0.127,0.9,0.087,1.089-0.028c0.168-0.019,0.434-0.061,0.889-0.15c0.493-0.096,1.087-0.145,1.753-0.145
                                            c1.695,0.036,2.542-0.023,2.747-0.53c0.211-0.298,0.308-0.55,0.308-0.792c0-0.21-0.041-0.419-0.122-0.622
                                            C605.292,341.371,605.064,341.148,604.696,340.943z"/>
                                        <path fill="#FFFFFF" d="M633.842,312.851c-0.029-1.146-0.114-1.948-0.264-2.448c-0.005-0.616-0.054-1.718-0.155-3.357
                                            c-0.102-1.659-0.154-3.389-0.154-5.142c0.001-1.768-0.105-3.967-0.31-6.495c0-0.129-0.022-0.373-0.188-1.121
                                            c-0.119-0.533-0.252-1.097-0.401-1.691c-0.153-0.614-0.436-1.397-0.843-2.331c-0.402-0.925-0.837-1.777-1.254-2.46
                                            c-0.304-0.761-0.721-1.548-1.236-2.337c-0.526-0.803-0.936-1.347-1.255-1.668c-0.305-0.305-0.662-0.621-1.055-0.941
                                            c-0.367-0.296-0.697-0.591-0.978-0.871c-0.324-0.323-0.813-0.691-1.496-1.127c-0.638-0.405-1.253-0.83-1.901-1.304
                                            c-0.593-0.296-1.154-0.57-1.689-0.825c-0.783-0.366-1.046-0.419-1.221-0.42c-0.162,0-0.373,0.016-0.633,0.048
                                            c-0.266,0.033-0.497,0.12-0.691,0.262h-0.716c-0.631,0-0.877,0.285-0.973,0.523c-0.08,0.206-0.122,0.483-0.122,0.844
                                            c0,0.138-0.052,0.385-0.301,0.78c-0.231,0.364-0.483,0.687-0.751,0.954c-0.648,0.649-1.035,1.172-1.177,1.602
                                            c-0.127,0.38-0.263,1.013-0.423,2.008c0,0.566-0.051,1.229-0.149,1.97c-0.108,0.796-0.16,1.41-0.16,1.876
                                            c0,0.405-0.049,0.84-0.144,1.291c-0.108,0.511-0.147,0.771-0.16,0.924c-0.325,0.662-0.52,1.499-0.58,2.514
                                            c0,0.264-0.05,0.698-0.147,1.29c-0.11,0.652-0.161,1.199-0.161,1.67c0,0.563-0.044,1.166-0.13,1.791
                                            c-0.092,0.676-0.136,1.16-0.136,1.479c0,0.267-0.05,0.702-0.149,1.291c-0.107,0.642-0.161,1.202-0.161,1.67
                                            c0,0.42-0.049,1.006-0.15,1.747c-0.107,0.783-0.159,1.488-0.159,2.097c0,0.547-0.107,1.269-0.316,2.14
                                            c-0.225,0.921-0.41,1.753-0.555,2.471c-0.141,0.571-0.321,1.166-0.537,1.767c-0.268,0.748-0.339,1.056-0.355,1.229
                                            c-0.189,0.653-0.292,1.139-0.31,1.475c-0.073,0.173-0.174,0.497-0.323,1.203c-0.135,0.627-0.264,1.421-0.384,2.359
                                            c-0.119,0.935-0.214,1.993-0.29,3.144c-0.073,1.156-0.111,2.341-0.11,3.571l0.797,7.956l1.225,2.517
                                            c0.301,0.755,0.664,1.484,1.071,2.167c0.422,0.7,0.785,1.203,1.104,1.523c0.63,0.659,1.243,1.18,1.82,1.551
                                            c0.213,0.19,0.559,0.357,1.081,0.52c0.447,0.139,0.809,0.279,1.077,0.414l0.103,0.049h0.113c0.412,0,0.877,0.043,1.381,0.125
                                            c0.56,0.094,0.989,0.147,1.22,0.13c0.624,0.125,1.089,0.187,1.421,0.187c0.331,0,0.796-0.062,1.478-0.202
                                            c0.457-0.153,0.975-0.368,1.54-0.643c0.542-0.263,1.041-0.545,1.482-0.837c0.468-0.165,1.005-0.441,1.638-0.848
                                            c0.623-0.402,1.105-0.835,1.435-1.293c0.622-0.33,1.078-0.766,1.361-1.296c0.252-0.476,0.527-1.086,0.82-1.814
                                            c0.305-0.468,0.568-1.044,0.782-1.711c0.19-0.603,0.425-1.112,0.692-1.513l0.054-0.116c0.155-0.457,0.292-0.955,0.412-1.482
                                            c0.129-0.557,0.188-0.989,0.188-1.321c0-0.259,0.057-0.639,0.166-1.133c0.115-0.516,0.245-0.99,0.385-1.41l0.024-0.154
                                            c0-0.417,0.051-0.99,0.15-1.7c0.104-0.754,0.157-1.37,0.16-1.835c0-0.41,0.048-0.918,0.147-1.51
                                            c0.108-0.651,0.16-1.124,0.162-1.452c0-0.19,0.025-0.677,0.152-1.916c0.103-1.031,0.156-2.08,0.156-3.119
                                            C633.888,315.1,633.873,314.004,633.842,312.851z M631.431,319.862l-0.012,0.117c0,0.716-0.052,1.53-0.153,2.422
                                            c-0.104,0.924-0.157,1.703-0.157,2.307c0,0.711-0.042,1.412-0.128,2.081c-0.085,0.668-0.132,1.234-0.136,1.684
                                            c-0.141,0.433-0.278,0.906-0.406,1.42c-0.12,0.481-0.19,0.869-0.207,1.182c-0.143,0.211-0.332,0.612-0.641,1.493
                                            c-0.284,0.804-0.641,1.57-1.064,2.274c-0.448,0.746-0.826,1.463-1.13,2.127c-0.385,0.85-0.538,1.025-0.565,1.053
                                            c-0.142,0.14-0.353,0.331-0.634,0.57c-0.247,0.21-0.565,0.379-0.944,0.506l-0.116,0.058c-0.416,0.277-0.927,0.545-1.513,0.795
                                            c-0.597,0.258-1.046,0.46-1.347,0.608c-0.561,0.139-1.097,0.259-1.603,0.356c-0.465,0.092-0.98,0.078-1.808-0.073
                                            c-0.698,0-1.322-0.063-1.858-0.187c-0.534-0.124-0.934-0.252-1.196-0.382c-0.262-0.13-0.531-0.305-0.797-0.518
                                            c-0.298-0.236-0.6-0.435-0.898-0.593c-0.266-0.268-0.517-0.532-0.746-0.787c-0.208-0.234-0.248-0.341-0.252-0.325
                                            c-0.001-0.168-0.048-0.428-0.372-1.161c-0.214-0.484-0.395-0.947-0.563-1.434l-0.843-1.685l-0.696-8.308
                                            c0-1.896,0.038-3.438,0.11-4.587c0.071-1.143,0.167-2.103,0.281-2.849c0.113-0.74,0.242-1.358,0.383-1.838
                                            c0.149-0.503,0.31-1.063,0.473-1.638c0.302-0.757,0.549-1.556,0.729-2.371c0.172-0.778,0.333-1.387,0.472-1.807l0.422-1.26
                                            c0.198-0.594,0.223-0.832,0.223-0.97c0-0.075,0.017-0.367,0.13-1.522c0.089-0.908,0.135-1.896,0.135-2.942
                                            c0-0.866,0.052-1.855,0.153-2.936c0.107-1.132,0.156-1.904,0.156-2.365c0-0.409,0.051-0.868,0.145-1.366
                                            c0.11-0.565,0.165-1.001,0.165-1.329c0-0.049,0.012-0.213,0.119-0.663c0.097-0.403,0.147-0.775,0.147-1.101
                                            c0.001-0.03,0.022-0.225,0.286-1.051l0.023-0.147c0-0.036,0.011-0.191,0.137-0.642c0.114-0.409,0.172-0.786,0.172-1.126
                                            c0-0.252,0.047-0.56,0.141-0.919c0.111-0.435,0.17-0.824,0.17-1.158c0-0.259,0.04-0.572,0.121-0.934
                                            c0.094-0.43,0.143-0.814,0.143-1.143c0-0.256,0.047-0.608,0.143-1.046c0.149-0.674,0.166-0.906,0.166-1.031
                                            c0-0.242,0.052-0.528,0.154-0.847c0.129-0.397,0.237-0.537,0.31-0.611c0.184-0.221,0.631-0.646,1.783-1.47
                                            c0.233-0.234,0.635-0.481,1.196-0.733c0.088,0.015,0.263,0.058,0.583,0.165l1.198,0.399l1.538,1.024
                                            c0.562,0.374,0.979,0.761,1.297,1.221c0.447,0.45,0.939,0.884,1.455,1.296c0.511,0.405,0.758,0.619,0.88,0.731
                                            c0.155,0.304,0.422,0.774,0.794,1.41c0.399,0.679,0.819,1.387,1.244,2.093c0.43,0.86,0.794,1.711,1.081,2.53
                                            c0.287,0.82,0.506,1.527,0.664,2.15c0.208,0.57,0.474,2.239,0.545,6.948v6.094h0.252c0.035,0.173,0.078,0.548,0.058,1.329
                                            c0,0.443,0.015,1.235,0.044,2.377c0.03,1.147,0.121,2.259,0.267,3.235c0,0.881-0.015,1.937-0.045,3.171
                                            C631.656,318.423,631.57,319.31,631.431,319.862z"/>
                                    </g>
                                </g>
                                <g>
                                    <g>
                                        <path fill="#E85E38" d="M227.128,120.589c0,39.766-32.233,71.989-71.978,71.989c-39.769,0-71.991-32.223-71.991-71.989
                                            c0-39.722,32.222-71.958,71.991-71.958C194.895,48.631,227.128,80.867,227.128,120.589z"/>
                                        <path fill="#FE6A3C" d="M218.107,120.589c0,39.766-32.234,71.989-71.979,71.989c-39.768,0-71.991-32.223-71.991-71.989
                                            c0-39.722,32.223-71.958,71.991-71.958C185.872,48.631,218.107,80.867,218.107,120.589z"/>
                                        <path fill="#FFFFFF" d="M205.657,120.591c0,32.881-26.644,59.519-59.519,59.519c-32.85,0-59.493-26.638-59.493-59.519
                                            c0-32.84,26.643-59.47,59.493-59.47C179.013,61.121,205.657,87.751,205.657,120.591z"/>
                                        <path fill="#FDAC19" d="M193.782,120.586c0,26.36-21.313,47.683-47.65,47.683c-26.334,0-47.672-21.323-47.672-47.683
                                            c0-26.278,21.338-47.644,47.672-47.644C172.468,72.942,193.782,94.308,193.782,120.586z"/>
                                        <path fill="#FFFFFF" d="M165.825,120.591c0,10.875-8.821,19.696-19.69,19.696c-10.87,0-19.675-8.82-19.675-19.696
                                            c0-10.848,8.805-19.655,19.675-19.655C157.004,100.936,165.825,109.743,165.825,120.591z"/>
                                        <path fill="#FE6A3C" d="M158.515,120.599c0,6.836-5.545,12.38-12.377,12.38c-6.833,0-12.368-5.544-12.368-12.38
                                            c0-6.819,5.535-12.355,12.368-12.355C152.97,108.244,158.515,113.78,158.515,120.599z"/>
                                        <path fill="#FFFFFF" d="M145.91,160.724c-22.114,0-40.105-17.992-40.105-40.107c0-22.115,17.991-40.106,40.105-40.106
                                            c22.116,0,40.109,17.991,40.109,40.106C186.019,142.732,168.026,160.724,145.91,160.724z M145.91,82.196
                                            c-21.183,0-38.419,17.236-38.419,38.42c0,21.186,17.235,38.421,38.419,38.421c21.187,0,38.421-17.235,38.421-38.421
                                            C184.331,99.432,167.098,82.196,145.91,82.196z"/>
                                    </g>
                                    <g>
                                        <g>
                                            <g>
                                                <polygon fill="#015288" points="230.834,121.563 241.778,104.233 271.376,103.551 260.443,120.891 					"/>
                                                <polygon fill="#1693B8" points="229.536,120.411 244.457,137.206 274.032,136.533 259.12,119.758 					"/>
                                            </g>
                                        </g>
                                        <rect x="146.278" y="118.346" fill="#015288" width="115.712" height="4.538"/>
                                    </g>
                                </g>
                                <g>
                                    <g>
                                        <path fill="#096666" d="M673.779,628.924c-3.318-6.845-2.016-17.097-0.214-31.288c1.146-9.033,2.445-19.268,3.057-31.588
                                            l3.371,0.168c-0.619,12.447-1.984,23.204-3.08,31.844c-1.728,13.612-2.977,23.448-0.096,29.394L673.779,628.924z"/>
                                        <g>
                                            <g>
                                                <path fill="#1693B8" d="M737.513,475.964c1.974,9.927,11.304,24.611,4.822,32.913c-5.829,7.469-23.611,7.323-27.686,16.31
                                                    c-5.929,13.068,12.077,12.621,2.131,24.618c-4.098,4.939-25.072,23.144-30.76,26.036c-3.247,1.659-10.498,11.442-19.254,7.293
                                                    c-19.256-9.117,19.92-136.844,65.441-147.256C753.074,431.108,735.788,467.293,737.513,475.964z"/>
                                            </g>
                                            <g>
                                                <path fill="#096666" d="M666.219,582.836l-1.698-0.372c15.975-72.43,35.841-99.196,56.878-127.536
                                                    c1.656-2.236,3.32-4.476,4.984-6.743l1.398,1.027c-1.667,2.269-3.332,4.511-4.991,6.75
                                                    C701.87,484.148,682.11,510.772,666.219,582.836z"/>
                                            </g>
                                            <g>
                                                <path fill="#096666" d="M721.367,486.233c-11.192-0.281-16.536,4.338-23.929,10.736c-1.082,0.933-2.203,1.905-3.387,2.896
                                                    l-1.114-1.33c1.177-0.985,2.293-1.947,3.362-2.879c7.403-6.401,13.25-11.454,25.111-11.155L721.367,486.233z"/>
                                            </g>
                                            <g>
                                                <path fill="#096666" d="M680.392,532.012l-1.129-1.313c1.307-1.124,2.458-2.171,3.473-3.095
                                                    c4.654-4.248,7.465-6.812,16.102-8.416l0.316,1.706c-8.157,1.51-10.674,3.811-15.25,7.989
                                                    C682.881,529.814,681.721,530.876,680.392,532.012z"/>
                                            </g>
                                            <g>
                                                <path fill="#096666" d="M706.088,478.917l-1.667,0.786c2.089-4.248,2.855-10.592,3.491-15.222
                                                    c0.404-2.947,0.825-5.988,1.601-8.922l1.676,0.448c-0.751,2.823-1.16,5.812-1.559,8.706
                                                    C708.974,469.484,708.299,474.413,706.088,478.917z"/>
                                            </g>
                                        </g>
                                        <path fill="#096666" d="M671.668,645.097c-1.535-14.587-1.03-26.693-0.62-36.425c0.477-11.384,0.822-19.61-2.464-24.353
                                            l2.775-1.921c3.93,5.675,3.565,14.376,3.061,26.417c-0.405,9.618-0.906,21.59,0.602,35.93L671.668,645.097z"/>
                                        <g>
                                            <g>
                                                <path fill="#02797D" d="M691.15,439.594c6.939,9.21,12.509,19.804,9.97,31.531c-2.288,10.552-18.563,36.127-18.299,47.37
                                                    c0.383,16.353,18.872,12.657,14.603,29.898c-1.763,7.099-5.284,13.445-9.692,19.228c-2.513,3.302-5.113,16.943-16.155,17.022
                                                    c-24.283,0.171-24.18-16.837-31.218-24.447c-14.472-15.641-26.904-36.553-20.452-53.465c2.643-6.916,14.247-5.817,16.548-12.84
                                                    c2.105-6.43-8.124-23.433-8.466-31.282c-0.709-16.303,15.073-10.895,14.535-19.4c-1.158-18.194,20.069-51.296,32.063-50.627
                                                    C698.944,393.938,685.085,431.546,691.15,439.594z"/>
                                            </g>
                                            <g>
                                                <path fill="#096666" d="M670.742,584.634l-1.935-0.498c-19.451-82.242-12.06-118.654-4.497-158.151
                                                    c0.596-3.112,1.192-6.228,1.779-9.379l1.706,0.319c-0.588,3.152-1.184,6.272-1.779,9.388
                                                    C658.486,465.622,651.377,502.75,670.742,584.634z"/>
                                            </g>
                                            <g>
                                                <path fill="#096666" d="M658.251,485.591l-1.578-0.711c0.717-1.596,1.381-3.133,2.026-4.619
                                                    c4.419-10.211,7.907-18.276,20.195-23.823l0.715,1.582c-11.676,5.268-14.884,12.677-19.319,22.929
                                                    C659.643,482.44,658.974,483.99,658.251,485.591z"/>
                                            </g>
                                            <g>
                                                <path fill="#096666" d="M660.147,525.368l-1.592-0.698c0.787-1.798,1.448-3.445,2.032-4.895
                                                    c2.664-6.647,4.276-10.664,12.328-16.564l1.025,1.401c-7.654,5.606-9.105,9.229-11.745,15.805
                                                    C661.61,521.879,660.943,523.54,660.147,525.368z"/>
                                            </g>
                                            <g>
                                                <path fill="#096666" d="M660.226,458.178l-1.283,2.011c0.037-5.414-2.112-12.692-3.754-17.773
                                                    c-1.041-3.218-2.118-6.548-2.766-9.929l1.705-0.327c0.625,3.279,1.684,6.554,2.712,9.726
                                                    C658.525,447.093,660.265,452.48,660.226,458.178z"/>
                                            </g>
                                        </g>
                                    </g>
                                    <g>
                                        <g>
                                            <path fill="#FDAC19" d="M708.246,688.704c17.11-24.482,21.873-61.995,23.178-78.902H614.947c-0.071,0-0.138-0.013-0.217-0.013
                                                c1.304,16.907,6.074,54.42,23.171,78.915H708.246z"/>
                                        </g>
                                        <path fill="#FE6A3C" d="M731.363,610.461h-80.041l79.425,6.291C731.367,611.996,731.087,613.9,731.363,610.461z"/>
                                        <path fill="#FE6A3C" d="M735.265,611.12H609.03c0,0-3.017-11.821,0-12.136c68.952-7.195,126.235,0,126.235,0V611.12z"/>
                                    </g>
                                </g>
                                <g>
                                    <g>
                                        <path opacity="0.38" fill="#BBE6DD" d="M464.77,360.169c32.91,32.912,32.91,86.269,0,119.179
                                            c-32.912,32.913-86.27,32.913-119.179,0.003c-32.911-32.913-32.911-86.27-0.001-119.182
                                            C378.5,327.259,431.858,327.259,464.77,360.169z"/>
                                        <polygon fill="#FDAC19" points="540.989,527.855 513.275,555.569 470.457,498.488 484.64,484.305 			"/>
                                        
                                            <rect x="574.438" y="512.085" transform="matrix(0.7072 -0.7071 0.7071 0.7072 -256.208 597.8659)" fill="#015288" width="38.426" height="192.294"/>
                                        <path fill="#FE6A3C" d="M404.557,319.029c-55.579,0.298-100.407,45.606-100.113,101.19
                                            c0.301,55.59,45.615,100.413,101.197,100.109c55.592-0.302,100.412-45.6,100.107-101.195
                                            C505.448,363.552,460.153,318.726,404.557,319.029z M474.702,464.726c-24.877,38.443-76.21,49.435-114.646,24.561
                                            c-38.439-24.876-49.442-76.211-24.563-114.655c24.888-38.44,76.211-49.438,114.662-24.561
                                            C488.592,374.949,499.581,426.28,474.702,464.726z"/>
                                        <path opacity="0.72" fill="#E3E2DF" d="M402.912,332.875c-27.759,0.153-52.511,12.869-68.895,32.733
                                            c15.525-13.087,35.541-21.022,57.427-21.142c49.65-0.264,90.106,39.763,90.373,89.412c0.116,21.884-7.598,41.983-20.515,57.649
                                            c19.682-16.596,32.134-41.483,31.987-69.241C493.019,372.634,452.561,332.612,402.912,332.875z"/>
                                        <path fill="#FFFFFF" d="M469.716,484.299L469.716,484.299c-17.129,17.129-39.902,26.633-64.125,26.762
                                            c-24.409,0.132-47.406-9.25-64.761-26.417c-17.352-17.165-26.983-40.064-27.114-64.47c-0.133-24.598,9.374-47.719,26.766-65.113
                                            c17.128-17.128,39.903-26.631,64.127-26.762c50.385-0.27,91.599,40.502,91.876,90.89
                                            C496.614,443.786,487.106,466.907,469.716,484.299z M342.588,357.17c-16.826,16.825-26.021,39.195-25.893,62.984
                                            c0.127,23.616,9.44,45.764,26.23,62.372c16.788,16.607,39.04,25.686,62.65,25.557c23.433-0.125,45.467-9.319,62.034-25.889
                                            c16.824-16.824,26.02-39.197,25.895-62.989c-0.263-48.745-40.133-88.188-88.878-87.928
                                            C381.19,331.405,359.157,340.599,342.588,357.17z"/>
                                    </g>
                                    
                                        <rect x="530.968" y="528.621" transform="matrix(0.6953 0.7187 -0.7187 0.6953 556.4641 -216.4428)" fill="#FFFFFF" width="5.061" height="38.868"/>
                                </g>
                            </g>
                            </svg>