<?xml version="1.0" encoding="iso-8859-1"?>
<!-- Generator: Adobe Illustrator 19.0.0, SVG Export Plug-In . SVG Version: 6.00 Build 0)  -->
<svg version="1.1" id="Capa_1" xmlns="http://www.w3.org/2000/svg" xmlns:xlink="http://www.w3.org/1999/xlink" x="0px" y="0px"
	 viewBox="0 0 496 496" style="enable-background:new 0 0 496 496;" xml:space="preserve" width="60px" height="60px">
<rect x="280" y="248" style="fill:#FFCB57;" width="64" height="96"/>
<g>
	<rect x="176" y="240" style="fill:#E56565;" width="80" height="16"/>
	<rect x="144" y="240" style="fill:#E56565;" width="16" height="16"/>
	<rect x="176" y="336" style="fill:#E56565;" width="80" height="16"/>
</g>
<path style="fill:#FFCB57;" d="M408,100.304V75.688l-15.312-7.656c-1.248-4.056-2.896-7.936-4.848-11.632l5.424-16.272
	L375.856,22.72l-16.272,5.424c-3.696-1.952-7.576-3.592-11.632-4.848L340.304,8h-24.616l-7.656,15.312
	c-4.056,1.248-7.936,2.896-11.632,4.848l-16.272-5.424L262.72,40.144l5.424,16.272c-1.952,3.696-3.592,7.576-4.848,11.632
	L248,75.688v24.616l15.312,7.656c1.248,4.056,2.896,7.936,4.848,11.632l-5.424,16.272l17.408,17.408l16.272-5.424
	c3.696,1.952,7.576,3.592,11.632,4.848L315.696,168h24.616l7.656-15.312c4.056-1.248,7.936-2.896,11.632-4.848l16.272,5.424
	l17.408-17.408l-5.424-16.272c1.952-3.696,3.592-7.576,4.848-11.632L408,100.304z M328,128c-22.088,0-40-17.912-40-40
	s17.912-40,40-40s40,17.912,40,40S350.088,128,328,128z"/>
<g>
	<rect x="144" y="336" style="fill:#E56565;" width="16" height="16"/>
	<rect x="144" y="272" style="fill:#E56565;" width="112" height="16"/>
	<rect x="144" y="304" style="fill:#E56565;" width="112" height="16"/>
</g>
<g>
	<path style="fill:#3F3A34;" d="M336,416v16h144v24c0,13.232-10.768,24-24,24H40c-13.232,0-24-10.768-24-24v-24h144v-16H0v40
		c0,22.056,17.944,40,40,40h416c22.056,0,40-17.944,40-40v-40H336z"/>
	<path style="fill:#3F3A34;" d="M176,440c0,13.232,10.768,24,24,24h96c13.232,0,24-10.768,24-24v-24H176V440z M192,432h112v8
		c0,4.416-3.584,8-8,8h-96c-4.416,0-8-3.584-8-8V432z"/>
	<path style="fill:#3F3A34;" d="M32,168c0-13.232,10.768-24,24-24h24v-16H56c-22.056,0-40,17.944-40,40v232h16V168z"/>
	<path style="fill:#3F3A34;" d="M416,144h24c13.232,0,24,10.768,24,24v232h16V168c0-22.056-17.944-40-40-40h-24V144z"/>
	<path style="fill:#3F3A34;" d="M48,176v224h16V176h16v-16H64C55.176,160,48,167.176,48,176z"/>
	<path style="fill:#3F3A34;" d="M448,400V176c0-8.824-7.176-16-16-16h-16v16h16v224H448z"/>
	<rect x="96" y="128" style="fill:#3F3A34;" width="16" height="272"/>
	<rect x="384" y="175.992" style="fill:#3F3A34;" width="16" height="224"/>
	<path style="fill:#3F3A34;" d="M112,112h64V48h64V32h-75.312L96,100.688V112h8H112z M123.312,96L160,59.312V96H123.312z"/>
	<polygon style="fill:#3F3A34;" points="352,192 336,192 336,208 160,208 160,128 144,128 144,224 352,224 	"/>
	<path style="fill:#3F3A34;" d="M352,240h-80v112h80V240z M336,336h-48v-80h48V336z"/>
	<path style="fill:#3F3A34;" d="M380.776,60.152c1.784,3.368,3.216,6.824,4.272,10.248l1.008,3.264L400,80.64v14.72l-13.944,6.976
		l-1.008,3.264c-1.056,3.432-2.496,6.88-4.272,10.248l-1.6,3.032l4.944,14.832l-10.408,10.408l-14.832-4.944l-3.032,1.6
		c-3.336,1.768-6.792,3.2-10.256,4.28l-3.256,1.008L335.36,160h-14.72l-6.976-13.936l-3.256-1.008
		c-3.472-1.08-6.92-2.512-10.256-4.28l-3.032-1.6l-14.832,4.944l-13.904-13.904l-11.312,11.312l20.904,20.904l17.824-5.944
		c2.16,1.016,4.352,1.936,6.56,2.736L310.752,176h34.496l8.392-16.784c2.208-0.8,4.408-1.72,6.56-2.736l17.824,5.944l24.408-24.408
		l-5.944-17.824c1.024-2.168,1.936-4.36,2.744-6.56L416,105.248V70.752l-16.776-8.392c-1.184-3.264-2.632-6.512-4.312-9.696
		L380.776,60.152z"/>
	<path style="fill:#3F3A34;" d="M256.776,62.36L240,70.752V96h-48v16h61.496l3.28,1.64c1.184,3.264,2.632,6.512,4.312,9.696
		l14.144-7.488c-1.784-3.368-3.216-6.824-4.272-10.248l-1.008-3.264L256,95.36V80.64l13.944-6.976l1.008-3.264
		c1.056-3.432,2.496-6.88,4.272-10.248l1.6-3.032l-4.944-14.832l10.408-10.408l14.832,4.944l3.032-1.6
		c3.368-1.784,6.824-3.216,10.248-4.272l3.264-1.008L320.64,16h14.72l6.976,13.944l3.264,1.008c3.432,1.056,6.88,2.496,10.248,4.272
		l3.032,1.6l14.832-4.944l13.904,13.904l11.312-11.312l-20.904-20.904L360.2,19.512c-2.168-1.024-4.36-1.936-6.56-2.744L345.248,0
		h-34.496l-8.392,16.776c-2.2,0.808-4.4,1.72-6.56,2.744l-17.824-5.944l-24.408,24.408l5.944,17.824
		C258.496,57.96,257.576,60.16,256.776,62.36z"/>
	<path style="fill:#3F3A34;" d="M328,136c26.472,0,48-21.528,48-48s-21.528-48-48-48s-48,21.528-48,48S301.528,136,328,136z M328,56
		c17.648,0,32,14.352,32,32s-14.352,32-32,32s-32-14.352-32-32S310.352,56,328,56z"/>
</g>
<g>
</g>
<g>
</g>
<g>
</g>
<g>
</g>
<g>
</g>
<g>
</g>
<g>
</g>
<g>
</g>
<g>
</g>
<g>
</g>
<g>
</g>
<g>
</g>
<g>
</g>
<g>
</g>
<g>
</g>
</svg>
