<svg xmlns="http://www.w3.org/2000/svg" viewBox="0 0 512 512" enable-background="new 0 0 512 512" width="80"><circle cx="256" cy="256" r="110.96" fill="#FFDC64"/><path fill="#DFE2EA" d="M493.5 226.94l-35.9-3.25c-2.13-13.45-5.58-26.46-10.2-38.9L477 164.3c5.1-3.53 6.66-10.36 3.6-15.75l-16.87-29.8c-3.05-5.4-9.7-7.58-15.36-5.02L415.5 128.6c-8-10-16.9-19.22-26.6-27.55l16.02-32.33c2.75-5.56.8-12.3-4.47-15.53l-29.2-17.92c-5.3-3.24-12.17-1.9-15.87 3.06l-21.53 28.9c-14.43-5.97-29.7-10.32-45.56-12.84l-3.25-35.9c-.55-6.2-5.73-10.9-11.92-10.9h-34.26c-6.2 0-11.37 4.7-11.92 10.9l-3.25 35.9c-13.45 2.13-26.46 5.58-38.9 10.2L164.3 35c-3.53-5.1-10.36-6.66-15.75-3.6l-29.8 16.87c-5.4 3.05-7.58 9.7-5.02 15.36L128.6 96.5c-10 8-19.22 16.9-27.55 26.6l-32.33-16.02c-5.56-2.75-12.3-.8-15.53 4.48l-17.92 29.2c-3.24 5.28-1.9 12.16 3.06 15.86l28.9 21.53c-5.97 14.43-10.32 29.7-12.84 45.56l-35.9 3.24c-6.2.56-10.9 5.74-10.9 11.93v34.26c0 6.2 4.7 11.37 10.9 11.92l35.9 3.25c2.13 13.45 5.58 26.46 10.2 38.9L35 347.7c-5.1 3.53-6.66 10.36-3.6 15.75l16.87 29.8c3.05 5.4 9.7 7.58 15.36 5.03L96.5 383.4c8 10 16.9 19.22 26.6 27.55l-16.02 32.33c-2.75 5.56-.8 12.3 4.47 15.53l29.2 17.92c5.3 3.24 12.17 1.9 15.87-3.06l21.53-28.9c14.43 5.97 29.7 10.32 45.56 12.85l3.24 35.92c.56 6.17 5.74 10.9 11.93 10.9h34.25c6.2 0 11.37-4.73 11.93-10.9l3.25-35.9c13.45-2.15 26.46-5.6 38.9-10.23L347.7 477c3.53 5.1 10.36 6.66 15.75 3.6l29.8-16.86c5.4-3.06 7.58-9.72 5.02-15.36l-14.86-32.88c10-8 19.22-16.9 27.55-26.6l32.33 16.02c5.56 2.75 12.3.8 15.53-4.47l17.92-29.2c3.23-5.28 1.9-12.16-3.06-15.87l-28.9-21.53c5.97-14.43 10.32-29.7 12.84-45.56l35.9-3.24c6.2-.56 10.9-5.73 10.9-11.93v-34.25c0-6.2-4.7-11.38-10.9-11.94zM257.6 400.7c-79.9 0-144.68-64.77-144.68-144.68S177.7 111.32 257.6 111.32 402.3 176.1 402.3 256s-64.8 144.68-144.7 144.68z"/><path fill="#C7CAD3" d="M256 82.42c-95.87 0-173.58 77.7-173.58 173.58S160.12 429.58 256 429.58 429.58 351.88 429.58 256 351.88 82.42 256 82.42zm1.6 318.26c-79.9 0-144.68-64.77-144.68-144.68S177.7 111.32 257.6 111.32 402.3 176.1 402.3 256s-64.8 144.68-144.7 144.68z"/><path d="M374.55 256c0-33.3-14.14-65.27-38.78-87.7-3.1-2.82-7.9-2.6-10.72.5-2.82 3.1-2.6 7.9.5 10.73 21.5 19.56 33.82 47.43 33.82 76.47 0 57-46.37 103.37-103.37 103.37S152.63 313 152.63 256 199 152.63 256 152.63c13.96 0 27.5 2.73 40.23 8.12 3.86 1.63 8.32-.17 9.95-4.03 1.63-3.86-.17-8.32-4.03-9.95-14.62-6.18-30.15-9.32-46.15-9.32-65.37 0-118.55 53.18-118.55 118.55S190.63 374.55 256 374.55 374.55 321.37 374.55 256zM257.6 103.73c-83.96 0-152.27 68.3-152.27 152.27 0 61.34 36.5 116.4 93 140.3 3.86 1.63 8.3-.17 9.94-4.03 1.64-3.86-.17-8.3-4.03-9.95-50.86-21.5-83.73-71.1-83.73-126.32 0-75.6 61.5-137.1 137.1-137.1S394.7 180.4 394.7 256s-61.5 137.1-137.1 137.1c-6.28 0-12.6-.43-18.76-1.28-4.15-.57-7.98 2.34-8.55 6.5-.58 4.14 2.33 7.97 6.48 8.54 6.85.94 13.86 1.4 20.82 1.4 83.97 0 152.27-68.3 152.27-152.26s-68.3-152.27-152.27-152.27zM494.2 219.4l-30.12-2.74c-1.84-9.8-4.4-19.5-7.6-28.93l24.85-17.2c8.38-5.8 10.92-16.85 5.9-25.72L470.36 115c-5.02-8.87-15.8-12.4-25.1-8.2l-27.58 12.5c-6-7.12-12.5-13.84-19.38-20.1l13.44-27.12c4.52-9.13 1.38-20.03-7.3-25.36l-29.2-17.9c-8.7-5.33-19.84-3.2-25.92 4.98l-18.06 24.24c-11.64-4.43-23.68-7.82-35.92-10.12L292.6 17.8C291.7 7.65 283.33 0 273.14 0h-34.26c-10.2 0-18.57 7.65-19.48 17.8l-2.74 30.12c-9.8 1.84-19.5 4.4-28.93 7.6l-17.2-24.85c-5.8-8.38-16.85-10.92-25.72-5.9L115 41.64c-8.87 5.02-12.4 15.8-8.2 25.1l12.5 27.58c-7.12 6-13.84 12.5-20.1 19.38l-27.1-13.44c-9.15-4.52-20.05-1.38-25.38 7.3l-17.9 29.2c-5.33 8.7-3.2 19.84 4.98 25.93l24.24 18.04c-4.43 11.64-7.82 23.68-10.13 35.92l-30.1 2.73C7.65 220.3 0 228.67 0 238.86v34.25c0 10.2 7.65 18.57 17.8 19.5l30.1 2.72c1.86 9.8 4.4 19.5 7.62 28.93l-24.85 17.2c-8.38 5.8-10.92 16.85-5.9 25.72L41.64 397c5.02 8.87 15.8 12.4 25.1 8.2l27.58-12.5c6 7.12 12.5 13.84 19.38 20.1l-13.44 27.1c-4.52 9.15-1.38 20.05 7.3 25.38l29.2 17.9c8.7 5.33 19.84 3.2 25.92-5l18.06-24.22c11.64 4.43 23.68 7.82 35.92 10.12l2.73 30.12c.9 10.14 9.28 17.8 19.47 17.8h34.26c10.2 0 18.56-7.66 19.48-17.8l2.74-30.12c9.8-1.84 19.5-4.4 28.93-7.6l17.2 24.85c5.8 8.38 16.85 10.92 25.72 5.9l29.8-16.87c8.87-5.02 12.4-15.8 8.2-25.1l-12.5-27.58c7.12-6 13.84-12.5 20.1-19.38l27.1 13.44c9.14 4.52 20.05 1.38 25.38-7.3l17.9-29.2c5.33-8.7 3.2-19.84-5-25.93l-24.22-18.04c4.43-11.64 7.82-23.68 10.12-35.92l30.12-2.73c10.15-.9 17.8-9.28 17.8-19.48v-34.25c0-10.2-7.65-18.56-17.8-19.48zm2.62 53.73c0 2.28-1.7 4.16-4 4.37l-35.9 3.25c-3.46.3-6.27 2.93-6.8 6.36-2.4 15.05-6.56 29.8-12.37 43.87-1.32 3.2-.3 6.9 2.48 8.98l28.9 21.53c1.83 1.37 2.3 3.87 1.12 5.82l-17.9 29.2c-1.2 1.95-3.65 2.65-5.7 1.64l-32.33-16.02c-3.1-1.54-6.87-.77-9.13 1.86-8 9.3-16.93 17.93-26.54 25.6-2.7 2.18-3.6 5.9-2.17 9.06l14.86 32.88c.94 2.08.15 4.5-1.84 5.63l-29.8 16.87c-2 1.12-4.48.56-5.78-1.32l-20.5-29.63c-1.97-2.86-5.63-4-8.9-2.8-12.07 4.5-24.67 7.8-37.43 9.84-3.42.55-6.04 3.36-6.35 6.82l-3.26 35.9c-.2 2.28-2.1 4-4.38 4h-34.25c-2.28 0-4.16-1.72-4.37-4l-3.25-35.9c-.3-3.46-2.94-6.27-6.37-6.8-15.03-2.4-29.8-6.56-43.85-12.37-.94-.4-1.93-.58-2.9-.58-2.34 0-4.62 1.1-6.08 3.06l-21.54 28.9c-1.35 1.83-3.85 2.3-5.8 1.1l-29.2-17.9c-1.95-1.2-2.65-3.63-1.64-5.68l16.02-32.34c1.54-3.1.77-6.85-1.86-9.1-9.3-8-17.93-16.93-25.6-26.54-2.18-2.7-5.9-3.6-9.07-2.17l-32.87 14.86c-2.08.94-4.5.15-5.63-1.84l-16.87-29.8c-1.13-2-.56-4.48 1.32-5.78l29.63-20.5c2.85-1.97 4-5.63 2.8-8.9-4.5-12.07-7.8-24.66-9.84-37.43-.56-3.42-3.36-6.04-6.82-6.35l-35.9-3.25c-2.3-.2-4-2.1-4-4.37v-34.25c0-2.3 1.7-4.17 4-4.38l35.9-3.25c3.46-.3 6.26-2.93 6.8-6.36 2.4-15.05 6.56-29.8 12.37-43.87 1.32-3.2.3-6.9-2.48-8.98l-28.9-21.53c-1.83-1.37-2.3-3.87-1.12-5.82l17.9-29.2c1.2-1.94 3.65-2.65 5.7-1.63l32.33 16c3.1 1.55 6.87.78 9.13-1.85 8-9.3 16.93-17.93 26.53-25.6 2.7-2.18 3.6-5.9 2.18-9.06l-14.86-32.88c-.94-2.08-.15-4.5 1.84-5.63l29.8-16.87c2-1.13 4.48-.56 5.78 1.32l20.5 29.63c1.97 2.86 5.63 4 8.9 2.8 12.07-4.5 24.66-7.8 37.43-9.84 3.42-.55 6.04-3.36 6.35-6.82l3.25-35.9c.2-2.28 2.1-4 4.37-4h34.26c2.28 0 4.16 1.72 4.37 4l3.25 35.9c.3 3.46 2.93 6.27 6.36 6.8 15.05 2.4 29.8 6.56 43.87 12.37 3.2 1.32 6.9.3 8.98-2.48l21.54-28.9c1.35-1.83 3.85-2.3 5.8-1.12l29.2 17.9c1.95 1.2 2.65 3.65 1.64 5.7l-16.02 32.33c-1.54 3.1-.77 6.87 1.86 9.13 9.3 8 17.93 16.93 25.6 26.54 2.18 2.7 5.9 3.6 9.06 2.17l32.88-14.86c2.08-.94 4.5-.15 5.63 1.84l16.87 29.8c1.13 2 .56 4.48-1.32 5.78l-29.63 20.5c-2.85 1.98-4 5.63-2.8 8.9 4.5 12.07 7.8 24.66 9.84 37.43.55 3.42 3.36 6.04 6.82 6.35l35.9 3.25c2.3.2 4 2.1 4 4.38v34.25zM220.4 222.08c-2.96-2.96-7.76-2.96-10.72 0L177.75 254c-1.43 1.43-2.23 3.36-2.23 5.38s.8 3.94 2.22 5.36l33.2 33.2c1.48 1.48 3.42 2.22 5.37 2.22s3.9-.74 5.37-2.22c2.96-2.97 2.96-7.77 0-10.73l-27.83-27.82 26.57-26.57c2.97-2.95 2.97-7.76 0-10.72zM291.6 298.88c1.47 1.5 3.42 2.23 5.36 2.23s3.88-.73 5.37-2.22l31.93-31.93c2.96-2.96 2.96-7.76 0-10.73l-33.2-33.2c-2.96-2.96-7.77-2.96-10.73 0-2.96 2.97-2.96 7.78 0 10.74l27.83 27.83-26.57 26.55c-2.97 2.97-2.97 7.77 0 10.73zM266.5 203.28l-35.8 110.7c-1.3 3.97.9 8.25 4.9 9.54.77.25 1.55.37 2.33.37 3.2 0 6.18-2.05 7.2-5.26l35.82-110.7c1.3-3.98-.9-8.26-4.88-9.55-4-1.3-8.27.9-9.56 4.88z"/></svg>