<svg version="1.1" id="Layer_1" xmlns="http://www.w3.org/2000/svg" xmlns:xlink="http://www.w3.org/1999/xlink" x="0px" y="0px" viewBox="0 0 496 496" style="enable-background:new 0 0 496 496;" xml:space="preserve" width="35" height="35">
    <path fill="#d20805" d="M248,184c-35.288,0-64,28.712-64,64c0,35.288,28.712,64,64,64c35.288,0,64-28.712,64-64C312,212.712,283.288,184,248,184
         z M248,296c-26.472,0-48-21.528-48-48s21.528-48,48-48s48,21.528,48,48S274.472,296,248,296z"/>
    <path d="M448,200c-23.736,0-43.448,17.336-47.28,40H376v-32h-23.424c-0.728-1.88-1.512-3.768-2.36-5.648l16.576-16.576
         l-22.632-22.624l17.472-17.472c8.064,5.76,17.672,8.904,27.784,8.904c12.824,0,24.872-4.992,33.936-14.056
         c9.072-9.064,14.064-21.12,14.064-33.944c0-12.824-4.992-24.872-14.064-33.944c-9.064-9.064-21.12-14.056-33.936-14.056
         c-12.816,0-24.872,4.992-33.936,14.056c-9.072,9.064-14.064,21.12-14.064,33.944c0,10.112,3.144,19.72,8.904,27.784
         l-17.472,17.472l-22.624-22.624l-16.584,16.576c-1.872-0.84-3.76-1.632-5.64-2.36V120h-32V95.28c22.664-3.824,40-23.536,40-47.28
         c0-26.472-21.528-48-48-48s-48,21.528-48,48c0,23.736,17.336,43.448,40,47.28V120h-32v23.424c-1.88,0.728-3.768,1.52-5.64,2.36
         l-16.584-16.576l-22.624,22.624L145.68,134.36c5.76-8.064,8.904-17.672,8.904-27.784c0-12.824-4.992-24.872-14.064-33.944
         c-9.064-9.064-21.12-14.056-33.936-14.056c-12.816,0-24.872,4.992-33.936,14.056c-9.072,9.064-14.064,21.12-14.064,33.944
         c0,12.824,4.992,24.872,14.064,33.944c9.064,9.064,21.12,14.056,33.936,14.056c10.112,0,19.712-3.144,27.784-8.904l17.472,17.472
         l-22.632,22.624l16.576,16.576c-0.84,1.88-1.632,3.768-2.36,5.648H120v32H95.28c-3.824-22.664-23.536-40-47.28-40
         c-26.472,0-48,21.528-48,48s21.528,48,48,48c23.736,0,43.448-17.336,47.28-40H120v32h23.424c0.728,1.88,1.512,3.768,2.36,5.648
         l-16.576,16.576l22.632,22.624l-17.472,17.472c-8.064-5.76-17.672-8.904-27.784-8.904c-12.824,0-24.872,4.992-33.936,14.056
         c-9.072,9.064-14.064,21.12-14.064,33.944c0,12.824,4.992,24.872,14.064,33.944c9.064,9.064,21.12,14.056,33.936,14.056
         c12.816,0,24.872-4.992,33.936-14.056c9.072-9.064,14.064-21.12,14.064-33.944c0-10.112-3.144-19.72-8.904-27.784l17.472-17.472
         l22.624,22.624L202.36,350.2c1.872,0.84,3.76,1.632,5.64,2.36V376h32v24.72c-22.664,3.824-40,23.536-40,47.28
         c0,26.472,21.528,48,48,48s48-21.528,48-48c0-23.736-17.336-43.448-40-47.28V376h32v-23.424c1.88-0.728,3.768-1.512,5.64-2.36
         l16.584,16.576l22.624-22.624l17.472,17.472c-5.76,8.064-8.904,17.672-8.904,27.784c0,12.824,4.992,24.872,14.064,33.944
         c9.064,9.064,21.12,14.056,33.936,14.056c12.816,0,24.872-4.992,33.936-14.056c9.072-9.064,14.064-21.12,14.064-33.944
         c0-12.824-4.992-24.872-14.064-33.944c-9.064-9.064-21.12-14.056-33.936-14.056c-10.112,0-19.712,3.144-27.784,8.904
         l-17.472-17.472l22.632-22.624l-16.576-16.576c0.84-1.88,1.632-3.768,2.36-5.648H376v-32h24.72c3.824,22.664,23.536,40,47.28,40
         c26.472,0,48-21.528,48-48C496,221.536,474.472,200,448,200z M366.8,83.952c6.048-6.04,14.08-9.368,22.624-9.368
         s16.576,3.328,22.624,9.368c6.048,6.048,9.376,14.08,9.376,22.632s-3.328,16.584-9.376,22.632
         c-12.096,12.088-33.16,12.088-45.248,0c-6.048-6.048-9.376-14.08-9.376-22.632S360.752,90,366.8,83.952z M129.2,129.208
         c-12.088,12.088-33.152,12.088-45.248,0c-6.048-6.048-9.376-14.08-9.376-22.632s3.328-16.584,9.376-22.632
         c6.048-6.04,14.08-9.368,22.624-9.368s16.576,3.328,22.624,9.368c6.048,6.048,9.376,14.08,9.376,22.632
         S135.248,123.16,129.2,129.208z M48,280c-17.648,0-32-14.352-32-32s14.352-32,32-32s32,14.352,32,32S65.648,280,48,280z
         M129.2,412.048c-12.096,12.088-33.16,12.088-45.248,0c-6.048-6.048-9.376-14.08-9.376-22.632s3.328-16.584,9.376-22.632
         c6.048-6.04,14.08-9.368,22.624-9.368s16.576,3.328,22.624,9.368c6.048,6.048,9.376,14.08,9.376,22.632
         S135.248,406,129.2,412.048z M366.8,366.792c6.048-6.04,14.08-9.368,22.624-9.368s16.576,3.328,22.624,9.368
         c6.048,6.048,9.376,14.08,9.376,22.632s-3.328,16.584-9.376,22.632c-12.096,12.088-33.16,12.088-45.248,0
         c-6.048-6.048-9.376-14.08-9.376-22.632S360.752,372.84,366.8,366.792z M216,48c0-17.648,14.352-32,32-32s32,14.352,32,32
         s-14.352,32-32,32S216,65.648,216,48z M280,448c0,17.648-14.352,32-32,32s-32-14.352-32-32s14.352-32,32-32S280,430.352,280,448z
         M360,272h-18.896l-1.792,5.544c-1.504,4.672-3.488,9.416-5.88,14.104l-2.656,5.184l13.4,13.392l-33.944,33.944l-13.4-13.392
         l-5.184,2.656c-4.68,2.4-9.432,4.376-14.104,5.888L272,341.112V360h-48v-18.888l-5.536-1.792
         c-4.672-1.512-9.424-3.496-14.104-5.888l-5.184-2.656l-13.4,13.392l-33.944-33.944l13.4-13.392l-2.656-5.184
         c-2.4-4.688-4.384-9.432-5.88-14.104l-1.8-5.544H136v-48h18.896l1.792-5.544c1.504-4.672,3.488-9.416,5.88-14.104l2.656-5.184
         l-13.4-13.392l33.944-33.944l13.408,13.4l5.176-2.664c4.664-2.392,9.408-4.368,14.104-5.888l5.544-1.792V136h48v18.888
         l5.536,1.792c4.696,1.512,9.44,3.496,14.104,5.888l5.176,2.664l13.408-13.4l33.944,33.944l-13.4,13.392l2.656,5.184
         c2.4,4.688,4.384,9.432,5.88,14.104l1.8,5.544H360V272z M448,280c-17.648,0-32-14.352-32-32s14.352-32,32-32s32,14.352,32,32
         S465.648,280,448,280z"/>
</svg>