<svg fill="#000000" xmlns="http://www.w3.org/2000/svg" data-name="Layer 1" viewBox="0 0 100 100" x="0px" y="0px" width="50" height="50">
  <path fill="#d20805" d="M56.75,51.16a11.82,11.82,0,1,0-14.33,0,11.78,11.78,0,0,0-11,11.74v.91a2.5,2.5,0,1,0,5,0V62.9a6.77,6.77,0,0,1,6.77-6.77,4.76,4.76,0,0,0,2.63-8.72,6.81,6.81,0,0,1-3-5.64,7,7,0,0,1,6.61-6.83,6.87,6.87,0,0,1,5,1.92,6.81,6.81,0,0,1-.95,10.55A4.76,4.76,0,0,0,56,56.13,6.77,6.77,0,0,1,62.8,62.9v3.92a2.5,2.5,0,0,0,5,0V62.9A11.78,11.78,0,0,0,56.75,51.16Z"></path>
  <path d="M97,36.66a9.38,9.38,0,0,0-10.85-9.33A43.17,43.17,0,0,0,66.5,10.58s0,0,0,0A9.44,9.44,0,0,0,48.21,7.24,42.67,42.67,0,0,0,24,15.88,9.44,9.44,0,0,0,12,30a42.45,42.45,0,0,0-4.69,25.6,9.43,9.43,0,0,0,6.19,17.31A43.17,43.17,0,0,0,33.25,89.69,9.44,9.44,0,0,0,51.43,93a42.66,42.66,0,0,0,24.32-8.71,9.44,9.44,0,0,0,12-14.11,42.42,42.42,0,0,0,4.64-25.43A9.45,9.45,0,0,0,97,36.66ZM57.05,6.1a4.45,4.45,0,1,1-4.45,4.45A4.45,4.45,0,0,1,57.05,6.1ZM19.36,19.63a4.45,4.45,0,1,1-4.45,4.45A4.45,4.45,0,0,1,19.36,19.63Zm-7,48.31a4.45,4.45,0,1,1,4.45-4.45A4.46,4.46,0,0,1,12.41,67.94Zm30.28,26a4.45,4.45,0,1,1,4.45-4.45A4.46,4.46,0,0,1,42.69,93.9ZM80.41,80.55a4.45,4.45,0,1,1,4.45-4.45A4.46,4.46,0,0,1,80.41,80.55Zm3.27-13.3a9.43,9.43,0,0,0-11.49,13.5A37.69,37.69,0,0,1,52,88a9.44,9.44,0,0,0-17.53-3.2A38.14,38.14,0,0,1,20.33,73.9,38.68,38.68,0,0,0,33.68,76a71.22,71.22,0,0,0,22.17-3.88,2.5,2.5,0,1,0-1.58-4.74c-13.5,4.49-26.49,4.66-33.86,1.12A9.42,9.42,0,0,0,15.57,54.6c2.78-5.8,9.58-12.12,18.91-17a2.5,2.5,0,1,0-2.33-4.42c-9.58,5.06-16.59,11.32-20.21,17.6,0-.2,0-.4,0-.61a37.67,37.67,0,0,1,4.14-17.21A9.43,9.43,0,0,0,27.59,19.45a37.7,37.7,0,0,1,20.18-7.19,9.43,9.43,0,0,0,17.36,3.16A38.12,38.12,0,0,1,79,25.94c-5.1-1.71-11.57-2.27-18.95-1.48a2.5,2.5,0,0,0,.53,5c7.84-.84,14.51,0,19,2.11A9.42,9.42,0,0,0,84.54,45.6c-2,4.14-6.06,8.58-11.72,12.59a2.5,2.5,0,1,0,2.89,4.08A43.48,43.48,0,0,0,87.78,50s0,.07,0,.1A37.67,37.67,0,0,1,83.69,67.24Zm3.91-26.13A4.45,4.45,0,1,1,92,36.66,4.45,4.45,0,0,1,87.59,41.11Z"></path>
</svg>