<svg version="1.1" id="Capa_1" xmlns="http://www.w3.org/2000/svg" xmlns:xlink="http://www.w3.org/1999/xlink" x="0px" y="0px" viewBox="0 0 511.71 511.71" style="enable-background:new 0 0 511.71 511.71;" xml:space="preserve" width="70" height="70">
                              <path d="M226.17,367.419h-72.145c-75.249,0-136.533,60.509-136.533,134.206v2.327c0,4.655,3.103,7.758,7.758,7.758h330.473
                                        c4.655,0,7.758-3.103,7.758-7.758v-2.327C362.703,427.153,301.418,367.419,226.17,367.419z M32.23,496.195
                                        c3.103-62.836,55.854-113.261,121.018-113.261h72.145c65.164,0,118.691,50.424,121.018,113.261H32.23z"/>
                              <path d="M339.43,218.474c-13.964-71.37-76.8-124.121-149.721-124.121c-72.145,0-134.982,52.751-148.945,122.57
                                        c-11.636,0-20.945,9.309-20.945,20.945v20.945c0,12.412,9.309,21.721,20.945,21.721h28.703c4.655,0,7.758-3.103,7.758-7.758
                                        V224.68c0-4.655-3.103-7.758-7.758-7.758H56.279c13.188-62.061,69.042-107.054,133.43-107.054s119.467,45.77,133.43,107.054
                                        h-11.636c-4.655,0-7.758,3.103-7.758,7.758v43.442c0,4.655,3.103,7.758,7.758,7.758h13.188
                                        c-6.982,18.618-27.927,37.236-55.079,41.891c14.739-19.394,24.048-43.442,24.048-68.267c0-55.855-46.545-101.624-103.176-101.624
                                        S87.309,193.65,87.309,249.504c0,58.958,48.097,110.158,103.176,110.158c23.273,0,45.77-9.309,63.612-24.824
                                        c42.667,1.552,79.127-27.151,86.885-58.182c10.861-0.776,19.394-10.085,19.394-20.946v-16.291
                                        C360.376,227.783,351.067,218.474,339.43,218.474z M61.709,233.213v32.582H40.764c-3.103,0-5.43-2.327-5.43-5.43v-21.721
                                        c0-3.103,2.327-5.43,5.43-5.43H61.709z M247.891,317.771c-6.982-0.776-13.188-3.103-19.394-5.43
                                        c0.776-3.103,1.552-6.206,1.552-9.309c0-13.964-11.636-25.6-25.6-25.6c-13.964,0-25.6,11.636-25.6,25.6s11.636,25.6,25.6,25.6
                                        c5.43,0,10.085-1.552,13.964-4.655c4.655,2.327,9.309,4.655,13.964,6.206c-12.412,8.533-27.152,13.188-42.667,13.188
                                        c-46.545,0-87.661-44.218-87.661-94.642c0-47.321,39.564-86.109,87.661-86.109s87.661,38.788,87.661,86.109
                                        C277.37,275.104,265.733,299.928,247.891,317.771z M204.448,313.892c-5.43,0-10.085-4.655-10.085-10.085
                                        s4.655-10.085,10.085-10.085s10.085,4.655,10.085,10.085C215.309,309.238,210.654,313.892,204.448,313.892z M344.085,254.934
                                        c0,3.103-2.327,5.43-5.43,5.43H319.26v-27.927h19.394c3.103,0,5.43,3.103,5.43,6.206V254.934z"/>
                              <path d="M375.891,0.486c-3.879-1.552-8.533,0.776-10.085,4.655s0.776,8.533,4.655,10.085
                                        c84.558,31.03,128.776,122.57,98.521,205.576c-1.552,3.879,0.776,8.533,4.654,10.085c3.879,1.552,8.533-0.776,10.085-4.655
                                        C517.079,134.692,468.206,33.844,375.891,0.486z"/>
                              <path d="M358.824,48.583c-3.879-1.552-8.533,0.776-10.085,4.655s0.776,8.533,4.655,10.085
                                        c58.182,20.945,88.436,83.782,68.267,139.636c-1.552,3.879,0.776,8.533,4.654,10.085c3.879,1.552,8.533-0.776,10.085-4.655
                                        C458.897,144.001,424.764,72.631,358.824,48.583z"/>
                              <path d="M340.982,96.68c-3.879-1.552-8.533,0.776-10.085,4.655c-1.552,3.879,0.776,8.533,4.655,10.085
                                        c31.03,11.636,48.097,44.218,37.236,74.473c-1.552,3.879,0.776,8.533,4.655,10.085s8.533-0.776,10.085-4.655
                                        C401.491,152.535,379.77,110.644,340.982,96.68z"/>
                            </svg>