<svg xmlns="http://www.w3.org/2000/svg" viewBox="0 0 512 512" enable-background="new 0 0 512 512"><path fill="#314E55" d="M474.8 351.85c34.03-105.63-26.6-242.1-145.96-326.76-3.46-2.46-8.18-2.12-11.24.84-3.06 2.95-3.58 7.65-1.25 11.2 51.6 78.46 64.86 157.94 37.12 219.9C270.8 201.2 121.3 70.87 119.74 69.5c-3.3-2.9-8.28-2.9-11.6 0-3.33 2.92-4 7.82-1.58 11.5 2.33 3.55 44.1 66.92 89.1 122.03-32.44-23.17-68.24-52.5-131.9-105.72-3.3-2.76-8.15-2.72-11.42.1-3.28 2.8-4.03 7.6-1.78 11.28C113.63 212.2 218.6 308.18 270.34 352.2 151.1 405.63 15.08 317.7 13.68 316.8c-3.52-2.3-8.14-1.84-11.1 1.12s-3.43 7.6-1.13 11.1c26 39.54 61.75 68.94 107.43 100.92 60.8 42.56 121.3 58.6 172.8 58.6 53.26 0 96.9-17.14 121.33-39.84.1-.13 11.05-11.42 35.28-4.32 19.32 5.64 45.94 26.9 55.25 36.5 2.24 2.32 5.6 3.24 8.7 2.37 3.1-.87 5.5-3.37 6.23-6.5 2.35-10.14 3.54-20.6 3.54-31.06 0-35.26-13.17-68.37-37.2-93.85z"/><path fill="#F28544" d="M493.78 457.37c-13.45-11.1-33.33-24.9-50.55-29.94-35.2-10.27-52.66 8.7-52.82 8.93-43.1 40.02-155.83 60.03-271.4-20.9-30.03-21-55.54-40.8-76.5-63.06 14.9 6.97 33.45 14.57 54.52 20.9 72.13 21.72 139.04 17.8 193.52-11.36 2.6-1.38 4.32-3.96 4.62-6.88.3-2.93-.88-5.8-3.13-7.7-38.6-32.12-125.2-108.3-191.2-196.26 64.27 53.02 94.17 74.98 141.6 103.44 3.84 2.3 8.8 1.36 11.53-2.2 2.74-3.54 2.37-8.58-.84-11.7-30.36-29.5-66.23-76.3-92.88-113.24 54.62 46.12 139.64 116.05 191.96 149.97 2.08 1.35 4.65 1.75 7.03 1.13 2.4-.63 4.42-2.24 5.58-4.43 30.7-58.3 26.66-131.56-10.18-205.83 90.72 81.42 133.1 194.88 101.75 282.96-1.15 3.24-.32 6.86 2.15 9.27 23.1 22.62 35.83 52.9 35.83 85.22 0 3.9-.2 7.8-.57 11.67z"/></svg>