<svg version="1.1" id="Capa_1" xmlns="http://www.w3.org/2000/svg" xmlns:xlink="http://www.w3.org/1999/xlink" x="0px" y="0px" viewBox="0 0 512 512" style="enable-background:new 0 0 512 512;" xml:space="preserve" width="50" height="50">
  <path d="M414.969,99.516l-0.188-0.19c-3.877-3.936-10.207-3.984-14.142-0.109c-3.936,3.875-3.985,10.206-0.11,14.142l0.188,0.19
            c1.958,1.988,4.541,2.984,7.126,2.984c2.533,0,5.068-0.957,7.016-2.875C418.795,109.784,418.844,103.452,414.969,99.516z"/>
  <path d="M191.998,53.995h-6.859c-5.522,0-10,4.477-10,10s4.477,10,10,10h6.859c5.522,0,10-4.477,10-10
            S197.521,53.995,191.998,53.995z"/>
  <path d="M143.476,53.995h-6.859c-5.522,0-10,4.477-10,10s4.478,10,10,10h6.859c5.522,0,10-4.477,10-10
            S148.998,53.995,143.476,53.995z"/>
  <path d="M164.309,74.827c-5.522,0-10,4.477-10,10v6.859c0,5.523,4.477,10,10,10c5.522,0,10-4.477,10-10v-6.859
            C174.309,79.304,169.831,74.827,164.309,74.827z"/>
  <path d="M164.309,26.306c-5.522,0-10,4.477-10,10v6.859c0,5.523,4.477,10,10,10c5.522,0,10-4.477,10-10v-6.859
            C174.309,30.783,169.831,26.306,164.309,26.306z"/>
  <path d="M119.699,246h-17.715c-5.522,0-10,4.477-10,10s4.478,10,10,10h17.715c5.522,0,10-4.477,10-10
            C129.699,250.477,125.221,246,119.699,246z"/>
  <path d="M502,246h-23.167c-1.781-40.241-14.293-78.989-36.474-112.63c-3.039-4.61-9.243-5.883-13.854-2.844
            c-4.61,3.04-5.884,9.242-2.844,13.853c20.019,30.364,31.385,65.308,33.151,101.62h-10.809c-5.522,0-10,4.477-10,10s4.478,10,10,10
            h10.811c-2.427,49.797-22.88,94.933-54.95,129.024v-15.485c0-33.792-24.111-62.815-57.33-69.012l-20.44-3.812
            c5.634-10.857,8.839-23.171,8.839-36.225v-27.573c0-43.523-35.409-78.933-78.933-78.933s-78.933,35.409-78.933,78.933v27.573
            c0,13.054,3.204,25.367,8.838,36.224l-20.441,3.812c-33.219,6.196-57.329,35.22-57.329,69.012v15.486
            C76.063,360.933,55.61,315.796,53.183,266h10.811c5.522,0,10-4.477,10-10s-4.478-10-10-10H53.18
            c2.433-50.483,23.249-97.604,59.232-133.587c3.905-3.905,3.905-10.237,0-14.143c-3.906-3.905-10.236-3.905-14.143,0
            C58.508,138.031,35.615,190.172,33.167,246H10c-5.522,0-10,4.477-10,10s4.478,10,10,10h23.166
            c2.447,55.827,25.339,107.965,65.104,147.73c39.766,39.766,91.902,62.657,147.73,65.105V502c0,5.523,4.478,10,10,10
            c5.522,0,10-4.477,10-10v-23.165c55.827-2.447,107.965-25.339,147.73-65.105c39.765-39.766,62.657-91.902,65.104-147.73H502
            c5.522,0,10-4.477,10-10C512,250.477,507.523,246,502,246z M197.068,242.918c0-32.496,26.438-58.932,58.932-58.932
            c32.495,0,58.932,26.437,58.932,58.932v27.573c0,32.496-26.438,58.932-58.932,58.932s-58.932-26.437-58.932-58.932V242.918z
             M383.864,413.626c-32.515,26.427-73.325,43.019-117.864,45.19v-10.811c0-5.523-4.477-10-10-10c-5.522,0-10,4.477-10,10v10.811
            c-44.539-2.171-85.349-18.763-117.864-45.19v-34.087c0-24.165,17.241-44.919,40.996-49.35l29.554-5.512
            c14.397,15.221,34.759,24.747,57.314,24.747s42.916-9.525,57.314-24.747l29.553,5.512c23.756,4.431,40.997,25.186,40.997,49.35
            V413.626z"/>
  <path d="M410.017,246h-17.715c-5.522,0-10,4.477-10,10s4.478,10,10,10h17.715c5.522,0,10-4.477,10-10S415.539,246,410.017,246z"/>
  <path d="M377.654,68.999c-33.408-21.776-71.818-34.067-111.653-35.833V10c0-5.523-4.478-10-10-10s-10,4.477-10,10v53.995
            c-0.001,5.523,4.477,10,9.999,10c5.522,0,10-4.477,10-10V53.186c35.945,1.75,70.581,12.915,100.731,32.568
            c1.686,1.099,3.579,1.624,5.451,1.624c3.268,0,6.47-1.599,8.388-4.541C383.587,78.211,382.28,72.015,377.654,68.999z"/>
  <path d="M256,91.983c-5.522,0-10,4.477-10,10v17.715c0,5.523,4.478,10,10,10c5.522,0,10-4.477,10-10v-17.715
            C266,96.46,261.522,91.983,256,91.983z"/>
  <path d="M256,382.301c-5.522,0-10,4.477-10,10v17.715c0,5.523,4.478,10,10,10s10-4.477,10-10v-17.715
            C266,386.778,261.522,382.301,256,382.301z"/>
</svg>