<svg xmlns="http://www.w3.org/2000/svg" width="50" height="50" viewBox="0 0 463 463" enable-background="new 0 0 463 463"><path d="M151.25 222.45c-3.2 14.6-16.2 25.55-31.75 25.55-4.14 0-7.5 3.36-7.5 7.5s3.36 7.5 7.5 7.5c23.77 0 43.52-17.56 46.97-40.4 14.55-1.56 28-8.05 38.4-18.66 2.9-2.96 2.84-7.7-.12-10.6-2.96-2.9-7.7-2.86-10.6.1-9.2 9.4-21.5 14.56-34.65 14.56-26.74 0-48.5-21.76-48.5-48.5 0-4.14-3.36-7.5-7.5-7.5s-7.5 3.36-7.5 7.5c0 32.22 24.12 58.88 55.25 62.95zM183 287.5c0-4.14-3.36-7.5-7.5-7.5-35 0-63.5 28.5-63.5 63.5 0 .36 0 .72.02 1.1-2.8-.4-5.63-.6-8.52-.6-4.14 0-7.5 3.36-7.5 7.5s3.36 7.5 7.5 7.5c26.74 0 48.5 21.76 48.5 48.5 0 4.14 3.36 7.5 7.5 7.5s7.5-3.36 7.5-7.5c0-26.6-16.46-49.44-39.73-58.87-.18-1.7-.27-3.42-.27-5.13 0-26.74 21.76-48.5 48.5-48.5 4.14 0 7.5-3.36 7.5-7.5zM439 223.5c0-17.07-6.82-33.26-18.88-45.16 1.9-6.1 2.88-12.42 2.88-18.84 0-30.87-22.15-56.66-51.4-62.33 2.24-5.57 3.4-11.54 3.4-17.67 0-19.56-11.88-36.4-28.8-43.66C318 13.38 287.15 0 263.5 0c-13.15 0-24.82 6.47-32 16.38C224.32 6.48 212.65 0 199.5 0c-23.66 0-54.5 13.38-82.7 35.84C99.9 43.1 88 59.94 88 79.5c0 6.13 1.16 12.1 3.4 17.67C62.14 102.84 40 128.63 40 159.5c0 6.42.96 12.73 2.88 18.84C30.8 190.24 24 206.44 24 223.5c0 13.35 4.15 25.74 11.2 35.98-7.33 10.6-11.2 23-11.2 36.02 0 23.1 12.6 44.24 32.52 55.4-.35 2.85-.52 5.73-.52 8.6 0 31.14 20.32 58.68 49.8 68.06C118.6 449.5 141.96 463 167.5 463c28 0 52.27-16.18 64-39.67 11.73 23.5 36 39.67 64 39.67 25.54 0 48.9-13.5 61.7-35.44 29.48-9.38 49.8-36.92 49.8-68.06 0-2.87-.17-5.75-.52-8.6C426.4 339.74 439 318.6 439 295.5c0-13.03-3.87-25.4-11.2-36.02 7.05-10.24 11.2-22.63 11.2-35.98zM167.5 448c-21.03 0-40.2-11.6-50-30.26-.98-1.84-2.68-3.2-4.7-3.75-24.6-6.63-41.8-29.04-41.8-54.5 0-3.8.38-7.63 1.14-11.34.7-3.45-1.1-6.92-4.3-8.35C50.32 332.03 39 314.64 39 295.5c0-8.7 2.26-17 6.56-24.38C56.76 281 71.44 287 87.5 287c4.14 0 7.5-3.36 7.5-7.5s-3.36-7.5-7.5-7.5C60.76 272 39 250.24 39 223.5c0-14.4 6.35-27.96 17.43-37.22 2.5-2.1 3.36-5.56 2.14-8.58-2.37-5.83-3.57-11.96-3.57-18.2 0-26.74 21.76-48.5 48.5-48.5s48.5 21.76 48.5 48.5c0 4.14 3.36 7.5 7.5 7.5s7.5-3.36 7.5-7.5c0-33.64-26.3-61.24-59.42-63.35-3-5.02-4.58-10.73-4.58-16.65 0-13.37 8.12-24.88 19.68-29.86.44-.13.88-.3 1.3-.53 3.6-1.35 7.47-2.1 11.52-2.1 12.56 0 23.77 7.02 29.26 18.32 1.8 3.73 6.3 5.3 10.02 3.48 3.72-1.8 5.28-6.3 3.47-10.03-6.27-12.9-18.13-22.17-31.78-25.46C165.6 21.64 184.45 15 199.5 15 213 15 224 26 224 39.5v97.05c-6.74-5.35-15.25-8.55-24.5-8.55-4.14 0-7.5 3.36-7.5 7.5s3.36 7.5 7.5 7.5c13.5 0 24.5 11 24.5 24.5v180.28c-9.32-12.03-22.47-21.1-37.94-25.27-4-1.06-8.1 1.3-9.18 5.3s1.3 8.12 5.3 9.2c24.62 6.62 41.82 29.03 41.82 54.5 0 31.15-25.35 56.5-56.5 56.5zm227.66-108.2c-3.2 1.44-5 4.9-4.3 8.36.76 3.72 1.14 7.53 1.14 11.34 0 25.46-17.2 47.87-41.8 54.5-2.02.54-3.72 1.9-4.7 3.75-9.8 18.66-28.97 30.25-50 30.25-31.15 0-56.5-25.35-56.5-56.5 0-2.1-.1-4.2-.28-6.27.18-.64.28-1.32.28-2V135.5c0-13.5 11-24.5 24.5-24.5 4.14 0 7.5-3.36 7.5-7.5s-3.36-7.5-7.5-7.5c-9.25 0-17.76 3.2-24.5 8.55V39.5C239 26 250 15 263.5 15c15.05 0 33.9 6.63 53.03 18.3-13.65 3.3-25.5 12.57-31.78 25.47-1.8 3.73-.25 8.22 3.47 10.02 3.73 1.8 8.2.25 10.02-3.47 5.5-11.3 16.7-18.33 29.26-18.33 4.05 0 7.93.75 11.5 2.1.44.23.87.4 1.32.54C351.88 54.62 360 66.14 360 79.5c0 5.92-1.58 11.63-4.58 16.64C322.3 98.27 296 125.86 296 159.5c0 4.14 3.36 7.5 7.5 7.5s7.5-3.36 7.5-7.5c0-26.74 21.76-48.5 48.5-48.5s48.5 21.76 48.5 48.5c0 6.24-1.2 12.37-3.57 18.2-1.22 3.02-.36 6.5 2.14 8.58C417.65 195.54 424 209.1 424 223.5c0 26.74-21.76 48.5-48.5 48.5-4.14 0-7.5 3.36-7.5 7.5s3.36 7.5 7.5 7.5c16.06 0 30.74-6 41.94-15.88 4.3 7.37 6.56 15.68 6.56 24.38 0 19.13-11.32 36.52-28.84 44.3zM359.5 240c-15.54 0-28.55-10.96-31.75-25.55C358.9 210.38 383 183.72 383 151.5c0-4.14-3.36-7.5-7.5-7.5s-7.5 3.36-7.5 7.5c0 26.74-21.76 48.5-48.5 48.5-13.14 0-25.45-5.17-34.65-14.56-2.9-2.96-7.64-3-10.6-.1s-3 7.64-.1 10.6c10.4 10.6 23.83 17.1 38.38 18.67 3.45 22.84 23.2 40.4 46.97 40.4 4.14 0 7.5-3.36 7.5-7.5s-3.36-7.5-7.5-7.5zM335.5 328c-2.9 0-5.73.2-8.52.6 0-.38.02-.74.02-1.1 0-35-28.5-63.5-63.5-63.5-4.14 0-7.5 3.36-7.5 7.5s3.36 7.5 7.5 7.5c26.74 0 48.5 21.76 48.5 48.5 0 1.7-.1 3.43-.27 5.13C288.46 342.06 272 364.9 272 391.5c0 4.14 3.36 7.5 7.5 7.5s7.5-3.36 7.5-7.5c0-26.74 21.76-48.5 48.5-48.5 4.14 0 7.5-3.36 7.5-7.5s-3.36-7.5-7.5-7.5z"/></svg>