<?xml version="1.0" encoding="iso-8859-1"?>
<!-- Generator: Adobe Illustrator 19.0.0, SVG Export Plug-In . SVG Version: 6.00 Build 0)  -->
<svg version="1.1" id="Capa_1" xmlns="http://www.w3.org/2000/svg" xmlns:xlink="http://www.w3.org/1999/xlink" x="0px" y="0px"
	 viewBox="0 0 496 496" style="enable-background:new 0 0 496 496;" xml:space="preserve" width="60px" height="60px">
<g>
	<path style="fill:#333333;" d="M272,168v-40h8c8.824,0,16-7.176,16-16V96c0-8.824-7.176-16-16-16h-64c-8.824,0-16,7.176-16,16v16
		c0,8.824,7.176,16,16,16h8v40h16v-40h16v40H272z M224,112h-8V96h64v16h-8H224z"/>
	<path style="fill:#333333;" d="M203.568,181.792l7.2-14.288c-27.184-13.696-44.08-41.088-44.08-71.504c0-44.112,35.888-80,80-80
		s80,35.888,80,80c0,29.28-15.976,56.2-41.696,70.256l7.672,14.04c30.856-16.864,50.024-49.168,50.024-84.296
		c0-52.936-43.064-96-96-96s-96,43.064-96,96C150.696,132.488,170.952,165.36,203.568,181.792z"/>
	<path style="fill:#333333;" d="M440,172.688L419.312,152c-10.328-10.312-28.296-10.32-38.624,0l-16,16l24,24l-26.344,26.344
		l11.312,11.312L400,203.312l24,24l16-16c5.16-5.16,8-12.016,8-19.32S445.16,177.84,440,172.688z M428.688,200L424,204.688
		L387.312,168l4.688-4.68c4.28-4.28,11.72-4.28,16,0L428.688,184c2.144,2.136,3.312,4.976,3.312,8
		C432,195.024,430.832,197.864,428.688,200z"/>
	<path style="fill:#333333;" d="M122.344,229.656l11.312-11.312L107.312,192l24-24l-16-16c-10.328-10.312-28.296-10.32-38.624,0
		L56,172.68c-5.16,5.16-8,12.016-8,19.32c0,7.304,2.84,14.16,8,19.312l16,16l24-24L122.344,229.656z M67.312,200
		c-2.144-2.136-3.312-4.976-3.312-8c0-3.024,1.168-5.864,3.312-8L88,163.32c2.144-2.144,4.976-3.32,8-3.32s5.856,1.176,8,3.312
		l4.688,4.688L72,204.688L67.312,200z"/>
</g>
<path style="fill:#FFA64D;" d="M248,496c-92.632,0-168-75.368-168-168s75.368-168,168-168s168,75.368,168,168S340.632,496,248,496z"
	/>
<g>
	<path style="fill:#333333;" d="M248,192c-74.992,0-136,61.008-136,136s61.008,136,136,136c50.216,0,96.168-27.512,119.92-71.8
		l-14.096-7.56c-4.36,8.136-9.616,15.584-15.536,22.344l-22.416-22.416L304.56,395.88l22.416,22.416
		c-19.576,17.12-44.392,27.664-70.984,29.432V416h-16v31.592c-27.064-1.8-51.656-12.552-70.888-29.392l22.32-22.32l-11.312-11.312
		l-22.32,22.32c-16.84-19.232-27.6-43.824-29.392-70.888H160v-16h-31.592c1.8-27.064,12.552-51.656,29.392-70.888l22.32,22.32
		l11.312-11.312l-22.32-22.32c19.232-16.84,43.824-27.6,70.888-29.392V240h16v-31.592c27.064,1.8,51.656,12.552,70.888,29.392
		l-22.32,22.32l11.312,11.312l22.32-22.32c16.84,19.232,27.6,43.824,29.392,70.888H336v16h31.648
		c-0.776,11.752-3.16,23.256-7.296,34.264l14.968,5.632C381.08,360.592,384,344.472,384,328C384,253.008,322.992,192,248,192z"/>
	<polygon style="fill:#333333;" points="240,320 198.696,320 198.696,336 256,336 256,256 240,256 	"/>
</g>
<g>
</g>
<g>
</g>
<g>
</g>
<g>
</g>
<g>
</g>
<g>
</g>
<g>
</g>
<g>
</g>
<g>
</g>
<g>
</g>
<g>
</g>
<g>
</g>
<g>
</g>
<g>
</g>
<g>
</g>
</svg>
