<svg fill="#000000" xmlns="http://www.w3.org/2000/svg" xmlns:xlink="http://www.w3.org/1999/xlink" version="1.1" x="0px" y="0px" viewBox="0 0 65 65" enable-background="new 0 0 65 65" xml:space="preserve" width="50" height="50">
  <g>
	<path fill="#d20805" d="M27.7,24.3c0.1,0.3,0.3,0.5,0.6,0.5c0,0,0.1,0,0.1,0c0.2,0,0.4-0.1,0.6-0.3l2.7-3.3l2.1,0c-0.1,0.7-0.1,1.4,0.1,2.1   c0.3,1.2,1.1,2.2,2.2,2.8c0.7,0.4,1.5,0.6,2.3,0.6c0.4,0,0.8-0.1,1.2-0.2c1.2-0.3,2.2-1.1,2.8-2.2c0.6-1,0.7-2.1,0.5-3.2l6.3,0   l0.4,1.2c0.1,0.3,0.4,0.5,0.7,0.5c0.1,0,0.2,0,0.2,0c0.4-0.1,0.6-0.5,0.5-0.9l-1.7-5.4c1.6-0.9,2.4-2.9,1.8-4.8   c-0.6-1.9-2.4-3-4.2-2.9l-1.7-5.4c-0.1-0.4-0.5-0.6-0.9-0.5c-0.4,0.1-0.6,0.5-0.5,0.9l0.4,1.2L29.8,15.3l-4.1-1.1   c-0.3-0.1-0.5,0-0.7,0.2c-0.2,0.2-0.3,0.5-0.2,0.7L27.7,24.3z M41.2,23.6c-0.4,0.7-1.1,1.3-1.9,1.5c-0.8,0.2-1.7,0.1-2.4-0.3   c-0.7-0.4-1.3-1.1-1.5-1.9c-0.2-0.6-0.1-1.1,0-1.7l6.2,0C41.7,22,41.6,22.9,41.2,23.6z M49.7,12.2c0.3,1.1,0,2.2-0.9,2.8l-1.5-4.6   C48.4,10.5,49.4,11.2,49.7,12.2z M48.8,19.7l-1.6,0L43.4,7.6l1.3-0.9L48.8,19.7z M29.8,16.8c0.2,0.1,0.4,0,0.6-0.1l11.7-8.2   l3.6,11.2l-14.3,0c-0.2,0-0.4,0.1-0.6,0.3l-2,2.5L26.7,16L29.8,16.8z"></path>
	<path d="M61.7,55.2V18.8c0-1.5-1.2-2.8-2.8-2.8h-5.6v1.5H59c0.7,0,1.3,0.6,1.3,1.3v32.4H18.4v1.5h41.8v2.5H4.8v-2.5h10v-1.5h-10   V18.8c0-0.7,0.6-1.3,1.3-1.3h16.6V16H6c-1.5,0-2.8,1.2-2.8,2.8v36.4h-3.5v3L2.5,62h60l2.8-3.9v-3H61.7z M63.8,57.6l-2,2.8H3.3   l-2-2.8v-1h62.5V57.6z"></path>
	<path d="M15.8,50.4v3c0,0.4,0.3,0.8,0.7,0.8c0.4,0,0.8-0.3,0.8-0.8v-3c0-0.4-0.3-0.8-0.8-0.8C16.1,49.7,15.8,50,15.8,50.4z"></path>
	<path fill="#d20805" d="M28.8,43l8.3-4.2l-8.3-4.2V43z M30.3,37l3.5,1.8l-3.5,1.8V37z"></path>
	<path fill="#d20805" d="M20.1,46.5h24.8V31H20.1V46.5z M21.6,32.5h21.8V45H21.6V32.5z"></path>
  </g>
</svg>