<svg version="1.1" id="Capa_1" xmlns="http://www.w3.org/2000/svg" xmlns:xlink="http://www.w3.org/1999/xlink" x="0px" y="0px" viewBox="0 0 496 496" style="enable-background:new 0 0 496 496;" xml:space="preserve" width="35" height="35">
    <rect x="104" y="96" style="fill:#FFCB57;" width="288" height="232"/>
    <g>
         <rect x="128" y="32" style="fill:#E56565;" width="16" height="16"/>
         <rect x="160" y="32" style="fill:#E56565;" width="16" height="16"/>
         <rect x="192" y="32" style="fill:#E56565;" width="16" height="16"/>
         <polygon style="fill:#E56565;" points="430.656,268.44 417.344,259.56 446.384,216 417.344,172.44 430.656,163.56 465.616,216 	"/>
         <polygon style="fill:#E56565;" points="65.344,268.44 30.384,216 65.344,163.56 78.656,172.44 49.616,216 78.656,259.56 	"/>
    </g>
    <g>
         <path style="fill:#3F3A34;" d="M0,408c0,22.056,17.944,40,40,40h120v32h-32v16h240v-16h-32v-32h120c22.056,0,40-17.944,40-40v-24H0
              V408z M320,480H176v-32h144V480z M16,400h464v8c0,13.232-10.768,24-24,24H40c-13.232,0-24-10.768-24-24V400z"/>
         <path style="fill:#3F3A34;" d="M456,80h-40v16h40c13.232,0,24,10.768,24,24v248h16V120C496,97.944,478.056,80,456,80z"/>
         <path style="fill:#3F3A34;" d="M16,120c0-13.232,10.768-24,24-24h40V80H40C17.944,80,0,97.944,0,120v248h16V120z"/>
         <polygon style="fill:#3F3A34;" points="400,96 384,96 384,320 112,320 112,96 96,96 96,336 400,336 	"/>
         <path style="fill:#3F3A34;" d="M368,264h-19.976l-25.504-46.76c-0.544-1-1.208-1.904-1.816-2.848
              C330.448,204.04,336,190.32,336,176c0-30.88-25.128-56-56-56s-56,25.12-56,56c-17.736,0-34.024,9.672-42.512,25.24L147.248,264H128
              v16h240V264z M329.792,264h-29.048l-29.808-54.648c2.928-0.848,5.952-1.352,9.064-1.352c11.872,0,22.784,6.48,28.472,16.904
              L329.792,264z M240,176c0-22.056,17.944-40,40-40s40,17.944,40,40c0,9.76-3.608,19.144-9.992,26.408
              C301.6,195.776,291.08,192,280,192c-6.016,0-11.832,1.216-17.328,3.328c-5.736-7.624-13.576-13.248-22.432-16.416
              C240.168,177.936,240,176.984,240,176z M195.528,208.904C201.216,198.48,212.128,192,224,192s22.784,6.48,28.472,16.904L282.52,264
              H165.48L195.528,208.904z"/>
    </g>
    <path style="fill:#E56565;" d="M400,80H96V0h304V80z M112,64h272V16H112V64z"/>
</svg>