<?xml version="1.0" encoding="UTF-8" standalone="no"?>
<svg id="Layer_1" xmlns="http://www.w3.org/2000/svg" xml:space="preserve" class="svg-icon-media" viewBox="0 0 400 230.096" width="200" version="1.1" y="0px" x="0px" xmlns:xlink="http://www.w3.org/1999/xlink" enable-background="new 0 0 400 230.096">
                                        <path d="m327.17 5.254h-279.39c-4.199 0-7.635 3.436-7.635 7.635v181.14c0 4.199 3.436 7.635 7.635 7.635h279.38c4.199 0 7.635-3.436 7.635-7.635v-181.13c0-4.2-3.44-7.636-7.63-7.636z" fill="#DCE7E8"/>
                                        <rect y="17.517" x="52.665" height="171.89" width="269.62" fill="#FDCE07"/>
                                            <path d="m151.73 56.936c0 1.07-0.189 2.095-0.522 3.054h10.551c5.015-2.526 10.447-4.336 16.165-5.299v-0.809h-26.71c0.33 0.958 0.52 1.983 0.52 3.054z" fill="#2E2E2E"/>
                                            <path d="m197.02 53.882v0.809c5.718 0.963 11.15 2.773 16.165 5.299h10.551c-0.332-0.959-0.522-1.984-0.522-3.054s0.189-2.095 0.522-3.054h-26.71z" fill="#2E2E2E"/>
                                            <path d="m213.19 59.99c-5.015-2.526-10.446-4.336-16.165-5.299v6.204c20.62 3.902 36.905 20.186 40.807 40.807h6.204c-3.07-18.274-14.82-33.637-30.84-41.71z" fill="#2E2E2E"/>
                                            <path d="m130.92 101.7h6.204c3.902-20.621 20.186-36.905 40.807-40.807v-6.204c-5.719 0.963-11.15 2.773-16.165 5.299-16.03 8.075-27.77 23.438-30.84 41.712z" fill="#2E2E2E"/>
                                            <rect y="107.81" x="129.72" height="6.878" width="6.878" fill="#fff"/>
                                            <path d="m139.65 101.7h-12.986c-1.687 0-3.054 1.368-3.054 3.054v12.986c0 1.687 1.368 3.054 3.054 3.054h12.986c1.687 0 3.054-1.368 3.054-3.054v-12.986c0-1.68-1.37-3.05-3.06-3.05zm-3.05 12.99h-6.878v-6.878h6.878v6.88z" fill="#2E2E2E"/>
                                            <rect y="107.81" x="238.35" height="6.878" width="6.879" fill="#fff"/>
                                            <path d="m248.28 101.7h-12.987c-1.687 0-3.054 1.368-3.054 3.054v12.986c0 1.687 1.367 3.054 3.054 3.054h12.987c1.687 0 3.054-1.368 3.054-3.054v-12.986c0-1.68-1.37-3.05-3.06-3.05zm-3.05 12.99h-6.879v-6.878h6.879v6.88z" fill="#2E2E2E"/>
                                            <rect y="53.497" x="184.04" height="6.878" width="6.878" fill="#fff"/>
                                            <path d="m193.97 47.388h-12.986c-1.687 0-3.054 1.367-3.054 3.054v12.986c0 1.687 1.368 3.054 3.054 3.054h12.986c1.687 0 3.054-1.368 3.054-3.054v-12.986c0-1.686-1.37-3.054-3.05-3.054zm-3.06 12.987h-6.878v-6.878h6.878v6.878z" fill="#2E2E2E"/>
                                            <circle cy="56.936" cx="142.37" r="3.253" fill="#fff"/>
                                            <path d="m142.37 47.574c-5.162 0-9.361 4.199-9.361 9.362 0 5.162 4.199 9.361 9.361 9.361 4.092 0 7.57-2.642 8.84-6.307 0.332-0.959 0.522-1.984 0.522-3.054s-0.189-2.095-0.522-3.054c-1.27-3.665-4.75-6.308-8.84-6.308zm0 12.615c-1.794 0-3.253-1.459-3.253-3.253s1.459-3.253 3.253-3.253 3.253 1.459 3.253 3.253-1.46 3.253-3.25 3.253z" fill="#2E2E2E"/>
                                            <path d="m232.58 53.682c-1.794 0-3.254 1.459-3.254 3.253s1.46 3.253 3.254 3.253 3.253-1.459 3.253-3.253c0-1.793-1.46-3.253-3.25-3.253z" fill="#fff"/>
                                            <path d="m232.58 47.574c-4.092 0-7.57 2.643-8.84 6.307-0.332 0.959-0.522 1.984-0.522 3.054s0.189 2.095 0.522 3.054c1.27 3.665 4.749 6.307 8.84 6.307 5.162 0 9.362-4.199 9.362-9.361 0-5.161-4.2-9.361-9.36-9.361zm0 12.615c-1.794 0-3.254-1.459-3.254-3.253s1.46-3.253 3.254-3.253 3.253 1.459 3.253 3.253-1.46 3.253-3.25 3.253z" fill="#2E2E2E"/>
                                            <path d="m190.53 106.44c3.106 1.224 5.313 4.247 5.313 7.782 0 4.614-3.754 8.368-8.368 8.368s-8.368-3.754-8.368-8.368c0-3.535 2.207-6.559 5.313-7.782v-18.93l-15.858 27.466 9.521 25.327h18.78l9.522-25.327-15.858-27.466v18.926z" fill="#fff"/>
                                            <path d="m185.32 73.949c0.005-0.005 0.012-0.009 0.017-0.014-0.01 0.005-0.02 0.009-0.02 0.014z" fill="#2E2E2E"/>
                                            <path d="m188.89 73.419c0.06 0.031 0.121 0.061 0.178 0.097-0.06-0.036-0.12-0.066-0.18-0.097z" fill="#2E2E2E"/>
                                            <path d="m185.88 73.515c0.058-0.035 0.118-0.065 0.178-0.097-0.06 0.032-0.12 0.062-0.18 0.097z" fill="#2E2E2E"/>
                                            <path d="m188.2 73.153c0.065 0.016 0.127 0.039 0.19 0.059-0.06-0.02-0.13-0.043-0.19-0.059z" fill="#2E2E2E"/>
                                            <path d="m186.56 73.212c0.063-0.02 0.125-0.043 0.19-0.059-0.07 0.016-0.13 0.039-0.19 0.059z" fill="#2E2E2E"/>
                                            <path d="m190.12 74.584c-0.014-0.024-0.035-0.04-0.049-0.064 0.285 0.465 0.458 1.006 0.458 1.591v11.398l15.858 27.466-9.522 25.327h6.526l9.222-24.529c0.321-0.855 0.243-1.81-0.214-2.602l-22.29-38.596z" fill="#2E2E2E"/>
                                            <path d="m189.61 73.935c0.005 0.005 0.012 0.009 0.017 0.014 0-0.005-0.01-0.009-0.02-0.014z" fill="#2E2E2E"/>
                                            <path d="m162.55 113.17c-0.457 0.792-0.535 1.746-0.214 2.602l9.221 24.529h6.526l-9.521-25.327 15.858-27.466v-11.393c0-0.585 0.173-1.126 0.458-1.591-0.014 0.023-0.035 0.04-0.049 0.064l-22.29 38.586z" fill="#2E2E2E"/>
                                            <path d="m189.63 73.949c-0.005-0.005-0.012-0.009-0.017-0.014-0.164-0.162-0.351-0.298-0.548-0.42-0.058-0.035-0.118-0.065-0.178-0.097-0.159-0.084-0.324-0.152-0.498-0.207-0.063-0.02-0.125-0.043-0.19-0.059-0.234-0.057-0.475-0.096-0.726-0.096s-0.492 0.039-0.726 0.096c-0.065 0.016-0.127 0.039-0.19 0.059-0.173 0.055-0.339 0.123-0.498 0.207-0.06 0.031-0.121 0.061-0.178 0.097-0.197 0.121-0.384 0.258-0.548 0.42-0.005 0.005-0.012 0.009-0.017 0.014-0.17 0.17-0.312 0.365-0.439 0.571-0.285 0.465-0.458 1.006-0.458 1.591v30.328c0.948-0.373 1.976-0.585 3.054-0.585s2.107 0.212 3.054 0.585v-30.329c0-0.585-0.173-1.126-0.458-1.591-0.09-0.206-0.23-0.401-0.4-0.571z" fill="#2E2E2E"/>
                                            <circle cy="114.22" cx="187.47" r="2.259" fill="#fff"/>
                                            <path d="m190.53 106.44c-0.948-0.373-1.976-0.585-3.054-0.585-1.079 0-2.107 0.212-3.054 0.585-3.106 1.224-5.313 4.247-5.313 7.782 0 4.614 3.754 8.368 8.368 8.368s8.368-3.754 8.368-8.368c-0.02-3.53-2.23-6.56-5.33-7.78zm-3.06 10.04c-1.246 0-2.259-1.013-2.259-2.259s1.013-2.259 2.259-2.259 2.259 1.013 2.259 2.259c0 1.25-1.01 2.26-2.26 2.26z" fill="#2E2E2E"/>
                                            <polygon points="190.57 146.41 175.97 146.41 171.1 146.41 171.1 153.43 190.57 153.43 203.84 153.43 203.84 146.41 198.98 146.41" fill="#fff"/>
                                            <path d="m206.9 140.3h-38.85c-1.687 0-3.054 1.367-3.054 3.054v13.125c0 1.687 1.368 3.054 3.054 3.054h38.85c1.687 0 3.054-1.367 3.054-3.054v-13.125c0.01-1.69-1.36-3.06-3.04-3.06zm-3.06 13.13h-32.742v-7.017h32.742v7.02z" fill="#2E2E2E"/>
                                    <g fill="#BDCCD3">
                                        <path d="m4.014 203.73c0 10.516 8.604 19.121 19.121 19.121h328.68c10.516 0 19.121-8.604 19.121-19.121v-2.55h-366.93v2.55z"/>
                                        <path d="m4.014 203.73c0 10.516 8.604 19.121 19.121 19.121h328.68c10.516 0 19.121-8.604 19.121-19.121v-2.55h-366.93v2.55z"/>
                                    </g>
                                    <path d="m321.17 108.6c-3.23 15.965-3.599 30.871-1.345 42.467 1.488-3.514 3.183-7.045 5.104-10.555 0.019-0.062 0.034-0.123 0.053-0.185 8.026-26.19 21.455-46.417 34.459-54.219-0.691-0.404-1.399-0.772-2.141-1.06-10.99-4.3-24.73 5.454-36.12 23.539z" fill="#179F74"/>
                                    <path d="m393.12 99.766c-14.547-12.412-42.483 1.56-62.396 31.207-2.108 3.138-4.039 6.327-5.793 9.534-1.921 3.51-3.616 7.041-5.104 10.555 0.494 2.54 1.118 4.913 1.86 7.111h16.083c2.906-7.06 6.691-14.209 11.332-21.118 13.805-20.553 31.463-33.563 45.846-35.48-0.58-0.63-1.18-1.25-1.83-1.804z" fill="#4ABA78"/>
                                    <path d="m306.33 95.007c-3.88 12.661-5.996 25.1-6.483 36.295 2.39 10.117 5.724 19.248 9.622 26.872h12.211c-0.742-2.199-1.366-4.572-1.86-7.111-2.254-11.596-1.885-26.502 1.345-42.467 0.998-4.932 2.259-9.961 3.813-15.03 8.026-26.19 21.455-46.417 34.459-54.219-0.691-0.404-1.399-0.772-2.141-1.061-16.56-6.445-39.38 18.95-50.96 56.727z" fill="#4ABA78"/>
                                    <path d="m298.67 125.84c-4.657-23.818-2.827-45.959 3.753-58.553-0.684 0.055-1.365 0.145-2.04 0.313-15.071 3.743-21.842 34.629-15.124 68.984 1.517 7.759 3.596 15.026 6.074 21.591h18.14c-3.898-7.623-7.233-16.755-9.622-26.872-0.42-1.79-0.82-3.61-1.18-5.46z" fill="#4ABA78"/>
                                    <path d="m340.92 158.17h-11.08-0.232-14.031-14.031-2.29-11.903c-2.188 0-3.671 3.553-3.296 7.896l4.219 48.884c0.375 4.343 4.248 7.896 8.607 7.896h33.686c4.359 0 8.232-3.553 8.607-7.896l4.219-48.884c0.36-4.34-0.75-7.9-2.49-7.9z" fill="red"/>
                            </svg>
