<?xml version="1.0" encoding="UTF-8" standalone="no"?>
<svg id="Layer_1" xmlns="http://www.w3.org/2000/svg" xml:space="preserve" class="svg-icon-small" viewBox="0 0 400 323.932" width="150" version="1.1" y="0px" x="0px" xmlns:xlink="http://www.w3.org/1999/xlink" enable-background="new 0 0 400 323.932">
                                    <path d="m391.47 1.692h-359.72c-4.27 0-7.763 3.493-7.763 7.763v221.86c0 4.27 3.493 7.763 7.763 7.763h359.72c4.27 0 7.763-3.493 7.763-7.763v-221.86c0-4.275-3.49-7.768-7.76-7.768z" fill="#BDCBD3"/>
                                    <rect y="31.701" x="39.642" height="176.4" width="343.94" fill="#fff"/>
                                    <rect y="17.081" x="39.642" height="14.62" width="343.94" fill="#53A5DC"/>
                                    <polygon points="211.61 239.08 172.69 239.08 154.02 307.94 211.61 307.94 269.2 307.94 250.53 239.08" fill="#BDCBD3"/>
                                    <polygon points="172.69 239.08 170.02 248.94 253.21 248.94 250.53 239.08" fill="#A4B8C1"/>
                                    <rect y="43.342" x="51.216" height="153.12" width="320.79" fill="#53A5DC"/>
                                    <rect y="217.82" x="205.84" height="11.542" width="11.542" fill="#2E2E2E"/>
                                        <path d="m348.57 273.51c-11.687 0-21.16 9.474-21.16 21.16h42.32c0-11.69-9.47-21.16-21.16-21.16z" fill="#BDCBD3"/>
                                        <rect y="294.67" x="327.41" height="13.271" width="42.32" fill="#A4B8C1"/>
                                    <path d="m278.15 293.32h-133.07c-1.708 0-3.105 1.397-3.105 3.105v8.409c0 1.708 1.397 3.105 3.105 3.105h133.07c1.708 0 3.105-1.397 3.105-3.105v-8.409c-0.01-1.71-1.4-3.11-3.11-3.11z" fill="#A4B8C1"/>
                                        <path d="m357.75 95.445h-205.78c-1.715 0-3.105 1.39-3.105 3.105s1.39 3.105 3.105 3.105h205.78c1.715 0 3.105-1.39 3.105-3.105 0.01-1.72-1.38-3.11-3.09-3.11z" fill="#2E2E2E"/>
                                        <path d="m128.33 95.445h-62.724c-1.715 0-3.105 1.39-3.105 3.105s1.39 3.105 3.105 3.105h62.723c1.715 0 3.105-1.39 3.105-3.105-0.01-1.72-1.4-3.11-3.11-3.11z" fill="#fff"/>
                                        <path d="m131.8 52.567h-66.194c-1.715 0-3.105 1.39-3.105 3.105s1.39 3.105 3.105 3.105h66.198c1.715 0 3.105-1.39 3.105-3.105s-1.38-3.105-3.1-3.105z" fill="#fff"/>
                                        <path d="m357.75 116.84h-28.504c-1.715 0-3.105 1.39-3.105 3.105s1.39 3.105 3.105 3.105h28.504c1.715 0 3.105-1.39 3.105-3.105 0.01-1.71-1.38-3.1-3.09-3.1z" fill="#fff"/>
                                        <path d="m305.61 116.84h-109.15c-1.715 0-3.105 1.39-3.105 3.105s1.39 3.105 3.105 3.105h109.15c1.715 0 3.105-1.39 3.105-3.105-0.01-1.71-1.4-3.1-3.11-3.1z" fill="#2E2E2E"/>
                                        <path d="m172.82 116.84h-107.34c-1.715 0-3.105 1.39-3.105 3.105s1.39 3.105 3.105 3.105h107.35c1.715 0 3.105-1.39 3.105-3.105-0.01-1.71-1.4-3.1-3.12-3.1z" fill="#2E2E2E"/>
                                        <path d="m357.75 138.24h-77.864c-1.715 0-3.105 1.39-3.105 3.105s1.39 3.105 3.105 3.105h77.864c1.715 0 3.105-1.39 3.105-3.105s-1.38-3.1-3.09-3.1z" fill="#fff"/>
                                        <path d="m256.25 138.24h-100.11c-1.715 0-3.105 1.39-3.105 3.105s1.39 3.105 3.105 3.105h100.11c1.715 0 3.105-1.39 3.105-3.105s-1.4-3.1-3.11-3.1z" fill="#2E2E2E"/>
                                        <path d="m131.11 138.24h-65.45c-1.715 0-3.105 1.39-3.105 3.105s1.39 3.105 3.105 3.105h65.45c1.715 0 3.105-1.39 3.105-3.105s-1.4-3.1-3.11-3.1z" fill="#fff"/>
                                        <path d="m357.75 159.63h-292.27c-1.715 0-3.105 1.39-3.105 3.105s1.39 3.105 3.105 3.105h292.27c1.715 0 3.105-1.39 3.105-3.105s-1.4-3.11-3.11-3.11z" fill="#2E2E2E"/>
                                        <path d="m357.75 181.03h-120.97c-1.715 0-3.105 1.39-3.105 3.105s1.39 3.105 3.105 3.105h120.97c1.715 0 3.105-1.39 3.105-3.105-0.01-1.72-1.4-3.11-3.11-3.11z" fill="#fff"/>
                                        <path d="m213.14 181.03h-57.006c-1.715 0-3.105 1.39-3.105 3.105s1.39 3.105 3.105 3.105h57.006c1.715 0 3.105-1.39 3.105-3.105 0.01-1.72-1.38-3.11-3.1-3.11z" fill="#2E2E2E"/>
                                        <path d="m131.8 181.03h-66.29c-1.715 0-3.105 1.39-3.105 3.105s1.39 3.105 3.105 3.105h66.29c1.715 0 3.105-1.39 3.105-3.105 0.01-1.72-1.38-3.11-3.1-3.11z" fill="#fff"/>
                                        <path d="m94.683 73.963h-29.078c-1.715 0-3.105 1.39-3.105 3.105s1.39 3.105 3.105 3.105h29.078c1.715 0 3.105-1.39 3.105-3.105s-1.39-3.105-3.105-3.105z" fill="#fff"/>
                                        <path d="m175.33 73.963h-57.01c-1.715 0-3.105 1.39-3.105 3.105s1.39 3.105 3.105 3.105h57.007c1.715 0 3.105-1.39 3.105-3.105-0.01-1.715-1.4-3.105-3.11-3.105z" fill="#2E2E2E"/>
                                        <path d="m357.75 73.963h-158.09c-1.715 0-3.105 1.39-3.105 3.105s1.39 3.105 3.105 3.105h158.09c1.715 0 3.105-1.39 3.105-3.105-0.01-1.715-1.4-3.105-3.11-3.105z" fill="#2E2E2E"/>
                                        <path d="m167.09 273.38h-153.58c-6.113 0-11.068 7.719-11.068 17.242 0 9.522 4.955 17.242 11.068 17.242h153.59c-6.113 0-11.068-7.719-11.068-17.242-0.01-9.52 4.95-17.24 11.06-17.24z" fill="#606DB3"/>
                                        <path d="m8.295 290.62c0 6.762 3.519 12.245 7.86 12.245h141.77v-24.489h-141.76c-4.345 0.01-7.865 5.49-7.865 12.25z" fill="#fff"/>
                                    <path d="m135.04 213.8h-126.74c-1.715 0-3.105 1.39-3.105 3.105s1.39 3.105 3.105 3.105c2.852 0 6.029 4.567 6.029 11.122s-3.177 11.123-6.029 11.123c-1.715 0-3.105 1.39-3.105 3.105s1.39 3.105 3.105 3.105h126.74c6.863 0 12.239-7.615 12.239-17.334 0-9.7-5.38-17.31-12.24-17.31z" fill="#4ABA78"/>
                                    <polygon points="27.497 317.32 36.527 311.59 45.556 317.32 45.556 291.25 27.497 291.25" fill="#F15A53"/>
                                        <rect y="245.88" x="17.073" height="27.497" width="138.52" fill="#F15A53"/>
                                        <g fill="#FCD81F">
                                            <rect y="249.54" x="134.01" height="20.183" width="9.303"/>
                                            <rect y="249.54" x="29.348" height="20.183" width="9.304"/>
                                        </g>
                                        <g fill="#2E2E2E">
                                            <path d="m85.234 256.53h-39.282c-1.715 0-3.105 1.39-3.105 3.105s1.39 3.105 3.105 3.105h39.281c1.715 0 3.105-1.39 3.105-3.105 0.001-1.72-1.389-3.11-3.104-3.11z"/>
                                            <path d="m126.71 256.53h-27.133c-1.715 0-3.105 1.39-3.105 3.105s1.39 3.105 3.105 3.105h27.135c1.715 0 3.105-1.39 3.105-3.105 0-1.72-1.39-3.11-3.11-3.11z"/>
                                        </g>
                            </svg>
