<svg version="1.1" id="Capa_1" xmlns="http://www.w3.org/2000/svg" xmlns:xlink="http://www.w3.org/1999/xlink" x="0px" y="0px" viewBox="0 0 511.999 511.999" style="enable-background:new 0 0 511.999 511.999;" xml:space="preserve" class="svg-icon-size">
   <g>
		<g>
			 <path d="M441.282,310.009V201.614c24.452-4.689,42.985-26.241,42.985-52.039c0-29.216-23.77-52.986-52.985-52.986
				  c-17.614,0-33.249,8.64-42.888,21.904l-82.509-47.637c2.007-5.585,3.101-11.602,3.101-17.869C308.984,23.77,285.215,0,255.999,0
				  c-29.216,0-52.986,23.77-52.986,52.986c0,6.268,1.094,12.284,3.101,17.87l-82.509,47.637
				  c-9.639-13.264-25.273-21.903-42.887-21.903c-29.216,0-52.986,23.77-52.986,52.986c0,25.799,18.534,47.35,42.986,52.039v108.394
				  c-24.452,4.689-42.986,26.241-42.986,52.039c0,29.216,23.77,52.985,52.986,52.985c17.496,0,33.039-8.524,42.694-21.638
				  l82.703,47.748c-2.007,5.585-3.101,11.602-3.101,17.87c0,29.216,23.77,52.986,52.986,52.986s52.985-23.77,52.985-52.986
				  c0-6.267-1.094-12.284-3.101-17.87l82.703-47.748c9.655,13.114,25.198,21.638,42.694,21.638c29.216,0,52.985-23.769,52.985-52.985
				  C484.267,336.249,465.733,314.698,441.282,310.009z M431.282,116.589c18.189,0,32.985,14.797,32.985,32.986
				  c0,18.189-14.797,32.986-32.985,32.986s-32.986-14.797-32.986-32.986C398.296,131.386,413.092,116.589,431.282,116.589z
				  M295.683,88.06l84.201,48.613c-1.037,4.131-1.588,8.453-1.588,12.902c0,6.495,1.175,12.721,3.323,18.477l-78.466,47.628
				  c-9.336-10.902-22.377-18.54-37.153-20.943v-89.711C277.715,102.779,288.072,96.661,295.683,88.06z M298.067,256
				  c0,23.196-18.872,42.068-42.068,42.068c-23.197,0-42.068-18.872-42.068-42.068c0-23.197,18.872-42.068,42.068-42.068
				  S298.067,232.804,298.067,256z M255.999,20c18.188,0,32.985,14.797,32.985,32.986c0,18.188-14.797,32.986-32.985,32.986
				  c-18.189,0-32.986-14.797-32.986-32.986C223.014,34.797,237.811,20,255.999,20z M47.731,149.575
				  c0-18.188,14.797-32.986,32.986-32.986c18.188,0,32.985,14.797,32.985,32.986c0,18.189-14.797,32.986-32.985,32.986
				  C62.528,182.561,47.731,167.763,47.731,149.575z M80.717,395.033c-18.188,0-32.986-14.797-32.986-32.985
				  s14.797-32.986,32.986-32.986c18.188,0,32.985,14.797,32.985,32.986C113.702,380.236,98.905,395.033,80.717,395.033z
				  M120.191,326.737c-7.591-8.477-17.865-14.503-29.472-16.729V201.614c24.452-4.689,42.985-26.241,42.985-52.039
				  c0-4.448-0.551-8.77-1.588-12.902l84.2-48.613c7.611,8.601,17.968,14.719,29.684,16.966v89.711
				  c-13.361,2.173-25.303,8.626-34.37,17.902l-26.622-15.719c-4.755-2.808-10.886-1.229-13.695,3.526
				  c-2.808,4.756-1.229,10.887,3.526,13.695l25.253,14.911c-3.946,8.154-6.16,17.297-6.16,26.947c0,8.212,1.603,16.057,4.513,23.238
				  L120.191,326.737z M255.999,491.999c-18.189,0-32.986-14.797-32.986-32.986c0-18.189,14.797-32.986,32.986-32.986
				  c18.188,0,32.985,14.797,32.985,32.986C288.984,477.202,274.187,491.999,255.999,491.999z M379.967,375.278l-84.285,48.662
				  c-9.715-10.979-23.905-17.912-39.683-17.912c-15.779,0-29.968,6.933-39.684,17.912l-84.285-48.662
				  c1.091-4.23,1.672-8.663,1.672-13.23c0-6.38-1.133-12.5-3.209-18.169l78.353-47.559c9.335,10.902,22.377,18.54,37.153,20.943
				  v32.391c0,5.523,4.477,10,10,10c5.522,0,10-4.477,10-10v-32.391c16.686-2.714,31.161-12.104,40.584-25.332l77.614,45.828
				  c-3.771,7.28-5.902,15.54-5.902,24.289C378.296,366.614,378.876,371.048,379.967,375.278z M315.428,273.928
				  c1.716-5.678,2.639-11.698,2.639-17.929c0-8.212-1.603-16.057-4.513-23.238l78.473-47.633
				  c7.569,8.349,17.757,14.281,29.254,16.485v108.394c-9.27,1.779-17.688,5.98-24.569,11.916L315.428,273.928z M431.282,395.033
				  c-18.188,0-32.986-14.797-32.986-32.985s14.798-32.986,32.986-32.986c18.189,0,32.985,14.797,32.985,32.986
				  C464.267,380.236,449.47,395.033,431.282,395.033z"/>
		</g>
   </g>
   <g>
		<g>
			 <path d="M265.799,383.349c-0.12-0.639-0.32-1.269-0.57-1.87c-0.25-0.61-0.56-1.19-0.92-1.73c-0.359-0.55-0.779-1.06-1.24-1.52
				  c-0.46-0.46-0.97-0.88-1.52-1.24c-0.54-0.36-1.12-0.67-1.73-0.92c-0.6-0.25-1.229-0.44-1.869-0.57c-1.28-0.26-2.61-0.26-3.9,0
				  c-0.64,0.13-1.27,0.32-1.87,0.57c-0.61,0.25-1.19,0.56-1.73,0.92c-0.55,0.36-1.06,0.78-1.52,1.24c-0.46,0.46-0.88,0.97-1.24,1.52
				  c-0.36,0.54-0.67,1.12-0.92,1.73c-0.25,0.6-0.45,1.23-0.57,1.87c-0.13,0.64-0.2,1.3-0.2,1.95s0.07,1.31,0.2,1.96
				  c0.12,0.63,0.32,1.26,0.57,1.87c0.25,0.6,0.56,1.18,0.92,1.72c0.36,0.55,0.78,1.06,1.24,1.52c0.46,0.461,0.97,0.88,1.52,1.25
				  c0.54,0.36,1.12,0.67,1.73,0.92c0.6,0.25,1.23,0.44,1.87,0.57c0.64,0.13,1.3,0.19,1.95,0.19c0.65,0,1.31-0.06,1.95-0.19
				  s1.27-0.32,1.869-0.57c0.61-0.25,1.19-0.56,1.73-0.92c0.55-0.37,1.06-0.789,1.52-1.25c0.461-0.46,0.881-0.97,1.24-1.52
				  c0.36-0.539,0.67-1.12,0.92-1.72c0.25-0.61,0.45-1.24,0.57-1.87c0.13-0.65,0.2-1.31,0.2-1.96
				  C265.999,384.649,265.929,383.989,265.799,383.349z"/>
		</g>
   </g>
   <g>
		<g>
			 <path d="M158.109,184.909c-0.13-0.64-0.32-1.27-0.57-1.87c-0.25-0.6-0.56-1.19-0.92-1.73c-0.36-0.54-0.78-1.06-1.24-1.52
				  c-0.46-0.46-0.97-0.88-1.52-1.24c-0.54-0.36-1.12-0.67-1.73-0.92c-0.6-0.25-1.23-0.44-1.87-0.57c-1.29-0.26-2.62-0.26-3.91,0
				  c-0.63,0.13-1.26,0.32-1.87,0.57c-0.6,0.25-1.18,0.56-1.72,0.92c-0.55,0.36-1.06,0.78-1.52,1.24s-0.88,0.98-1.25,1.52
				  c-0.36,0.54-0.67,1.13-0.92,1.73c-0.24,0.6-0.44,1.23-0.57,1.87c-0.12,0.64-0.19,1.3-0.19,1.95c0,2.64,1.07,5.21,2.93,7.07
				  c0.459,0.47,0.97,0.881,1.519,1.25c0.54,0.36,1.12,0.67,1.72,0.92c0.61,0.25,1.24,0.44,1.87,0.57c0.65,0.13,1.31,0.19,1.961,0.19
				  c0.65,0,1.309-0.06,1.95-0.19c0.64-0.13,1.27-0.32,1.87-0.57c0.61-0.25,1.19-0.56,1.73-0.92c0.55-0.37,1.06-0.78,1.52-1.25
				  c1.86-1.86,2.93-4.43,2.93-7.07C158.309,186.209,158.239,185.549,158.109,184.909z"/>
		</g>
   </g>
</svg>