<svg xmlns="http://www.w3.org/2000/svg" viewBox="0 0 512 512" enable-background="new 0 0 512 512"><path fill="#E2E5E7" d="M128 0c-17.6 0-32 14.4-32 32v448c0 17.6 14.4 32 32 32h320c17.6 0 32-14.4 32-32V128L352 0H128z"/><path fill="#B0B7BD" d="M384 128h96L352 0v96c0 17.6 14.4 32 32 32z"/><path fill="#CAD1D8" d="M480 224l-96-96h96z"/><path fill="#50BEE8" d="M416 416c0 8.8-7.2 16-16 16H48c-8.8 0-16-7.2-16-16V256c0-8.8 7.2-16 16-16h352c8.8 0 16 7.2 16 16v160z"/><g fill="#fff"><path d="M131.28 326.18l22.27-27.9c6.64-8.68 19.57 2.44 12.3 10.76-7.67 9.1-15.74 18.94-23.43 29.02l26.1 32.5c7.03 9.6-7.03 18.82-13.94 9.34l-23.54-30.2-23.15 30.84c-6.54 9.33-21-1.15-13.7-9.85l25.72-32.64c-8.06-10.1-15.87-19.93-23.66-29.02-8.07-9.6 6.9-19.44 12.78-10.48l22.24 27.62zM201.26 327.84v47.33c0 5.65-4.6 8.83-9.2 8.83-4.1 0-7.68-3.18-7.68-8.83v-72.02c0-6.65 5.65-8.85 7.68-8.85 3.7 0 5.88 2.2 8.05 4.63l28.17 37.98 29.15-39.4c4.24-5.23 14.6-3.2 14.6 5.65v72.02c0 5.65-3.6 8.83-7.67 8.83-4.6 0-8.2-3.18-8.2-8.83v-47.33l-21.24 26.86c-4.58 5.65-10.34 5.65-14.56 0l-19.08-26.86zM294.3 303.15c0-4.22 3.57-7.8 8.05-7.8 4.1 0 7.55 3.6 7.55 7.8v64.1h34.8c12.53 0 12.8 16.75 0 16.75h-42.33c-4.48 0-8.07-3.18-8.07-7.8v-73.05z"/></g><path fill="#CAD1D8" d="M400 432H96v16h304c8.8 0 16-7.2 16-16v-16c0 8.8-7.2 16-16 16z"/></svg>